<?xml version="1.0" encoding="UTF-8"?>
<svg version="1.1" xmlns="http://www.w3.org/2000/svg" width="1024" height="1536">
<path d="M0 0 C337.92 0 675.84 0 1024 0 C1024 506.88 1024 1013.76 1024 1536 C686.08 1536 348.16 1536 0 1536 C0 1029.12 0 522.24 0 0 Z " fill="#080808" transform="translate(0,0)"/>
<path d="M0 0 C3.10737428 1.28326691 4.07255571 2.56100186 5.96875 5.33203125 C6.99935547 6.83056641 6.99935547 6.83056641 8.05078125 8.359375 C8.85880862 9.57807844 9.66461631 10.79825515 10.46875 12.01953125 C10.93845215 12.72609863 11.4081543 13.43266602 11.89208984 14.16064453 C43.06446176 61.15361864 69.645249 110.48902974 92.46875 162.01953125 C92.99178711 163.19950684 93.51482422 164.37948242 94.05371094 165.59521484 C128.65538275 244.0849538 157.42334611 326.72175938 157.88458252 413.28921509 C157.89877563 415.8964893 157.91823177 418.50374141 157.94354248 421.1109314 C158.45600388 484.36820454 137.90057922 547.0936493 93.46875 593.01953125 C92.51742187 594.03080078 92.51742187 594.03080078 91.546875 595.0625 C86.60439162 600.20503628 81.04661828 604.59068929 75.46875 609.01953125 C74.49035156 609.81488281 73.51195312 610.61023437 72.50390625 611.4296875 C63.65152956 618.47363414 54.23903496 624.33564371 44.46875 630.01953125 C43.53772461 630.57253906 43.53772461 630.57253906 42.58789062 631.13671875 C27.8670396 639.82871957 11.43744725 645.75891529 -5.09375 649.95703125 C-5.82875732 650.14418701 -6.56376465 650.33134277 -7.32104492 650.52416992 C-9.71577271 651.08951474 -12.11201105 651.57004778 -14.53125 652.01953125 C-15.51988037 652.20354492 -16.50851074 652.38755859 -17.52709961 652.57714844 C-29.11128231 654.42115113 -40.71117237 654.39174992 -52.41577148 654.39013672 C-55.93067861 654.39448416 -59.44430021 654.43083858 -62.95898438 654.46875 C-119.80649582 654.75198278 -170.56499069 631.61910158 -211.53125 593.01953125 C-212.31371094 592.29121094 -213.09617187 591.56289062 -213.90234375 590.8125 C-241.96370812 563.85158129 -257.47874001 525.64118094 -264.84375 488.08203125 C-265.00319092 487.27918701 -265.16263184 486.47634277 -265.3269043 485.64916992 C-267.60635319 473.25364504 -267.7385362 460.64956602 -267.71875 448.08203125 C-267.71814575 447.36509094 -267.7175415 446.64815063 -267.71691895 445.90948486 C-267.60179129 395.21260006 -254.1585107 346.88308471 -230.59863281 302.06884766 C-229.40440955 299.77600454 -228.24512594 297.46699473 -227.0859375 295.15625 C-216.79189019 274.82221148 -204.3780945 256.09550235 -190.53125 238.01953125 C-190.03496094 237.37016602 -189.53867187 236.72080078 -189.02734375 236.05175781 C-182.88201642 228.04357581 -176.46316745 220.28945084 -169.89746094 212.62402344 C-168.53809087 211.02756524 -167.19283415 209.42027518 -165.8515625 207.80859375 C-160.48510847 201.37430501 -154.95659801 195.13725838 -149.20947266 189.03930664 C-146.43842042 186.09621861 -143.72608259 183.11772946 -141.07421875 180.06640625 C-137.66898089 176.15202209 -134.15442917 172.35491397 -130.59375 168.58203125 C-129.95187744 167.89955322 -129.31000488 167.2170752 -128.64868164 166.51391602 C-126.61091625 164.34781854 -124.57122274 162.18354984 -122.53125 160.01953125 C-121.18479551 158.58993823 -119.83844087 157.16025117 -118.4921875 155.73046875 C-117.82767578 155.0247876 -117.16316406 154.31910645 -116.47851562 153.59204102 C-113.81241114 150.75979081 -111.14798777 147.92596077 -108.48339844 145.09228516 C-106.56779703 143.05833618 -104.64746225 141.02894414 -102.7265625 139 C-96.79250336 132.7129388 -91.06145327 126.37886339 -85.6640625 119.6171875 C-83.41995725 116.88398239 -81.06257247 114.29816532 -78.65625 111.70703125 C-73.93566498 106.57120959 -69.6413581 101.1930844 -65.37890625 95.6796875 C-63.47959006 93.22402585 -61.5511187 90.79708542 -59.58984375 88.390625 C-52.1246615 79.22703442 -45.20605966 69.77252984 -38.53125 60.01953125 C-38.02561523 59.28299316 -37.51998047 58.54645508 -36.99902344 57.78759766 C-26.71787629 42.75753969 -17.39758058 27.61156339 -9.92919922 10.97338867 C-4.93942715 0.03811286 -4.93942715 0.03811286 0 0 Z " fill="#EA101D" transform="translate(552.53125,439.98046875)"/>
<path d="M0 0 C0.33 0 0.66 0 1 0 C1.76847515 26.16017494 -5.68723736 53.53207485 -11 79 C-11.14052795 79.68024231 -11.28105591 80.36048462 -11.42584229 81.06134033 C-21.09340189 127.81736326 -36.00327077 173.97988934 -54.21099854 218.0859375 C-78.09735722 274.65313085 -78.09735722 274.65313085 -93 334 C-93.11126221 334.68320312 -93.22252441 335.36640625 -93.3371582 336.0703125 C-99.0630308 375.7615956 -85.8378981 410.71110781 -64 443 C-98.31410326 440.47635025 -125.88455811 426.72635224 -149 401 C-170.19831379 375.87711451 -176.94246201 344.46885411 -174.4831543 312.35107422 C-170.26142178 264.12164824 -148.037421 219.76053792 -121.37402344 180.04785156 C-119.91913879 177.87948404 -118.47820444 175.70228155 -117.0390625 173.5234375 C-102.0406939 150.85912865 -86.30103864 128.73288714 -70.35449219 106.72949219 C-50.46939799 79.28262717 -30.63129639 51.69732002 -13.56640625 22.3828125 C-10.74032226 17.53714753 -7.84940646 12.73199006 -4.9375 7.9375 C-4.22110352 6.74846069 -4.22110352 6.74846069 -3.49023438 5.53540039 C-2.35517054 3.67269435 -1.18160989 1.83353259 0 0 Z " fill="#090808" transform="translate(543,604)"/>
<path d="M0 0 C5.80239614 -0.04934656 11.60467081 -0.08569402 17.40722656 -0.10986328 C19.38218309 -0.11993627 21.35712466 -0.13359521 23.33203125 -0.15087891 C26.16670418 -0.17507039 29.00118038 -0.18646991 31.8359375 -0.1953125 C32.72243988 -0.20563507 33.60894226 -0.21595764 34.52230835 -0.22659302 C36.68285952 -0.2269907 38.84293718 -0.12272534 41 0 C43.69776637 2.69776637 43.23845196 4.78769885 43.25224304 8.45204163 C43.24505753 9.33540695 43.23787201 10.21877228 43.23046875 11.12890625 C43.23001053 12.03374252 43.22955231 12.9385788 43.2290802 13.87083435 C43.2260567 15.78491527 43.2181675 17.69899369 43.20581055 19.61303711 C43.18755301 22.55396165 43.18530083 25.49457158 43.18554688 28.43554688 C43.18063186 30.29166941 43.17480362 32.14778979 43.16796875 34.00390625 C43.16685593 34.88929581 43.1657431 35.77468536 43.16459656 36.68690491 C43.11604529 42.88395471 43.11604529 42.88395471 42 44 C38.98191937 44.101137 35.98719487 44.13968909 32.96875 44.1328125 C32.06249878 44.13376923 31.15624756 44.13472595 30.22253418 44.13571167 C28.30248953 44.13639353 26.38244259 44.13453882 24.46240234 44.13037109 C21.51264296 44.12502292 18.56303586 44.13031588 15.61328125 44.13671875 C13.75260383 44.13605797 11.8919265 44.13477681 10.03125 44.1328125 C8.69846008 44.13584885 8.69846008 44.13584885 7.33874512 44.13894653 C1.11494988 44.11494988 1.11494988 44.11494988 0 43 C-0.09268999 41.64905018 -0.11747326 40.29332909 -0.11352539 38.93920898 C-0.11344986 38.07839218 -0.11337433 37.21757538 -0.11329651 36.33067322 C-0.10813522 35.39526199 -0.10297394 34.45985077 -0.09765625 33.49609375 C-0.0962413 32.54307877 -0.09482635 31.59006378 -0.09336853 30.60816956 C-0.08775152 27.55124835 -0.07519616 24.49439923 -0.0625 21.4375 C-0.05748719 19.37044376 -0.05292391 17.30338638 -0.04882812 15.23632812 C-0.03777656 10.15752412 -0.02050055 5.0787743 0 0 Z " fill="#EC101D" transform="translate(719,549)"/>
<path d="M0 0 C5.82071622 -0.02464638 11.64140234 -0.0428343 17.4621582 -0.05493164 C19.44393441 -0.05997267 21.42570689 -0.06680538 23.4074707 -0.07543945 C26.24952109 -0.08751515 29.09152247 -0.09323045 31.93359375 -0.09765625 C32.82525742 -0.10281754 33.71692108 -0.10797882 34.63560486 -0.11329651 C36.75740601 -0.11349177 38.8791078 -0.0621003 41 0 C42.92257175 1.92257175 42.12908424 4.78085108 42.13894653 7.33874512 C42.1369223 8.22727173 42.13489807 9.11579834 42.1328125 10.03125 C42.13376923 10.93750122 42.13472595 11.84375244 42.13571167 12.77746582 C42.13639353 14.69751047 42.13453882 16.61755741 42.13037109 18.53759766 C42.12502292 21.48735704 42.13031588 24.43696414 42.13671875 27.38671875 C42.13605797 29.24739617 42.13477681 31.1080735 42.1328125 32.96875 C42.13483673 33.85727661 42.13686096 34.74580322 42.13894653 35.66125488 C42.11494988 41.88505012 42.11494988 41.88505012 41 43 C37.98191937 43.101137 34.98719487 43.13968909 31.96875 43.1328125 C31.06249878 43.13376923 30.15624756 43.13472595 29.22253418 43.13571167 C27.30248953 43.13639353 25.38244259 43.13453882 23.46240234 43.13037109 C20.51264296 43.12502292 17.56303586 43.13031588 14.61328125 43.13671875 C12.75260383 43.13605797 10.8919265 43.13477681 9.03125 43.1328125 C7.69846008 43.13584885 7.69846008 43.13584885 6.33874512 43.13894653 C0.11494988 43.11494988 0.11494988 43.11494988 -1 42 C-1.10112813 39.06633032 -1.1396904 36.15669827 -1.1328125 33.22265625 C-1.13376923 32.34097275 -1.13472595 31.45928925 -1.13571167 30.55088806 C-1.13639359 28.68211801 -1.13453851 26.81334561 -1.13037109 24.94458008 C-1.12502932 22.07823372 -1.13031242 19.21204453 -1.13671875 16.34570312 C-1.13605785 14.53385382 -1.13477643 12.72200461 -1.1328125 10.91015625 C-1.13584885 9.61791893 -1.13584885 9.61791893 -1.13894653 8.29957581 C-1.11495439 2.22990878 -1.11495439 2.22990878 0 0 Z " fill="#E90F1C" transform="translate(659,455)"/>
<path d="M0 0 C1.01582405 -0.00143509 1.01582405 -0.00143509 2.0521698 -0.00289917 C3.4715484 -0.00357539 4.89093019 -0.00176031 6.31030273 0.00244141 C8.49144303 0.00783966 10.67238131 0.00245631 12.85351562 -0.00390625 C14.23567754 -0.00324619 15.61783933 -0.00196652 17 0 C18.25530518 0.00112793 19.51061035 0.00225586 20.80395508 0.00341797 C23.66796875 0.1328125 23.66796875 0.1328125 24.66796875 1.1328125 C24.76910575 4.15089313 24.80765784 7.14561763 24.80078125 10.1640625 C24.80173798 11.07031372 24.8026947 11.97656494 24.80368042 12.91027832 C24.80436228 14.83032297 24.80250757 16.75036991 24.79833984 18.67041016 C24.79299167 21.62016954 24.79828463 24.56977664 24.8046875 27.51953125 C24.80402672 29.38020867 24.80274556 31.240886 24.80078125 33.1015625 C24.80280548 33.99008911 24.80482971 34.87861572 24.80691528 35.79406738 C24.78291863 42.01786262 24.78291863 42.01786262 23.66796875 43.1328125 C20.64988812 43.2339495 17.65516362 43.27250159 14.63671875 43.265625 C13.73046753 43.26658173 12.82421631 43.26753845 11.89050293 43.26852417 C9.97045828 43.26920603 8.05041134 43.26735132 6.13037109 43.26318359 C3.18061171 43.25783542 0.23100461 43.26312838 -2.71875 43.26953125 C-4.57942742 43.26887047 -6.44010475 43.26758931 -8.30078125 43.265625 C-9.63357117 43.26866135 -9.63357117 43.26866135 -10.99328613 43.27175903 C-17.21708137 43.24776238 -17.21708137 43.24776238 -18.33203125 42.1328125 C-18.42071424 39.17575929 -18.44723421 36.24216194 -18.4296875 33.28515625 C-18.42827255 32.3987294 -18.4268576 31.51230255 -18.42539978 30.59901428 C-18.4197834 27.75607996 -18.40722816 24.91322319 -18.39453125 22.0703125 C-18.38951836 20.14778759 -18.38495509 18.22526146 -18.38085938 16.30273438 C-18.36980866 11.57939701 -18.35253308 6.85611792 -18.33203125 2.1328125 C-17.34203125 2.1328125 -16.35203125 2.1328125 -15.33203125 2.1328125 C-15.66203125 2.4628125 -15.99203125 2.7928125 -16.33203125 3.1328125 C-16.49219038 5.94235784 -16.59161231 8.73074696 -16.6484375 11.54296875 C-16.66708862 12.28897339 -16.68573975 13.03497803 -16.70495605 13.80358887 C-16.77345512 16.60070514 -16.83347501 19.39802386 -16.89453125 22.1953125 C-17.03890625 28.4446875 -17.18328125 34.6940625 -17.33203125 41.1328125 C-4.13203125 41.1328125 9.06796875 41.1328125 22.66796875 41.1328125 C22.66796875 28.2628125 22.66796875 15.3928125 22.66796875 2.1328125 C10.78796875 2.1328125 -1.09203125 2.1328125 -13.33203125 2.1328125 C-13.33203125 1.8028125 -13.33203125 1.4728125 -13.33203125 1.1328125 C-8.83560472 0.26298222 -4.57688035 0.00409407 0 0 Z " fill="#F71520" transform="translate(676.33203125,454.8671875)"/>
<path d="M0 0 C0 5.75654999 -3.82708866 10.40474909 -7 15 C-7.66 14.67 -8.32 14.34 -9 14 C-7.68918099 11.85312331 -6.37643389 9.70746901 -5.0625 7.5625 C-4.68931641 6.95083984 -4.31613281 6.33917969 -3.93164062 5.70898438 C-1.11328125 1.11328125 -1.11328125 1.11328125 0 0 Z " fill="#EF1722" transform="translate(344,704)"/>
<path d="M0 0 C1.485 0.99 1.485 0.99 3 2 C3 3.32 3 4.64 3 6 C2.34 6 1.68 6 1 6 C0.67 6.99 0.34 7.98 0 9 C-1.10844919 5.67465243 -0.84454356 3.37817425 0 0 Z " fill="#D9141D" transform="translate(533,673)"/>
</svg>
