<?xml version="1.0" encoding="UTF-8"?>
<svg version="1.1" xmlns="http://www.w3.org/2000/svg" width="1024" height="1024">
<path d="M0 0 C337.92 0 675.84 0 1024 0 C1024 337.92 1024 675.84 1024 1024 C686.08 1024 348.16 1024 0 1024 C0 686.08 0 348.16 0 0 Z " fill="#0C0C0C" transform="translate(0,0)"/>
<path d="M0 0 C4.37931723 1.48601551 6.01522775 4.74915984 8.1875 8.5625 C8.5798584 9.23885498 8.9722168 9.91520996 9.37646484 10.61206055 C10.59751806 12.73413483 11.79941717 14.86629337 13 17 C13.34659668 17.60134766 13.69319336 18.20269531 14.05029297 18.82226562 C38.73758464 61.81282294 62.70890204 118.19809494 51.0390625 168.4765625 C44.94616354 189.13744545 35.43312813 207.4007491 16.203125 218.3828125 C-1.12354851 227.13066962 -21.97855625 228.94641307 -40.796875 224.10546875 C-59.27650978 217.72774114 -73.56106946 205.76123308 -82.20703125 188.1484375 C-92.54599769 165.40819621 -92.28362877 139.79945933 -83.82421875 116.5546875 C-78.78410684 103.53880003 -71.44725473 92.03902607 -63 81 C-62.3090625 80.09636719 -61.618125 79.19273437 -60.90625 78.26171875 C-56.20431065 72.26301438 -51.13842262 66.62484816 -46 61 C-44.58249105 59.41742069 -43.16583421 57.83407777 -41.75 56.25 C-39.1779599 53.38222009 -36.57982456 50.54546189 -33.9296875 47.75 C-20.18248 33.22275087 -8.55595795 18.22254505 0 0 Z " fill="#EC131F" transform="translate(570,367)"/>
<path d="M0 0 C4.05664947 -0.0990914 8.1128277 -0.17157106 12.17041016 -0.21972656 C13.5497668 -0.23980642 14.92903869 -0.26707666 16.30810547 -0.30175781 C18.29356979 -0.35042817 20.27966254 -0.37086418 22.265625 -0.390625 C23.45961914 -0.41157227 24.65361328 -0.43251953 25.88378906 -0.45410156 C29.7021476 0.10231859 30.69996973 0.95235606 33 4 C34.46948242 6.62084961 34.46948242 6.62084961 35.85546875 9.65234375 C36.38720703 10.80347656 36.91894531 11.95460938 37.46679688 13.140625 C38.0405542 14.40616405 38.61411618 15.67179168 39.1875 16.9375 C39.79283028 18.25687293 40.3989688 19.5758753 41.00585938 20.89453125 C42.31249689 23.73728743 43.6138019 26.58240679 44.91162109 29.42919922 C47.088637 34.20073211 49.28765855 38.96197571 51.48828125 43.72265625 C52.99284034 46.98146979 54.4965249 50.24068623 56 53.5 C56.35653656 54.27238007 56.71307312 55.04476013 57.08041382 55.84054565 C70 83.85467852 70 83.85467852 70 87 C70.66 87 71.32 87 72 87 C72.16495972 85.94800415 72.16495972 85.94800415 72.33325195 84.87475586 C73.08018646 81.65426746 74.25332233 78.99228603 75.66796875 76.00390625 C76.22460205 74.82030518 76.78123535 73.6367041 77.35473633 72.41723633 C77.96559481 71.13229439 78.57651773 69.84738308 79.1875 68.5625 C79.81787589 67.22642648 80.44766783 65.89007731 81.0769043 64.5534668 C82.38857488 61.76831752 83.70277172 58.98438051 85.01855469 56.20117188 C87.84488598 50.21644735 90.63426821 44.21455391 93.42675781 38.21398926 C94.87755724 35.0994492 96.33346589 31.9873002 97.7890625 28.875 C99.79377137 24.58784284 101.78896196 20.29655624 103.7734375 16 C104.57793536 14.2707451 105.38260786 12.54157142 106.1875 10.8125 C106.5378833 10.04655518 106.8882666 9.28061035 107.24926758 8.49145508 C110.31207947 1.94592353 110.31207947 1.94592353 113 0 C116.00268555 -0.34057617 116.00268555 -0.34057617 119.63671875 -0.29296875 C120.93544922 -0.28330078 122.23417969 -0.27363281 123.57226562 -0.26367188 C124.94401639 -0.23860585 126.31576118 -0.21321101 127.6875 -0.1875 C129.07094924 -0.1724502 130.45441401 -0.1587623 131.83789062 -0.14648438 C135.22565207 -0.11107223 138.61263139 -0.06168054 142 0 C143.28623736 2.57247471 143.12587245 4.40160699 143.12698364 7.28297424 C143.12980347 8.4033609 143.13262329 9.52374756 143.13552856 10.67808533 C143.13249222 12.53041527 143.13249222 12.53041527 143.12939453 14.42016602 C143.13202301 16.36403198 143.13202301 16.36403198 143.13470459 18.34716797 C143.13927282 21.90692997 143.13749198 25.46666307 143.1343255 29.0264256 C143.1317993 32.74555875 143.13414012 36.46468938 143.13571167 40.18382263 C143.13753237 46.4291122 143.13512941 52.67438996 143.13037109 58.91967773 C143.12492628 66.14968708 143.12669311 73.37966823 143.1321975 80.6096769 C143.13672861 86.80841011 143.13737926 93.00713481 143.13475883 99.20586914 C143.13319635 102.91203171 143.13300155 106.618181 143.13629532 110.32434273 C143.13970784 114.45265511 143.13498436 118.58091852 143.12939453 122.70922852 C143.13141876 123.94613937 143.13344299 125.18305023 143.13552856 126.45744324 C143.13270874 127.57501007 143.12988892 128.6925769 143.12698364 129.8440094 C143.1264181 131.30991186 143.1264181 131.30991186 143.12584114 132.8054285 C143 135 143 135 142 136 C138.36100825 136.25156269 134.70916327 136.18522226 131.0625 136.1875 C130.03447266 136.19974609 129.00644531 136.21199219 127.94726562 136.22460938 C126.96564453 136.22654297 125.98402344 136.22847656 124.97265625 136.23046875 C124.06781494 136.23457764 123.16297363 136.23868652 122.23071289 136.24291992 C120 136 120 136 118 134 C117.78231982 131.20050163 117.68857348 128.49700273 117.68115234 125.69482422 C117.67110672 124.83621796 117.6610611 123.97761169 117.65071106 123.09298706 C117.61974974 120.2468942 117.60280811 117.40089594 117.5859375 114.5546875 C117.56723625 112.58455585 117.54766364 110.6144323 117.5272522 108.64431763 C117.47581471 103.45266482 117.4362513 98.26098601 117.39910889 93.06921387 C117.35914189 87.77394111 117.30801632 82.4787776 117.2578125 77.18359375 C117.16091575 66.78913911 117.07655513 56.39462295 117 46 C113.6014404 52.77138095 110.20626193 59.54444987 106.81323242 66.31860352 C105.66293567 68.61422433 104.51191603 70.90948308 103.36010742 73.2043457 C101.6872994 76.53758136 100.01675493 79.8719367 98.34765625 83.20703125 C97.8023526 84.29605743 97.25704895 85.38508362 96.69522095 86.5071106 C92.93346597 94.04967691 89.2803403 101.63705484 85.79884338 109.31343079 C84.21805628 112.73726309 82.85824732 115.51779139 80 118 C77.07635478 118.7143124 74.12635318 118.64694117 71.125 118.6875 C69.92037109 118.76774414 69.92037109 118.76774414 68.69140625 118.84960938 C66.23300756 118.88808514 64.33803882 118.77007503 62 118 C59.63169523 115.67666304 58.3919782 112.98329159 57 110 C56.16422344 108.40486358 55.32828021 106.80981448 54.4921875 105.21484375 C53.61512554 103.45805095 52.74294496 101.69881489 51.875 99.9375 C51.40271973 98.98649414 50.93043945 98.03548828 50.44384766 97.05566406 C46.60096955 89.28849634 42.84557089 81.47975071 39.14404297 73.64428711 C36.27907947 67.59821458 33.316226 61.60521412 30.31884766 55.62402344 C29.90266678 54.79264862 29.4864859 53.9612738 29.05769348 53.10470581 C28.03886269 51.06960296 27.01962172 49.03470666 26 47 C25.99191315 48.07075272 25.98382629 49.14150543 25.97549438 50.2447052 C25.89808555 60.32443667 25.81035966 70.40403229 25.71247292 80.48358631 C25.66247883 85.66586938 25.61614908 90.84813176 25.578125 96.03051758 C25.54131151 101.02968976 25.49496233 106.02869009 25.44193649 111.02771568 C25.42337159 112.93710001 25.40827142 114.84652121 25.39665604 116.75596046 C25.37982942 119.4257844 25.35080327 122.09521293 25.31884766 124.76489258 C25.31668747 125.55827026 25.31452728 126.35164795 25.31230164 127.16906738 C25.25399096 130.97030773 25.15960333 132.760595 23 136 C20.67749023 136.35644531 20.67749023 136.35644531 17.80859375 136.328125 C16.78185547 136.32296875 15.75511719 136.3178125 14.69726562 136.3125 C13.62154297 136.291875 12.54582031 136.27125 11.4375 136.25 C9.81811523 136.24226563 9.81811523 136.24226563 8.16601562 136.234375 C0.1537996 136.1537996 0.1537996 136.1537996 -1 135 C-1.09841983 133.28363479 -1.12632039 131.56319396 -1.12698364 129.8440094 C-1.12980347 128.72644257 -1.13262329 127.60887573 -1.13552856 126.45744324 C-1.13350433 125.22053238 -1.1314801 123.98362152 -1.12939453 122.70922852 C-1.13114685 121.41507019 -1.13289917 120.12091187 -1.13470459 118.78753662 C-1.13927886 115.22764827 -1.13748928 111.66778878 -1.1343255 108.1078999 C-1.13180133 104.3892288 -1.13413965 100.67056024 -1.13571167 96.95188904 C-1.13753342 90.70481928 -1.13512714 84.45776133 -1.13037109 78.21069336 C-1.12493084 70.98129281 -1.12668938 63.75192047 -1.1321975 56.5225206 C-1.1367313 50.32464117 -1.13737779 44.12677025 -1.13475883 37.92888969 C-1.13319722 34.22323929 -1.13299908 30.51760215 -1.13629532 26.81195259 C-1.13971257 22.68134 -1.13497991 18.55077624 -1.12939453 14.42016602 C-1.13243088 12.56783607 -1.13243088 12.56783607 -1.13552856 10.67808533 C-1.13270874 9.55769867 -1.12988892 8.43731201 -1.12698364 7.28297424 C-1.12660662 6.30532891 -1.12622959 5.32768358 -1.12584114 4.32041264 C-1 2 -1 2 0 0 Z " fill="#ED131F" transform="translate(100,454)"/>
<path d="M0 0 C11.37872509 8.67627788 17.60433649 19.41915281 20.75 33.3125 C21.97935752 51.44552337 19.74339508 67.08322 7.93359375 81.52734375 C0.26664567 89.7703416 -9.8195312 95.79067071 -21.26953125 96.30078125 C-22.78373382 96.32026821 -24.29821369 96.32373001 -25.8125 96.3125 C-26.60712646 96.30686035 -27.40175293 96.3012207 -28.22045898 96.29541016 C-38.3037308 96.08725268 -46.13847864 93.50608664 -54 87 C-54.66 86.01 -55.32 85.02 -56 84 C-56.00808685 84.58437836 -56.01617371 85.16875671 -56.02450562 85.77084351 C-56.11037564 91.83768975 -56.20987075 97.90420259 -56.31738281 103.97070312 C-56.35573271 106.23659682 -56.39057483 108.50255265 -56.421875 110.76855469 C-56.46739527 114.02040867 -56.52541076 117.2718326 -56.5859375 120.5234375 C-56.60326431 122.05005508 -56.60326431 122.05005508 -56.62094116 123.60751343 C-56.64081085 124.54833771 -56.66068054 125.48916199 -56.68115234 126.45849609 C-56.69447601 127.28900482 -56.70779968 128.11951355 -56.7215271 128.97518921 C-57 131 -57 131 -59 133 C-61.12304688 133.25878906 -61.12304688 133.25878906 -63.71875 133.265625 C-64.65074219 133.26820313 -65.58273437 133.27078125 -66.54296875 133.2734375 C-68.00669922 133.26183594 -68.00669922 133.26183594 -69.5 133.25 C-70.47582031 133.25773438 -71.45164062 133.26546875 -72.45703125 133.2734375 C-73.38902344 133.27085937 -74.32101562 133.26828125 -75.28125 133.265625 C-76.13783203 133.26336914 -76.99441406 133.26111328 -77.87695312 133.25878906 C-80 133 -80 133 -82 131 C-82.25168228 128.68517399 -82.25168228 128.68517399 -82.25396729 125.73048401 C-82.26242676 124.0542395 -82.26242676 124.0542395 -82.27105713 122.34413147 C-82.26700867 121.11238693 -82.26296021 119.8806424 -82.25878906 118.61157227 C-82.2622937 117.31887421 -82.26579834 116.02617615 -82.26940918 114.69430542 C-82.27854683 111.14264487 -82.27498308 107.59110018 -82.26865101 104.03943753 C-82.26359703 100.32657633 -82.26828088 96.61372523 -82.27142334 92.90086365 C-82.2750652 86.66395278 -82.27025861 80.42708923 -82.26074219 74.19018555 C-82.24986196 66.97609205 -82.25337916 59.76211164 -82.264395 52.5480209 C-82.27346731 46.35944003 -82.27475329 40.17089322 -82.26951766 33.98230785 C-82.26639703 30.28389217 -82.26599105 26.58552966 -82.27259064 22.88711739 C-82.27943374 18.76395077 -82.26995224 14.64097941 -82.25878906 10.51782227 C-82.26283752 9.28810196 -82.26688599 8.05838165 -82.27105713 6.79139709 C-82.26541748 5.67108093 -82.25977783 4.55076477 -82.25396729 3.39649963 C-82.25321323 2.42107491 -82.25245918 1.4456502 -82.25168228 0.44066715 C-82 -2 -82 -2 -80 -5 C-77.86108398 -5.35644531 -77.86108398 -5.35644531 -75.24609375 -5.328125 C-73.84133789 -5.32039063 -73.84133789 -5.32039063 -72.40820312 -5.3125 C-71.42787109 -5.291875 -70.44753906 -5.27125 -69.4375 -5.25 C-67.96120117 -5.24226563 -67.96120117 -5.24226563 -66.45507812 -5.234375 C-59.15386542 -5.15386542 -59.15386542 -5.15386542 -58 -4 C-57.92755947 -1.98035801 -57.91622812 0.04167124 -57.9375 2.0625 C-57.94652344 3.16722656 -57.95554687 4.27195312 -57.96484375 5.41015625 C-57.97644531 6.26480469 -57.98804688 7.11945313 -58 8 C-57.34 8 -56.68 8 -56 8 C-55.61908203 7.12021484 -55.61908203 7.12021484 -55.23046875 6.22265625 C-51.82576593 0.07257402 -45.50492105 -3.83169298 -39 -6 C-25.99178051 -8.55133587 -11.27440433 -7.57499041 0 0 Z " fill="#ED131F" transform="translate(905,496)"/>
<path d="M0 0 C1.32811649 1.00043167 2.64258525 2.01945027 3.9375 3.0625 C4.96875 3.805 6 4.5475 7.0625 5.3125 C16.47069606 14.31164406 22.44087842 26.8081479 23.140625 39.84765625 C23.4490365 56.55262872 19.95560176 70.47714545 8.203125 82.9921875 C-5.70689313 95.70306614 -21.3875185 96.82927892 -39.35693359 96.24169922 C-48.58998815 95.63016141 -55.83667455 91.55065199 -63.0625 86.0625 C-64.5784375 85.010625 -64.5784375 85.010625 -66.125 83.9375 C-74.85592745 76.3009785 -80.26390581 64.88522254 -81.29736328 53.46777344 C-82.38798072 35.73232884 -80.10717884 21.85668526 -68.0625 8.0625 C-51.67445497 -9.31476304 -20.23317725 -13.05039933 0 0 Z " fill="#EC131F" transform="translate(787.0625,495.9375)"/>
<path d="M0 0 C9.02828575 7.44469531 13.0975036 15.62050812 14.75 27.25 C14.84297543 29.48459344 14.88787061 31.7214932 14.89526367 33.95800781 C14.90164352 35.27246887 14.90802338 36.58692993 14.91459656 37.94122314 C14.91612454 39.36185672 14.91723887 40.78249079 14.91796875 42.203125 C14.92118437 43.66949496 14.92454867 45.1358646 14.92805481 46.60223389 C14.93402395 49.66516871 14.93589673 52.7280754 14.93530273 55.79101562 C14.93520064 59.72095618 14.9489109 63.65071797 14.96607494 67.580616 C14.97716885 70.60370724 14.97922284 73.62675468 14.97869301 76.6498642 C14.97987483 78.09958264 14.98430793 79.54930216 14.99202538 80.99900055 C15.0017823 83.01916693 14.99769416 85.03938601 14.99291992 87.05957031 C14.99434494 88.20951477 14.99576996 89.35945923 14.99723816 90.54425049 C14.75 93.25 14.75 93.25 12.75 95.25 C10.51928711 95.49291992 10.51928711 95.49291992 7.77734375 95.48046875 C6.79572266 95.47853516 5.81410156 95.47660156 4.80273438 95.47460938 C3.77470703 95.46236328 2.74667969 95.45011719 1.6875 95.4375 C0.65560547 95.43685547 -0.37628906 95.43621094 -1.43945312 95.43554688 C-9.10984003 95.39015997 -9.10984003 95.39015997 -10.25 94.25 C-10.35780881 92.36497858 -10.39627491 90.47595779 -10.40771484 88.58789062 C-10.41797699 87.37572876 -10.42823914 86.16356689 -10.43881226 84.91467285 C-10.44225018 84.26211014 -10.4456881 83.60954742 -10.44923019 82.93721008 C-10.46101354 80.89305915 -10.48047023 78.84912006 -10.50234985 76.80505371 C-10.56394463 70.99120263 -10.6177832 65.17736668 -10.65136719 59.36328125 C-10.67245296 55.80873727 -10.7078785 52.25456882 -10.75212479 48.70024109 C-10.77298957 46.699209 -10.77831266 44.69803408 -10.78329468 42.69689941 C-10.87602017 30.80925235 -10.87602017 30.80925235 -16.5625 20.8125 C-22.29369169 17.48041181 -27.69479109 16.37226864 -34.25 17.25 C-39.69734077 18.88029733 -43.07857803 21.60545429 -46.2421875 26.2734375 C-48.60058111 30.89881411 -49.50049923 35.14985903 -49.53710938 40.31542969 C-49.55052368 41.48974548 -49.56393799 42.66406128 -49.57775879 43.8739624 C-49.58303589 45.12727356 -49.58831299 46.38058472 -49.59375 47.671875 C-49.61608711 49.65209324 -49.6384349 51.63231142 -49.66143036 53.61252213 C-49.70670067 57.77900366 -49.73474379 61.94563588 -49.76568604 66.11224365 C-49.79189675 69.55581397 -49.82186494 72.99924877 -49.86193848 76.44268799 C-49.89112312 79.02231313 -49.91144876 81.60205608 -49.92224121 84.18182373 C-49.93565552 85.34353088 -49.94906982 86.50523804 -49.96289062 87.70214844 C-49.97018188 88.72773865 -49.97747314 89.75332886 -49.98498535 90.80999756 C-50.25 93.25 -50.25 93.25 -52.25 95.25 C-54.37304688 95.50878906 -54.37304688 95.50878906 -56.96875 95.515625 C-57.90074219 95.51820313 -58.83273437 95.52078125 -59.79296875 95.5234375 C-60.76878906 95.51570312 -61.74460937 95.50796875 -62.75 95.5 C-64.21373047 95.51160156 -64.21373047 95.51160156 -65.70703125 95.5234375 C-66.63902344 95.52085937 -67.57101562 95.51828125 -68.53125 95.515625 C-69.38783203 95.51336914 -70.24441406 95.51111328 -71.12695312 95.50878906 C-73.25 95.25 -73.25 95.25 -75.25 93.25 C-75.44889816 90.2476463 -75.52263848 87.33749902 -75.50878906 84.33398438 C-75.5122937 83.4103157 -75.51579834 82.48664703 -75.51940918 81.5349884 C-75.52823676 78.4711666 -75.52237371 75.4075743 -75.515625 72.34375 C-75.51697135 70.22147578 -75.51891164 68.09920187 -75.52142334 65.97692871 C-75.524376 61.52479115 -75.5200724 57.07273373 -75.51074219 52.62060547 C-75.49934761 46.90368013 -75.50590632 41.18694255 -75.51788712 35.47002411 C-75.52510188 31.08639095 -75.52281955 26.70280257 -75.51763153 22.31916809 C-75.51629397 20.21075926 -75.51794644 18.1023464 -75.52259064 15.99394226 C-75.52764956 13.05118994 -75.51995454 10.10874496 -75.50878906 7.16601562 C-75.51283752 6.28802811 -75.51688599 5.41004059 -75.52105713 4.50544739 C-75.47852766 -1.52147234 -75.47852766 -1.52147234 -73.25 -3.75 C-71.31054688 -4.00878906 -71.31054688 -4.00878906 -68.96875 -4.015625 C-68.12699219 -4.01820313 -67.28523438 -4.02078125 -66.41796875 -4.0234375 C-65.09732422 -4.01183594 -65.09732422 -4.01183594 -63.75 -4 C-62.86957031 -4.00773437 -61.98914063 -4.01546875 -61.08203125 -4.0234375 C-60.24027344 -4.02085937 -59.39851563 -4.01828125 -58.53125 -4.015625 C-57.37206055 -4.01224121 -57.37206055 -4.01224121 -56.18945312 -4.00878906 C-54.25 -3.75 -54.25 -3.75 -52.25 -1.75 C-52.0546875 0.6328125 -52.0546875 0.6328125 -52.125 3.375 C-52.14304687 4.28507812 -52.16109375 5.19515625 -52.1796875 6.1328125 C-52.20289063 6.83148438 -52.22609375 7.53015625 -52.25 8.25 C-51.59 8.25 -50.93 8.25 -50.25 8.25 C-50.0025 7.48945313 -49.755 6.72890625 -49.5 5.9453125 C-47.11296205 0.79826192 -41.9625215 -1.50946116 -36.9609375 -3.796875 C-25.06457263 -8.01431539 -10.45801155 -7.36590644 0 0 Z " fill="#EE131F" transform="translate(378.25,494.75)"/>
<path d="M0 0 C1.25103516 0.0009668 1.25103516 0.0009668 2.52734375 0.00195312 C3.39488281 0.01806641 4.26242187 0.03417969 5.15625 0.05078125 C6.45755859 0.04594727 6.45755859 0.04594727 7.78515625 0.04101562 C14.25535409 0.09601731 14.25535409 0.09601731 17.65625 2.36328125 C17.99682617 5.06884766 17.99682617 5.06884766 17.94921875 8.46484375 C17.9347168 10.28242188 17.9347168 10.28242188 17.91992188 12.13671875 C17.89478516 13.40773438 17.86964844 14.67875 17.84375 15.98828125 C17.82344727 17.90640625 17.82344727 17.90640625 17.80273438 19.86328125 C17.76728196 23.03036407 17.71786441 26.19661666 17.65625 29.36328125 C18.6935022 29.35542603 18.6935022 29.35542603 19.75170898 29.34741211 C22.86571352 29.32670625 25.97970361 29.31364162 29.09375 29.30078125 C30.18236328 29.29240234 31.27097656 29.28402344 32.39257812 29.27539062 C33.42705078 29.27216797 34.46152344 29.26894531 35.52734375 29.265625 C36.48568115 29.26038818 37.44401855 29.25515137 38.43139648 29.24975586 C40.65625 29.36328125 40.65625 29.36328125 41.65625 30.36328125 C41.78288091 33.18744507 41.84145548 35.97622918 41.84375 38.80078125 C41.85599609 39.59033203 41.86824219 40.37988281 41.88085938 41.19335938 C41.88612279 43.2513556 41.77831285 45.30890134 41.65625 47.36328125 C39.65625 49.36328125 39.65625 49.36328125 37.40966797 49.59033203 C36.49846191 49.5798584 35.58725586 49.56938477 34.6484375 49.55859375 C33.66230469 49.55214844 32.67617188 49.54570313 31.66015625 49.5390625 C30.62761719 49.52230469 29.59507812 49.50554688 28.53125 49.48828125 C27.49097656 49.47925781 26.45070313 49.47023438 25.37890625 49.4609375 C22.80445908 49.43731872 20.23046788 49.40438274 17.65625 49.36328125 C17.74885222 56.07129135 17.85620011 62.77895125 17.97363281 69.48657227 C18.01183341 71.76679174 18.04670162 74.04706964 18.078125 76.32739258 C18.12396924 79.61170279 18.18193214 82.89561387 18.2421875 86.1796875 C18.25373871 87.19349991 18.26528992 88.20731232 18.27719116 89.25184631 C18.38851796 94.63319658 18.7206306 99.31309755 20.65625 104.36328125 C24.55000833 106.97096247 28.87468126 106.56984846 33.40625 106.42578125 C35.82783977 106.36421541 38.23281454 106.34259339 40.65625 106.36328125 C41.65625 107.36328125 41.65625 107.36328125 41.76977539 109.22094727 C41.76192017 110.40708618 41.76192017 110.40708618 41.75390625 111.6171875 C41.74907227 112.89819336 41.74907227 112.89819336 41.74414062 114.20507812 C41.73157227 115.55182617 41.73157227 115.55182617 41.71875 116.92578125 C41.71423828 117.82748047 41.70972656 118.72917969 41.70507812 119.65820312 C41.69325225 121.89329439 41.6767722 124.12825562 41.65625 126.36328125 C32.85351388 131.00249745 20.52382664 130.74626168 11.09375 128.11328125 C4.69930345 125.83711236 -0.85156682 122.33478787 -4.34375 116.36328125 C-7.4234346 108.33177991 -7.74950868 100.54833811 -7.63671875 92.0390625 C-7.63247391 90.81164841 -7.62822906 89.58423431 -7.62385559 88.31962585 C-7.60719819 84.43811158 -7.56956949 80.55713592 -7.53125 76.67578125 C-7.51618648 74.02800234 -7.50250101 71.38021522 -7.49023438 68.73242188 C-7.4573371 62.27586103 -7.40726809 55.81960964 -7.34375 49.36328125 C-8.40335937 49.38648438 -9.46296875 49.4096875 -10.5546875 49.43359375 C-11.9427013 49.45235069 -13.3307227 49.47055097 -14.71875 49.48828125 C-15.41742188 49.50503906 -16.11609375 49.52179687 -16.8359375 49.5390625 C-18.67272486 49.55672392 -20.50976963 49.46631386 -22.34375 49.36328125 C-24.90323999 46.80379126 -24.60443731 45.0912093 -24.6171875 41.59765625 C-24.60945313 40.8603125 -24.60171875 40.12296875 -24.59375 39.36328125 C-24.60148437 38.6259375 -24.60921875 37.88859375 -24.6171875 37.12890625 C-24.5970696 31.61660085 -24.5970696 31.61660085 -22.34375 29.36328125 C-19.76310871 29.2183014 -17.29431116 29.1765058 -14.71875 29.23828125 C-13.65914063 29.25181641 -13.65914063 29.25181641 -12.578125 29.265625 C-10.83318902 29.28920522 -9.08842705 29.32507664 -7.34375 29.36328125 C-7.35946045 28.59137451 -7.3751709 27.81946777 -7.39135742 27.02416992 C-7.45364607 23.53311463 -7.49272173 20.04217616 -7.53125 16.55078125 C-7.55638672 15.33583984 -7.58152344 14.12089844 -7.60742188 12.86914062 C-7.61708984 11.70576172 -7.62675781 10.54238281 -7.63671875 9.34375 C-7.6524292 8.27020264 -7.66813965 7.19665527 -7.68432617 6.09057617 C-7.34375 3.36328125 -7.34375 3.36328125 -6.09692383 1.51220703 C-3.90950042 0.07869992 -2.6048367 -0.01020099 0 0 Z " fill="#EE121F" transform="translate(423.34375,462.63671875)"/>
<path d="M0 0 C1.89105469 -0.00386719 1.89105469 -0.00386719 3.8203125 -0.0078125 C6.875 0.125 6.875 0.125 7.875 1.125 C7.97399523 2.67455559 8.00579524 4.22853673 8.0078125 5.78125 C8.00974609 7.19083984 8.00974609 7.19083984 8.01171875 8.62890625 C8.00785156 9.61761719 8.00398437 10.60632813 8 11.625 C8.00580078 13.10806641 8.00580078 13.10806641 8.01171875 14.62109375 C8.01042969 15.56082031 8.00914062 16.50054687 8.0078125 17.46875 C8.00668457 18.33693359 8.00555664 19.20511719 8.00439453 20.09960938 C7.875 22.125 7.875 22.125 6.875 23.125 C5.11877833 23.20108181 3.36212913 23.27183511 1.60473633 23.31274414 C-6.08909026 23.53375639 -12.88800251 24.1231726 -19.125 29.125 C-23.42188687 34.25128596 -25.23228916 39.08378698 -25.31445312 45.75805664 C-25.33117065 46.91257828 -25.34788818 48.06709991 -25.3651123 49.25660706 C-25.37868774 50.50352829 -25.39226318 51.75044952 -25.40625 53.03515625 C-25.42465942 54.31353867 -25.44306885 55.59192108 -25.46203613 56.90904236 C-25.53088516 61.69794181 -25.59129899 66.48692044 -25.65106201 71.27593994 C-25.7100337 75.96659516 -25.776153 80.65711573 -25.84375 85.34765625 C-25.85732544 86.59660172 -25.87090088 87.84554718 -25.8848877 89.13233948 C-25.90160522 90.28370895 -25.91832275 91.43507843 -25.93554688 92.62133789 C-25.95433899 94.14664879 -25.95433899 94.14664879 -25.97351074 95.70277405 C-26.125 98.125 -26.125 98.125 -27.125 100.125 C-30.93748426 100.15387236 -34.7499407 100.17175492 -38.5625 100.1875 C-39.65111328 100.19587891 -40.73972656 100.20425781 -41.86132812 100.21289062 C-42.89580078 100.21611328 -43.93027344 100.21933594 -44.99609375 100.22265625 C-45.95443115 100.22789307 -46.91276855 100.23312988 -47.90014648 100.23852539 C-50.125 100.125 -50.125 100.125 -51.125 99.125 C-51.23094305 96.15275517 -51.27177588 93.20362066 -51.27026367 90.23071289 C-51.27362228 89.29743668 -51.2769809 88.36416046 -51.28044128 87.40260315 C-51.28998212 84.30094084 -51.29189595 81.19933234 -51.29296875 78.09765625 C-51.29617911 75.95153277 -51.29954301 73.80540951 -51.30305481 71.6592865 C-51.3090539 67.15411878 -51.31089391 62.64897026 -51.31030273 58.14379883 C-51.31020106 52.3584779 -51.32385555 46.57327956 -51.34107494 40.78798771 C-51.35216944 36.35374888 -51.35422273 31.91953992 -51.35369301 27.48528862 C-51.3548769 25.35175593 -51.35932138 23.21822256 -51.36702538 21.08470345 C-51.37677412 18.10594108 -51.37396758 15.12744793 -51.36791992 12.14868164 C-51.37353943 11.25977234 -51.37915894 10.37086304 -51.38494873 9.45501709 C-51.3533152 3.3533152 -51.3533152 3.3533152 -49.125 1.125 C-45.99953844 0.67873217 -42.8412016 0.80089698 -39.6875 0.8125 C-38.81544922 0.79638672 -37.94339844 0.78027344 -37.04492188 0.76367188 C-35.78711914 0.76270508 -35.78711914 0.76270508 -34.50390625 0.76171875 C-33.7363501 0.75873779 -32.96879395 0.75575684 -32.17797852 0.75268555 C-29.58858936 1.22227985 -28.71454769 2.06296743 -27.125 4.125 C-26.61328125 6.60546875 -26.61328125 6.60546875 -26.4375 9.3125 C-26.33888672 10.66408203 -26.33888672 10.66408203 -26.23828125 12.04296875 C-26.20089844 12.73003906 -26.16351562 13.41710937 -26.125 14.125 C-25.6403125 13.52171875 -25.155625 12.9184375 -24.65625 12.296875 C-17.65824974 3.95310546 -11.11900305 -0.02283163 0 0 Z " fill="#EE131F" transform="translate(694.125,489.875)"/>
<path d="M0 0 C7.36475614 22.09426841 -13.81368222 62.00329469 -22.75 81.875 C-29.84515462 97.75967452 -35.35464039 113.05231931 -29.984375 130.4296875 C-27.6186825 136.60677347 -24.34713697 142.00884274 -20 147 C-29.01149231 147.80102154 -37.30605836 144.29298691 -44.22265625 138.62109375 C-52.13122238 131.40778618 -56.45006315 122.8789029 -57.203125 112.08984375 C-57.60830382 84.84156814 -40.89660566 63.56526527 -25.73828125 42.45703125 C-16.01061348 28.87210501 -7.71150708 14.81365802 0 0 Z " fill="#0D0B0B" transform="translate(570,428)"/>
<path d="M0 0 C6.96252603 4.19172485 10.57927718 10.50517409 13.3125 18 C13.5932077 20.74928421 13.74380331 23.20417061 13.6875 25.9375 C13.67879883 26.64116699 13.67009766 27.34483398 13.66113281 28.06982422 C13.4383436 35.94597085 11.29375061 41.80709383 6.3125 48 C-0.96121305 54.63845427 -7.91087387 56.49154914 -17.68359375 56.3203125 C-24.18699848 55.62684151 -30.07106969 52.61643031 -34.6875 48 C-41.64128919 38.43853986 -41.80780936 28.53968884 -40.6875 17 C-38.76067341 9.56280953 -34.01907158 4.22104772 -27.6875 0 C-20.02612597 -3.97107868 -7.80688429 -3.53451926 0 0 Z " fill="#0D0B0B" transform="translate(771.6875,514)"/>
<path d="M0 0 C3.97915159 -0.02886984 7.95827653 -0.04675406 11.9375 -0.0625 C13.07380859 -0.07087891 14.21011719 -0.07925781 15.38085938 -0.08789062 C16.46044922 -0.09111328 17.54003906 -0.09433594 18.65234375 -0.09765625 C20.15269165 -0.10551147 20.15269165 -0.10551147 21.68334961 -0.11352539 C24 0 24 0 25 1 C25.10591102 3.91120549 25.1467766 6.79881505 25.14526367 9.71069336 C25.14862228 10.62446243 25.1519809 11.53823151 25.15544128 12.47969055 C25.16498185 15.51642191 25.16689594 18.55309832 25.16796875 21.58984375 C25.17117913 23.69112674 25.17454303 25.79240951 25.17805481 27.89369202 C25.18405383 32.30470295 25.18589391 36.71569426 25.18530273 41.12670898 C25.18520106 46.79096267 25.19885544 52.45509116 25.21607494 58.11931515 C25.22716976 62.46090782 25.22922272 66.80246999 25.22869301 71.14407539 C25.22987685 73.23295079 25.23432109 75.32182688 25.24202538 77.4106884 C25.25177477 80.32718661 25.24896733 83.24340988 25.24291992 86.15991211 C25.24853943 87.03011993 25.25415894 87.90032776 25.25994873 88.79690552 C25.22831525 94.77168475 25.22831525 94.77168475 23 97 C20.78515625 97.25878906 20.78515625 97.25878906 18.0625 97.265625 C17.08539063 97.26820313 16.10828125 97.27078125 15.1015625 97.2734375 C14.07804687 97.26570312 13.05453125 97.25796875 12 97.25 C10.97648437 97.25773438 9.95296875 97.26546875 8.8984375 97.2734375 C7.92132813 97.27085937 6.94421875 97.26828125 5.9375 97.265625 C5.03902344 97.26336914 4.14054687 97.26111328 3.21484375 97.25878906 C1 97 1 97 -1 95 C-1.1935721 92.0579621 -1.26216511 89.21038523 -1.24291992 86.26757812 C-1.24481827 85.3634166 -1.24671661 84.45925507 -1.24867249 83.5276947 C-1.25238748 80.52879255 -1.24166575 77.53013076 -1.23046875 74.53125 C-1.22927724 72.45381702 -1.22882373 70.3763835 -1.2290802 68.2989502 C-1.22751408 63.94096514 -1.21921464 59.58306208 -1.20581055 55.22509766 C-1.18882055 49.62928304 -1.18499614 44.03355864 -1.18575573 38.43772125 C-1.18548424 34.14674004 -1.1800064 29.85577869 -1.17275429 25.56480408 C-1.16956437 23.50105439 -1.16759946 21.43730244 -1.16686058 19.37355042 C-1.16470044 16.49313497 -1.15596323 13.61281658 -1.14526367 10.73242188 C-1.14571686 9.87313583 -1.14617004 9.01384979 -1.14663696 8.12852478 C-1.11447647 2.22895293 -1.11447647 2.22895293 0 0 Z " fill="#EB131F" transform="translate(261,493)"/>
<path d="M0 0 C0.75563232 -0.01466309 1.51126465 -0.02932617 2.28979492 -0.04443359 C8.80086704 0.07308712 13.93240377 2.02971752 18.92578125 6.23828125 C19.36277344 6.77839844 19.79976562 7.31851563 20.25 7.875 C20.69988281 8.40738281 21.14976562 8.93976562 21.61328125 9.48828125 C25.55175628 15.657397 26.46505633 20.73585221 26.375 27.9375 C26.36742676 28.78022461 26.35985352 29.62294922 26.35205078 30.49121094 C26.19032582 36.57537479 25.51474949 41.485472 21.9375 46.5625 C21.50179687 47.20316406 21.06609375 47.84382812 20.6171875 48.50390625 C16.45056911 53.95693961 11.33563702 56.42978766 4.9375 58.5625 C-3.16185265 59.50585222 -9.33872488 58.23375429 -16.0625 53.5625 C-20.9609623 49.30476484 -23.1552949 44.68563217 -25.0625 38.5625 C-25.24683594 37.97339844 -25.43117188 37.38429688 -25.62109375 36.77734375 C-27.63287078 26.68285192 -26.64493626 16.93615439 -20.9375 8.375 C-14.79530902 1.83884925 -8.77748673 0.10565576 0 0 Z " fill="#0D0B0B" transform="translate(874.0625,511.4375)"/>
<path d="M0 0 C4.40802625 2.16394016 7.23139226 4.38196867 9 9 C9.66198068 14.34488104 9.67332051 18.60348339 7.3125 23.5 C3.52250341 27.59729361 0.75757111 29.1814415 -4.8125 29.625 C-10.14791046 29.49720574 -12.78116803 27.36690611 -16.50390625 23.7265625 C-19.69942063 20.03878872 -19.33052778 16.47165343 -19.28125 11.765625 C-18.781752 6.85389468 -16.45572017 4.28445897 -12.875 1.125 C-8.55651358 -0.56484251 -4.5732948 -0.65960983 0 0 Z " fill="#ED1320" transform="translate(278,452)"/>
<path d="M0 0 C5.94 0 11.88 0 18 0 C18 5.94 18 11.88 18 18 C12.06 18 6.12 18 0 18 C0 12.06 0 6.12 0 0 Z " fill="#F21320" transform="translate(629,412)"/>
<path d="M0 0 C5.94 0 11.88 0 18 0 C18 5.94 18 11.88 18 18 C12.06 18 6.12 18 0 18 C0 12.06 0 6.12 0 0 Z " fill="#EA131F" transform="translate(605,376)"/>
<path d="M0 0 C0.66 0 1.32 0 2 0 C1.67 43.89 1.34 87.78 1 133 C-0.94122871 129.11754257 -1.24963505 127.7974785 -1.24723816 123.66633606 C-1.25143265 122.58527084 -1.25562714 121.50420563 -1.25994873 120.39038086 C-1.25432922 119.20943848 -1.24870972 118.02849609 -1.24291992 116.81176758 C-1.24481827 115.56433273 -1.24671661 114.31689789 -1.24867249 113.03166199 C-1.2517421 109.61449511 -1.24587348 106.19757019 -1.23571944 102.78043199 C-1.22693434 99.20678752 -1.22869644 95.63314709 -1.2290802 92.05949402 C-1.22814408 86.06153168 -1.21946518 80.06361999 -1.20581055 74.06567383 C-1.1900641 67.12304628 -1.18481321 60.1804741 -1.1855461 53.23782998 C-1.18615549 46.56468549 -1.1810596 39.89155909 -1.17275429 33.21842003 C-1.16921644 30.37512763 -1.16739033 27.53184163 -1.16686058 24.68854713 C-1.16567363 20.72569429 -1.15597843 16.76288793 -1.14526367 12.80004883 C-1.14571686 11.61303375 -1.14617004 10.42601868 -1.14663696 9.20303345 C-1.14237198 8.1304277 -1.13810699 7.05782196 -1.13371277 5.95271301 C-1.13203692 5.01491406 -1.13036108 4.07711512 -1.12863445 3.11089802 C-1 1 -1 1 0 0 Z " fill="#FB212A" transform="translate(100,455)"/>
<path d="M0 0 C4.37931723 1.48601551 6.01522775 4.74915984 8.1875 8.5625 C8.5798584 9.23885498 8.9722168 9.91520996 9.37646484 10.61206055 C10.59751806 12.73413483 11.79941717 14.86629337 13 17 C13.34659668 17.60134766 13.69319336 18.20269531 14.05029297 18.82226562 C23.05104409 34.49621286 29.90630264 51.40181489 37 68 C37.39517822 68.91426758 37.79035645 69.82853516 38.19750977 70.77050781 C39 73 39 73 39 76 C38.34 76 37.68 76 37 76 C36.69932617 75.21689453 36.69932617 75.21689453 36.39257812 74.41796875 C32.29685804 63.81181832 27.94622113 53.49868215 22.73046875 43.39453125 C21.39911447 40.78291304 20.1871451 38.20220157 19.0625 35.5 C14.74679587 25.50674733 8.7558283 16.02964416 2.99609375 6.8203125 C2 5 2 5 2 3 C1.01 3 0.02 3 -1 3 C-0.67 2.01 -0.34 1.02 0 0 Z " fill="#EF252C" transform="translate(570,367)"/>
<path d="M0 0 C5.53279275 4.4262342 8.0797388 10.25774958 10 17 C10.19982711 20.38243936 9.81002359 22.6519025 9 26 C8.34 26.66 7.68 27.32 7 28 C6.82984375 26.94941406 6.6596875 25.89882813 6.484375 24.81640625 C5.27866392 17.72155275 4.14887594 11.14149009 0.76953125 4.69921875 C0 3 0 3 0 0 Z " fill="#F2242B" transform="translate(914,506)"/>
<path d="M0 0 C4.55371342 1.47995686 6.25313586 5.13966885 8.5 9.0625 C8.89437256 9.73482666 9.28874512 10.40715332 9.69506836 11.09985352 C12.49158795 15.93411106 14.90835306 20.81635324 17 26 C16.34 26.33 15.68 26.66 15 27 C14.56429687 26.24976563 14.12859375 25.49953125 13.6796875 24.7265625 C13.08414063 23.70304687 12.48859375 22.67953125 11.875 21.625 C11.24207031 20.53703125 10.60914063 19.4490625 9.95703125 18.328125 C7.7104203 14.50754111 5.40113761 10.72820638 3.06640625 6.9609375 C2 5 2 5 2 3 C1.01 3 0.02 3 -1 3 C-0.67 2.01 -0.34 1.02 0 0 Z " fill="#F73134" transform="translate(570,367)"/>
<path d="M0 0 C0.99 0.495 0.99 0.495 2 1 C2.33 1.99 2.66 2.98 3 4 C3.99 4 4.98 4 6 4 C4.7260411 6.03833424 3.38938077 8.03852126 2 10 C1.34 10 0.68 10 0 10 C0 6.7 0 3.4 0 0 Z " fill="#150707" transform="translate(326,493)"/>
<path d="M0 0 C5.32697239 1.45281065 8.36402802 5.08111378 12 9 C11.01 10.485 11.01 10.485 10 12 C9.46375 11.113125 8.9275 10.22625 8.375 9.3125 C6.07296319 5.81804124 3.25923476 3.5925731 0 1 C0 0.67 0 0.34 0 0 Z " fill="#F41825" transform="translate(903,496)"/>
<path d="M0 0 C0.66 0 1.32 0 2 0 C4.42857143 6.28571429 4.42857143 6.28571429 3 10 C2.67 8.35 2.34 6.7 2 5 C1.34 5 0.68 5 0 5 C0 3.35 0 1.7 0 0 Z " fill="#F31E27" transform="translate(611,451)"/>
<path d="M0 0 C2.62187494 1.04874998 3.79371361 1.64931313 5.25 4.125 C5.4975 4.74375 5.745 5.3625 6 6 C5.01 6.33 4.02 6.66 3 7 C2.67 5.68 2.34 4.36 2 3 C1.01 3 0.02 3 -1 3 C-0.67 2.01 -0.34 1.02 0 0 Z " fill="#EB2D31" transform="translate(570,367)"/>
</svg>
