<?xml version="1.0" encoding="UTF-8"?>
<svg version="1.1" xmlns="http://www.w3.org/2000/svg" width="432" height="654">
<path d="M0 0 C142.56 0 285.12 0 432 0 C432 215.82 432 431.64 432 654 C289.44 654 146.88 654 0 654 C0 438.18 0 222.36 0 0 Z " fill="#061B1A" transform="translate(0,0)"/>
<path d="M0 0 C3.12424249 1.25516174 4.90420545 3.23150708 7.26782227 5.62036133 C7.74098877 6.095401 8.21415527 6.57044067 8.70166016 7.05987549 C9.7002246 8.06515138 10.6951901 9.07401333 11.68676758 10.08618164 C13.19314089 11.62355428 14.70977298 13.15014776 16.22875977 14.67504883 C28.06655881 26.62462653 28.06655881 26.62462653 28.59594727 31.43676758 C28.46573893 34.91984049 28.3355306 38.40291341 28.20532227 41.88598633 C32.82532227 41.88598633 37.44532227 41.88598633 42.20532227 41.88598633 C42.20532227 47.16598633 42.20532227 52.44598633 42.20532227 57.88598633 C46.49532227 57.88598633 50.78532227 57.88598633 55.20532227 57.88598633 C55.20532227 64.15598633 55.20532227 70.42598633 55.20532227 76.88598633 C58.83532227 76.88598633 62.46532227 76.88598633 66.20532227 76.88598633 C66.20532227 82.49598633 66.20532227 88.10598633 66.20532227 93.88598633 C69.83532227 93.88598633 73.46532227 93.88598633 77.20532227 93.88598633 C77.20532227 96.85598633 77.20532227 99.82598633 77.20532227 102.88598633 C75.22532227 102.88598633 73.24532227 102.88598633 71.20532227 102.88598633 C71.51469727 103.77286133 71.82407227 104.65973633 72.14282227 105.57348633 C73.78042641 111.19476579 73.87306638 117.07150831 74.20532227 122.88598633 C74.86532227 122.55598633 75.52532227 122.22598633 76.20532227 121.88598633 C78.87768436 121.7518316 81.52782715 121.84280092 84.20532227 121.88598633 C84.56667112 141.84047279 83.26524098 160.66976678 74.20532227 178.88598633 C76.18532227 179.21598633 78.16532227 179.54598633 80.20532227 179.88598633 C78.17231772 195.18999277 61.00256895 212.22985978 49.50952148 221.21118164 C39.30242367 228.72275294 28.10968409 234.19146141 16.67016602 239.53833008 C15.60926758 240.04493164 14.54836914 240.5515332 13.45532227 241.07348633 C12.53235352 241.50016602 11.60938477 241.9268457 10.65844727 242.36645508 C7.53883841 244.29882426 6.05457659 245.67809617 4.20532227 248.88598633 C3.49976433 252.43537471 3.39765731 255.89860413 3.39282227 259.51098633 C3.38766602 260.49341309 3.38250977 261.47583984 3.37719727 262.48803711 C3.62225114 270.52021066 5.45806933 274.56384532 11.23657227 280.25317383 C12.21110352 281.06141602 12.21110352 281.06141602 13.20532227 281.88598633 C12.00150779 284.37960204 10.75103505 286.56741716 9.20532227 288.88598633 C4.95954418 288.3922912 2.97285479 285.98986311 0.08032227 283.01098633 C-0.78850586 282.12668945 -1.65733398 281.24239258 -2.55249023 280.33129883 C-6.14356196 276.41490353 -7.03800304 274.34580312 -7.06811523 269.11645508 C-7.08874023 267.98014648 -7.10936523 266.84383789 -7.13061523 265.6730957 C-7.15652896 263.2851459 -7.17483449 260.89710067 -7.18530273 258.5090332 C-7.28701326 249.86924129 -7.28701326 249.86924129 -11.79467773 242.88598633 C-16.18485741 239.42005501 -21.17821088 237.03070576 -26.41967773 235.13598633 C-39.36413356 230.19022726 -50.05945145 221.5215831 -59.79467773 211.88598633 C-60.59389648 211.14735352 -61.39311523 210.4087207 -62.21655273 209.64770508 C-73.7690067 198.7525459 -82.54203928 183.87844182 -87.79467773 168.88598633 C-87.79467773 167.89598633 -87.79467773 166.90598633 -87.79467773 165.88598633 C-85.81467773 166.21598633 -83.83467773 166.54598633 -81.79467773 166.88598633 C-81.93566895 166.32314941 -82.07666016 165.7603125 -82.22192383 165.18041992 C-82.87835299 162.54233809 -83.52400378 159.90172027 -84.16967773 157.26098633 C-84.39139648 156.37668945 -84.61311523 155.49239258 -84.84155273 154.58129883 C-87.9295174 141.86615022 -89.0927545 129.58493886 -88.91967773 116.51098633 C-88.90960631 115.17765988 -88.90048797 113.84432588 -88.89233398 112.51098633 C-88.86908374 109.30245192 -88.83641117 106.09432429 -88.79467773 102.88598633 C-83.04467773 103.76098633 -83.04467773 103.76098633 -80.79467773 104.88598633 C-80.67092773 104.25176758 -80.54717773 103.61754883 -80.41967773 102.96411133 C-77.03380689 87.64304576 -70.16144684 73.34318288 -63.54467773 59.19848633 C-63.03751221 58.09287354 -62.53034668 56.98726074 -62.0078125 55.84814453 C-61.51982178 54.82551514 -61.03183105 53.80288574 -60.52905273 52.74926758 C-60.09818359 51.83443604 -59.66731445 50.91960449 -59.22338867 49.97705078 C-57.79467773 47.88598633 -57.79467773 47.88598633 -55.8894043 46.9609375 C-53.24539877 46.86633264 -51.85149208 47.55473844 -49.54467773 48.82348633 C-48.48506836 49.39389648 -48.48506836 49.39389648 -47.40405273 49.97583008 C-46.87295898 50.27618164 -46.34186523 50.5765332 -45.79467773 50.88598633 C-45.45847412 50.43908447 -45.12227051 49.99218262 -44.77587891 49.53173828 C-33.10943375 34.05899409 -20.8955419 19.55390693 -7.43188477 5.60424805 C-6.10717315 4.21395274 -4.83140822 2.77712599 -3.57202148 1.32739258 C-1.79467773 -0.11401367 -1.79467773 -0.11401367 0 0 Z " fill="#265C32" transform="translate(213.794677734375,182.114013671875)"/>
<path d="M0 0 C3.12424249 1.25516174 4.90420545 3.23150708 7.26782227 5.62036133 C7.74098877 6.095401 8.21415527 6.57044067 8.70166016 7.05987549 C9.7002246 8.06515138 10.6951901 9.07401333 11.68676758 10.08618164 C13.19314089 11.62355428 14.70977298 13.15014776 16.22875977 14.67504883 C28.06655881 26.62462653 28.06655881 26.62462653 28.59594727 31.43676758 C28.46573893 34.91984049 28.3355306 38.40291341 28.20532227 41.88598633 C32.82532227 41.88598633 37.44532227 41.88598633 42.20532227 41.88598633 C42.20532227 47.16598633 42.20532227 52.44598633 42.20532227 57.88598633 C46.49532227 57.88598633 50.78532227 57.88598633 55.20532227 57.88598633 C55.20532227 64.15598633 55.20532227 70.42598633 55.20532227 76.88598633 C58.83532227 76.88598633 62.46532227 76.88598633 66.20532227 76.88598633 C66.20532227 82.49598633 66.20532227 88.10598633 66.20532227 93.88598633 C69.83532227 93.88598633 73.46532227 93.88598633 77.20532227 93.88598633 C77.20532227 96.85598633 77.20532227 99.82598633 77.20532227 102.88598633 C75.22532227 102.88598633 73.24532227 102.88598633 71.20532227 102.88598633 C71.51469727 103.77286133 71.82407227 104.65973633 72.14282227 105.57348633 C73.78042641 111.19476579 73.87306638 117.07150831 74.20532227 122.88598633 C74.86532227 122.55598633 75.52532227 122.22598633 76.20532227 121.88598633 C78.87768436 121.7518316 81.52782715 121.84280092 84.20532227 121.88598633 C84.56667112 141.84047279 83.26524098 160.66976678 74.20532227 178.88598633 C76.18532227 179.21598633 78.16532227 179.54598633 80.20532227 179.88598633 C78.17231772 195.18999277 61.00256895 212.22985978 49.50952148 221.21118164 C39.30242367 228.72275294 28.10968409 234.19146141 16.67016602 239.53833008 C15.60926758 240.04493164 14.54836914 240.5515332 13.45532227 241.07348633 C12.53235352 241.50016602 11.60938477 241.9268457 10.65844727 242.36645508 C7.53883841 244.29882426 6.05457659 245.67809617 4.20532227 248.88598633 C3.49976433 252.43537471 3.39765731 255.89860413 3.39282227 259.51098633 C3.38766602 260.49341309 3.38250977 261.47583984 3.37719727 262.48803711 C3.62225114 270.52021066 5.45806933 274.56384532 11.23657227 280.25317383 C12.21110352 281.06141602 12.21110352 281.06141602 13.20532227 281.88598633 C12.00150779 284.37960204 10.75103505 286.56741716 9.20532227 288.88598633 C4.95954418 288.3922912 2.97285479 285.98986311 0.08032227 283.01098633 C-0.78850586 282.12668945 -1.65733398 281.24239258 -2.55249023 280.33129883 C-6.14356196 276.41490353 -7.03800304 274.34580312 -7.06811523 269.11645508 C-7.08874023 267.98014648 -7.10936523 266.84383789 -7.13061523 265.6730957 C-7.15652896 263.2851459 -7.17483449 260.89710067 -7.18530273 258.5090332 C-7.28701326 249.86924129 -7.28701326 249.86924129 -11.79467773 242.88598633 C-16.18485741 239.42005501 -21.17821088 237.03070576 -26.41967773 235.13598633 C-39.36413356 230.19022726 -50.05945145 221.5215831 -59.79467773 211.88598633 C-60.59389648 211.14735352 -61.39311523 210.4087207 -62.21655273 209.64770508 C-73.7690067 198.7525459 -82.54203928 183.87844182 -87.79467773 168.88598633 C-87.79467773 167.89598633 -87.79467773 166.90598633 -87.79467773 165.88598633 C-85.81467773 166.21598633 -83.83467773 166.54598633 -81.79467773 166.88598633 C-81.93566895 166.32314941 -82.07666016 165.7603125 -82.22192383 165.18041992 C-82.87835299 162.54233809 -83.52400378 159.90172027 -84.16967773 157.26098633 C-84.39139648 156.37668945 -84.61311523 155.49239258 -84.84155273 154.58129883 C-87.9295174 141.86615022 -89.0927545 129.58493886 -88.91967773 116.51098633 C-88.90960631 115.17765988 -88.90048797 113.84432588 -88.89233398 112.51098633 C-88.86908374 109.30245192 -88.83641117 106.09432429 -88.79467773 102.88598633 C-83.04467773 103.76098633 -83.04467773 103.76098633 -80.79467773 104.88598633 C-80.67092773 104.25176758 -80.54717773 103.61754883 -80.41967773 102.96411133 C-77.03380689 87.64304576 -70.16144684 73.34318288 -63.54467773 59.19848633 C-63.03751221 58.09287354 -62.53034668 56.98726074 -62.0078125 55.84814453 C-61.51982178 54.82551514 -61.03183105 53.80288574 -60.52905273 52.74926758 C-60.09818359 51.83443604 -59.66731445 50.91960449 -59.22338867 49.97705078 C-57.79467773 47.88598633 -57.79467773 47.88598633 -55.8894043 46.9609375 C-53.24539877 46.86633264 -51.85149208 47.55473844 -49.54467773 48.82348633 C-48.48506836 49.39389648 -48.48506836 49.39389648 -47.40405273 49.97583008 C-46.87295898 50.27618164 -46.34186523 50.5765332 -45.79467773 50.88598633 C-45.45847412 50.43908447 -45.12227051 49.99218262 -44.77587891 49.53173828 C-33.10943375 34.05899409 -20.8955419 19.55390693 -7.43188477 5.60424805 C-6.10717315 4.21395274 -4.83140822 2.77712599 -3.57202148 1.32739258 C-1.79467773 -0.11401367 -1.79467773 -0.11401367 0 0 Z M-0.79467773 13.88598633 C-16.03875441 30.59287844 -30.60981369 47.780414 -42.79467773 66.88598633 C-44.51993815 65.81176758 -46.24519857 64.73754883 -47.97045898 63.66333008 C-49.96600848 62.57486558 -49.96600848 62.57486558 -52.79467773 63.88598633 C-54.12316321 65.84265993 -54.12316321 65.84265993 -55.24780273 68.31176758 C-55.9246814 69.71011841 -55.9246814 69.71011841 -56.61523438 71.13671875 C-57.08695068 72.14710205 -57.55866699 73.15748535 -58.04467773 74.19848633 C-58.53121826 75.23142822 -59.01775879 76.26437012 -59.51904297 77.32861328 C-65.64171336 90.57227063 -71.33683184 104.24802345 -72.79467773 118.88598633 C-74.11467773 118.55598633 -75.43467773 118.22598633 -76.79467773 117.88598633 C-77.51993615 139.97568397 -74.98006531 157.95805411 -64.79467773 177.88598633 C-67.43467773 177.55598633 -70.07467773 177.22598633 -72.79467773 176.88598633 C-69.42909815 184.49090174 -65.21451107 190.60368404 -59.79467773 196.88598633 C-59.09213867 197.72258789 -58.38959961 198.55918945 -57.66577148 199.42114258 C-45.39830845 213.61979836 -30.23779835 223.30480894 -12.79467773 229.88598633 C-11.80467773 229.88598633 -10.81467773 229.88598633 -9.79467773 229.88598633 C-9.79467773 230.54598633 -9.79467773 231.20598633 -9.79467773 231.88598633 C-8.80467773 232.21598633 -7.81467773 232.54598633 -6.79467773 232.88598633 C-5.33877383 224.4373504 -3.95554928 214.83277946 -8.387146 207.11132812 C-13.56416021 200.53208051 -19.93101345 195.10594707 -26.23217773 189.63598633 C-29.02478322 187.14342481 -31.79840711 184.63471424 -34.54689026 182.09356689 C-36.24824145 180.52745663 -37.97679579 178.99021726 -39.73521423 177.48846436 C-44.16197782 173.48690693 -46.26585553 170.89807949 -46.83398438 164.83618164 C-46.86018167 163.18627249 -46.86120319 161.5347619 -46.79467773 159.88598633 C-46.13467773 159.88598633 -45.47467773 159.88598633 -44.79467773 159.88598633 C-44.40560997 160.76253876 -44.40560997 160.76253876 -44.00868225 161.65679932 C-42.70514964 164.05038017 -41.29698928 165.63106332 -39.37060547 167.55297852 C-38.6732579 168.25340271 -37.97591034 168.9538269 -37.25743103 169.67547607 C-36.50530838 170.42041321 -35.75318573 171.16535034 -34.97827148 171.93286133 C-34.20661148 172.70406311 -33.43495148 173.47526489 -32.63990784 174.26983643 C-31.01067635 175.89605 -29.37901828 177.51983559 -27.74511719 179.14135742 C-25.23305036 181.63512006 -22.72912529 184.13684001 -20.22631836 186.63989258 C-18.64410824 188.21718928 -17.06144169 189.79402829 -15.47827148 191.37036133 C-14.7241246 192.12339539 -13.96997772 192.87642944 -13.19297791 193.65228271 C-12.4987825 194.34009827 -11.8045871 195.02791382 -11.08935547 195.73657227 C-10.47583725 196.34627869 -9.86231903 196.95598511 -9.23020935 197.58416748 C-7.99420157 198.99794723 -7.99420157 198.99794723 -6.79467773 198.88598633 C-3.00509774 177.62757582 -3.00509774 177.62757582 -8.24780273 157.3807373 C-13.80419161 149.78324945 -20.81968589 143.58092785 -27.96826172 137.52294922 C-28.72401489 136.8779245 -29.47976807 136.23289978 -30.25842285 135.56832886 C-31.69617732 134.36485682 -33.15941763 133.19094358 -34.6505127 132.05422974 C-37.63996959 129.63052687 -39.50026082 128.04589515 -40.46707153 124.23696899 C-40.72078894 121.76331259 -40.84375438 119.37071272 -40.79467773 116.88598633 C-33.38727888 123.1107082 -26.65108603 129.94799286 -19.85717773 136.82348633 C-17.60090338 139.10627167 -15.341377 141.38576573 -13.07983398 143.66333008 C-12.56324722 144.18821518 -12.04666046 144.71310028 -11.51441956 145.25389099 C-10.29328303 146.48352626 -9.04657085 147.6876788 -7.79467773 148.88598633 C-7.46467773 148.88598633 -7.13467773 148.88598633 -6.79467773 148.88598633 C-3.40348793 123.50117326 -3.40348793 123.50117326 -10.80249023 100.44067383 C-13.90532961 97.30292206 -17.241349 94.83358332 -20.85717773 92.32348633 C-23.62475161 90.35351187 -24.64320121 89.59918828 -25.35717773 86.23754883 C-25.35717773 83.72161189 -25.19900836 81.36687919 -24.79467773 78.88598633 C-24.28493408 79.4009668 -23.77519043 79.91594727 -23.25 80.4465332 C-20.95497125 82.76225676 -18.65613605 85.07416413 -16.35717773 87.38598633 C-15.55473633 88.19680664 -14.75229492 89.00762695 -13.92553711 89.84301758 C-13.16176758 90.61000977 -12.39799805 91.37700195 -11.61108398 92.16723633 C-10.55062866 93.23554688 -10.55062866 93.23554688 -9.46875 94.32543945 C-8.05420368 95.99963127 -8.05420368 95.99963127 -6.79467773 95.88598633 C-6.79056885 94.64510254 -6.78645996 93.40421875 -6.78222656 92.12573242 C-6.76039993 87.50714998 -6.70607341 82.88941519 -6.64208984 78.27124023 C-6.61894065 76.27522933 -6.60452137 74.27909682 -6.59912109 72.28295898 C-6.58980903 69.40767908 -6.54876957 66.53430382 -6.50170898 63.65942383 C-6.50564163 62.77169281 -6.50957428 61.88396179 -6.5136261 60.96932983 C-6.36982058 54.81669474 -5.08367318 52.27688752 -0.79467773 47.88598633 C-0.79467773 47.22598633 -0.79467773 46.56598633 -0.79467773 45.88598633 C-0.13467773 45.88598633 0.52532227 45.88598633 1.20532227 45.88598633 C1.20532227 69.31598633 1.20532227 92.74598633 1.20532227 116.88598633 C6.736929 112.18721037 6.736929 112.18721037 11.95141602 107.23754883 C12.56049805 106.62524414 13.16958008 106.01293945 13.79711914 105.38208008 C14.40620117 104.76461914 15.0152832 104.1471582 15.64282227 103.51098633 C16.27897461 102.87032227 16.91512695 102.2296582 17.57055664 101.56958008 C19.11782558 100.01067753 20.66268718 98.44947216 22.20532227 96.88598633 C22.89365801 100.40778877 23.04460713 103.37897458 22.20532227 106.88598633 C19.92922226 109.33369705 17.42349539 111.11851506 14.73535156 113.10205078 C7.56368835 118.50781256 1.5812542 123.74449818 0.21069336 132.95874023 C-0.92488823 145.21468756 0.04884072 157.66286595 1.20532227 169.88598633 C5.53306871 166.25751439 9.66818905 162.53820711 13.63891602 158.51489258 C14.12054703 158.02947495 14.60217804 157.54405731 15.09840393 157.04393005 C17.12274275 155.00352489 19.14097359 152.95712002 21.15966797 150.91113281 C26.99114029 145.00793499 32.8720609 139.25793951 39.20532227 133.88598633 C39.53532227 133.55598633 39.86532227 133.22598633 40.20532227 132.88598633 C40.83730423 137.31785263 41.25078724 141.23273469 38.78588867 145.13061523 C36.79022219 147.28487095 34.71473928 149.2501326 32.51782227 151.19848633 C31.7965918 151.87459961 31.07536133 152.55071289 30.33227539 153.24731445 C28.93189306 154.55817463 27.52241263 155.85939835 26.10302734 157.1496582 C23.72798187 159.32273468 21.45942107 161.5882342 19.20532227 163.88598633 C14.5759857 168.59848463 9.88850283 173.14142927 4.86938477 177.44067383 C1.96554347 179.76231958 1.96554347 179.76231958 0.96481323 183.17654419 C0.96925446 184.13140717 0.97369568 185.08627014 0.97827148 186.07006836 C0.97842255 187.1510379 0.97857361 188.23200745 0.97872925 189.34573364 C0.98905182 190.51659515 0.99937439 191.68745667 1.01000977 192.89379883 C1.01425461 194.68743362 1.01425461 194.68743362 1.01858521 196.51730347 C1.02980922 200.34863152 1.05491795 204.17972855 1.08032227 208.01098633 C1.09034919 210.60343088 1.09947553 213.19587908 1.10766602 215.78833008 C1.1297558 222.15429475 1.16325521 228.52012404 1.20532227 234.88598633 C4.87338512 233.31669669 8.53768531 231.73879804 12.20141602 230.15942383 C13.23085327 229.71912842 14.26029053 229.27883301 15.32092285 228.82519531 C35.32885072 220.18151555 51.89821615 208.12059662 64.20532227 189.88598633 C64.20532227 189.22598633 64.20532227 188.56598633 64.20532227 187.88598633 C61.89532227 187.88598633 59.58532227 187.88598633 57.20532227 187.88598633 C57.71321289 187.07258789 58.22110352 186.25918945 58.74438477 185.42114258 C68.24459927 169.77659139 73.84765664 153.33525703 73.20532227 134.88598633 C70.56532227 135.21598633 67.92532227 135.54598633 65.20532227 135.88598633 C65.16665039 134.44932617 65.16665039 134.44932617 65.12719727 132.98364258 C63.39455887 87.08330951 33.1153045 47.63311391 2.20532227 15.88598633 C1.21532227 15.22598633 0.22532227 14.56598633 -0.79467773 13.88598633 Z " fill="#6CCD72" transform="translate(213.794677734375,182.114013671875)"/>
<path d="M0 0 C0 23.43 0 46.86 0 71 C-0.33 71 -0.66 71 -1 71 C-1.33 49.22 -1.66 27.44 -2 5 C-7.07294093 12.6094114 -5.11475978 24.63002128 -5.0625 33.5625 C-5.0574746 35.06314955 -5.05291353 36.56380072 -5.04882812 38.06445312 C-5.03790576 41.70966977 -5.02069856 45.35482422 -5 49 C-6.80224609 49.67163086 -6.80224609 49.67163086 -9 50 C-10.61572266 48.92016602 -10.61572266 48.92016602 -12.1640625 47.25390625 C-13.01097656 46.36928711 -13.01097656 46.36928711 -13.875 45.46679688 C-14.4525 44.83837891 -15.03 44.20996094 -15.625 43.5625 C-16.77944984 42.33049351 -17.93810236 41.10240734 -19.1015625 39.87890625 C-19.61025879 39.3279126 -20.11895508 38.77691895 -20.64306641 38.20922852 C-21.94593144 36.77823152 -21.94593144 36.77823152 -24 37 C-24.33 38.32 -24.66 39.64 -25 41 C-24.01 41.33 -23.02 41.66 -22 42 C-17.70727418 45.91395589 -13.94595939 50.36102171 -10.0859375 54.6953125 C-8.15139126 56.9232248 -8.15139126 56.9232248 -6.39091492 58.40473938 C-3.92592974 61.23186686 -4.63920146 65.03206301 -4.70703125 68.60546875 C-4.71127609 69.44467361 -4.71552094 70.28387848 -4.71989441 71.14851379 C-4.73668536 73.82850245 -4.7743377 76.5077387 -4.8125 79.1875 C-4.82754633 81.00454643 -4.84123482 82.82160465 -4.85351562 84.63867188 C-4.88659018 89.09273776 -4.93837487 93.54624132 -5 98 C-5.66 98 -6.32 98 -7 98 C-6.93603027 96.94312988 -6.87206055 95.88625977 -6.80615234 94.79736328 C-4.7541913 73.17259084 -4.7541913 73.17259084 -12.07421875 53.85546875 C-15.18875489 50.74842999 -18.53600676 48.24070842 -22.09765625 45.67578125 C-24.94341419 43.51639347 -25.87292017 42.65874714 -26.55810547 39.10693359 C-26.55854545 36.34603987 -26.39909977 33.72981764 -26 31 C-21.50875813 34.69279887 -17.33125061 38.60247357 -13.23828125 42.73046875 C-12.73252563 43.23848022 -12.22677002 43.7464917 -11.70568848 44.26989746 C-10.4693079 45.51212036 -9.23449292 46.75590117 -8 48 C-8.00112793 46.794646 -8.00225586 45.58929199 -8.00341797 44.34741211 C-7.99973288 39.85361249 -7.95681436 35.36087893 -7.90234375 30.86743164 C-7.8842322 28.9267465 -7.87660643 26.9859329 -7.87988281 25.04516602 C-7.88275392 22.24655712 -7.84729643 19.45058585 -7.8046875 16.65234375 C-7.81378143 15.7916478 -7.82287537 14.93095184 -7.83224487 14.04417419 C-7.69530572 8.30333674 -6.35887051 5.35059362 -2.38186646 1.19190979 C-1 0 -1 0 0 0 Z " fill="#88E28B" transform="translate(214,229)"/>
<path d="M0 0 C4.29 0 8.58 0 13 0 C12.9071875 1.14855469 12.814375 2.29710937 12.71875 3.48046875 C12.14626529 13.83886394 13.10482738 20.14413765 19.25 28.59375 C21 31 21 31 21 33 C20.34 33 19.68 33 19 33 C17.9497806 31.35577896 16.98801122 29.65501349 16.0625 27.9375 C12.7195264 21.97951534 8.881552 16.6099037 4.64477539 11.25366211 C4.18707764 10.65690674 3.72937988 10.06015137 3.2578125 9.4453125 C2.8467627 8.92469238 2.43571289 8.40407227 2.01220703 7.86767578 C1 6 1 6 0 0 Z " fill="#8AE48D" transform="translate(242,225)"/>
<path d="M0 0 C3.05895816 1.34074668 4.90255314 3.3415546 7.24829102 5.7121582 C7.72382919 6.18956955 8.19936737 6.6669809 8.6893158 7.15885925 C9.69207693 8.16833065 10.69123976 9.18138754 11.68701172 10.19775391 C13.2043354 11.74614741 14.73198755 13.28369655 16.26196289 14.81958008 C27.05240977 25.71154029 27.05240977 25.71154029 27.44360352 30.61450195 C27.42380227 31.97418731 27.38822679 33.33372036 27.33813477 34.69262695 C27.31783203 35.73870117 27.31783203 35.73870117 27.29711914 36.8059082 C27.26192926 38.51848236 27.20812632 40.23065636 27.15063477 41.94262695 C26.82063477 41.94262695 26.49063477 41.94262695 26.15063477 41.94262695 C26.20606445 41.0712207 26.26149414 40.19981445 26.31860352 39.30200195 C26.36747288 30.27094298 24.6748699 26.14899519 18.45214844 19.85180664 C16.23693812 17.72322466 13.92953167 15.76902008 11.51391602 13.87231445 C8.50903096 11.41873889 6.29219737 8.58368078 3.89672852 5.55200195 C2.05620348 3.49080473 2.05620348 3.49080473 -1.84936523 3.94262695 C-3.61763662 5.12863224 -3.61763662 5.12863224 -5.20483398 6.8371582 C-5.82293945 7.45792236 -6.44104492 8.07868652 -7.07788086 8.71826172 C-7.7243457 9.39042725 -8.37081055 10.06259277 -9.03686523 10.75512695 C-9.70524414 11.43567139 -10.37362305 12.11621582 -11.06225586 12.81738281 C-15.649589 17.54293545 -19.83684625 22.44651648 -23.90795898 27.62231445 C-26.59789823 30.83725191 -29.5613234 33.35416849 -32.84936523 35.94262695 C-31.34444415 30.71028542 -27.97873258 27.55862013 -24.28686523 23.75512695 C-23.01399804 22.41988666 -21.74186309 21.08394796 -20.47045898 19.74731445 C-19.85025879 19.09859375 -19.23005859 18.44987305 -18.59106445 17.78149414 C-16.29396542 15.35624184 -14.06886732 12.87659254 -11.84936523 10.38012695 C-10.51608957 8.90090831 -9.18276266 7.42173585 -7.84936523 5.94262695 C-7.27573242 5.29036133 -6.70209961 4.6380957 -6.11108398 3.96606445 C-2.39361883 -0.07425748 -2.39361883 -0.07425748 0 0 Z " fill="#93E299" transform="translate(213.849365234375,182.057373046875)"/>
<path d="M0 0 C0.103125 0.639375 0.20625 1.27875 0.3125 1.9375 C0.539375 2.618125 0.76625 3.29875 1 4 C1.99 4.33 2.98 4.66 4 5 C8.29272582 8.91395589 12.05404061 13.36102171 15.9140625 17.6953125 C17.84860874 19.9232248 17.84860874 19.9232248 19.60908508 21.40473938 C22.07407026 24.23186686 21.36079854 28.03206301 21.29296875 31.60546875 C21.28872391 32.44467361 21.28447906 33.28387848 21.28010559 34.14851379 C21.26331464 36.82850245 21.2256623 39.5077387 21.1875 42.1875 C21.17245367 44.00454643 21.15876518 45.82160465 21.14648438 47.63867188 C21.11340982 52.09273776 21.06162513 56.54624132 21 61 C20.34 61 19.68 61 19 61 C19.06396973 59.94312988 19.12793945 58.88625977 19.19384766 57.79736328 C21.19215641 36.11548368 21.19215641 36.11548368 13.92578125 16.64453125 C10.20292161 12.80516888 6.11945653 9.53105067 1.63647461 6.61694336 C0 5 0 5 -0.24389648 2.30688477 C-0.16341064 1.54561279 -0.0829248 0.78434082 0 0 Z " fill="#7EDB81" transform="translate(188,266)"/>
<path d="M0 0 C3.3 0 6.6 0 10 0 C10 3.3 10 6.6 10 10 C6.7 10 3.4 10 0 10 C0 6.7 0 3.4 0 0 Z " fill="#8BE58C" transform="translate(263,207)"/>
<path d="M0 0 C0 23.43 0 46.86 0 71 C-0.33 71 -0.66 71 -1 71 C-1.33 49.22 -1.66 27.44 -2 5 C-3.93395001 7.90092502 -4.30131941 8.89674737 -4.625 12.1875 C-4.74875 13.445625 -4.8725 14.70375 -5 16 C-5.33 16 -5.66 16 -6 16 C-6.8610401 6.31808242 -6.8610401 6.31808242 -3.5625 2.375 C-1 0 -1 0 0 0 Z " fill="#90EF93" transform="translate(214,229)"/>
<path d="M0 0 C6.15234375 -0.09765625 6.15234375 -0.09765625 8 0 C9 1 9 1 9.09765625 3.06640625 C9.06510417 5.37760417 9.03255208 7.68880208 9 10 C6.03 10 3.06 10 0 10 C0 6.7 0 3.4 0 0 Z " fill="#6FC572" transform="translate(286,249)"/>
<path d="M0 0 C1.15609707 2.31219413 1.09085101 3.51730696 1.02172852 6.08251953 C0.99158409 7.34360031 0.99158409 7.34360031 0.96083069 8.63015747 C0.92027809 9.99272171 0.92027809 9.99272171 0.87890625 11.3828125 C0.85529526 12.31221649 0.83168427 13.24162048 0.80735779 14.19918823 C0.7306391 17.17461106 0.64665009 20.14977896 0.5625 23.125 C0.50928753 25.13931034 0.45654708 27.15363322 0.40429688 29.16796875 C0.27501284 34.11214132 0.13920707 39.05609727 0 44 C-7.42597701 37.70406819 -7.42597701 37.70406819 -10.30859375 34.7890625 C-11.08686523 34.00595703 -11.08686523 34.00595703 -11.88085938 33.20703125 C-12.39455078 32.68496094 -12.90824219 32.16289062 -13.4375 31.625 C-14.24864258 30.80708984 -14.24864258 30.80708984 -15.07617188 29.97265625 C-16.38646723 28.65076536 -17.69358284 27.32572382 -19 26 C-18.01 25.67 -17.02 25.34 -16 25 C-15.40832031 25.66386719 -14.81664062 26.32773437 -14.20703125 27.01171875 C-13.02173828 28.33623047 -13.02173828 28.33623047 -11.8125 29.6875 C-11.03519531 30.55761719 -10.25789062 31.42773438 -9.45703125 32.32421875 C-7.03878119 34.95776611 -4.53519785 37.47957388 -2 40 C-1.97494385 38.82381104 -1.9498877 37.64762207 -1.92407227 36.43579102 C-1.83017194 32.08785378 -1.72990952 27.74008284 -1.62768555 23.39233398 C-1.58427067 21.50760782 -1.54260057 19.62284064 -1.50268555 17.73803711 C-1.44514107 15.03486751 -1.38140196 12.33190564 -1.31640625 9.62890625 C-1.29969376 8.78099014 -1.28298126 7.93307404 -1.26576233 7.0594635 C-1.11387171 1.11387171 -1.11387171 1.11387171 0 0 Z " fill="#122B21" transform="translate(207,234)"/>
<path d="M0 0 C2.97 0 5.94 0 9 0 C9 2.97 9 5.94 9 9 C6.03 9 3.06 9 0 9 C0 6.03 0 3.06 0 0 Z " fill="#7EC482" transform="translate(251,189)"/>
<path d="M0 0 C2.97 0 5.94 0 9 0 C9 2.97 9 5.94 9 9 C6.03 9 3.06 9 0 9 C0 6.03 0 3.06 0 0 Z " fill="#89E58A" transform="translate(274,184)"/>
<path d="M0 0 C2.64 0 5.28 0 8 0 C8 2.97 8 5.94 8 9 C5.36 9 2.72 9 0 9 C0 6.03 0 3.06 0 0 Z " fill="#84E086" transform="translate(282,223)"/>
<path d="M0 0 C0.66 0.33 1.32 0.66 2 1 C1.67 1.66 1.34 2.32 1 3 C0.65199995 6.53372678 0.6290653 10.07638094 0.5625 13.625 C0.51673828 14.59824219 0.47097656 15.57148438 0.42382812 16.57421875 C0.31165411 23.82163579 1.97861605 27.77352658 7 33 C3.21988119 31.25228817 1.3411162 29.5116743 -1 26 C-2.71544997 21.0062702 -3.29651476 16.58230061 -3.3125 11.3125 C-3.32925781 10.02988281 -3.34601563 8.74726563 -3.36328125 7.42578125 C-2.98800274 3.88686457 -2.42322239 2.52552201 0 0 Z " fill="#4EAA5F" transform="translate(217,428)"/>
<path d="M0 0 C4.2799662 0.4755518 6.19418339 2.91360173 9 6 C9.66 6.845625 10.32 7.69125 11 8.5625 C12.92939181 11.09550071 12.92939181 11.09550071 15.5625 13 C18.18365311 15.15068973 19.3533476 17.06466311 21 20 C22.31037934 21.68477344 23.63823078 23.35648543 25 25 C24.67 25.66 24.34 26.32 24 27 C23.23816406 26.10539062 22.47632813 25.21078125 21.69140625 24.2890625 C19.00037478 21.13399976 16.29853222 17.98841171 13.59082031 14.84765625 C12.59035726 13.6856697 11.59199648 12.52186643 10.59667969 11.35546875 C9.38533144 9.9381089 8.16183005 8.53116125 6.9375 7.125 C6.24527344 6.32320312 5.55304688 5.52140625 4.83984375 4.6953125 C3.04926932 2.66118433 3.04926932 2.66118433 0 3 C0 2.01 0 1.02 0 0 Z " fill="#91DC98" transform="translate(212,195)"/>
<path d="M0 0 C6.30279725 4.96177656 11.01330924 10.74856884 16 17 C17.97922698 19.35235994 19.98653819 21.67677484 22 24 C21.67 24.66 21.34 25.32 21 26 C17.99841571 23.17497949 15.43478264 20.33047987 13 17 C9.80424827 12.64364278 6.13317457 9.0576296 2.1875 5.375 C0 3 0 3 0 0 Z " fill="#14261E" transform="translate(216,199)"/>
<path d="M0 0 C0.66 0.66 1.32 1.32 2 2 C-6.24289181 5.91262598 -14.4608306 9.76516171 -23 13 C-23.33 12.34 -23.66 11.68 -24 11 C-23.26394531 10.67386719 -22.52789062 10.34773438 -21.76953125 10.01171875 C-20.30580078 9.35623047 -20.30580078 9.35623047 -18.8125 8.6875 C-17.36810547 8.04361328 -17.36810547 8.04361328 -15.89453125 7.38671875 C-13.0030731 6.0579819 -13.0030731 6.0579819 -10.40625 4.4375 C-7.06949785 2.4441156 -3.65748833 1.30181788 0 0 Z " fill="#50AD5A" transform="translate(245,412)"/>
<path d="M0 0 C0.33 0.99 0.66 1.98 1 3 C-3.29 7.62 -7.58 12.24 -12 17 C-12 12.88522189 -10.31136484 11.61348556 -7.6875 8.5 C-6.48673828 7.06140625 -6.48673828 7.06140625 -5.26171875 5.59375 C-3.56253629 3.64511934 -1.8647922 1.78633816 0 0 Z " fill="#90DF96" transform="translate(194,201)"/>
<path d="M0 0 C0.66 0 1.32 0 2 0 C0.50869275 4.48229987 -1.98135827 7.89693926 -4.875 11.5625 C-5.30941406 12.12646484 -5.74382812 12.69042969 -6.19140625 13.27148438 C-8.61911452 16.38813688 -11.13745394 19.2772527 -14 22 C-12.53745152 17.69931691 -10.34006568 14.57571673 -7.5625 11 C-5.31186623 8.09308588 -3.17886052 5.30974433 -1.33984375 2.125 C-0.67662109 1.073125 -0.67662109 1.073125 0 0 Z " fill="#8ADA90" transform="translate(187,223)"/>
<path d="M0 0 C0.33 0.66 0.66 1.32 1 2 C0.01 3.485 0.01 3.485 -1 5 C-1.66 5 -2.32 5 -3 5 C-3.66 6.65 -4.32 8.3 -5 10 C-5.66 10 -6.32 10 -7 10 C-7.2475 10.7425 -7.495 11.485 -7.75 12.25 C-9.09147301 15.20124062 -10.60905526 16.84814974 -13 19 C-13 15.6525634 -12.66537951 15.20731462 -10.6640625 12.71484375 C-9.93316406 11.79541992 -9.93316406 11.79541992 -9.1875 10.85742188 C-8.671875 10.22384766 -8.15625 9.59027344 -7.625 8.9375 C-7.11710938 8.30005859 -6.60921875 7.66261719 -6.0859375 7.00585938 C-4.13066466 4.56434105 -2.2137015 2.2137015 0 0 Z " fill="#12241D" transform="translate(195,217)"/>
<path d="M0 0 C5.1576857 1.41836357 9.79975258 3.67391575 14 7 C14 7.66 14 8.32 14 9 C14.66 9 15.32 9 16 9 C16 9.66 16 10.32 16 11 C11.87321179 9.55901911 8.69813572 7.52700506 5.1875 4.9375 C4.21167969 4.22464844 3.23585937 3.51179688 2.23046875 2.77734375 C1.49441406 2.19082031 0.75835937 1.60429687 0 1 C0 0.67 0 0.34 0 0 Z " fill="#53B35D" transform="translate(161,400)"/>
<path d="M0 0 C0.99 0.99 1.98 1.98 3 3 C2.45730469 3.47050781 1.91460937 3.94101563 1.35546875 4.42578125 C0.64003906 5.04839844 -0.07539063 5.67101562 -0.8125 6.3125 C-1.52019531 6.92738281 -2.22789062 7.54226562 -2.95703125 8.17578125 C-4.98244046 9.93276741 -4.98244046 9.93276741 -6.63671875 11.73046875 C-8 13 -8 13 -10 13 C-8.48446596 9.52224821 -6.4226544 7.0442016 -3.875 4.25 C-3.15054688 3.45078125 -2.42609375 2.6515625 -1.6796875 1.828125 C-0.84824219 0.92320312 -0.84824219 0.92320312 0 0 Z " fill="#12231C" transform="translate(213,196)"/>
<path d="M0 0 C1.65 0 3.3 0 5 0 C5 2.31 5 4.62 5 7 C3.35 7 1.7 7 0 7 C0 4.69 0 2.38 0 0 Z " fill="#8CE88D" transform="translate(253,189)"/>
<path d="M0 0 C2.80780292 0.56156058 4.87570449 1.42221466 7.5 2.6875 C10.8099297 4.34736986 10.8099297 4.34736986 13.4375 3.1875 C13.953125 2.795625 14.46875 2.40375 15 2 C13.35 3.65 11.7 5.3 10 7 C7.36 5.68 4.72 4.36 2 3 C1.01 3.66 0.02 4.32 -1 5 C-0.67 3.35 -0.34 1.7 0 0 Z " fill="#84D489" transform="translate(157,229)"/>
<path d="M0 0 C0.33 0 0.66 0 1 0 C1.33 6.6 1.66 13.2 2 20 C-3.625 14.375 -3.625 14.375 -4 11 C-3.01 11.33 -2.02 11.66 -1 12 C-0.67 8.04 -0.34 4.08 0 0 Z " fill="#79BE80" transform="translate(241,210)"/>
<path d="M0 0 C5.52850255 0.22565317 8.54284598 1.53273577 12.62109375 5.30078125 C14.59421981 7.73225387 14.92665178 9.91937475 15 13 C13.18207596 11.27297216 11.74798387 9.6359767 10.3125 7.5625 C7.3215235 4.24817469 4.04708192 2.75831957 0 1 C0 0.67 0 0.34 0 0 Z " fill="#4FAD5C" transform="translate(193,419)"/>
<path d="M0 0 C3.76543194 0.54619452 5.18817536 1.97481823 7.5625 4.875 C9.62391463 7.36338916 11.67537129 9.75309443 14 12 C13.67 12.66 13.34 13.32 13 14 C10.83031809 11.85714108 8.66416525 9.71091768 6.5 7.5625 C5.87996094 6.95083984 5.25992188 6.33917969 4.62109375 5.70898438 C4.03457031 5.12568359 3.44804687 4.54238281 2.84375 3.94140625 C2.02680664 3.13231812 2.02680664 3.13231812 1.19335938 2.30688477 C0 1 0 1 0 0 Z " fill="#5AC164" transform="translate(147,386)"/>
<path d="M0 0 C0.66 0.99 1.32 1.98 2 3 C4.05925139 3.72382467 4.05925139 3.72382467 6 4 C6.36923077 8.55384615 6.36923077 8.55384615 4.5 10.8125 C4.005 11.204375 3.51 11.59625 3 12 C2.34 11.67 1.68 11.34 1 11 C2.32 9.02 3.64 7.04 5 5 C2.69 5 0.38 5 -2 5 C-1.34 3.35 -0.68 1.7 0 0 Z " fill="#5ABD62" transform="translate(273,365)"/>
<path d="M0 0 C4.18423892 3.50897269 8.19588166 7.08060535 12 11 C11.01 11.33 10.02 11.66 9 12 C7.49405319 10.38050958 5.99539332 8.75424026 4.5 7.125 C3.6646875 6.22007812 2.829375 5.31515625 1.96875 4.3828125 C0 2 0 2 0 0 Z " fill="#0E251C" transform="translate(210,461)"/>
<path d="M0 0 C4.13621084 3.3810038 7.81316569 6.66590534 11 11 C8 11 8 11 5.95703125 9.1015625 C5.24933594 8.28429687 4.54164063 7.46703125 3.8125 6.625 C3.09707031 5.81289063 2.38164062 5.00078125 1.64453125 4.1640625 C0 2 0 2 0 0 Z " fill="#0F251B" transform="translate(147,387)"/>
<path d="M0 0 C0.66 0.33 1.32 0.66 2 1 C-2.29 5.29 -6.58 9.58 -11 14 C-11 11 -11 11 -8.875 8.6875 C-7.92625 7.800625 -6.9775 6.91375 -6 6 C-4.89194774 4.89973265 -3.78773961 3.7955798 -2.6875 2.6875 C-1.800625 1.800625 -0.91375 0.91375 0 0 Z " fill="#2F7037" transform="translate(244,335)"/>
<path d="M0 0 C1.32 0.33 2.64 0.66 4 1 C4 1.66 4 2.32 4 3 C4.66 3 5.32 3 6 3 C6 3.66 6 4.32 6 5 C6.66 5 7.32 5 8 5 C9.625 7 9.625 7 11 9 C10.67 9.66 10.34 10.32 10 11 C8.33035479 9.35718838 6.6643536 7.71067239 5 6.0625 C4.071875 5.14597656 3.14375 4.22945313 2.1875 3.28515625 C0 1 0 1 0 0 Z " fill="#4DA967" transform="translate(210,460)"/>
<path d="M0 0 C0.66 0.66 1.32 1.32 2 2 C-0.64 4.64 -3.28 7.28 -6 10 C-6.66 9.34 -7.32 8.68 -8 8 C-6.71034824 6.62437146 -5.37310707 5.29233607 -4 4 C-3.34 4 -2.68 4 -2 4 C-1.34 2.68 -0.68 1.36 0 0 Z " fill="#59BD62" transform="translate(274,389)"/>
<path d="M0 0 C0.33 0.99 0.66 1.98 1 3 C-0.43359375 5.04296875 -0.43359375 5.04296875 -2.4375 7.1875 C-3.09621094 7.90292969 -3.75492188 8.61835938 -4.43359375 9.35546875 C-4.95050781 9.89816406 -5.46742188 10.44085938 -6 11 C-6.33 10.34 -6.66 9.68 -7 9 C-4.69 6.03 -2.38 3.06 0 0 Z " fill="#8DDD92" transform="translate(179,219)"/>
<path d="M0 0 C2.14014979 4.28029958 2.15816979 4.88772754 1.125 9.25 C0.92132813 10.14203125 0.71765625 11.0340625 0.5078125 11.953125 C0.34023438 12.62859375 0.17265625 13.3040625 0 14 C-0.99 14.33 -1.98 14.66 -3 15 C-2.01 10.05 -1.02 5.1 0 0 Z " fill="#5CBB64" transform="translate(285,332)"/>
<path d="M0 0 C2.31 0 4.62 0 7 0 C6.25 4.75 6.25 4.75 4 7 C3.67 6.01 3.34 5.02 3 4 C3.33 3.67 3.66 3.34 4 3 C2.68 2.34 1.36 1.68 0 1 C0 0.67 0 0.34 0 0 Z " fill="#5CBF64" transform="translate(287,362)"/>
<path d="M0 0 C2.475 0.99 2.475 0.99 5 2 C4.071875 2.4021875 4.071875 2.4021875 3.125 2.8125 C0.7004767 3.95556848 0.7004767 3.95556848 -1 7 C-1.66 7 -2.32 7 -3 7 C-1.125 1.125 -1.125 1.125 0 0 Z " fill="#10241D" transform="translate(162,245)"/>
<path d="M0 0 C0.66 0 1.32 0 2 0 C1.67 2.97 1.34 5.94 1 9 C1.66 9 2.32 9 3 9 C2.34 10.32 1.68 11.64 1 13 C0.67 13 0.34 13 0 13 C0 8.71 0 4.42 0 0 Z " fill="#2C6D33" transform="translate(215,339)"/>
<path d="M0 0 C0.99 0.99 1.98 1.98 3 3 C1.70700306 5.88437779 0.34058637 7.87219421 -2 10 C-1.33333333 6.66666667 -0.66666667 3.33333333 0 0 Z " fill="#499E60" transform="translate(224,461)"/>
<path d="M0 0 C1 3 1 3 -0.3125 6.625 C-2 10 -2 10 -4 11 C-3.39301257 6.87248551 -1.96189209 3.6678852 0 0 Z " fill="#10251E" transform="translate(158,252)"/>
<path d="M0 0 C0.66 0.66 1.32 1.32 2 2 C1.01 3.485 1.01 3.485 0 5 C-0.45139459 7.0492094 -0.45139459 7.0492094 -0.625 9.1875 C-0.74875 10.445625 -0.8725 11.70375 -1 13 C-1.33 13 -1.66 13 -2 13 C-2.05416188 11.39620659 -2.09286638 9.79188594 -2.125 8.1875 C-2.14820313 7.29417969 -2.17140625 6.40085938 -2.1953125 5.48046875 C-2 3 -2 3 0 0 Z " fill="#90E894" transform="translate(210,232)"/>
<path d="M0 0 C2.96404505 2.80804268 5.44499019 5.18315774 7 9 C2.97449681 7.6581656 2.11714364 5.5772427 0 2 C0 1.34 0 0.68 0 0 Z " fill="#12261E" transform="translate(238,225)"/>
<path d="M0 0 C1 2 1 2 0.1875 5.5625 C-1 9 -1 9 -3 10 C-2.25 3.375 -2.25 3.375 0 0 Z " fill="#153124" transform="translate(150,271)"/>
<path d="M0 0 C3.48331435 3.01887244 4.79157144 5.56909529 6 10 C5.34 10 4.68 10 4 10 C3.32845067 8.71086513 2.66291141 7.41859796 2 6.125 C1.62875 5.40570313 1.2575 4.68640625 0.875 3.9453125 C0 2 0 2 0 0 Z " fill="#142A22" transform="translate(255,248)"/>
<path d="M0 0 C0.33 0.99 0.66 1.98 1 3 C0.01 4.485 0.01 4.485 -1 6 C-1.66 6 -2.32 6 -3 6 C-3 6.99 -3 7.98 -3 9 C-3.66 9 -4.32 9 -5 9 C-3.7508258 5.54074837 -2.32472205 2.85306797 0 0 Z " fill="#12271F" transform="translate(178,239)"/>
<path d="M0 0 C0.33 0.99 0.66 1.98 1 3 C-0.32 4.32 -1.64 5.64 -3 7 C-3.99 6.67 -4.98 6.34 -6 6 C-4.02 4.02 -2.04 2.04 0 0 Z " fill="#8BD393" transform="translate(194,201)"/>
<path d="M0 0 C0.66 0.66 1.32 1.32 2 2 C0.71937515 3.7074998 -0.61767557 5.37373596 -2 7 C-2.66 7 -3.32 7 -4 7 C-2.79618552 4.50638429 -1.54571278 2.31856917 0 0 Z " fill="#59BD62" transform="translate(282,379)"/>
<path d="M0 0 C-1.39332574 3.36720387 -2.9789286 4.9859524 -6 7 C-5.37162381 3.35541809 -4.14650034 0 0 0 Z " fill="#93E59A" transform="translate(201,209)"/>
</svg>
