<?xml version="1.0" encoding="UTF-8"?>
<svg version="1.1" xmlns="http://www.w3.org/2000/svg" width="1024" height="1024">
<path d="M0 0 C337.92 0 675.84 0 1024 0 C1024 337.92 1024 675.84 1024 1024 C686.08 1024 348.16 1024 0 1024 C0 686.08 0 348.16 0 0 Z " fill="#010100" transform="translate(0,0)"/>
<path d="M0 0 C1.26588959 -0.00540298 2.53177917 -0.01080597 3.83602905 -0.01637268 C7.29282912 -0.03028112 10.74912886 -0.01918993 14.20590091 -0.00266147 C17.83364628 0.01124207 21.46136415 0.00472282 25.08912659 0.00120544 C31.18108124 -0.00149286 37.27283844 0.01194482 43.36474609 0.03515625 C50.39315671 0.06175176 57.42123707 0.06351552 64.44968075 0.05176789 C71.22802771 0.04096181 78.00625601 0.04720007 84.78459358 0.06132317 C87.66120291 0.06705971 90.53772472 0.06701873 93.41433525 0.06225777 C97.43786238 0.05656799 101.46090284 0.07587242 105.484375 0.09765625 C106.66956223 0.0931546 107.85474945 0.08865295 109.07585144 0.08401489 C116.20327173 0.14800929 122.65639485 0.45386162 128.36547852 5.22045898 C128.82051758 5.80827148 129.27555664 6.39608398 129.74438477 7.00170898 C130.2174707 7.58952148 130.69055664 8.17733398 131.17797852 8.78295898 C134.41268839 13.70777679 133.92824752 19.86659159 133.30688477 25.50170898 C131.6648643 30.07433099 129.0413905 33.32845749 124.99438477 36.00170898 C121.71888457 37.33411584 120.41318891 37.67844608 117.07641602 37.59545898 C115.8324707 37.56452148 114.58852539 37.53358398 113.30688477 37.50170898 C113.2369175 47.78642168 113.18383883 58.07107637 113.15144825 68.35597992 C113.13589081 73.13332109 113.11483735 77.91049766 113.08056641 82.68774414 C113.04761459 87.31082238 113.02995748 91.93374379 113.02225304 96.55693054 C113.01677302 98.3076982 113.00607519 100.05845872 112.9896946 101.80915833 C112.79907265 123.05592073 117.70747009 140.18001017 126.74438477 159.43920898 C127.26097656 160.5490918 127.77756836 161.65897461 128.30981445 162.80249023 C129.41026561 165.16520425 130.51268161 167.52700399 131.61694336 169.88793945 C133.29541352 173.47717888 134.96791631 177.06914256 136.63891602 180.66186523 C140.1839389 188.28028286 143.74274824 195.89221681 147.30688477 203.50170898 C147.62933167 204.19020935 147.95177856 204.87870972 148.28399658 205.58807373 C155.99055465 222.03980318 163.74591432 238.46396618 171.66137695 254.81640625 C175.73644607 263.25825088 179.66561269 271.76141485 183.56420898 280.28588867 C188.43939557 290.89329694 193.55081888 301.38345435 198.70068359 311.85961914 C219.20309517 353.69133003 219.20309517 353.69133003 213.18188477 375.26733398 C207.52261589 389.71868129 199.59647011 398.44445887 185.73657227 405.09155273 C178.65891829 408.00161319 172.8920066 408.79581541 165.29612732 408.77586365 C164.30363749 408.78110033 163.31114766 408.786337 162.28858238 408.79173237 C158.97099303 408.80670467 155.65355829 408.80743693 152.3359375 408.80810547 C149.95370728 408.81572894 147.57147952 408.82415676 145.18925476 408.83332825 C138.72199239 408.8552648 132.25476432 408.8640936 125.78747058 408.86915469 C121.74346669 408.8724184 117.69947225 408.87894502 113.65547371 408.88615608 C102.44244793 408.90571697 91.22943092 408.92212361 80.01638699 408.92503262 C78.94114284 408.92531397 78.94114284 408.92531397 77.84417659 408.92560101 C76.39119502 408.92596724 74.93821344 408.92633094 73.48523187 408.92669212 C72.7640409 408.92687493 72.04284993 408.92705774 71.29980469 408.92724609 C70.57772554 408.92742664 69.85564639 408.92760719 69.11168606 408.92779321 C57.42355977 408.93133136 45.73561811 408.95833344 34.0475558 408.99574398 C22.02618483 409.03391098 10.00490526 409.05319071 -2.01652759 409.05349213 C-8.75745949 409.05407489 -15.49817121 409.06244899 -22.2390461 409.09148979 C-28.58473539 409.11773801 -34.92999017 409.11983746 -41.27570915 409.10383415 C-43.59676438 409.10202492 -45.91784497 409.1086625 -48.23884583 409.12465286 C-66.763346 409.24443126 -80.50842768 407.36537984 -94.69311523 394.50170898 C-104.26430232 384.39988113 -108.2837803 371.76716914 -107.99780273 358.07202148 C-106.84093054 344.51585246 -101.526801 332.61135257 -95.69311523 320.50170898 C-95.4112738 319.91542725 -95.12943237 319.32914551 -94.83905029 318.72509766 C-90.61042614 309.93099905 -86.34055241 301.15721635 -82.05633545 292.39009094 C-78.56180038 285.23783924 -75.08674077 278.07624144 -71.61657715 270.91213989 C-69.96955057 267.51199962 -68.32152107 264.11234553 -66.67358398 260.71264648 C-66.34750153 260.0398616 -66.02141907 259.36707672 -65.68545532 258.67390442 C-63.31070624 253.77458109 -60.93386605 248.87627513 -58.55639648 243.97827148 C-51.54459332 229.53093625 -44.55197351 215.07501552 -37.61499023 200.59155273 C-35.59265411 196.37105492 -33.56026629 192.15557459 -31.52124023 187.94311523 C-28.2278412 181.13758018 -24.95696059 174.32145791 -21.69311523 167.50170898 C-21.10173167 166.27119804 -20.51025893 165.04072995 -19.91870117 163.81030273 C-18.42853723 160.70726083 -16.95119754 157.59836337 -15.48165894 154.48550415 C-14.66349194 152.75860174 -13.8348883 151.03665573 -13.00585938 149.31494141 C-5.90849761 134.19820412 -4.09103243 121.33432269 -4.08374023 104.88452148 C-4.06872779 102.93153534 -4.05199432 100.97856175 -4.03363037 99.02560425 C-3.99028843 93.93271236 -3.970032 88.83999161 -3.95489502 83.74694824 C-3.93520329 78.53098569 -3.89324758 73.31520478 -3.85327148 68.09936523 C-3.77832932 57.90020298 -3.727821 47.70108208 -3.69311523 37.50170898 C-4.61108887 37.52128662 -4.61108887 37.52128662 -5.54760742 37.54125977 C-6.35359375 37.55141113 -7.15958008 37.5615625 -7.98999023 37.57202148 C-9.18640137 37.59159912 -9.18640137 37.59159912 -10.40698242 37.61157227 C-15.35418278 37.37382769 -18.08339786 35.12528357 -21.44311523 31.68920898 C-24.98613568 26.66993002 -26.28911863 21.97814317 -26.13452148 15.87670898 C-25.05144893 10.04920354 -21.51772307 5.85260571 -16.86167908 2.40538025 C-11.55855504 -0.52775899 -5.9100539 -0.04812809 0 0 Z " fill="#840DDD" transform="translate(453.693115234375,420.498291015625)"/>
<path d="M0 0 C11.03072229 5.32375699 15.92459099 18.26576242 19.79052734 29.24511719 C21.17315844 33.493174 22.37922538 37.78037796 23.50488281 42.10302734 C23.95027091 43.80946989 24.42268557 45.5088037 24.8984375 47.20703125 C28.37715061 60.0713812 29.36943212 72.96890919 29.3125 86.25 C29.31100952 86.92054413 29.30951904 87.59108826 29.3079834 88.2819519 C29.24358789 104.48294893 27.20081032 119.61057152 22 135 C21.59136719 136.21042969 21.18273437 137.42085937 20.76171875 138.66796875 C15.63664544 152.96725776 7.0329024 164.73047417 -3.54052734 175.50537109 C-5.04312331 177.04416208 -6.5158835 178.60811351 -7.98828125 180.17578125 C-20.21322438 193.00609138 -34.33178376 202.79486825 -49.34375 212.0859375 C-69.05403203 224.32301044 -92.31697537 238.80458277 -100 262 C-100.2759478 263.92903132 -100.48449903 265.8689032 -100.625 267.8125 C-100.69976562 268.78832031 -100.77453125 269.76414062 -100.8515625 270.76953125 C-100.90054688 271.50558594 -100.94953125 272.24164063 -101 273 C-114.3366993 271.86977125 -127.20493702 264.94812144 -137 256 C-137.83015625 255.24976563 -138.6603125 254.49953125 -139.515625 253.7265625 C-152.38137079 241.51566005 -159.55059402 226.57827677 -160.203125 208.72265625 C-160.63758495 183.20428192 -153.26336094 160.41496997 -135.48266602 141.45263672 C-126.20151478 131.91179582 -115.78020559 123.84463699 -104.85693359 116.29052734 C-102.93258889 114.95315079 -101.02167403 113.59831247 -99.11328125 112.23828125 C-91.14039926 106.56185775 -83.09521993 101.00049958 -75 95.5 C-54.990147 81.93255529 -54.990147 81.93255529 -36 67 C-35.39414062 66.53980469 -34.78828125 66.07960938 -34.1640625 65.60546875 C-14.43066179 50.27270905 -4.27542856 23.74112885 0 0 Z " fill="#9420E0" transform="translate(609,121)"/>
<path d="M0 0 C15.84 0 31.68 0 48 0 C48.02578125 6.47882813 48.0515625 12.95765625 48.078125 19.6328125 C48.10332105 23.76175712 48.12967524 27.89063049 48.16015625 32.01953125 C48.20832226 38.5587583 48.25243017 45.0978202 48.27099609 51.63720703 C48.28625127 56.91533929 48.32085234 62.19303653 48.36830902 67.47097397 C48.38303199 69.47452873 48.39103574 71.47814563 48.39188385 73.4817543 C48.40168847 85.04074796 48.96385425 95.04724642 53 106 C53.24624115 106.71690002 53.4924823 107.43380005 53.7461853 108.17242432 C57.62301981 119.09147229 62.9204882 129.51387619 67.9375 139.9375 C72.95669312 150.39041082 77.89721152 160.85312399 82.48217773 171.50488281 C87.58566009 183.2567653 93.28620035 194.74119889 98.8605957 206.27392578 C104.7268015 218.44594351 110.38203837 230.7115707 116 243 C112.68321115 243 110.50905178 242.02981376 107.50805664 240.71313477 C73.78964231 225.92172539 41.89072262 233.04974058 7.72171021 242.4087677 C-2.67328114 245.24489474 -12.3053966 247.39123076 -23.125 247.375 C-24.15036865 247.37483887 -25.1757373 247.37467773 -26.23217773 247.37451172 C-39.95829871 247.1761121 -53.86710346 245.04369353 -67 241 C-65.36729746 235.28554111 -63.14314502 230.11724367 -60.4375 224.8359375 C-55.80148536 215.6723818 -51.39232881 206.40723974 -47 197.125 C-46.16502144 195.36300689 -45.32997793 193.60104457 -44.49487305 191.83911133 C-42.39117116 187.3989727 -40.29007283 182.95760759 -38.18988037 178.51580811 C-37.06831135 176.14443321 -35.94573944 173.77353639 -34.82275391 171.40283203 C-30.86221147 163.03975198 -26.92135687 154.66776185 -23.00439453 146.28417969 C-21.61487306 143.3109423 -20.21919809 140.3406829 -18.81982422 137.37207031 C-16.97106803 133.44824115 -15.13573156 129.5183631 -13.3086853 125.5843811 C-12.61763306 124.10142056 -11.92251959 122.62034384 -11.22280884 121.14144897 C-10.24609015 119.07484987 -9.28560561 117.00135069 -8.328125 114.92578125 C-7.7805957 113.75442627 -7.23306641 112.58307129 -6.66894531 111.3762207 C-1.1500072 97.65998691 -0.39683011 85.029485 -0.390625 70.41015625 C-0.37561138 68.36891896 -0.35887768 66.32769367 -0.34051514 64.28648376 C-0.29718638 58.96509177 -0.27691972 53.64386353 -0.26177979 48.32232666 C-0.23860824 41.91005231 -0.1862193 35.49795545 -0.13883972 29.08582306 C-0.07041545 19.39050291 -0.03865135 9.69569006 0 0 Z " fill="#020202" transform="translate(484,458)"/>
<path d="M0 0 C0.99 0.495 0.99 0.495 2 1 C-9.69953893 14.67827869 -9.69953893 14.67827869 -13.5 19 C-35.64870166 44.24418286 -57.33968036 69.18022021 -70.5 100.4375 C-70.90935791 101.40743896 -71.31871582 102.37737793 -71.74047852 103.37670898 C-75.47041275 112.55742459 -78.19104909 121.82098189 -78.6875 131.75 C-78.75324219 132.94109375 -78.81898438 134.1321875 -78.88671875 135.359375 C-78.92410156 136.23078125 -78.96148437 137.1021875 -79 138 C-86.98133233 130.76649267 -89.88472025 121.31661318 -90.51953125 110.8125 C-90.83300729 100.15431459 -90.91201992 89.70200208 -86 80 C-85.56429688 79.07703125 -85.12859375 78.1540625 -84.6796875 77.203125 C-74.00999888 56.096965 -54.55323782 40.48943662 -36.04833984 26.55175781 C-34.2253022 25.17068186 -32.41545035 23.77531842 -30.61328125 22.3671875 C-23.1229178 16.52150862 -15.43962513 11.0078239 -7.65234375 5.56640625 C-5.06458368 3.75712578 -2.50686732 1.92084639 0 0 Z " fill="#5D0DA1" transform="translate(580,246)"/>
<path d="M0 0 C6.53287988 3.67842336 10.27639729 8.04126757 13.3515625 14.77734375 C15.14569031 22.93247015 14.30788949 30.73943009 9.78515625 37.8828125 C5.16020911 43.7931673 -0.40912541 46.71191612 -7.7734375 47.90234375 C-14.56834047 48.31003793 -20.82585735 46.48921317 -26.10546875 42.1328125 C-32.65679237 35.14013656 -34.59933848 28.29099498 -34.30078125 18.796875 C-33.4235989 11.32570121 -29.63500459 7.11476691 -24.05859375 2.34765625 C-17.13246917 -2.42453387 -7.81271427 -2.89627007 0 0 Z " fill="#6700C7" transform="translate(486.9609375,751.09765625)"/>
<path d="M0 0 C13.53 0 27.06 0 41 0 C41 13.53 41 27.06 41 41 C27.47 41 13.94 41 0 41 C0 27.47 0 13.94 0 0 Z " fill="#8408E1" transform="translate(689,216)"/>
<path d="M0 0 C5.36413961 3.52124502 9.1877904 7.76985931 11 14 C11.87245553 20.16115501 11.5536166 25.69819335 8.40234375 31.1484375 C4.61359796 36.15084838 0.02901116 40.10924502 -6 42 C-13.6112302 42.83811242 -20.76995556 42.83928281 -27 38 C-32.81314276 32.62902023 -35.02626319 27.53696638 -35.375 19.625 C-35.21605368 13.10820074 -33.6190479 8.76667691 -29.12890625 4.0234375 C-20.610266 -3.80276129 -10.47413533 -5.77057352 0 0 Z " fill="#830ADF" transform="translate(510,617)"/>
<path d="M0 0 C4.30595101 3.99264487 7.74249269 7.61278845 8.203125 13.671875 C8.31132321 20.7768909 8.34325569 26.53833734 3.125 31.94140625 C-3.07893246 37.58652862 -7.41616234 38.36083838 -15.765625 38.27734375 C-21.5647886 37.78007247 -24.95366203 35.36616079 -28.8125 31.0625 C-33.2055577 24.91221922 -33.82198866 19.40830282 -33 12 C-31.21932626 5.77297326 -27.32961838 1.53756329 -22 -2 C-14.23109074 -5.56075008 -7.06456871 -4.48998117 0 0 Z " fill="#7502D4" transform="translate(569,724)"/>
<path d="M0 0 C11.22 0 22.44 0 34 0 C34 11.22 34 22.44 34 34 C22.78 34 11.56 34 0 34 C0 22.78 0 11.56 0 0 Z " fill="#7A00D9" transform="translate(650,313)"/>
<path d="M0 0 C1 3 1 3 -0.4375 6.1875 C-1.2109375 7.5796875 -1.2109375 7.5796875 -2 9 C-2.99 9 -3.98 9 -5 9 C-5.66 10.65 -6.32 12.3 -7 14 C-7.66 14 -8.32 14 -9 14 C-9 14.99 -9 15.98 -9 17 C-9.66 17 -10.32 17 -11 17 C-11.20625 17.5775 -11.4125 18.155 -11.625 18.75 C-13.51328567 21.83992201 -15.95836705 23.04876377 -19 25 C-23.63309775 28.45735337 -23.63309775 28.45735337 -27 33 C-28.98 33 -30.96 33 -33 33 C-33 34.32 -33 35.64 -33 37 C-35.12401131 39.77755326 -36.58955338 40.8690064 -39.9375 41.9375 C-43.66823839 43.23183781 -45.26556082 45.19719984 -48 48 C-49.97522846 49.04808041 -51.97481509 50.0520411 -54 51 C-54.66 51.515625 -55.32 52.03125 -56 52.5625 C-58.50074874 54.35991316 -61.09400766 55.03133589 -64 56 C-64.495 56.99 -64.495 56.99 -65 58 C-65.66 58 -66.32 58 -67 58 C-67.37125 58.9590625 -67.37125 58.9590625 -67.75 59.9375 C-69 62 -69 62 -71.125 62.75 C-71.74375 62.8325 -72.3625 62.915 -73 63 C-73 63.66 -73 64.32 -73 65 C-74.0725 65.391875 -75.145 65.78375 -76.25 66.1875 C-79.94106272 67.751384 -81.58961061 69.78614748 -84 73 C-85.64333504 74.03789581 -87.31243867 75.03567924 -89 76 C-90.07608569 76.87946756 -91.13828747 77.77614021 -92.1875 78.6875 C-95 81 -95 81 -97 81 C-97.5775 81.5775 -98.155 82.155 -98.75 82.75 C-101.28037902 85.28037902 -104.02725114 87.01816743 -107 89 C-108.37086915 90.29470975 -109.71340837 91.62150897 -111 93 C-113 95 -113 95 -115.4375 96.8125 C-118.0352608 99.03010069 -119.29873071 101.08353837 -121 104 C-121.66 104 -122.32 104 -123 104 C-123.37125 105.051875 -123.37125 105.051875 -123.75 106.125 C-125 109 -125 109 -127.125 111.9375 C-129.20242988 115.33063548 -129.37123008 117.10208412 -129 121 C-129.61875 121.04125 -130.2375 121.0825 -130.875 121.125 C-131.57625 121.41375 -132.2775 121.7025 -133 122 C-134.15835673 124.97503122 -134.15835673 124.97503122 -135 128 C-135.66 128.33 -136.32 128.66 -137 129 C-137.92156119 126.52633574 -138.23704203 124.70361287 -137.38378906 122.17089844 C-136.37186167 120.02384334 -135.27679946 117.95045137 -134.125 115.875 C-133.71588379 115.12234863 -133.30676758 114.36969727 -132.88525391 113.59423828 C-129.24643603 107.08670061 -125.07147374 101.48470494 -120 96 C-119.14148438 95.05640625 -119.14148438 95.05640625 -118.265625 94.09375 C-103.50774323 78.63311195 -84.30421816 66.78164154 -66.7109375 54.875 C-45.99371482 40.93902487 -45.99371482 40.93902487 -26 26 C-25.46197754 25.57412598 -24.92395508 25.14825195 -24.36962891 24.70947266 C-17.94389883 19.57870998 -12.0657475 14.52059611 -7.3671875 7.6796875 C-6 6 -6 6 -3 5 C-1.30117552 2.50240018 -1.30117552 2.50240018 0 0 Z " fill="#8B11E3" transform="translate(593,167)"/>
<path d="M0 0 C1.4732933 0.01510487 2.94660193 0.02878281 4.41992188 0.04101562 C7.9677762 0.07349137 11.51503307 0.12493727 15.0625 0.1875 C15.0625 0.5175 15.0625 0.8475 15.0625 1.1875 C7.4725 1.1875 -0.1175 1.1875 -7.9375 1.1875 C-8.2675 1.8475 -8.5975 2.5075 -8.9375 3.1875 C-11.32666016 3.84179688 -11.32666016 3.84179688 -14.4765625 4.40625 C-15.61480469 4.61636719 -16.75304687 4.82648437 -17.92578125 5.04296875 C-19.12589844 5.25566406 -20.32601562 5.46835937 -21.5625 5.6875 C-33.3886355 7.67682067 -33.3886355 7.67682067 -44.75 11.375 C-45.8328125 11.7771875 -45.8328125 11.7771875 -46.9375 12.1875 C-47.9275 11.6925 -47.9275 11.6925 -48.9375 11.1875 C-50.65696608 11.88189976 -52.37408654 12.58474139 -54.0625 13.3515625 C-57.70178327 14.97407629 -60.9417372 16.1875 -64.9375 16.1875 C-66.77529673 16.47257991 -68.60847416 16.78820357 -70.4375 17.125 C-71.3965625 17.29902344 -72.355625 17.47304688 -73.34375 17.65234375 C-76.0349279 18.15441772 -76.0349279 18.15441772 -78.9375 19.1875 C-81.75805333 19.01758715 -84.53802158 18.67561035 -87.34375 18.34375 C-90.05274121 18.01885723 -90.05274121 18.01885723 -92.9375 19.1875 C-94.27083333 18.52083333 -95.60416667 17.85416667 -96.9375 17.1875 C-98.4225 17.6825 -98.4225 17.6825 -99.9375 18.1875 C-102.38943419 17.82088305 -104.76610324 17.3869311 -107.1875 16.875 C-115.07241424 15.29347515 -122.95544918 14.16231942 -130.9375 13.1875 C-131.26363281 13.83976563 -131.58976562 14.49203125 -131.92578125 15.1640625 C-133.26302083 17.83854167 -134.60026042 20.51302083 -135.9375 23.1875 C-136.65873047 24.63382813 -136.65873047 24.63382813 -137.39453125 26.109375 C-138.45006679 28.2151016 -139.51429493 30.31648723 -140.5859375 32.4140625 C-143.88064561 38.89912146 -146.89693006 45.37661647 -149.625 52.125 C-151.61008323 56.75686086 -153.93786808 61.20572875 -156.22265625 65.6953125 C-158.70952671 70.75969107 -160.8544574 75.94629604 -162.9375 81.1875 C-163.98406155 78.50471422 -163.97844519 77.31429838 -163.07983398 74.53149414 C-162.61907471 73.52207764 -162.15831543 72.51266113 -161.68359375 71.47265625 C-161.16539062 70.32514893 -160.6471875 69.1776416 -160.11328125 67.99536133 C-159.53433332 66.74668528 -158.95489364 65.49823713 -158.375 64.25 C-157.78582073 62.9608218 -157.19728869 61.67134764 -156.609375 60.3815918 C-148.72441563 43.1590549 -140.45126414 26.10692463 -131.9375 9.1875 C-127.49825538 9.68482104 -123.13626323 10.31200601 -118.75 11.16015625 C-94.65755863 15.75691835 -74.5202755 14.79274128 -50.9375 8.1875 C-48.35008598 7.49166193 -45.76034056 6.80555457 -43.16918945 6.1237793 C-41.69028721 5.73233672 -40.21321841 5.3338269 -38.73901367 4.92504883 C-36.47954038 4.30868273 -34.21352131 3.73989004 -31.9375 3.1875 C-30.85041748 2.92203369 -29.76333496 2.65656738 -28.64331055 2.38305664 C-18.94564344 0.21302535 -9.88824807 -0.1798686 0 0 Z " fill="#A236E3" transform="translate(547.9375,689.8125)"/>
<path d="M0 0 C0.33 0 0.66 0 1 0 C1.00386719 1.670625 1.00386719 1.670625 1.0078125 3.375 C1.24061477 15.51015277 2.89177618 28.33810455 11 38 C11.18175781 36.12054688 11.18175781 36.12054688 11.3671875 34.203125 C11.53604833 32.55204135 11.70534183 30.90100191 11.875 29.25 C11.95363281 28.425 12.03226562 27.6 12.11328125 26.75 C12.19707031 25.95078125 12.28085937 25.1515625 12.3671875 24.328125 C12.44050293 23.5949707 12.51381836 22.86181641 12.58935547 22.10644531 C13.03889753 19.80047095 13.8637373 18.04608159 15 16 C15.66 16.33 16.32 16.66 17 17 C16.855625 17.90363281 16.71125 18.80726563 16.5625 19.73828125 C16.2840625 21.50751953 16.2840625 21.50751953 16 23.3125 C15.7215625 25.07013672 15.7215625 25.07013672 15.4375 26.86328125 C14.91418197 30.61528461 15.0660156 33.38081046 16 37 C16 37.66 16 38.32 16 39 C16.66 39 17.32 39 18 39 C17.67 37.35 17.34 35.7 17 34 C17.66 34 18.32 34 19 34 C19 33.34 19 32.68 19 32 C19.66 32 20.32 32 21 32 C21.144375 31.2575 21.28875 30.515 21.4375 29.75 C21.90187492 27.47972261 22.41863569 25.24240521 23 23 C23.66 23 24.32 23 25 23 C25.33 21.68 25.66 20.36 26 19 C26.66 19 27.32 19 28 19 C28.66 17.68 29.32 16.36 30 15 C30 21.00142523 26.52382166 25.56188534 23.4375 30.5 C20.87824431 34.95087946 19.74534288 38.68942344 19.375 43.8125 C19.30023438 44.78832031 19.22546875 45.76414062 19.1484375 46.76953125 C19.09945312 47.50558594 19.05046875 48.24164063 19 49 C1.23753805 47.49470661 -13.10740636 36.47588161 -25 24 C-24.505 22.515 -24.505 22.515 -24 21 C-22.87105124 21.93274109 -21.74699124 22.87140122 -20.625 23.8125 C-19.99851562 24.33457031 -19.37203125 24.85664063 -18.7265625 25.39453125 C-17 27 -17 27 -15 30 C-12.43717258 30.72965366 -12.43717258 30.72965366 -10 31 C-10 31.99 -10 32.98 -10 34 C-6.21786704 37.24719108 -1.96088459 39.39868066 3 40 C3.495 40.495 3.495 40.495 4 41 C4.99 40.34 5.98 39.68 7 39 C6.34 36.36 5.68 33.72 5 31 C4.34 31 3.68 31 3 31 C2.67 28.36 2.34 25.72 2 23 C1.34 23 0.68 23 0 23 C-0.66 17.72 -1.32 12.44 -2 7 C-1.34 6.67 -0.68 6.34 0 6 C0 4.02 0 2.04 0 0 Z " fill="#7E02D6" transform="translate(489,345)"/>
<path d="M0 0 C8.00218323 -0.3023047 14.58100119 1.62643248 22.03417969 4.30859375 C23.78878878 4.92571409 25.56923536 5.46821008 27.3515625 6 C36.31338736 9.33463251 39.36677401 15.60869712 43.21484375 23.8203125 C44.14589196 25.87900615 45.07394826 27.93905398 46 30 C46.60825248 31.32838875 47.21787192 32.65615214 47.82861328 33.98339844 C50.51463819 39.82101588 53.19488641 45.66090963 55.82348633 51.5246582 C56.13403458 52.21740341 56.44458282 52.91014862 56.76454163 53.62388611 C57.36667445 54.96881841 57.96772797 56.31423453 58.56761169 57.66017151 C60.11063946 61.10286647 61.73606587 64.47059596 63.5078125 67.80078125 C65 71 65 71 64 74 C62.22003278 70.32045237 60.4419608 66.63999527 58.66552734 62.95874023 C58.06283855 61.7104512 57.45966125 60.46239788 56.85595703 59.21459961 C47 38.84071828 47 38.84071828 47 36 C46.34 36 45.68 36 45 36 C44.16260219 33.8765984 43.33019717 31.7512272 42.5 29.625 C42.0359375 28.44164062 41.571875 27.25828125 41.09375 26.0390625 C40 23 40 23 40 21 C39.34 20.67 38.68 20.34 38 20 C37.26924352 17.6859378 36.59861742 15.35171131 36 13 C34.88625 13.061875 33.7725 13.12375 32.625 13.1875 C30.830625 13.0946875 30.830625 13.0946875 29 13 C28.34 12.01 27.68 11.02 27 10 C25.19451014 9.0618698 25.19451014 9.0618698 23.078125 8.4296875 C22.29953125 8.17316406 21.5209375 7.91664063 20.71875 7.65234375 C19.9040625 7.39582031 19.089375 7.13929688 18.25 6.875 C17.45078125 6.61074219 16.6515625 6.34648438 15.828125 6.07421875 C11.55472331 4.68958037 7.43803784 3.73056931 3 3 C1.125 1.4375 1.125 1.4375 0 0 Z " fill="#A83BE5" transform="translate(564,691)"/>
<path d="M0 0 C1 2 1 2 0.05102539 4.90966797 C-0.44476428 6.14934955 -0.950873 7.3849327 -1.46484375 8.6171875 C-1.87427467 9.61756546 -1.87427467 9.61756546 -2.29197693 10.63815308 C-5.15303374 17.53397168 -8.32554286 24.27712438 -11.54974365 31.00891113 C-13.30924097 34.68526695 -15.05136933 38.36982664 -16.79296875 42.0546875 C-17.14490295 42.79904053 -17.49683716 43.54339355 -17.85943604 44.31030273 C-21.4483948 51.91930035 -24.93104211 59.57446765 -28.375 67.25 C-28.91584229 68.45027832 -29.45668457 69.65055664 -30.01391602 70.88720703 C-30.51205811 72.00208496 -31.0102002 73.11696289 -31.5234375 74.265625 C-31.95575684 75.23274414 -32.38807617 76.19986328 -32.83349609 77.19628906 C-35.19332312 82.86817136 -36.3590592 87.72918609 -36.3125 93.875 C-36.31121094 94.57882812 -36.30992187 95.28265625 -36.30859375 96.0078125 C-36.21007811 101.32765727 -35.3635847 105.2728306 -33 110 C-36 109 -36 109 -37.125 106.8125 C-41.79242748 91.81005453 -36.60700907 79.0832345 -30.16796875 65.51171875 C-29.09279143 63.19954812 -28.15618612 60.88232641 -27.25 58.5 C-23.38748238 48.65374607 -18.58349688 39.12160601 -13.8359375 29.67578125 C-12.5317135 27.08023359 -11.27953343 24.47892244 -10.125 21.8125 C-8.9285288 19.05917471 -7.68523736 16.34847925 -6.37890625 13.64453125 C-5.82074219 12.48308594 -5.26257813 11.32164062 -4.6875 10.125 C-4.15511719 9.03445313 -3.62273437 7.94390625 -3.07421875 6.8203125 C-1.65334167 3.98465297 -1.65334167 3.98465297 -3 1 C-2.01 0.67 -1.02 0.34 0 0 Z " fill="#7203D0" transform="translate(419,687)"/>
<path d="M0 0 C11.22 0 22.44 0 34 0 C34 11.22 34 22.44 34 34 C22.78 34 11.56 34 0 34 C0 22.78 0 11.56 0 0 Z M25.33984375 1.21875 C24.12417725 1.25935547 22.90851074 1.29996094 21.65600586 1.34179688 C19.32034546 1.42010742 19.32034546 1.42010742 16.9375 1.5 C9.5434375 1.7475 9.5434375 1.7475 2 2 C2 12.23 2 22.46 2 33 C12.23 33 22.46 33 33 33 C33 22.44 33 11.88 33 1 C30.44756354 1 27.89010144 1.13338573 25.33984375 1.21875 Z " fill="#8C01EC" transform="translate(650,313)"/>
<path d="M0 0 C3.12150294 2.85160952 4.96605383 5.48321979 6.76953125 9.296875 C7.50901001 10.84749634 7.50901001 10.84749634 8.26342773 12.42944336 C9.03021851 14.0731189 9.03021851 14.0731189 9.8125 15.75 C10.34367432 16.87220947 10.87484863 17.99441895 11.42211914 19.15063477 C14.65246734 26.00976868 17.78513045 32.90516366 20.76660156 39.87597656 C22.24462201 43.32469093 23.82155588 46.6768771 25.5625 50 C27.74670923 54.26716373 29.49499939 58.64597134 31.1875 63.125 C31.43765869 63.78242187 31.68781738 64.43984375 31.94555664 65.1171875 C33.63578216 69.6869084 35.078021 74.20982979 36 79 C35.34 79.66 34.68 80.32 34 81 C33.855625 81.721875 33.71125 82.44375 33.5625 83.1875 C32.61483536 87.92582322 30.66919384 91.99620924 28 96 C27.34 95.67 26.68 95.34 26 95 C27.00911458 93.30729167 28.01822917 91.61458333 29.02734375 89.921875 C31.05702573 85.91141904 31.2433951 82.02188145 31.375 77.5625 C31.42398438 76.45003906 31.47296875 75.33757812 31.5234375 74.19140625 C30.84655853 63.35859669 23.99750004 52.39171765 19.4375 42.75 C18.82698956 41.44969524 18.21680611 40.1492369 17.60693359 38.84863281 C14.57903259 32.40295953 11.51546904 25.97500388 8.41796875 19.5625 C7.86246338 18.41168945 7.30695801 17.26087891 6.73461914 16.07519531 C5.67945242 13.89540299 4.6201871 11.71758886 3.55639648 9.54199219 C3.08661377 8.57422852 2.61683105 7.60646484 2.1328125 6.609375 C1.51237061 5.3404541 1.51237061 5.3404541 0.87939453 4.04589844 C0 2 0 2 0 0 Z " fill="#7303CF" transform="translate(600,701)"/>
<path d="M0 0 C4.47238653 1.41807378 8.71146306 3.11304374 13 5 C13 5.66 13 6.32 13 7 C13.92232422 6.89171875 13.92232422 6.89171875 14.86328125 6.78125 C16.07564453 6.64203125 16.07564453 6.64203125 17.3125 6.5 C18.11300781 6.4071875 18.91351563 6.314375 19.73828125 6.21875 C23.06887382 5.89662015 26.33364154 6.04884798 29.66796875 6.21875 C30.56064453 6.26386719 31.45332031 6.30898438 32.37304688 6.35546875 C33.30181641 6.40316406 34.23058594 6.45085938 35.1875 6.5 C36.12787109 6.54769531 37.06824219 6.59539063 38.03710938 6.64453125 C40.35810798 6.76234844 42.67906877 6.88086414 45 7 C45 6.34 45 5.68 45 5 C45.66 5 46.32 5 47 5 C47 5.66 47 6.32 47 7 C48.32 7 49.64 7 51 7 C51 7.66 51 8.32 51 9 C46.41541761 9.27065793 41.83091504 9.50260176 37.24267578 9.7019043 C35.68878573 9.77448753 34.1353153 9.85684957 32.58251953 9.94995117 C21.52851801 10.60375928 13.17279463 9.59867456 3 5 C3 4.34 3 3.68 3 3 C1.54166642 1.37485532 1.54166642 1.37485532 0 0 Z " fill="#7700D5" transform="translate(368,819)"/>
<path d="M0 0 C0 0.66 0 1.32 0 2 C0.59683594 2.10957031 1.19367187 2.21914063 1.80859375 2.33203125 C5.87474271 3.57144564 7.93194415 6.39386361 10 10 C11.46980292 14.59889555 12.60004608 19.18180511 13 24 C12.34 24.66 11.68 25.32 11 26 C10.89042969 25.27554688 10.78085937 24.55109375 10.66796875 23.8046875 C9.29047874 15.40535818 7.61940121 9.69965674 0.82421875 4.2578125 C-3.84849945 1.03593828 -8.43736326 0.51204941 -14 1 C-20.52216429 3.17405476 -25.46165837 6.18854806 -28.8125 12.3125 C-30.09995648 16.31039117 -30.63397632 19.82733002 -31 24 C-31.66 24 -32.32 24 -33 24 C-32.85795259 22.41632253 -32.71119847 20.83306682 -32.5625 19.25 C-32.48128906 18.36828125 -32.40007813 17.4865625 -32.31640625 16.578125 C-32.03761535 14.30649548 -31.61209423 12.20148177 -31 10 C-30.34 10 -29.68 10 -29 10 C-28.938125 9.4225 -28.87625 8.845 -28.8125 8.25 C-27.2928191 4.04165289 -23.67505734 2.38574705 -19.9375 0.25 C-13.89620329 -2.19845506 -6.18143925 -1.82935195 0 0 Z " fill="#A232E2" transform="translate(567,720)"/>
<path d="M0 0 C0.66 0.33 1.32 0.66 2 1 C4.11950893 10.52498225 4.29705229 20.33116295 4.20581055 30.04663086 C4.18722242 32.09305996 4.1853042 34.13904094 4.18554688 36.18554688 C4.16018722 41.91964702 4.07448232 47.3532069 3 53 C2.67 53 2.34 53 2 53 C1.80615821 50.18780295 1.61963397 47.37545804 1.4375 44.5625 C1.38142578 43.76005859 1.32535156 42.95761719 1.26757812 42.13085938 C1.1383705 40.08937889 1.0648727 38.04453631 1 36 C1.495 35.505 1.495 35.505 2 35 C1.9617371 32.31571071 1.85535447 29.67647407 1.6875 27 C1.65205078 26.24976563 1.61660156 25.49953125 1.58007812 24.7265625 C1.46427187 22.81143822 1.2400308 20.90354861 1 19 C0.34 18.67 -0.32 18.34 -1 18 C-1.18451025 5.33029613 -1.18451025 5.33029613 0 0 Z " fill="#AB34E1" transform="translate(634,176)"/>
<path d="M0 0 C13.86 0 27.72 0 42 0 C35.23102283 4.51265145 29.38383493 5.38910422 21.3828125 4.2265625 C18.85377504 3.82396075 18.85377504 3.82396075 16 5 C14.65745809 4.3520776 13.32572661 3.68166794 12 3 C9.92830754 2.56526661 7.84272249 2.19345777 5.75 1.875 C4.67234375 1.70742188 3.5946875 1.53984375 2.484375 1.3671875 C1.25460937 1.18542969 1.25460937 1.18542969 0 1 C0 0.67 0 0.34 0 0 Z " fill="#B537EF" transform="translate(439,704)"/>
<path d="M0 0 C5.81238872 0.69828469 11.59496365 1.50907571 17.375 2.4375 C18.18066406 2.55931641 18.98632812 2.68113281 19.81640625 2.80664062 C25.76879371 3.76879371 25.76879371 3.76879371 28 6 C29.98821313 6.39764263 31.98944339 6.73775349 34 7 C34 7.66 34 8.32 34 9 C26.08274806 7.99565225 18.22407449 6.91847375 10.37890625 5.4453125 C4.56912382 3.99703891 4.56912382 3.99703891 -1 5 C-0.67 3.35 -0.34 1.7 0 0 Z " fill="#A438E2" transform="translate(416,699)"/>
<path d="M0 0 C1.33459401 4.00378204 0.00270481 6.57898355 -1.375 10.375 C-3.77989099 17.14040763 -5.09281408 23.13301518 -5.5625 30.3125 C-5.64628906 31.56675781 -5.73007812 32.82101562 -5.81640625 34.11328125 C-5.87699219 35.06589844 -5.93757813 36.01851563 -6 37 C-11.84526725 32.49079383 -14.03677514 25.95900556 -16 19 C-16.13671875 15.58984375 -16.13671875 15.58984375 -16 13 C-14.05316677 16.60255121 -12.72254681 20.39538937 -11.375 24.25 C-11.14554687 24.8996875 -10.91609375 25.549375 -10.6796875 26.21875 C-10.11747537 27.81168438 -9.55841997 29.40573229 -9 31 C-8.76925781 29.85144531 -8.53851563 28.70289063 -8.30078125 27.51953125 C-6.30791874 17.92188884 -3.89255039 9.02944065 0 0 Z " fill="#470B87" transform="translate(507,347)"/>
<path d="M0 0 C3.45268608 5.17902912 3.156654 10.36520703 3.125 16.4375 C3.12886719 17.17548828 3.13273438 17.91347656 3.13671875 18.67382812 C3.12921962 22.89208711 2.82963428 26.8452442 2 31 C1.01 31 0.02 31 -1 31 C-0.87431641 29.49373047 -0.87431641 29.49373047 -0.74609375 27.95703125 C-0.13658943 20.004172 0.02552822 12.43836078 -0.84375 4.4765625 C-1 2 -1 2 0 0 Z " fill="#7800D2" transform="translate(665,764)"/>
<path d="M0 0 C-0.99 0.99 -1.98 1.98 -3 3 C-3.66 2.67 -4.32 2.34 -5 2 C-6.71946608 2.69439976 -8.43658654 3.39724139 -10.125 4.1640625 C-13.76428327 5.78657629 -17.0042372 7 -21 7 C-22.67099977 7.31088368 -24.33871537 7.64080332 -26 8 C-26.33 6.68 -26.66 5.36 -27 4 C-23.81809273 3.12401845 -20.62887451 2.27827442 -17.4375 1.4375 C-16.54224609 1.19064453 -15.64699219 0.94378906 -14.72460938 0.68945312 C-9.37601 -0.70157455 -5.40824958 -1.23892686 0 0 Z " fill="#952EDB" transform="translate(504,699)"/>
<path d="M0 0 C3.33922387 2.72275177 4.74024886 6.38609591 6.43359375 10.23046875 C6.75280289 10.93972 7.07201202 11.64897125 7.40089417 12.37971497 C8.41955176 14.64614764 9.42887462 16.91658731 10.4375 19.1875 C11.44431834 21.43972723 12.45309128 23.69106048 13.46339417 25.94172668 C14.0902771 27.33980292 14.71489896 28.73889618 15.33677673 30.13920593 C17.18085707 34.2703719 19.16409967 38.27077017 21.34803772 42.23457336 C22 44 22 44 21 47 C19.22003278 43.32045237 17.4419608 39.63999527 15.66552734 35.95874023 C15.06283855 34.7104512 14.45966125 33.46239788 13.85595703 32.21459961 C4 11.84071828 4 11.84071828 4 9 C3.34 9 2.68 9 2 9 C1.01 6.36 0.02 3.72 -1 1 C-0.67 0.67 -0.34 0.34 0 0 Z " fill="#9D2DE1" transform="translate(607,718)"/>
<path d="M0 0 C1.35130667 4.05392 0.19210308 5.25525698 -1.68359375 9.0390625 C-1.97451401 9.63333542 -2.26543427 10.22760834 -2.56517029 10.83988953 C-3.51368306 12.7728044 -4.47554913 14.69874302 -5.4375 16.625 C-6.08653033 17.94242041 -6.73447868 19.26037441 -7.38134766 20.57885742 C-8.66118168 23.18657365 -9.94482552 25.79235739 -11.23095703 28.39697266 C-13.50237605 33.00887154 -15.7000324 37.65444008 -17.875 42.3125 C-18.20169678 43.01004395 -18.52839355 43.70758789 -18.86499023 44.42626953 C-19.57811387 45.95016692 -20.28934078 47.47495179 -21 49 C-22 46 -22 46 -20.8203125 43.29296875 C-20.26085937 42.26816406 -19.70140625 41.24335937 -19.125 40.1875 C-17.35862097 36.94639987 -16.07271072 34.45807752 -15.4921875 30.80078125 C-15 28 -15 28 -13.65161133 26.68505859 C-11.45876699 24.44780633 -10.41811769 22.06848586 -9.08203125 19.23828125 C-8.55029297 18.12001953 -8.01855469 17.00175781 -7.47070312 15.84960938 C-6.92349609 14.68236328 -6.37628906 13.51511719 -5.8125 12.3125 C-5.25369141 11.13365234 -4.69488281 9.95480469 -4.11914062 8.74023438 C-2.7403594 5.82947402 -1.3675757 2.9160376 0 0 Z " fill="#9C0AEA" transform="translate(463,597)"/>
<path d="M0 0 C3.68450883 2.7472215 4.44274487 6.84601782 5.625 11.0625 C5.84373779 11.82167725 6.06247559 12.58085449 6.2878418 13.36303711 C7.832811 18.91676681 8.72513815 24.22790122 9 30 C7.5393715 27.35261084 7 26.10551666 7 23 C6.34 23 5.68 23 5 23 C4.87625 21.9275 4.7525 20.855 4.625 19.75 C3.8996659 15.39799543 2.51972193 12.88545218 0.3125 9.125 C-1.19817948 5.52814409 -0.97338076 3.71654471 0 0 Z " fill="#A835E4" transform="translate(625,145)"/>
<path d="M0 0 C4.27070558 -0.08692074 8.54118458 -0.14036515 12.8125 -0.1875 C14.63491211 -0.22520508 14.63491211 -0.22520508 16.49414062 -0.26367188 C18.23920898 -0.27817383 18.23920898 -0.27817383 20.01953125 -0.29296875 C21.09307861 -0.3086792 22.16662598 -0.32438965 23.27270508 -0.34057617 C26 0 26 0 27.8737793 1.51831055 C28.24543213 2.00726807 28.61708496 2.49622559 29 3 C26.35261084 4.4606285 25.10551666 5 22 5 C21.34 4.67 20.68 4.34 20 4 C16.4568853 3.96892005 12.92471649 4.06772661 9.3828125 4.16015625 C4.99096056 3.95222793 3.06505597 3.06505597 0 0 Z " fill="#722EB4" transform="translate(538,689)"/>
<path d="M0 0 C0 5.03079691 -2.2949105 8.65025344 -4.9375 12.8125 C-7.57072583 17.10678272 -9.40943978 21.22831933 -11 26 C-12.4606285 23.35261084 -13 22.10551666 -13 19 C-12.34 19 -11.68 19 -11 19 C-11 18.34 -11 17.68 -11 17 C-10.34 17 -9.68 17 -9 17 C-8.855625 16.2575 -8.71125 15.515 -8.5625 14.75 C-8.09812508 12.47972261 -7.58136431 10.24240521 -7 8 C-6.34 8 -5.68 8 -5 8 C-4.67 6.68 -4.34 5.36 -4 4 C-3.34 4 -2.68 4 -2 4 C-1.34 2.68 -0.68 1.36 0 0 Z " fill="#8707DB" transform="translate(519,360)"/>
<path d="M0 0 C0.66 0 1.32 0 2 0 C1.71028927 3.86280979 0.86089087 6.44197994 -1.28125 9.59375 C-4.22473703 14.17332832 -6.27474525 18.96554709 -8.3125 24 C-8.67150391 24.87011719 -9.03050781 25.74023438 -9.40039062 26.63671875 C-10.27341298 28.75525299 -11.13978742 30.87623999 -12 33 C-13.23880328 30.08739382 -12.9771947 28.9341879 -11.92016602 25.88378906 C-11.37030029 24.68979492 -10.82043457 23.49580078 -10.25390625 22.265625 C-9.96394272 21.62759949 -9.67397919 20.98957397 -9.37522888 20.33221436 C-8.44846973 18.2996487 -7.50579001 16.27493883 -6.5625 14.25 C-5.93057636 12.87158116 -5.29970422 11.49267974 -4.66992188 10.11328125 C-3.12543398 6.73650688 -1.56658407 3.36659012 0 0 Z " fill="#9421E0" transform="translate(397,738)"/>
<path d="M0 0 C0.99 0 1.98 0 3 0 C3.268125 0.886875 3.53625 1.77375 3.8125 2.6875 C4.9339167 5.81566237 6.25868308 8.18710344 8 11 C9.37243497 13.64757045 10.68770639 16.3222117 12 19 C12.33 19.66 12.66 20.32 13 21 C11.19140625 20.8125 11.19140625 20.8125 9 20 C4.63810721 14.02772625 2.07666576 7.03758953 0 0 Z " fill="#8502DC" transform="translate(451,344)"/>
<path d="M0 0 C1 2 1 2 0.25 4.5390625 C-2.55984371 11.47586417 -5.6432173 16.7512792 -11 22 C-11.66 21.67 -12.32 21.34 -13 21 C-12.39671875 20.07058594 -11.7934375 19.14117187 -11.171875 18.18359375 C-10.36448668 16.93495833 -9.55720048 15.68625686 -8.75 14.4375 C-8.35425781 13.82841797 -7.95851563 13.21933594 -7.55078125 12.59179688 C-4.8889825 8.46819062 -2.40188247 4.28041899 0 0 Z " fill="#9A1DEC" transform="translate(601,151)"/>
<path d="M0 0 C0.66 0 1.32 0 2 0 C2.33 1.65 2.66 3.3 3 5 C3.66 5 4.32 5 5 5 C7.62890793 8.10689119 9.76250828 11.60518498 12 15 C11.01 15.33 10.02 15.66 9 16 C7.67315972 14.47065791 6.36407067 12.92590495 5.0625 11.375 C4.33160156 10.51648438 3.60070312 9.65796875 2.84765625 8.7734375 C0.83370358 5.75037959 0.33101832 3.58340465 0 0 Z " fill="#7A00D1" transform="translate(352,801)"/>
<path d="M0 0 C0.99 0 1.98 0 3 0 C1.55707191 7.2498338 0.38542339 12.76012859 -5 18 C-5.33 17.34 -5.66 16.68 -6 16 C-5 14 -4 12 -3 10 C-2.64080679 8.00448218 -2.30503431 6.00451121 -2 4 C-0.9375 1.625 -0.9375 1.625 0 0 Z " fill="#7D05D9" transform="translate(399,656)"/>
<path d="M0 0 C1.89213369 2.38573379 3.02391783 4.07175348 4 7 C3.0625 9.1875 3.0625 9.1875 2 11 C2.66 11.33 3.32 11.66 4 12 C3.67 12.66 3.34 13.32 3 14 C2.95977609 16.3329866 2.95679753 18.66706666 3 21 C2.01 20.34 1.02 19.68 0 19 C-0.34057617 17.02880859 -0.34057617 17.02880859 -0.29296875 14.6484375 C-0.28330078 13.79765625 -0.27363281 12.946875 -0.26367188 12.0703125 C-0.23853516 11.18085938 -0.21339844 10.29140625 -0.1875 9.375 C-0.17396484 8.4778125 -0.16042969 7.580625 -0.14648438 6.65625 C-0.11106925 4.43690211 -0.06168461 2.21874812 0 0 Z " fill="#8005DB" transform="translate(449,315)"/>
<path d="M0 0 C0.99 0.33 1.98 0.66 3 1 C2.7438709 3.08519216 2.46951265 5.1681505 2.1875 7.25 C2.03667969 8.41015625 1.88585937 9.5703125 1.73046875 10.765625 C1.00362557 13.98394666 0.18338975 15.58331655 -2 18 C-2.20190089 11.64012196 -1.6277833 6.14778871 0 0 Z " fill="#8003D6" transform="translate(503,361)"/>
<path d="M0 0 C1.32 0.66 2.64 1.32 4 2 C0.56638098 5.63559661 -2.7973607 8.36113346 -7 11 C-7.66 10.67 -8.32 10.34 -9 10 C-8 7 -8 7 -6.40625 5.9375 C-4.5 5 -4.5 5 -2.59375 4.0625 C-0.66242402 3.01050642 -0.66242402 3.01050642 0 0 Z " fill="#8F13DA" transform="translate(544,337)"/>
<path d="M0 0 C0.33 0.66 0.66 1.32 1 2 C1.66 2 2.32 2 3 2 C2.49202991 6.3177458 1.80317221 10.03302114 0 14 C-0.99 14 -1.98 14 -3 14 C-2.01 9.38 -1.02 4.76 0 0 Z " fill="#8916DC" transform="translate(608,126)"/>
<path d="M0 0 C0.99 0 1.98 0 3 0 C2.67 1.98 2.34 3.96 2 6 C1.34 6 0.68 6 0 6 C-0.33 8.64 -0.66 11.28 -1 14 C-1.99 14 -2.98 14 -4 14 C-3.00956295 9.16371695 -2.04301154 4.52381127 0 0 Z " fill="#7B01D1" transform="translate(352,754)"/>
<path d="M0 0 C0.33 0 0.66 0 1 0 C1.0271045 3.04172719 1.04688964 6.08320997 1.0625 9.125 C1.07087891 9.9809375 1.07925781 10.836875 1.08789062 11.71875 C1.10538306 16.26678411 0.93192358 20.52383164 0 25 C-0.33 25 -0.66 25 -1 25 C-1.19384179 22.18780295 -1.38036603 19.37545804 -1.5625 16.5625 C-1.61857422 15.76005859 -1.67464844 14.95761719 -1.73242188 14.13085938 C-1.8616295 12.08937889 -1.9351273 10.04453631 -2 8 C-1.67 7.67 -1.34 7.34 -1 7 C-0.63239269 4.67182036 -0.29758419 2.3381615 0 0 Z " fill="#BE37EF" transform="translate(637,204)"/>
<path d="M0 0 C0.99 0 1.98 0 3 0 C1.63408831 3.54243452 0.09068516 6.92627929 -1.625 10.3125 C-2.07101562 11.19550781 -2.51703125 12.07851563 -2.9765625 12.98828125 C-3.31429687 13.65214844 -3.65203125 14.31601562 -4 15 C-4.66 14.34 -5.32 13.68 -6 13 C-4.02 8.71 -2.04 4.42 0 0 Z " fill="#8B10DD" transform="translate(516,330)"/>
<path d="M0 0 C0.66 0.33 1.32 0.66 2 1 C-0.11702779 3.19543623 -2.2233291 5.17547287 -4.625 7.0625 C-7.18227196 8.95481493 -7.18227196 8.95481493 -9 12 C-11.625 12.6875 -11.625 12.6875 -14 13 C-9.99191229 7.69898077 -5.33731159 3.93030788 0 0 Z " fill="#9711E9" transform="translate(495,244)"/>
<path d="M0 0 C0.66 0.33 1.32 0.66 2 1 C0.90653119 2.34212062 -0.2001575 3.67347975 -1.3125 5 C-1.92738281 5.7425 -2.54226563 6.485 -3.17578125 7.25 C-5 9 -5 9 -8 9 C-9.33981486 9.3062434 -10.67511887 9.63451555 -12 10 C-8.29909479 6.0747975 -4.45040344 3.05419844 0 0 Z " fill="#530695" transform="translate(580,246)"/>
<path d="M0 0 C0.99 0.495 0.99 0.495 2 1 C2.8515625 3.765625 2.8515625 3.765625 3.625 7.25 C3.88539063 8.38953125 4.14578125 9.5290625 4.4140625 10.703125 C4.92342234 13.56912304 5.11982739 16.10235596 5 19 C3.5393715 16.35261084 3 15.10551666 3 12 C2.34 12 1.68 12 1 12 C0.83126522 10.56274129 0.66509263 9.12518162 0.5 7.6875 C0.4071875 6.88699219 0.314375 6.08648437 0.21875 5.26171875 C0 3 0 3 0 0 Z " fill="#B839E8" transform="translate(629,156)"/>
<path d="M0 0 C0.66 0.66 1.32 1.32 2 2 C3.98821313 2.39764263 5.98944339 2.73775349 8 3 C8 3.66 8 4.32 8 5 C5.5610236 4.71800273 3.12429067 4.42484385 0.6875 4.125 C-0.34793945 4.00705078 -0.34793945 4.00705078 -1.40429688 3.88671875 C-4.95639471 3.44056153 -6.9697029 3.02019807 -10 1 C-6.61401171 -0.04184255 -3.53318313 -0.23042499 0 0 Z " fill="#9332DB" transform="translate(442,703)"/>
<path d="M0 0 C0.66 0.33 1.32 0.66 2 1 C1.45660208 5.56454251 0.20536179 8.9728176 -2 13 C-2.66 12.67 -3.32 12.34 -4 12 C-2.66666667 8 -1.33333333 4 0 0 Z " fill="#870ADC" transform="translate(509,345)"/>
<path d="M0 0 C0.66 0.33 1.32 0.66 2 1 C-0.48163901 3.61225159 -3.02025145 5.96504977 -6 8 C-8.3125 7.75 -8.3125 7.75 -10 7 C-9.01 6.67 -8.02 6.34 -7 6 C-7 5.01 -7 4.02 -7 3 C-5.68 3 -4.36 3 -3 3 C-3 2.34 -3 1.68 -3 1 C-2.01 0.67 -1.02 0.34 0 0 Z " fill="#8F18DA" transform="translate(575,319)"/>
<path d="M0 0 C0.66 0.33 1.32 0.66 2 1 C1.34 2.32 0.68 3.64 0 5 C-0.99 5 -1.98 5 -3 5 C-3 4.01 -3 3.02 -3 2 C-2.01 1.34 -1.02 0.68 0 0 Z M-6 5 C-5.34 5.33 -4.68 5.66 -4 6 C-6.35277269 8.72426311 -8.62496331 9.8141763 -12 11 C-8.25 6.125 -8.25 6.125 -6 5 Z " fill="#8310DD" transform="translate(499,243)"/>
<path d="M0 0 C0.66 0.66 1.32 1.32 2 2 C1.625 4.125 1.625 4.125 1 6 C0.34 6 -0.32 6 -1 6 C-0.67 6.99 -0.34 7.98 0 9 C-0.99 9.33 -1.98 9.66 -3 10 C-3 10.66 -3 11.32 -3 12 C-3.66 11.67 -4.32 11.34 -5 11 C-3.35 7.37 -1.7 3.74 0 0 Z " fill="#7D03D8" transform="translate(358,741)"/>
<path d="M0 0 C5.3503559 0.57021934 10.67787852 1.20734361 16 2 C16 2.33 16 2.66 16 3 C11.05 3 6.1 3 1 3 C0.67 2.01 0.34 1.02 0 0 Z " fill="#7500D6" transform="translate(437,825)"/>
<path d="M0 0 C0.66 0.99 1.32 1.98 2 3 C1.25 5.625 1.25 5.625 0 8 C-0.99 8.495 -0.99 8.495 -2 9 C-2.625 6.6875 -2.625 6.6875 -3 4 C-1 1 -1 1 0 0 Z " fill="#7F05D3" transform="translate(454,298)"/>
<path d="M0 0 C0.33 1.32 0.66 2.64 1 4 C-3.625 7 -3.625 7 -7 7 C-5.54744301 3.17053157 -3.57104439 1.87949705 0 0 Z " fill="#6B0BB2" transform="translate(573,253)"/>
<path d="M0 0 C1 2 1 2 0.22265625 4.3828125 C-0.16019531 5.28773438 -0.54304688 6.19265625 -0.9375 7.125 C-1.31777344 8.03507812 -1.69804687 8.94515625 -2.08984375 9.8828125 C-2.39019531 10.58148438 -2.69054687 11.28015625 -3 12 C-4.4606285 9.35261084 -5 8.10551666 -5 5 C-4.34 5 -3.68 5 -3 5 C-3 4.34 -3 3.68 -3 3 C-2.34 3 -1.68 3 -1 3 C-0.67 2.01 -0.34 1.02 0 0 Z " fill="#9004E5" transform="translate(511,374)"/>
<path d="M0 0 C0.99 0.99 1.98 1.98 3 3 C0.03 5.475 0.03 5.475 -3 8 C-3.33 6.02 -3.66 4.04 -4 2 C-2.68 2 -1.36 2 0 2 C0 1.34 0 0.68 0 0 Z " fill="#890DD5" transform="translate(525,353)"/>
<path d="M0 0 C1.32 0.33 2.64 0.66 4 1 C0.04 4.465 0.04 4.465 -4 8 C-4.66 7.67 -5.32 7.34 -6 7 C-4.02 4.69 -2.04 2.38 0 0 Z " fill="#9F15E3" transform="translate(533,347)"/>
<path d="M0 0 C0.66 0.33 1.32 0.66 2 1 C0.7934375 2.0828125 0.7934375 2.0828125 -0.4375 3.1875 C-3.02292072 6.02515689 -3.68042813 7.27166147 -4 11 C-4.99 10.67 -5.98 10.34 -7 10 C-5.6062718 5.56541027 -3.39417765 3.12621626 0 0 Z " fill="#920FEA" transform="translate(476,260)"/>
<path d="M0 0 C1.32 0.66 2.64 1.32 4 2 C-0.29 2 -4.58 2 -9 2 C-5.96184159 -1.03815841 -3.91715136 -1.30571712 0 0 Z " fill="#7600D6" transform="translate(579,826)"/>
<path d="M0 0 C0.66 0.33 1.32 0.66 2 1 C-2.455 4.465 -2.455 4.465 -7 8 C-7.66 7.67 -8.32 7.34 -9 7 C-3.51752022 1.21293801 -3.51752022 1.21293801 0 0 Z " fill="#A431E4" transform="translate(554,263)"/>
<path d="M0 0 C0.66 0.33 1.32 0.66 2 1 C-1.82180842 5.4008703 -4.47371099 6.80805531 -10 8 C-6.91367389 4.7373124 -4.06516496 1.97764782 0 0 Z " fill="#9D15EF" transform="translate(531,219)"/>
<path d="M0 0 C0.66 0.99 1.32 1.98 2 3 C-0.12780579 5.34058637 -2.11562221 6.70700306 -5 8 C-4.67 6.35 -4.34 4.7 -4 3 C-2.68 3 -1.36 3 0 3 C0 2.01 0 1.02 0 0 Z " fill="#7700D2" transform="translate(659,805)"/>
<path d="M0 0 C0.66 0.33 1.32 0.66 2 1 C0.35 2.98 -1.3 4.96 -3 7 C-4.32 6.67 -5.64 6.34 -7 6 C-6.67 5.01 -6.34 4.02 -6 3 C-4.0625 2.4375 -4.0625 2.4375 -2 2 C-1.34 1.34 -0.68 0.68 0 0 Z " fill="#850FE1" transform="translate(569,193)"/>
<path d="M0 0 C3.3 0 6.6 0 10 0 C6.77263488 2.15157675 5.17269253 3.19090344 1.3125 2.5625 C0.1678125 2.2840625 0.1678125 2.2840625 -1 2 C-0.67 1.34 -0.34 0.68 0 0 Z " fill="#9C29DB" transform="translate(465,706)"/>
<path d="M0 0 C2.32947183 2.11770166 3.88750845 4.03335588 5 7 C4.67 7.99 4.34 8.98 4 10 C1 8 1 8 0.48828125 6.0546875 C0.32552083 4.03645833 0.16276042 2.01822917 0 0 Z " fill="#8F08E8" transform="translate(629,687)"/>
<path d="M0 0 C2.00047023 2.54605302 3.82572785 4.9664636 5 8 C4.67 8.99 4.34 9.98 4 11 C1.29727467 8.12835434 0.05208163 6.69008159 -0.25 2.6875 C-0.1675 1.800625 -0.085 0.91375 0 0 Z " fill="#7F05D7" transform="translate(589,674)"/>
<path d="M0 0 C0.99 0.33 1.98 0.66 3 1 C3 3.97 3 6.94 3 10 C2.01 10.495 2.01 10.495 1 11 C0.67 7.37 0.34 3.74 0 0 Z " fill="#7D04D5" transform="translate(450,307)"/>
<path d="M0 0 C0 0.66 0 1.32 0 2 C-2.64 2 -5.28 2 -8 2 C-8.33 1.34 -8.66 0.68 -9 0 C-2.25 -1.125 -2.25 -1.125 0 0 Z " fill="#7300D5" transform="translate(512,826)"/>
<path d="M0 0 C0.66 0.33 1.32 0.66 2 1 C2.33 1.99 2.66 2.98 3 4 C2.01 4.33 1.02 4.66 0 5 C0 4.34 0 3.68 0 3 C-1.32 3.33 -2.64 3.66 -4 4 C-2.68 2.68 -1.36 1.36 0 0 Z " fill="#9416EA" transform="translate(544,210)"/>
<path d="M0 0 C2 1 2 1 3.125 4.0625 C3.41375 5.031875 3.7025 6.00125 4 7 C2.68 7 1.36 7 0 7 C0 4.69 0 2.38 0 0 Z " fill="#9615E9" transform="translate(609,121)"/>
<path d="M0 0 C2.33944736 0.28730055 4.6739143 0.61936779 7 1 C7 1.33 7 1.66 7 2 C5.02 2 3.04 2 1 2 C0.67 2.99 0.34 3.98 0 5 C-0.5625 3.0625 -0.5625 3.0625 -1 1 C-0.67 0.67 -0.34 0.34 0 0 Z " fill="#B043EC" transform="translate(416,699)"/>
<path d="M0 0 C1 3 1 3 -0.4375 6.1875 C-1.2109375 7.5796875 -1.2109375 7.5796875 -2 9 C-2.33 9 -2.66 9 -3 9 C-3 7.02 -3 5.04 -3 3 C-2.34 3 -1.68 3 -1 3 C-0.67 2.01 -0.34 1.02 0 0 Z " fill="#8C07DF" transform="translate(429,669)"/>
<path d="M0 0 C2.25 0.25 2.25 0.25 4 1 C2.8125 2.5 2.8125 2.5 1 4 C-1.6875 4.1875 -1.6875 4.1875 -4 4 C-2.25 1.9375 -2.25 1.9375 0 0 Z " fill="#9411E5" transform="translate(439,422)"/>
<path d="M0 0 C0.625 1.8125 0.625 1.8125 1 4 C-0.57894208 6.36841312 -1.9754262 8.06745228 -4 10 C-3.43454163 6.04179141 -2.19097652 3.3340947 0 0 Z " fill="#8812D7" transform="translate(497,315)"/>
<path d="M0 0 C0.66 0 1.32 0 2 0 C1.45773019 3.79588866 -0.20127563 5.47211993 -3 8 C-3.66 7.67 -4.32 7.34 -5 7 C-4.360625 6.21625 -3.72125 5.4325 -3.0625 4.625 C-1.01857687 2.20460719 -1.01857687 2.20460719 0 0 Z " fill="#840EDE" transform="translate(576,185)"/>
</svg>
