<?xml version="1.0" encoding="UTF-8"?>
<svg version="1.1" xmlns="http://www.w3.org/2000/svg" width="1024" height="1024">
<path d="M0 0 C3.17167801 1.49328031 5.18098781 3.05629737 7.69921875 5.48046875 C11.15438743 8.7138878 14.64492428 11.81628008 18.32421875 14.79296875 C28.8623748 23.34223337 39.08491154 32.1631835 49.01171875 41.41796875 C49.63481934 41.99595215 50.25791992 42.57393555 50.89990234 43.16943359 C73.55922242 64.19006353 73.55922242 64.19006353 82.046875 74.171875 C84.20166783 76.63510736 86.42983185 79.01757289 88.67041016 81.40258789 C94.73891907 87.86559305 100.48935431 94.4774461 106.01171875 101.41796875 C106.94278672 102.5582919 107.87515262 103.69755614 108.80859375 104.8359375 C116.33598428 114.05856399 123.28235496 123.60128338 130.01171875 133.41796875 C130.55554199 134.20381348 131.09936523 134.9896582 131.65966797 135.79931641 C143.56777392 153.04802745 154.08824981 171.08788276 164.01171875 189.54296875 C164.36967529 190.20216309 164.72763184 190.86135742 165.09643555 191.54052734 C166.88644279 194.93091704 168.35807131 198.26641677 169.58203125 201.90234375 C169.84628906 202.6382373 170.11054687 203.37413086 170.3828125 204.13232422 C171.13671875 206.29296875 171.13671875 206.29296875 171.6640625 208.33251953 C172.48004338 210.64148298 173.16213037 211.79020049 175.01171875 213.41796875 C179.8852545 215.16399257 184.90391894 215.75607206 190.01171875 216.41796875 C191.75679985 216.66169237 193.50174882 216.90636348 195.24658203 217.15185547 C201.99421779 218.08225376 208.75005345 218.94730095 215.50878906 219.79296875 C218.41724294 220.15902784 221.32384196 220.5377118 224.23046875 220.91796875 C225.10973022 221.02431641 225.9889917 221.13066406 226.89489746 221.24023438 C233.09927829 222.06215787 238.31401674 223.35919616 243.38671875 227.23046875 C253.5903258 240.96609362 247.36147142 278.0987705 246.69921875 294.29296875 C246.67682129 295.02837891 246.65442383 295.76378906 246.63134766 296.52148438 C246.34720449 301.98834744 245.19679078 306.70339293 241.70703125 311.03881836 C239.57686173 312.77172844 237.93055923 313.131588 235.2421875 313.6640625 C233.80020996 313.95748535 233.80020996 313.95748535 232.32910156 314.25683594 C231.29624023 314.45438477 230.26337891 314.65193359 229.19921875 314.85546875 C227.60932129 315.17306152 227.60932129 315.17306152 225.98730469 315.49707031 C216.05031382 317.46324442 206.08317933 319.275383 196.10449219 321.01660156 C195.41387695 321.14905273 194.72326172 321.28150391 194.01171875 321.41796875 C193.29290527 321.50836426 192.5740918 321.59875977 191.83349609 321.69189453 C189.82270545 322.25378184 189.82270545 322.25378184 189.10107422 324.33837891 C188.90400879 325.16128418 188.70694336 325.98418945 188.50390625 326.83203125 C187.06011699 332.31297484 185.1794938 337.50992983 183.13671875 342.79296875 C182.78738281 343.70691406 182.43804688 344.62085938 182.078125 345.5625 C179.81071727 351.46110681 177.42924726 357.28448468 174.82421875 363.04296875 C173.88848582 365.77818809 173.73780838 367.5354634 174.01171875 370.41796875 C175.34900195 373.02819337 175.34900195 373.02819337 177.265625 375.5859375 C177.95591797 376.56240234 178.64621094 377.53886719 179.35742188 378.54492188 C180.08896484 379.55490234 180.82050781 380.56488281 181.57421875 381.60546875 C182.27869141 382.59611328 182.98316406 383.58675781 183.70898438 384.60742188 C185.11448116 386.5828897 186.5241122 388.55542303 187.93798828 390.52490234 C189.96396161 393.35134265 191.97584296 396.18688434 193.9765625 399.03125 C194.53851318 399.82958252 195.10046387 400.62791504 195.67944336 401.45043945 C197.64617038 404.35493882 198.66644165 406.73862472 198.60302734 410.3215332 C197.78017693 413.23888105 196.23774786 414.74829048 194.17578125 416.9609375 C192.94964111 418.27843994 192.94964111 418.27843994 191.69873047 419.62255859 C187.1163498 424.38979998 182.45805498 429.07614903 177.76171875 433.73046875 C176.78491712 434.70223365 175.80835372 435.67423807 174.83203125 436.64648438 C173.04149347 438.42897152 171.24936998 440.20980372 169.45605469 441.98950195 C165.81102517 445.61086717 162.17832235 449.24404724 158.56640625 452.8984375 C157.33988278 454.13415333 156.11331963 455.36982976 154.88671875 456.60546875 C154.26667969 457.23388672 153.64664062 457.86230469 153.0078125 458.50976562 C152.40839844 459.11240234 151.80898438 459.71503906 151.19140625 460.3359375 C150.65241699 460.88016357 150.11342773 461.42438965 149.55810547 461.98510742 C145.79722343 465.46989061 143.24963714 465.87421147 138.34814453 465.75244141 C134.51514541 465.20372575 131.99542155 463.39224571 128.94921875 461.10546875 C128.32144531 460.66485107 127.69367188 460.2242334 127.046875 459.77026367 C124.29721086 457.83469846 121.58967989 455.84411399 118.88330078 453.84863281 C117.45950006 452.80237707 116.03041048 451.76327796 114.59594727 450.73168945 C113.23512084 449.75151823 111.8870947 448.75325504 110.55444336 447.73510742 C107.31085121 445.39654758 105.65703913 444.42674862 101.56640625 444.37109375 C97.3150043 445.62315498 93.57640773 447.34836151 89.63671875 449.35546875 C80.70565406 453.78495967 71.56268735 457.45475491 62.20166016 460.87866211 C61.17991699 461.26803955 60.15817383 461.65741699 59.10546875 462.05859375 C58.19474609 462.39407227 57.28402344 462.72955078 56.34570312 463.07519531 C52.78638698 465.12291904 51.57218918 467.55253329 50.40274048 471.44485474 C49.77364509 473.91468881 49.21516752 476.39271582 48.671875 478.8828125 C48.24430279 480.75329229 47.81656326 482.62373383 47.38867188 484.49414062 C46.72879924 487.42709891 46.07301089 490.36090661 45.42114258 493.2956543 C44.78608158 496.13970611 44.13593889 498.98000335 43.484375 501.8203125 C43.29569351 502.69235825 43.10701202 503.56440399 42.91261292 504.46287537 C41.50375758 510.56779082 39.76386476 515.16926408 34.76953125 519.25 C31.1465405 520.78438277 27.76418431 520.99358008 23.88671875 521.10546875 C23.04995605 521.13817871 22.21319336 521.17088867 21.35107422 521.20458984 C12.28389266 521.50423966 3.20809494 521.520583 -5.86328125 521.54296875 C-6.60564026 521.54573822 -7.34799927 521.54850769 -8.112854 521.55136108 C-36.1302158 521.62751413 -36.1302158 521.62751413 -40.61328125 518.66796875 C-46.23868254 512.64876819 -47.32681763 501.24345678 -49.20703125 493.37890625 C-49.39405609 492.59821777 -49.58108093 491.8175293 -49.77377319 491.01318359 C-50.5451475 487.78115127 -51.31386761 484.54876121 -52.06103516 481.31103516 C-52.6166582 478.91345767 -53.19143946 476.52115047 -53.76953125 474.12890625 C-53.9332019 473.39771576 -54.09687256 472.66652527 -54.26550293 471.91317749 C-55.01086704 468.88411304 -55.624047 466.78406524 -57.85058594 464.54614258 C-60.01242791 463.40522529 -62.10606275 462.47357052 -64.41015625 461.65625 C-65.26327393 461.3459082 -66.1163916 461.03556641 -66.99536133 460.71582031 C-67.9005249 460.3906543 -68.80568848 460.06548828 -69.73828125 459.73046875 C-77.91944179 456.70925427 -85.71665308 453.30982574 -93.4453125 449.27734375 C-94.30697021 448.83165039 -94.30697021 448.83165039 -95.18603516 448.37695312 C-96.48413868 447.68622559 -97.76608464 446.96482179 -99.03662109 446.22460938 C-103.01295402 443.89728626 -103.01295402 443.89728626 -107.453125 443.81640625 C-108.28972656 444.34492187 -109.12632812 444.8734375 -109.98828125 445.41796875 C-110.60719238 445.80629883 -111.22610352 446.19462891 -111.86376953 446.59472656 C-114.12050011 448.03915838 -116.33604209 449.53500695 -118.55078125 451.04296875 C-119.74525879 451.84504761 -119.74525879 451.84504761 -120.96386719 452.66333008 C-124.53758795 455.06516764 -128.09652049 457.48528666 -131.625 459.953125 C-132.65238281 460.66339844 -133.67976563 461.37367188 -134.73828125 462.10546875 C-135.62 462.72808594 -136.50171875 463.35070312 -137.41015625 463.9921875 C-140.34047149 465.61274062 -142.66169818 466.14455096 -145.98828125 466.41796875 C-151.15020482 464.7347328 -154.25830652 461.33981742 -157.92578125 457.51953125 C-159.83177047 455.57744375 -161.79200717 453.8052221 -163.86328125 452.04296875 C-170.04565384 446.71082422 -175.89433884 440.95986236 -181.17578125 434.73046875 C-185.41023434 429.74936088 -190.14403243 425.24307938 -194.8347168 420.6965332 C-195.46933838 420.07351318 -196.10395996 419.45049316 -196.7578125 418.80859375 C-197.33120361 418.25204102 -197.90459473 417.69548828 -198.49536133 417.12207031 C-200.87724395 414.40325744 -201.89125554 412.13537094 -202.375 408.55859375 C-201.88578697 404.58559095 -200.19104046 402.23760761 -197.80078125 399.16796875 C-196.8904593 397.94543587 -195.98031231 396.72277269 -195.0703125 395.5 C-194.57740723 394.84854004 -194.08450195 394.19708008 -193.57666016 393.52587891 C-190.6696522 389.66803896 -187.83071142 385.76097655 -184.98828125 381.85546875 C-184.42471924 381.09395508 -183.86115723 380.33244141 -183.28051758 379.54785156 C-182.75095459 378.82307617 -182.2213916 378.09830078 -181.67578125 377.3515625 C-181.20527344 376.71275146 -180.73476563 376.07394043 -180.25 375.41577148 C-178.77820283 373.08533104 -177.7374635 371.08020977 -176.98828125 368.41796875 C-177.50374743 365.88799988 -177.50374743 365.88799988 -178.734375 363.3828125 C-179.15630127 362.41754639 -179.57822754 361.45228027 -180.01293945 360.45776367 C-180.71229614 358.92212769 -180.71229614 358.92212769 -181.42578125 357.35546875 C-185.29815867 348.55375577 -188.77988106 339.78443105 -191.56616211 330.57592773 C-191.81503174 329.80579346 -192.06390137 329.03565918 -192.3203125 328.2421875 C-192.52374268 327.57276123 -192.72717285 326.90333496 -192.93676758 326.21362305 C-194.47898383 323.58000323 -196.26153786 322.73517932 -198.98828125 321.41796875 C-201.91668437 320.61273305 -201.91668437 320.61273305 -205.07421875 320.13671875 C-206.24581543 319.93626953 -207.41741211 319.73582031 -208.62451172 319.52929688 C-209.85830566 319.32755859 -211.09209961 319.12582031 -212.36328125 318.91796875 C-214.89462388 318.48100501 -217.42587478 318.04350952 -219.95703125 317.60546875 C-223.19279028 317.05587061 -226.42875508 316.50931996 -229.66796875 315.98046875 C-244.02359974 313.62869303 -244.02359974 313.62869303 -247.98828125 308.41796875 C-250.50614858 301.37057424 -250.27967234 293.9073425 -250.25390625 286.52734375 C-250.2558197 285.30573547 -250.25773315 284.0841272 -250.25970459 282.82550049 C-250.26106042 280.25036411 -250.25740621 277.67522075 -250.24902344 275.10009766 C-250.23835285 271.1941765 -250.24892057 267.28871914 -250.26171875 263.3828125 C-250.26039633 260.86848858 -250.25783223 258.35416495 -250.25390625 255.83984375 C-250.25795471 254.68836853 -250.26200317 253.53689331 -250.26617432 252.3505249 C-250.15138166 232.11804444 -250.15138166 232.11804444 -246.17285156 227.15187073 C-240.5490862 222.68826623 -232.90057117 221.88874938 -225.97265625 220.875 C-224.29269987 220.60387434 -222.61301891 220.33103758 -220.93359375 220.05664062 C-218.32651878 219.63681981 -215.71959367 219.22774882 -213.10644531 218.84741211 C-210.55566905 218.47166645 -208.01525324 218.05219588 -205.47265625 217.625 C-204.69549255 217.52258499 -203.91832886 217.42016998 -203.11761475 217.31465149 C-199.8546661 216.73529411 -197.7286287 216.23136682 -195.4546814 213.73304749 C-191.730245 207.97056744 -189.34018664 201.49184137 -186.85644531 195.1262207 C-186.10827465 193.21769731 -185.33807137 191.31904833 -184.56640625 189.41992188 C-184.08945312 188.20884766 -183.6125 186.99777344 -183.12109375 185.75 C-182.46971436 184.10608276 -182.46971436 184.10608276 -181.80517578 182.42895508 C-180.6706268 178.24712826 -181.20216333 175.89597705 -183.21240234 172.11645508 C-183.72367676 171.3355249 -184.23495117 170.55459473 -184.76171875 169.75 C-185.62095947 168.42270874 -185.62095947 168.42270874 -186.49755859 167.06860352 C-187.11324707 166.13201904 -187.72893555 165.19543457 -188.36328125 164.23046875 C-189.63494474 162.25704512 -190.90576583 160.28307842 -192.17578125 158.30859375 C-194.02306947 155.45182783 -195.87229389 152.59638077 -197.7265625 149.74414062 C-199.28732322 147.33222519 -200.82737002 144.90825746 -202.36328125 142.48046875 C-202.8329834 141.76673096 -203.30268555 141.05299316 -203.78662109 140.31762695 C-206.55188201 135.91072175 -207.85661222 132.76739456 -206.98828125 127.41796875 C-205.3359375 124.8984375 -205.3359375 124.8984375 -203.05078125 122.60546875 C-202.220625 121.74695313 -201.39046875 120.8884375 -200.53515625 120.00390625 C-199.27445312 118.72386719 -199.27445312 118.72386719 -197.98828125 117.41796875 C-196.58409924 115.86296719 -195.18820131 114.30044408 -193.80078125 112.73046875 C-185.10326074 103.07164334 -176.28104387 93.50871479 -166.98828125 84.41796875 C-166.0078837 83.44003451 -165.02856589 82.46101549 -164.05078125 81.48046875 C-160.98828125 78.41796875 -160.98828125 78.41796875 -157.36499023 78.16137695 C-152.96785475 78.22379927 -149.8894923 79.49887432 -145.9609375 81.5234375 C-145.01111244 82.00506096 -145.01111244 82.00506096 -144.042099 82.49641418 C-142.03694287 83.51788376 -140.0441555 84.56122814 -138.05078125 85.60546875 C-136.7188362 86.28724951 -135.38615803 86.96760001 -134.05273438 87.64648438 C-127.87837446 90.8053178 -121.75697205 94.01767117 -115.82421875 97.6171875 C-112.63961741 99.00621574 -110.26269787 98.32365845 -106.98828125 97.41796875 C-106.98828125 96.75796875 -106.98828125 96.09796875 -106.98828125 95.41796875 C-106.32828125 95.41796875 -105.66828125 95.41796875 -104.98828125 95.41796875 C-104.75496094 94.8559375 -104.52164063 94.29390625 -104.28125 93.71484375 C-102.66891049 90.85062733 -100.66892505 88.94544854 -98.30078125 86.66796875 C-94.49892962 82.94840828 -90.9201251 79.14315901 -87.453125 75.11328125 C-85.7182293 73.10542863 -83.97303831 71.18219725 -81.98828125 69.41796875 C-81.32828125 69.41796875 -80.66828125 69.41796875 -79.98828125 69.41796875 C-79.65828125 68.42796875 -79.32828125 67.43796875 -78.98828125 66.41796875 C-77.66796875 65.12109375 -77.66796875 65.12109375 -75.86328125 63.66796875 C-71.49568813 59.97837745 -67.50321752 55.98091399 -63.48828125 51.91796875 C-59.1368742 47.52786132 -54.79874334 43.21087012 -50.07421875 39.21875 C-47.14532541 36.69024845 -44.32317943 34.050918 -41.48828125 31.41796875 C-36.72198433 27.00238279 -31.91319036 22.65669123 -26.98828125 18.41796875 C-25.90600522 17.47033157 -24.82399928 16.52238588 -23.7421875 15.57421875 C-18.43302639 10.9394783 -13.08866579 6.32362521 -7.48828125 2.04296875 C-6.75609375 1.47835937 -6.02390625 0.91375 -5.26953125 0.33203125 C-2.98828125 -0.58203125 -2.98828125 -0.58203125 0 0 Z M-11.73828125 40.91796875 C-12.96346799 42.02106121 -14.19004024 43.12261667 -15.41796875 44.22265625 C-16.01834961 44.76631836 -16.61873047 45.30998047 -17.23730469 45.87011719 C-20.45581859 48.71526194 -23.87716283 51.29148944 -27.29296875 53.89453125 C-28.13214844 54.64863281 -28.13214844 54.64863281 -28.98828125 55.41796875 C-28.98828125 56.07796875 -28.98828125 56.73796875 -28.98828125 57.41796875 C-29.58125 57.68222656 -30.17421875 57.94648438 -30.78515625 58.21875 C-33.06857179 59.461673 -34.46254848 60.72198521 -36.23828125 62.60546875 C-38.59370019 65.09498332 -41.06112215 67.36420524 -43.65625 69.59765625 C-48.32426837 73.65214209 -52.69137044 77.97387264 -57.05078125 82.35546875 C-57.81455078 83.11537109 -58.57832031 83.87527344 -59.36523438 84.65820312 C-63.53233866 88.83243676 -67.52977073 93.09247817 -71.37768555 97.56225586 C-73.80023796 100.35349747 -76.33540952 103.03500801 -78.86328125 105.73046875 C-84.16045942 111.4322638 -89.15070843 117.31878367 -93.98828125 123.41796875 C-94.83578774 124.47277659 -95.68345037 125.527459 -96.53125 126.58203125 C-134.92373809 174.60417955 -165.72405673 228.38588808 -159.30078125 291.73046875 C-155.13532423 326.28731946 -139.65512747 359.98053553 -115.98828125 385.41796875 C-115.47394531 385.97613281 -114.95960938 386.53429687 -114.4296875 387.109375 C-106.41776068 395.72069784 -97.76184992 402.88703267 -87.98828125 409.41796875 C-87.39853516 409.81467773 -86.80878906 410.21138672 -86.20117188 410.62011719 C-67.15830945 423.22729525 -45.6383836 430.76613789 -23.17578125 434.29296875 C-22.33329834 434.42558105 -21.49081543 434.55819336 -20.62280273 434.69482422 C-19.43279663 434.86328857 -19.43279663 434.86328857 -18.21875 435.03515625 C-17.52160889 435.13425293 -16.82446777 435.23334961 -16.10620117 435.33544922 C-13.60432172 435.43292879 -11.42963311 434.93885551 -8.98828125 434.41796875 C-8.8955286 423.9605811 -8.82448945 413.5032916 -8.78103256 403.0455761 C-8.7601735 398.18941576 -8.73188655 393.33353723 -8.68652344 388.47753906 C-8.64300574 383.78965619 -8.61913149 379.10204407 -8.60877228 374.41397476 C-8.60139154 372.62701277 -8.58697854 370.84006531 -8.56536102 369.05321884 C-8.5362478 366.54671157 -8.53232848 364.0413176 -8.53417969 361.53466797 C-8.51260803 360.43091072 -8.51260803 360.43091072 -8.49060059 359.30485535 C-8.53957215 353.16148002 -10.82644812 349.76255479 -14.8828125 345.36328125 C-15.51574219 344.76257813 -16.14867187 344.161875 -16.80078125 343.54296875 C-19.41069489 341.0048876 -21.88305444 338.44356611 -24.23828125 335.66796875 C-27.32389693 332.07280186 -30.62025085 328.7445847 -33.98828125 325.41796875 C-37.90893786 321.54540361 -41.64232325 317.6100462 -45.21484375 313.41015625 C-47.37941543 310.97858894 -49.67257578 308.70585794 -51.98828125 306.41796875 C-54.85754366 303.58306876 -57.63314836 300.74676216 -60.23828125 297.66796875 C-64.18500327 293.04466581 -68.53908027 288.84156387 -72.85644531 284.56933594 C-76.58078127 280.86898926 -80.15242836 277.10794555 -83.52734375 273.08203125 C-85.04310797 271.35551907 -86.66969607 269.84343406 -88.36328125 268.29296875 C-91.25225778 265.1288516 -91.89639066 263.64493594 -91.98828125 259.41796875 C-91.55078125 257.04296875 -91.55078125 257.04296875 -90.98828125 255.41796875 C-87.5257955 254.51112724 -85.54048213 254.20698993 -82.15625 255.5 C-78.34725751 257.8060608 -75.84630431 260.47537052 -72.92578125 263.79296875 C-65.99043866 271.45865087 -58.72137345 278.75058788 -51.36108398 286.00732422 C-46.95674674 290.36969164 -42.72730934 294.78480536 -38.69311523 299.49047852 C-35.62308175 302.96146726 -32.29506362 306.17453471 -28.98828125 309.41796875 C-24.31461078 314.0021053 -19.82926405 318.6300937 -15.62890625 323.65625 C-13.89565624 325.51743037 -12.06183698 326.95295655 -9.98828125 328.41796875 C-7.95899437 326.38868187 -8.83103201 322.18392625 -8.82714844 319.39746094 C-8.82218353 318.55678574 -8.81721863 317.71611053 -8.81210327 316.84996033 C-8.79743929 314.05491328 -8.7906717 311.25992303 -8.78515625 308.46484375 C-8.77940711 306.52768959 -8.77364935 304.59053546 -8.7678833 302.65338135 C-8.75736045 298.58451064 -8.75152659 294.51565976 -8.74804688 290.44677734 C-8.74256755 285.2333995 -8.71855692 280.02028355 -8.69007492 274.80698776 C-8.67144574 270.8024011 -8.66624273 266.79787738 -8.664711 262.79325104 C-8.66168323 260.87151919 -8.65365052 258.94978848 -8.64052582 257.02809906 C-8.62346383 254.33721578 -8.62534622 251.64697018 -8.63183594 248.95605469 C-8.61801376 247.76510445 -8.61801376 247.76510445 -8.60391235 246.5500946 C-8.64617554 240.95366098 -9.84724144 237.7762923 -13.56640625 233.6796875 C-14.118125 233.16019531 -14.66984375 232.64070312 -15.23828125 232.10546875 C-17.78763366 229.63645308 -20.17591854 227.11051722 -22.48828125 224.41796875 C-24.73386065 221.81149266 -27.03379637 219.32862354 -29.48828125 216.91796875 C-31.92217857 214.52743708 -34.20183684 212.06750613 -36.42578125 209.48046875 C-38.84445904 206.67220528 -41.34727808 204.01826282 -43.98828125 201.41796875 C-47.25848244 198.19817529 -50.27967201 194.83794696 -53.265625 191.35546875 C-54.97564244 189.43218383 -56.76425847 187.64458799 -58.61328125 185.85546875 C-61.91795587 182.56574741 -64.63276711 179.46650867 -66.98828125 175.41796875 C-66.91620599 171.59797978 -66.6959158 170.1256033 -63.98828125 167.41796875 C-61.36328125 166.85546875 -61.36328125 166.85546875 -57.98828125 167.41796875 C-52.338799 171.49785748 -47.60621248 176.79251291 -42.92578125 181.91796875 C-37.12008842 188.20108404 -31.16369763 194.29534499 -25.07666016 200.30541992 C-21.30531196 204.04602069 -17.70842479 207.84985574 -14.3828125 212 C-12.74861997 213.66165795 -11.07967396 214.42152089 -8.98828125 215.41796875 C-8.9849711 214.83836238 -8.98166096 214.25875601 -8.9782505 213.66158581 C-8.89706775 199.56540266 -8.80499092 185.469326 -8.70075417 171.37329388 C-8.6506096 164.55658403 -8.60416696 157.73988632 -8.56640625 150.9230957 C-8.5299761 144.34837454 -8.48327326 137.77377878 -8.43021774 131.19916725 C-8.41164041 128.68690091 -8.3965449 126.17460641 -8.38493729 123.6622982 C-8.36813205 120.15192508 -8.33911063 116.64185477 -8.30712891 113.1315918 C-8.30388863 111.56282036 -8.30388863 111.56282036 -8.30058289 109.96235657 C-8.2894194 109.00743317 -8.27825592 108.05250977 -8.26675415 107.06864929 C-8.26122339 106.23811381 -8.25569263 105.40757833 -8.24999428 104.55187511 C-7.98828125 102.41796875 -7.98828125 102.41796875 -5.98828125 99.41796875 C0.09742161 98.75407389 0.09742161 98.75407389 2.70945454 100.65073872 C4.38638343 102.92640526 4.39483307 104.25516887 4.41044617 107.06864929 C4.42298431 108.02357269 4.43552246 108.97849609 4.44844055 109.96235657 C4.44700546 111.00820419 4.44557037 112.05405182 4.4440918 113.1315918 C4.45937927 114.78547913 4.45937927 114.78547913 4.47497559 116.47277832 C4.5052222 120.12513229 4.51438954 123.77722449 4.5234375 127.4296875 C4.54027549 129.95889669 4.55842453 132.48809746 4.57783508 135.01728821 C4.62056861 140.99893836 4.65005692 146.98051264 4.67315847 152.96225911 C4.70019631 159.77243726 4.7441086 166.58247376 4.78944719 173.39255083 C4.88233059 187.40094659 4.95399433 201.40938716 5.01171875 215.41796875 C8.10961746 215.76470766 8.10961746 215.76470766 9.9921875 213.51171875 C10.72050781 212.65578125 11.44882812 211.79984375 12.19921875 210.91796875 C15.08697633 207.59494139 17.98998909 204.37222467 21.13671875 201.29296875 C23.57187133 198.89579126 25.8689591 196.46474544 28.07421875 193.85546875 C32.30050709 188.92316472 36.96062837 184.41832123 41.59399414 179.87280273 C44.48735527 177.01822361 47.28030451 174.17370625 49.84765625 171.01953125 C52.01171875 168.41796875 52.01171875 168.41796875 54.01171875 167.41796875 C59.26637714 166.97076378 59.26637714 166.97076378 61.88671875 168.54296875 C63.67124124 171.5171729 63.66017875 172.98113077 63.01171875 176.41796875 C61.68310547 178.20800781 61.68310547 178.20800781 59.94140625 180.12109375 C59.30638184 180.82322998 58.67135742 181.52536621 58.01708984 182.2487793 C57.35531738 182.96461182 56.69354492 183.68044434 56.01171875 184.41796875 C55.39506348 185.08932861 54.7784082 185.76068848 54.14306641 186.45239258 C52.27603724 188.47143507 50.3960826 190.47760367 48.51171875 192.48046875 C47.57392578 193.48303711 47.57392578 193.48303711 46.6171875 194.50585938 C43.54683327 197.77645409 40.44523453 201.00328612 37.26171875 204.1640625 C34.90567719 206.50387149 32.65602917 208.8798054 30.51171875 211.41796875 C28.26613935 214.02444484 25.96620363 216.50731396 23.51171875 218.91796875 C19.79730255 222.5743472 16.41173311 226.47125605 13.01171875 230.41796875 C11.14073573 232.53121053 9.2691602 234.64389788 7.39453125 236.75390625 C4.34907263 240.41878019 4.87793115 244.08707792 4.89819336 248.63134766 C4.89797432 249.90462669 4.89797432 249.90462669 4.89775085 251.20362854 C4.89844909 254.01728852 4.90623735 256.83088279 4.9140625 259.64453125 C4.915927 261.59223393 4.91735075 263.53993707 4.91835022 265.48764038 C4.92217292 270.62017099 4.9320011 275.75267342 4.9430542 280.88519287 C4.95327363 286.12007262 4.95784898 291.35495691 4.96289062 296.58984375 C4.97362358 306.86589782 4.99069705 317.14193094 5.01171875 327.41796875 C7.99716443 327.76278172 7.99716443 327.76278172 9.52172852 325.97998047 C10.05596436 325.31756348 10.5902002 324.65514648 11.140625 323.97265625 C15.8394574 318.36273743 21.06938007 313.34420142 26.31054688 308.24609375 C27.04595703 307.52164062 27.78136719 306.7971875 28.5390625 306.05078125 C29.20671631 305.39996582 29.87437012 304.74915039 30.56225586 304.07861328 C32.23091169 302.53421384 32.23091169 302.53421384 32.01171875 300.41796875 C32.67171875 300.41796875 33.33171875 300.41796875 34.01171875 300.41796875 C35.51221811 298.93435181 35.51221811 298.93435181 37.07421875 296.98046875 C41.84425374 291.37098661 47.0930448 286.28767166 52.33984375 281.12890625 C56.5415463 276.97007822 60.56494847 272.73816992 64.42138672 268.25732422 C66.73154583 265.58542696 69.12296467 263.02449227 71.57421875 260.48046875 C72.46238281 259.54332031 73.35054687 258.60617187 74.265625 257.640625 C77.34057974 255.1517925 79.08032732 254.48817217 83.01171875 254.41796875 C85.94921875 256.54296875 85.94921875 256.54296875 88.01171875 259.41796875 C87.71678543 263.1979305 86.67614674 265.28483404 84.13671875 268.04296875 C83.51023437 268.72617187 82.88375 269.409375 82.23828125 270.11328125 C79.22121594 273.2362085 76.1489191 276.30167702 73.05883789 279.35229492 C69.86104935 282.52161488 66.89041602 285.8037754 63.98046875 289.234375 C60.7888339 292.77430333 57.35602872 296.0785658 53.92211914 299.38256836 C52.58236707 300.69156572 51.29237198 302.05109749 50.01171875 303.41796875 C50.01171875 304.07796875 50.01171875 304.73796875 50.01171875 305.41796875 C49.02171875 305.74796875 48.03171875 306.07796875 47.01171875 306.41796875 C45.5014086 307.90782175 45.5014086 307.90782175 44.01171875 309.79296875 C40.56630929 313.86614349 36.86198546 317.60022344 33.06494141 321.34472656 C29.79123138 324.59255301 26.73790379 327.95637438 23.75 331.46484375 C21.15474365 334.38086212 18.34111515 337.06245263 15.515625 339.75390625 C14.27619141 341.07261719 14.27619141 341.07261719 13.01171875 342.41796875 C12.36259018 343.00372681 11.71346161 343.58948486 11.04466248 344.19299316 C4.34258267 351.06748955 4.02914289 357.09626928 4.10534668 366.20559692 C4.1461853 367.98734516 4.18791303 369.7690732 4.23046875 371.55078125 C4.24541302 373.39734431 4.2567897 375.24393937 4.26477051 377.09054565 C4.29513333 381.92136147 4.37355549 386.75021436 4.46240234 391.58026123 C4.54463927 396.52068535 4.58086234 401.46143062 4.62109375 406.40234375 C4.70656846 416.07507529 4.84287929 425.746358 5.01171875 435.41796875 C7.24167984 435.26782083 9.47146441 435.11504993 11.70117188 434.96118164 C12.94290161 434.87639053 14.18463135 434.79159943 15.46398926 434.70423889 C36.72208365 432.98890019 57.85368079 425.48945348 76.01171875 414.41796875 C76.62563477 414.04446289 77.23955078 413.67095703 77.87207031 413.28613281 C87.69317175 407.21554978 96.48922374 400.18948289 105.01171875 392.41796875 C105.759375 391.7425 106.50703125 391.06703125 107.27734375 390.37109375 C117.55257444 380.59709383 125.79599405 368.56052315 133.01171875 356.41796875 C133.35299805 355.84530273 133.69427734 355.27263672 134.04589844 354.68261719 C144.07848308 337.56481966 150.26446484 318.83956495 154.01171875 299.41796875 C154.14304199 298.74024414 154.27436523 298.06251953 154.40966797 297.36425781 C164.15923744 243.95357291 140.89001605 194.38941208 111.33496094 151.50073242 C105.81828216 143.61134054 99.93270377 136.00581118 94.01171875 128.41796875 C93.28082031 127.47050781 92.54992187 126.52304687 91.796875 125.546875 C87.47562297 120.02380237 82.8221533 114.86568174 78.015625 109.765625 C75.56729575 107.11365479 73.34478303 104.32209305 71.10546875 101.4921875 C65.50485127 94.60212688 59.2578869 88.3988563 52.95483398 82.15527344 C50.94387236 80.16267117 48.9411318 78.16207942 46.93945312 76.16015625 C40.79860049 70.03639314 34.64361769 64.01412143 28.01171875 58.41796875 C26.40403502 56.96351358 24.7993216 55.5057598 23.19921875 54.04296875 C18.74575493 50.02181344 14.16235803 46.19436119 9.484375 42.4375 C7.4815023 40.80166242 5.59371115 39.1114604 3.69921875 37.35546875 C-2.71422065 32.73182639 -6.82659949 36.32140186 -11.73828125 40.91796875 Z " fill="#E27F00" transform="translate(513.98828125,245.58203125)"/>
<path d="M0 0 C0.66209473 -0.00095673 1.32418945 -0.00191345 2.00634766 -0.00289917 C3.40852961 -0.00358076 4.8107147 -0.00172792 6.21289062 0.00244141 C8.36595713 0.00779004 10.51881502 0.0024958 12.671875 -0.00390625 C14.03125046 -0.00324546 15.3906258 -0.00196429 16.75 0 C18.61785156 0.00169189 18.61785156 0.00169189 20.5234375 0.00341797 C23.375 0.1328125 23.375 0.1328125 24.375 1.1328125 C24.48817284 3.48509569 24.53916537 5.80693198 24.54296875 8.16015625 C24.54796135 9.21632896 24.54796135 9.21632896 24.55305481 10.2938385 C24.55812655 11.78597356 24.56046306 13.27812 24.56030273 14.77026367 C24.56248759 17.05731857 24.58063549 19.34389003 24.59960938 21.63085938 C24.60254354 23.07812334 24.60452818 24.52538961 24.60546875 25.97265625 C24.61265427 26.65915756 24.61983978 27.34565887 24.62724304 28.05296326 C24.60382369 32.90398881 24.60382369 32.90398881 22.375 35.1328125 C19.71704102 35.39160156 19.71704102 35.39160156 16.37890625 35.3984375 C14.58163086 35.40230469 14.58163086 35.40230469 12.74804688 35.40625 C11.49056641 35.39851563 10.23308594 35.39078125 8.9375 35.3828125 C7.05708008 35.39441406 7.05708008 35.39441406 5.13867188 35.40625 C3.93919922 35.40367187 2.73972656 35.40109375 1.50390625 35.3984375 C0.40119385 35.39618164 -0.70151855 35.39392578 -1.83764648 35.39160156 C-4.625 35.1328125 -4.625 35.1328125 -7.625 33.1328125 C-7.90480316 30.66115402 -7.99755486 28.44302509 -7.953125 25.97265625 C-7.95125183 25.26758438 -7.94937866 24.56251251 -7.94744873 23.83607483 C-7.94072481 22.3456652 -7.92680341 20.85527331 -7.90625 19.36499023 C-7.87507532 17.07584357 -7.86527853 14.78738482 -7.859375 12.49804688 C-7.85020598 11.05207488 -7.83983053 9.60610993 -7.828125 8.16015625 C-7.82387512 7.47163071 -7.81962524 6.78310516 -7.81524658 6.07371521 C-7.71397441 -0.61061965 -6.45430978 0.0058463 0 0 Z " fill="#E48401" transform="translate(729.625,356.8671875)"/>
<path d="M0 0 C0.67877197 0.00008057 1.35754395 0.00016113 2.05688477 0.00024414 C4.12667451 -0.00194046 6.1959298 -0.02008804 8.265625 -0.0390625 C10.21178711 -0.04196289 10.21178711 -0.04196289 12.19726562 -0.04492188 C13.39536865 -0.04903076 14.59347168 -0.05313965 15.82788086 -0.05737305 C18.70117188 0.18554688 18.70117188 0.18554688 20.70117188 2.18554688 C20.95996094 4.95117188 20.95996094 4.95117188 20.96679688 8.43554688 C20.97066406 10.30726563 20.97066406 10.30726563 20.97460938 12.21679688 C20.966875 13.52648437 20.95914063 14.83617187 20.95117188 16.18554688 C20.96277344 18.15007812 20.96277344 18.15007812 20.97460938 20.15429688 C20.97203125 21.40210938 20.96945312 22.64992188 20.96679688 23.93554688 C20.96454102 25.08539063 20.96228516 26.23523438 20.95996094 27.41992188 C20.70117188 30.18554688 20.70117188 30.18554688 18.70117188 32.18554688 C15.82788086 32.4284668 15.82788086 32.4284668 12.19726562 32.41601562 C10.89982422 32.41408203 9.60238281 32.41214844 8.265625 32.41015625 C7.58894775 32.40395264 6.91227051 32.39774902 6.21508789 32.39135742 C4.14326717 32.3730874 2.07189291 32.37084783 0 32.37109375 C-10.15874555 32.32562945 -10.15874555 32.32562945 -11.29882812 31.18554688 C-11.39895214 28.97904031 -11.42963992 26.76932301 -11.43164062 24.56054688 C-11.43259735 23.89845215 -11.43355408 23.23635742 -11.43453979 22.55419922 C-11.43522139 21.15201726 -11.43336854 19.74983217 -11.42919922 18.34765625 C-11.42385059 16.19458974 -11.42914482 14.04173185 -11.43554688 11.88867188 C-11.43488609 10.52929641 -11.43360492 9.16992108 -11.43164062 7.81054688 C-11.4305127 6.5653125 -11.42938477 5.32007813 -11.42822266 4.03710938 C-11.14819419 -2.13408402 -4.9546361 0.02217391 0 0 Z " fill="#E38A01" transform="translate(643.298828125,256.814453125)"/>
<path d="M0 0 C1.15757812 -0.00128906 2.31515625 -0.00257813 3.5078125 -0.00390625 C5.32925781 0.00189453 5.32925781 0.00189453 7.1875 0.0078125 C9.00894531 0.00201172 9.00894531 0.00201172 10.8671875 -0.00390625 C12.60355469 -0.00197266 12.60355469 -0.00197266 14.375 0 C15.44105469 0.00112793 16.50710938 0.00225586 17.60546875 0.00341797 C20.1875 0.1328125 20.1875 0.1328125 22.1875 1.1328125 C22.23689662 5.08378228 22.27321755 9.0346328 22.29736328 12.98583984 C22.31238107 14.9919261 22.33778981 16.99792574 22.36328125 19.00390625 C22.36972656 20.26074219 22.37617187 21.51757812 22.3828125 22.8125 C22.39328613 23.97507324 22.40375977 25.13764648 22.41455078 26.33544922 C22.1875 29.1328125 22.1875 29.1328125 20.1875 31.1328125 C17.60546875 31.37573242 17.60546875 31.37573242 14.375 31.36328125 C13.21742188 31.36134766 12.05984375 31.35941406 10.8671875 31.35742188 C9.65289063 31.34517578 8.43859375 31.33292969 7.1875 31.3203125 C5.97320313 31.31966797 4.75890625 31.31902344 3.5078125 31.31835938 C-5.53200576 31.27305962 -5.53200576 31.27305962 -7.8125 30.1328125 C-8.81880863 27.11388661 -8.94148 25.06985074 -8.9453125 21.9140625 C-8.94660156 20.89957031 -8.94789063 19.88507813 -8.94921875 18.83984375 C-8.94535156 17.78152344 -8.94148437 16.72320312 -8.9375 15.6328125 C-8.94136719 14.57449219 -8.94523438 13.51617187 -8.94921875 12.42578125 C-8.94792969 11.41128906 -8.94664062 10.39679688 -8.9453125 9.3515625 C-8.94418457 8.42279297 -8.94305664 7.49402344 -8.94189453 6.53710938 C-8.8125 4.1328125 -8.8125 4.1328125 -7.8125 1.1328125 C-5.11984639 -0.2135143 -3.01135751 0.00318614 0 0 Z " fill="#E28300" transform="translate(683.8125,309.8671875)"/>
<path d="M0 0 C1.26199219 -0.01224609 2.52398438 -0.02449219 3.82421875 -0.03710938 C5.02691406 -0.03904297 6.22960937 -0.04097656 7.46875 -0.04296875 C9.13067383 -0.04913208 9.13067383 -0.04913208 10.82617188 -0.05541992 C13.5 0.1875 13.5 0.1875 15.5 2.1875 C15.74291992 4.87719727 15.74291992 4.87719727 15.73046875 8.25390625 C15.72853516 9.46111328 15.72660156 10.66832031 15.72460938 11.91210938 C15.70624023 13.81186523 15.70624023 13.81186523 15.6875 15.75 C15.68685547 17.02037109 15.68621094 18.29074219 15.68554688 19.59960938 C15.64010053 29.04739947 15.64010053 29.04739947 14.5 30.1875 C10.3847102 30.42916663 6.26608735 30.41599275 2.14428711 30.42773438 C0.07429901 30.43744465 -1.99469815 30.46845712 -4.06445312 30.5 C-5.36189453 30.50515625 -6.65933594 30.5103125 -7.99609375 30.515625 C-9.79324829 30.52964355 -9.79324829 30.52964355 -11.62670898 30.54394531 C-12.57489502 30.42631836 -13.52308105 30.30869141 -14.5 30.1875 C-16.86511111 26.63983334 -16.68013277 25.3802218 -16.4765625 21.20703125 C-16.425 20.04365234 -16.3734375 18.88027344 -16.3203125 17.68164062 C-16.25585938 16.46669922 -16.19140625 15.25175781 -16.125 14 C-16.06828125 12.77345703 -16.0115625 11.54691406 -15.953125 10.28320312 C-15.81153051 7.25072112 -15.66010492 4.21905194 -15.5 1.1875 C-11.0372169 -1.04389155 -4.90089668 0.00250301 0 0 Z " fill="#E38901" transform="translate(707.5,228.8125)"/>
<path d="M0 0 C0 3 0 3 -1.8125 5.1875 C-4 7 -4 7 -7 7 C-7.08765625 7.74507813 -7.1753125 8.49015625 -7.265625 9.2578125 C-8.13974484 12.52181316 -9.26934147 13.62748607 -11.75 15.875 C-17.61286088 21.4852421 -21.49227915 25.70722612 -22 34 C-21.07622559 34.1383728 -21.07622559 34.1383728 -20.13378906 34.27954102 C-18 35 -18 35 -16.81152344 36.55053711 C-16.49731445 37.2028833 -16.18310547 37.85522949 -15.859375 38.52734375 C-15.51132812 39.23697266 -15.16328125 39.94660156 -14.8046875 40.67773438 C-14.45664062 41.42345703 -14.10859375 42.16917969 -13.75 42.9375 C-13.38648438 43.67935547 -13.02296875 44.42121094 -12.6484375 45.18554688 C-10 50.67657425 -10 50.67657425 -10 53 C-8.68 53.33 -7.36 53.66 -6 54 C-5.87625 55.134375 -5.7525 56.26875 -5.625 57.4375 C-5.41875 58.613125 -5.2125 59.78875 -5 61 C-4.34 61.33 -3.68 61.66 -3 62 C1 67.52941176 1 67.52941176 1 70 C1.66 70.33 2.32 70.66 3 71 C5.08718511 76.21796277 5.33563745 79.01536902 3.1875 84.25 C2.80980469 85.05953125 2.43210937 85.8690625 2.04296875 86.703125 C1.08767411 88.80691994 0.48051034 90.74728486 0 93 C-1.485 92.505 -1.485 92.505 -3 92 C-2.62475954 87.72225881 -2.24749316 84.19428948 -0.375 80.3125 C1.15137083 76.63533391 1.08684107 75.6998027 0 72 C-1.20751377 69.64577104 -1.20751377 69.64577104 -2.7734375 67.33203125 C-3.63267822 66.00473999 -3.63267822 66.00473999 -4.50927734 64.65063477 C-5.12496582 63.71405029 -5.7406543 62.77746582 -6.375 61.8125 C-7.64666349 59.83907637 -8.91748458 57.86510967 -10.1875 55.890625 C-12.03478822 53.03385908 -13.88401264 50.17841202 -15.73828125 47.32617188 C-17.29904197 44.91425644 -18.83908877 42.49028871 -20.375 40.0625 C-20.84470215 39.34876221 -21.3144043 38.63502441 -21.79833984 37.8996582 C-24.56360076 33.492753 -25.86833097 30.34942581 -25 25 C-23.34765625 22.48046875 -23.34765625 22.48046875 -21.0625 20.1875 C-20.24652344 19.34445312 -19.43054688 18.50140625 -18.58984375 17.6328125 C-17.73519531 16.76398438 -16.88054687 15.89515625 -16 15 C-14.36646589 13.19518767 -12.74110277 11.38293761 -11.125 9.5625 C-4.27772126 1.91759919 -4.27772126 1.91759919 0 0 Z " fill="#D79904" transform="translate(332,348)"/>
<path d="M0 0 C0.33 0 0.66 0 1 0 C1.19430855 2.6246601 1.38073238 5.24946765 1.5625 7.875 C1.61857422 8.62136719 1.67464844 9.36773437 1.73242188 10.13671875 C2.11328125 15.7734375 2.11328125 15.7734375 1 18 C1.66 18.33 2.32 18.66 3 19 C2.34 19 1.68 19 1 19 C0.86751178 26.01946618 0.86751178 26.01946618 1.5 33 C2.17827936 37.66197644 2.08669709 42.29909119 2 47 C2.66 47.33 3.32 47.66 4 48 C3.34 48.66 2.68 49.32 2 50 C1.97864622 53.13545766 1.97864622 53.13545766 2.375 56.625 C2.48585938 57.81351563 2.59671875 59.00203125 2.7109375 60.2265625 C2.80632812 61.14179687 2.90171875 62.05703125 3 63 C3.66 63 4.32 63 5 63 C5 63.66 5 64.32 5 65 C5.66 65 6.32 65 7 65 C7 65.99 7 66.98 7 68 C9.97 67.505 9.97 67.505 13 67 C13 67.66 13 68.32 13 69 C14.19496094 69.11214844 15.38992188 69.22429687 16.62109375 69.33984375 C23.16218598 70.06663178 29.60010075 71.33598403 36.0625 72.5625 C37.93325195 72.91344727 37.93325195 72.91344727 39.84179688 73.27148438 C42.89509878 73.84470964 45.94779787 74.42095256 49 75 C49 75.33 49 75.66 49 76 C40.27285514 76.39557333 32.15883282 75.45064091 23.60693359 73.71118164 C21.61004845 73.30949238 19.60879709 72.94029855 17.60546875 72.57226562 C4.90761524 70.04676102 4.90761524 70.04676102 1 65 C-1.05027548 58.92834169 -1.28553899 52.77414163 -1.23046875 46.42578125 C-1.23001053 45.53948532 -1.22955231 44.65318939 -1.2290802 43.74003601 C-1.22607817 41.87526094 -1.21825397 40.01048792 -1.20581055 38.14575195 C-1.18766033 35.33730861 -1.18530071 32.52919884 -1.18554688 29.72070312 C-1.1654094 19.76849978 -0.90950492 9.91663883 0 0 Z " fill="#D39304" transform="translate(265,489)"/>
<path d="M0 0 C3.57398865 2.30323713 6.71892216 4.9019741 9.8125 7.8125 C8.8225 8.1425 7.8325 8.4725 6.8125 8.8125 C5.13726605 7.48994688 3.47143182 6.15544481 1.8125 4.8125 C-0.58101495 3.65039781 -0.58101495 3.65039781 -3.1875 3.8125 C-9.94625669 7.47349321 -14.61120238 13.20879641 -19.44140625 19.04296875 C-21.1875 20.8125 -21.1875 20.8125 -23.32421875 21.85546875 C-25.55682574 22.74464634 -25.55682574 22.74464634 -26.4375 25.9375 C-26.685 26.88625 -26.9325 27.835 -27.1875 28.8125 C-28.1775 27.4925 -29.1675 26.1725 -30.1875 24.8125 C-30.435 25.410625 -30.6825 26.00875 -30.9375 26.625 C-32.69582838 29.70207467 -34.87411457 31.26172546 -38.125 32.625 C-41.24158412 34.41939692 -42.97845492 36.98983129 -45.1875 39.8125 C-45.1875 34.12746086 -39.0311628 29.73947919 -35.1875 25.8125 C-32.61026672 23.36412838 -29.91321929 21.09311025 -27.1875 18.8125 C-26.09988126 17.86520809 -25.01410469 16.91579898 -23.9296875 15.96484375 C-5.31654892 -0.31273817 -5.31654892 -0.31273817 0 0 Z " fill="#D59603" transform="translate(514.1875,245.1875)"/>
<path d="M0 0 C1.15757812 -0.00128906 2.31515625 -0.00257813 3.5078125 -0.00390625 C5.32925781 0.00189453 5.32925781 0.00189453 7.1875 0.0078125 C9.00894531 0.00201172 9.00894531 0.00201172 10.8671875 -0.00390625 C12.60355469 -0.00197266 12.60355469 -0.00197266 14.375 0 C15.44105469 0.00112793 16.50710938 0.00225586 17.60546875 0.00341797 C20.1875 0.1328125 20.1875 0.1328125 22.1875 1.1328125 C22.23689662 5.08378228 22.27321755 9.0346328 22.29736328 12.98583984 C22.31238107 14.9919261 22.33778981 16.99792574 22.36328125 19.00390625 C22.36972656 20.26074219 22.37617187 21.51757812 22.3828125 22.8125 C22.39328613 23.97507324 22.40375977 25.13764648 22.41455078 26.33544922 C22.1875 29.1328125 22.1875 29.1328125 20.1875 31.1328125 C17.57373047 31.35986328 17.57373047 31.35986328 14.3046875 31.328125 C13.13808594 31.32167969 11.97148438 31.31523437 10.76953125 31.30859375 C9.54621094 31.29183594 8.32289063 31.27507812 7.0625 31.2578125 C5.83144531 31.24878906 4.60039063 31.23976563 3.33203125 31.23046875 C0.28366185 31.20683798 -2.76432382 31.17389304 -5.8125 31.1328125 C-5.8125 30.4728125 -5.8125 29.8128125 -5.8125 29.1328125 C2.7675 29.1328125 11.3475 29.1328125 20.1875 29.1328125 C20.1875 20.8828125 20.1875 12.6328125 20.1875 4.1328125 C14.061875 4.101875 14.061875 4.101875 7.8125 4.0703125 C6.52553223 4.0612085 5.23856445 4.05210449 3.91259766 4.04272461 C2.39738525 4.03897827 2.39738525 4.03897827 0.8515625 4.03515625 C-0.18532715 4.02991943 -1.2222168 4.02468262 -2.29052734 4.01928711 C-4.8084668 3.96140435 -4.8084668 3.96140435 -6.8125 5.1328125 C-7.1425 3.8128125 -7.4725 2.4928125 -7.8125 1.1328125 C-5.11984639 -0.2135143 -3.01135751 0.00318614 0 0 Z " fill="#D78F03" transform="translate(683.8125,309.8671875)"/>
<path d="M0 0 C-0.99 0.495 -0.99 0.495 -2 1 C-3.13350534 3.01669827 -3.13350534 3.01669827 -4 5 C-4.70769531 4.82855469 -5.41539062 4.65710938 -6.14453125 4.48046875 C-9.14595773 3.97544076 -11.66204501 4.03595773 -14.6875 4.3125 C-15.64011719 4.39113281 -16.59273438 4.46976562 -17.57421875 4.55078125 C-20.1727819 4.79509602 -20.1727819 4.79509602 -22 7 C-22.53625 7.4125 -23.0725 7.825 -23.625 8.25 C-25.30891078 10.02223221 -25.30891078 10.02223221 -25 13 C-25 16 -25 16 -26.5 17.6875 C-26.995 18.120625 -27.49 18.55375 -28 19 C-28.61623816 9.07171854 -28.61623816 9.07171854 -26.5625 5.5 C-18.28772334 0.6562283 -9.39791639 -0.18795833 0 0 Z " fill="#D29803" transform="translate(294,467)"/>
<path d="M0 0 C5.05211911 1.52716148 8.28868545 4.60540171 12.125 8.0625 C13.45452533 9.24094291 14.78526428 10.41801797 16.1171875 11.59375 C17.09896973 12.46193359 17.09896973 12.46193359 18.10058594 13.34765625 C21.58462945 16.37850542 25.20383022 19.23665992 28.828125 22.09765625 C30.90738435 23.91887802 32.44110733 25.72745841 34 28 C33.01 28 32.02 28 31 28 C31 27.34 31 26.68 31 26 C29.35 25.34 27.7 24.68 26 24 C26 23.34 26 22.68 26 22 C25.01 21.67 24.02 21.34 23 21 C23 20.34 23 19.68 23 19 C22.030625 18.71125 21.06125 18.4225 20.0625 18.125 C17 17 17 17 16 15 C15.01 15 14.02 15 13 15 C13 13.68 13 12.36 13 11 C12.01 11.33 11.02 11.66 10 12 C9.5978125 11.0409375 9.5978125 11.0409375 9.1875 10.0625 C8.11332248 7.66868314 8.11332248 7.66868314 5 7 C3.61328125 5.37109375 3.61328125 5.37109375 2.3125 3.4375 C1.87550781 2.79683594 1.43851563 2.15617187 0.98828125 1.49609375 C0.49908203 0.75552734 0.49908203 0.75552734 0 0 Z " fill="#D69404" transform="translate(525,256)"/>
<path d="M0 0 C1.15757812 -0.00128906 2.31515625 -0.00257813 3.5078125 -0.00390625 C5.32925781 0.00189453 5.32925781 0.00189453 7.1875 0.0078125 C9.00894531 0.00201172 9.00894531 0.00201172 10.8671875 -0.00390625 C12.60355469 -0.00197266 12.60355469 -0.00197266 14.375 0 C15.44105469 0.00112793 16.50710938 0.00225586 17.60546875 0.00341797 C20.1875 0.1328125 20.1875 0.1328125 22.1875 1.1328125 C21.8575 2.1228125 21.5275 3.1128125 21.1875 4.1328125 C20.41035645 4.12757568 19.63321289 4.12233887 18.83251953 4.11694336 C15.32585451 4.09621094 11.81920237 4.08316429 8.3125 4.0703125 C7.08917969 4.06193359 5.86585938 4.05355469 4.60546875 4.04492188 C3.43886719 4.04169922 2.27226563 4.03847656 1.0703125 4.03515625 C-0.00847168 4.02991943 -1.08725586 4.02468262 -2.19873047 4.01928711 C-4.79482186 3.95398144 -4.79482186 3.95398144 -6.8125 5.1328125 C-7.1425 3.8128125 -7.4725 2.4928125 -7.8125 1.1328125 C-5.11984639 -0.2135143 -3.01135751 0.00318614 0 0 Z " fill="#BE7804" transform="translate(683.8125,309.8671875)"/>
<path d="M0 0 C0.33 0.66 0.66 1.32 1 2 C-0.5159375 2.309375 -0.5159375 2.309375 -2.0625 2.625 C-9.11418942 4.64790888 -13.58003989 10.47504987 -18 16 C-19.6875 17.875 -19.6875 17.875 -21 19 C-21.66 19 -22.32 19 -23 19 C-20.5349675 13.88031711 -17.74094471 9.4871085 -13.9375 5.25 C-13.24527344 4.47140625 -12.55304688 3.6928125 -11.83984375 2.890625 C-8.20015602 -0.8495212 -4.97625322 -0.08026215 0 0 Z " fill="#D69903" transform="translate(360,325)"/>
<path d="M0 0 C0 3 0 3 -1.8125 5.1875 C-4 7 -4 7 -7 7 C-7.0825 7.73863281 -7.165 8.47726562 -7.25 9.23828125 C-8.1612594 12.59380416 -9.46602203 13.84809534 -12 16.1875 C-14.89851122 18.7956543 -14.89851122 18.7956543 -17 22 C-17.99 22 -18.98 22 -20 22 C-19.40902366 18.64975328 -18.32487228 16.90638449 -16.015625 14.43359375 C-15.40976562 13.78326172 -14.80390625 13.13292969 -14.1796875 12.46289062 C-13.54289062 11.79451172 -12.90609375 11.12613281 -12.25 10.4375 C-11.62867188 9.76525391 -11.00734375 9.09300781 -10.3671875 8.40039062 C-7.15683046 4.99023288 -4.23359306 2.14103466 0 0 Z " fill="#E9A603" transform="translate(332,348)"/>
<path d="M0 0 C0.33 0 0.66 0 1 0 C1 12.87 1 25.74 1 39 C0.67 39 0.34 39 0 39 C-1.22478881 32.32933133 -1.42849046 25.70282906 -1.6875 18.9375 C-1.74744141 17.67099609 -1.80738281 16.40449219 -1.86914062 15.09960938 C-1.91619141 13.87951172 -1.96324219 12.65941406 -2.01171875 11.40234375 C-2.05772217 10.29366943 -2.10372559 9.18499512 -2.15112305 8.04272461 C-1.99612291 4.92193825 -1.3341981 2.80367404 0 0 Z " fill="#E99403" transform="translate(353,496)"/>
<path d="M0 0 C4.35210528 3.64155748 8.42889352 7.3566318 12.32421875 11.484375 C13.93702507 13.08424239 13.93702507 13.08424239 16.00390625 13.9765625 C18.36507849 15.1871831 19.58110155 16.57680644 21.25 18.625 C21.77078125 19.25664062 22.2915625 19.88828125 22.828125 20.5390625 C23.40820312 21.26222656 23.40820312 21.26222656 24 22 C23.34 22.66 22.68 23.32 22 24 C18.86050859 20.90984779 15.72756243 17.81325304 12.60058594 14.71044922 C11.5353174 13.65525491 10.46826303 12.60186036 9.39941406 11.55029297 C7.86573784 10.04080273 6.33854432 8.52501301 4.8125 7.0078125 C3.89082031 6.09660645 2.96914063 5.18540039 2.01953125 4.24658203 C0 2 0 2 0 0 Z " fill="#D89503" transform="translate(550,310)"/>
<path d="M0 0 C10.07484323 1.33806512 20.02723235 3.05725306 30 5 C30 5.33 30 5.66 30 6 C21.70243772 6.41719587 7.84821272 7.02548571 1.06640625 1.39453125 C0.71449219 0.93433594 0.36257813 0.47414063 0 0 Z " fill="#D59504" transform="translate(284,559)"/>
<path d="M0 0 C0.66 0.99 1.32 1.98 2 3 C0 6 0 6 -3 7 C-3.45375 7.804375 -3.9075 8.60875 -4.375 9.4375 C-6.2836851 12.44734958 -7.64965669 13.00395199 -11 14 C-11 11 -11 11 -8.875 8.6875 C-7.92625 7.800625 -6.9775 6.91375 -6 6 C-4.89194774 4.89973265 -3.78773961 3.7955798 -2.6875 2.6875 C-1.800625 1.800625 -0.91375 0.91375 0 0 Z " fill="#C57202" transform="translate(531,562)"/>
<path d="M0 0 C0.33 0 0.66 0 1 0 C1.19430855 2.6246601 1.38073238 5.24946765 1.5625 7.875 C1.61857422 8.62136719 1.67464844 9.36773437 1.73242188 10.13671875 C2.11328125 15.7734375 2.11328125 15.7734375 1 18 C1.66 18.33 2.32 18.66 3 19 C2.34 19 1.68 19 1 19 C0.67 24.28 0.34 29.56 0 35 C-0.33 35 -0.66 35 -1 35 C-1.10902914 23.28188331 -1.09908609 11.6777897 0 0 Z " fill="#F6B102" transform="translate(265,489)"/>
<path d="M0 0 C3.42754467 0.58110671 5.04538661 1.68553624 7.453125 4.16015625 C8.071875 4.78857422 8.690625 5.41699219 9.328125 6.06445312 C9.96234375 6.72380859 10.5965625 7.38316406 11.25 8.0625 C11.8996875 8.72572266 12.549375 9.38894531 13.21875 10.07226562 C14.8194676 11.70829317 16.41276193 13.35090912 18 15 C17.34 15.66 16.68 16.32 16 17 C14.08014172 15.10730953 12.16408963 13.21100983 10.25 11.3125 C9.71117187 10.78205078 9.17234375 10.25160156 8.6171875 9.70507812 C5.51387173 6.62068501 2.66327598 3.48423727 0 0 Z " fill="#BC7603" transform="translate(332,679)"/>
<path d="M0 0 C4.32504836 1.65863505 7.09418825 4.871041 10.25 8.125 C11.08144531 8.96998047 11.08144531 8.96998047 11.9296875 9.83203125 C13.29104485 11.21686028 14.64614859 12.60783204 16 14 C15.34 14.66 14.68 15.32 14 16 C11.65861457 13.71643754 9.32833018 11.42186626 7 9.125 C5.99839844 8.14853516 5.99839844 8.14853516 4.9765625 7.15234375 C4.34492188 6.52714844 3.71328125 5.90195312 3.0625 5.2578125 C2.47597656 4.6817627 1.88945312 4.10571289 1.28515625 3.51220703 C0 2 0 2 0 0 Z " fill="#C98303" transform="translate(455,525)"/>
<path d="M0 0 C3.26934258 -0.57213495 5.3024273 -0.47687173 8.07421875 1.41796875 C11.47605232 4.36706291 14.37792089 7.33071282 17 11 C14 11 14 11 12.39453125 9.7578125 C11.87246094 9.21898437 11.35039062 8.68015625 10.8125 8.125 C10.28269531 7.59132813 9.75289063 7.05765625 9.20703125 6.5078125 C8 5 8 5 8 3 C6.72125 2.979375 5.4425 2.95875 4.125 2.9375 C3.40570313 2.92589844 2.68640625 2.91429687 1.9453125 2.90234375 C-0.08185404 2.87350758 -0.08185404 2.87350758 -2 4 C-1.34 2.68 -0.68 1.36 0 0 Z " fill="#C58A05" transform="translate(450,412)"/>
<path d="M0 0 C2.375 2.25 2.375 2.25 4 5 C3.84077523 8.42333251 3.4368763 9.5631237 1 12 C1.06510417 9.98177083 1.13020833 7.96354167 1.1953125 5.9453125 C1.18331689 3.76136355 1.18331689 3.76136355 -1 2 C-4.08347826 1.83318891 -4.08347826 1.83318891 -7 2 C-7.33 2.99 -7.66 3.98 -8 5 C-8.99 4.34 -9.98 3.68 -11 3 C-7.60062465 -0.72312539 -4.85114115 -1.65648722 0 0 Z " fill="#B87505" transform="translate(599,500)"/>
<path d="M0 0 C5.29012124 4.40843437 10.18808428 9.07559794 15 14 C14.34 14.66 13.68 15.32 13 16 C11.82737096 14.88121617 10.66204862 13.75476949 9.5 12.625 C8.8503125 11.99851562 8.200625 11.37203125 7.53125 10.7265625 C6 9 6 9 6 7 C5.38125 6.71125 4.7625 6.4225 4.125 6.125 C2 5 2 5 0 3 C0 2.01 0 1.02 0 0 Z " fill="#B57D03" transform="translate(572,296)"/>
<path d="M0 0 C0 0.99 0 1.98 0 3 C-6.03076923 7.06153846 -6.03076923 7.06153846 -10.9375 6.75 C-11.948125 6.5025 -12.95875 6.255 -14 6 C-11.47732009 4.31821339 -9.18908177 3.09893258 -6.4375 1.875 C-5.65246094 1.52179687 -4.86742187 1.16859375 -4.05859375 0.8046875 C-2 0 -2 0 0 0 Z " fill="#CA6F02" transform="translate(581,665)"/>
<path d="M0 0 C0.66 0.33 1.32 0.66 2 1 C1.2884375 1.6496875 1.2884375 1.6496875 0.5625 2.3125 C-1.23686957 4.02309613 -1.23686957 4.02309613 -2 7 C-3.6459651 8.68711423 -5.31237149 10.3545622 -7 12 C-7.33 12.66 -7.66 13.32 -8 14 C-9.65 13.67 -11.3 13.34 -13 13 C-8.66666667 8.66666667 -4.33333333 4.33333333 0 0 Z " fill="#C28504" transform="translate(470,279)"/>
<path d="M0 0 C2.28476032 3.42714048 2.16747262 4.1681798 1.7578125 8.10546875 C1.66113281 9.08837891 1.56445312 10.07128906 1.46484375 11.08398438 C1.35269531 12.10814453 1.24054688 13.13230469 1.125 14.1875 C1.02058594 15.22326172 0.91617187 16.25902344 0.80859375 17.32617188 C0.54914022 19.88532717 0.27922837 22.44293928 0 25 C-0.33 25 -0.66 25 -1 25 C-1.0271045 21.95827281 -1.04688964 18.91679003 -1.0625 15.875 C-1.07087891 15.0190625 -1.07925781 14.163125 -1.08789062 13.28125 C-1.10538306 8.73321589 -0.93192358 4.47616836 0 0 Z " fill="#D28D02" transform="translate(265,518)"/>
<path d="M0 0 C2.375 1.625 2.375 1.625 4 4 C4.375 7.125 4.375 7.125 4 10 C3.34 10.66 2.68 11.32 2 12 C1.77213542 9.94921875 1.54427083 7.8984375 1.31640625 5.84765625 C1.18113386 3.98859771 1.18113386 3.98859771 0 3 C-2.33293334 2.95679753 -4.6670134 2.95977609 -7 3 C-7.99 3 -8.98 3 -10 3 C-6.70949721 -0.03738719 -4.4409569 -0.64763955 0 0 Z " fill="#BB7E06" transform="translate(574,412)"/>
<path d="M0 0 C0.66 0.33 1.32 0.66 2 1 C0.63859873 5.45549507 -1.30756614 7.25434405 -5 10 C-5.33 10.66 -5.66 11.32 -6 12 C-6.66 12 -7.32 12 -8 12 C-5.85215638 7.53909402 -3.70958649 3.35629254 0 0 Z " fill="#EBA902" transform="translate(345,332)"/>
<path d="M0 0 C0.66 0 1.32 0 2 0 C2.165 0.825 2.33 1.65 2.5 2.5 C4.60621847 7.41450977 8.10237199 10.42868503 12 14 C11.34 14.66 10.68 15.32 10 16 C8.50595184 14.47275077 7.03028393 12.9275078 5.5625 11.375 C4.73878906 10.51648438 3.91507812 9.65796875 3.06640625 8.7734375 C0.79953213 5.73094104 0.30147825 3.7383303 0 0 Z " fill="#C68A04" transform="translate(446,417)"/>
<path d="M0 0 C4.28553996 0.47957233 6.76931405 3.2187222 9.75 6.0625 C10.25660156 6.53494141 10.76320313 7.00738281 11.28515625 7.49414062 C12.52949613 8.65630711 13.76558064 9.82730161 15 11 C14.34 11.66 13.68 12.32 13 13 C12.67 12.01 12.34 11.02 12 10 C9.49552484 8.78130071 9.49552484 8.78130071 7 8 C7 7.34 7 6.68 7 6 C6.01 5.67 5.02 5.34 4 5 C4 4.34 4 3.68 4 3 C2.68 2.34 1.36 1.68 0 1 C0 0.67 0 0.34 0 0 Z " fill="#C78D04" transform="translate(544,272)"/>
<path d="M0 0 C3.45201639 1.47721422 5.64961936 3.43794001 8.25 6.125 C8.95640625 6.84945312 9.6628125 7.57390625 10.390625 8.3203125 C11.18726563 9.15175781 11.18726563 9.15175781 12 10 C11.67 10.66 11.34 11.32 11 12 C9 12 9 12 7.34375 10.390625 C6.7353125 9.68421875 6.126875 8.9778125 5.5 8.25 C4.8915625 7.55390625 4.283125 6.8578125 3.65625 6.140625 C2.12023037 4.15539208 1.0276034 2.28127955 0 0 Z " fill="#C37904" transform="translate(396,630)"/>
<path d="M0 0 C2.475 0.495 2.475 0.495 5 1 C5 1.99 5 2.98 5 4 C6.7385564 6.15043385 8.63999591 8.07976187 10.56640625 10.0625 C11.03949219 10.701875 11.51257813 11.34125 12 12 C11.67 12.99 11.34 13.98 11 15 C9.5369343 13.25395451 8.0797192 11.50300547 6.625 9.75 C5.81289063 8.77546875 5.00078125 7.8009375 4.1640625 6.796875 C2.42148243 4.5447318 1.123584 2.59288614 0 0 Z " fill="#D18D04" transform="translate(592,354)"/>
<path d="M0 0 C2.1640625 0.2421875 2.1640625 0.2421875 4.625 0.875 C5.44226563 1.07867188 6.25953125 1.28234375 7.1015625 1.4921875 C8.04128906 1.74355469 8.04128906 1.74355469 9 2 C9 2.33 9 2.66 9 3 C1.66236293 4.17402193 -5.58165418 4.09377123 -13 4 C-13 3.67 -13 3.34 -13 3 C-12.22914063 2.95101562 -11.45828125 2.90203125 -10.6640625 2.8515625 C-9.66117187 2.77679687 -8.65828125 2.70203125 -7.625 2.625 C-6.62726563 2.55539062 -5.62953125 2.48578125 -4.6015625 2.4140625 C-1.84491121 2.23636036 -1.84491121 2.23636036 0 0 Z " fill="#C66901" transform="translate(490,762)"/>
<path d="M0 0 C0.66 0.66 1.32 1.32 2 2 C1.9765625 5.0390625 1.9765625 5.0390625 1.625 8.625 C1.51414062 9.81351562 1.40328125 11.00203125 1.2890625 12.2265625 C1.19367188 13.14179688 1.09828125 14.05703125 1 15 C0.67 15 0.34 15 0 15 C0 12.69 0 10.38 0 8 C-0.66 8 -1.32 8 -2 8 C-2.125 5.125 -2.125 5.125 -2 2 C-1.34 1.34 -0.68 0.68 0 0 Z " fill="#CA7A03" transform="translate(354,488)"/>
<path d="M0 0 C0.66 0.66 1.32 1.32 2 2 C-1.08290155 6.22797927 -1.08290155 6.22797927 -3 8 C-5.8125 8.375 -5.8125 8.375 -8 8 C-8 7.01 -8 6.02 -8 5 C-6.25 3.61328125 -6.25 3.61328125 -4 2.3125 C-3.2575 1.87550781 -2.515 1.43851562 -1.75 0.98828125 C-1.1725 0.66214844 -0.595 0.33601563 0 0 Z " fill="#E09B03" transform="translate(496,258)"/>
<path d="M0 0 C4.14300236 1.59346244 7.36288759 4.47523211 10 8 C10.375 10.875 10.375 10.875 10 13 C9.46375 12.29875 8.9275 11.5975 8.375 10.875 C6.56379133 8.68248424 4.78510014 6.77526246 2.75 4.8125 C0 2 0 2 0 0 Z " fill="#C27D04" transform="translate(495,473)"/>
<path d="M0 0 C3 0 3 0 4.68359375 1.57421875 C5.26238281 2.27160156 5.84117187 2.96898437 6.4375 3.6875 C7.0459375 4.41324219 7.654375 5.13898438 8.28125 5.88671875 C12.37837838 10.92432432 12.37837838 10.92432432 14 13 C11 13 11 13 8.30078125 10.41015625 C7.29625729 9.30185366 6.3004628 8.18559061 5.3125 7.0625 C4.80138672 6.49853516 4.29027344 5.93457031 3.76367188 5.35351562 C0 1.15769985 0 1.15769985 0 0 Z " fill="#D09203" transform="translate(588,314)"/>
<path d="M0 0 C0.99 0.66 1.98 1.32 3 2 C0.66666667 4.33333333 -1.66666667 6.66666667 -4 9 C-5.32 8.67 -6.64 8.34 -8 8 C-5.36 5.36 -2.72 2.72 0 0 Z " fill="#CB8B03" transform="translate(453,295)"/>
<path d="M0 0 C3.63 0.33 7.26 0.66 11 1 C10.67 1.99 10.34 2.98 10 4 C6.6875 4.6875 6.6875 4.6875 3 5 C1.0625 3.6875 1.0625 3.6875 0 2 C0 1.34 0 0.68 0 0 Z " fill="#C06902" transform="translate(480,678)"/>
<path d="M0 0 C0.66 0 1.32 0 2 0 C1.54965877 1.62723299 1.08944646 3.25173664 0.625 4.875 C0.36976563 5.77992188 0.11453125 6.68484375 -0.1484375 7.6171875 C-1 10 -1 10 -3 12 C-4.23076923 6.58461538 -4.23076923 6.58461538 -3.0625 3.625 C-2.711875 3.08875 -2.36125 2.5525 -2 2 C-1.34 2 -0.68 2 0 2 C0 1.34 0 0.68 0 0 Z " fill="#CB7602" transform="translate(690,599)"/>
<path d="M0 0 C3.21524305 1.40844718 5.32183868 3.10344786 7.75 5.625 C8.67039062 6.57246094 8.67039062 6.57246094 9.609375 7.5390625 C10.29773438 8.26222656 10.29773438 8.26222656 11 9 C10.34 9.66 9.68 10.32 9 11 C7.49403892 9.54782324 5.99537896 8.08807139 4.5 6.625 C3.6646875 5.81289063 2.829375 5.00078125 1.96875 4.1640625 C0 2 0 2 0 0 Z " fill="#BB7704" transform="translate(436,524)"/>
<path d="M0 0 C3.21524305 1.40844718 5.32183868 3.10344786 7.75 5.625 C8.67039062 6.57246094 8.67039062 6.57246094 9.609375 7.5390625 C10.29773438 8.26222656 10.29773438 8.26222656 11 9 C10.34 9.66 9.68 10.32 9 11 C7.49403892 9.54782324 5.99537896 8.08807139 4.5 6.625 C3.6646875 5.81289063 2.829375 5.00078125 1.96875 4.1640625 C0 2 0 2 0 0 Z " fill="#C38604" transform="translate(481,439)"/>
<path d="M0 0 C1.32 0.33 2.64 0.66 4 1 C3.34 1 2.68 1 2 1 C1.34 2.32 0.68 3.64 0 5 C-0.61875 4.814375 -1.2375 4.62875 -1.875 4.4375 C-6.3323206 3.81347512 -10.55486111 4.43896305 -15 5 C-11.73386305 3.08697693 -9.00554752 2.64325339 -5.25 2.375 C-4.26515625 2.30023438 -3.2803125 2.22546875 -2.265625 2.1484375 C-1.51796875 2.09945313 -0.7703125 2.05046875 0 2 C0 1.34 0 0.68 0 0 Z " fill="#F19B02" transform="translate(290,467)"/>
<path d="M0 0 C0 4.46153846 0 4.46153846 -1 7 C-3.5625 9.25 -3.5625 9.25 -6 11 C-6.33 9.35 -6.66 7.7 -7 6 C-4.69 4.02 -2.38 2.04 0 0 Z " fill="#D69103" transform="translate(442,306)"/>
<path d="M0 0 C3.91593446 0.78318689 7.36406635 2.39179858 11 4 C11 4.33 11 4.66 11 5 C7.75 5.75 7.75 5.75 4 6 C1.5625 4.1875 1.5625 4.1875 0 2 C0 1.34 0 0.68 0 0 Z " fill="#CB6B02" transform="translate(471,759)"/>
<path d="M0 0 C0.66 1.32 1.32 2.64 2 4 C-0.97 6.475 -0.97 6.475 -4 9 C-4.99 8.01 -5.98 7.02 -7 6 C-6.030625 5.38125 -5.06125 4.7625 -4.0625 4.125 C-0.97164638 2.34321154 -0.97164638 2.34321154 0 0 Z " fill="#CF7401" transform="translate(705,660)"/>
<path d="M0 0 C0.66 0.33 1.32 0.66 2 1 C1.91433603 3.912575 1.42089045 5.56798024 -0.625 7.66796875 C-2.38391375 9.16091772 -4.16313019 10.60436262 -6 12 C-6 10.68 -6 9.36 -6 8 C-5.01 8 -4.02 8 -3 8 C-3 7.01 -3 6.02 -3 5 C-2.01 5 -1.02 5 0 5 C0 3.35 0 1.7 0 0 Z " fill="#CF7E02" transform="translate(596,510)"/>
<path d="M0 0 C0.33 0 0.66 0 1 0 C1 3.3 1 6.6 1 10 C1.66 10.33 2.32 10.66 3 11 C2.34 11.66 1.68 12.32 1 13 C0.60235737 14.98821313 0.26224651 16.98944339 0 19 C-0.33 19 -0.66 19 -1 19 C-1.10655578 12.55929529 -0.96205088 6.37358711 0 0 Z " fill="#F4A302" transform="translate(266,526)"/>
<path d="M0 0 C3.3 0 6.6 0 10 0 C9.01 0.495 9.01 0.495 8 1 C7.34786708 3.02463255 7.34786708 3.02463255 7 5 C5.68 4.67 4.36 4.34 3 4 C3 3.34 3 2.68 3 2 C2.01 2 1.02 2 0 2 C0 1.34 0 0.68 0 0 Z " fill="#DE9B02" transform="translate(295,465)"/>
<path d="M0 0 C1.32 0.66 2.64 1.32 4 2 C0.535 4.97 0.535 4.97 -3 8 C-3.66 7.67 -4.32 7.34 -5 7 C-5 6.01 -5 5.02 -5 4 C-3.35 4 -1.7 4 0 4 C0 2.68 0 1.36 0 0 Z " fill="#D58E04" transform="translate(488,294)"/>
<path d="M0 0 C5.53846154 -0.36923077 5.53846154 -0.36923077 7.875 1.5 C8.24625 1.995 8.6175 2.49 9 3 C8.67 3.99 8.34 4.98 8 6 C5.36 4.68 2.72 3.36 0 2 C0 1.34 0 0.68 0 0 Z " fill="#CB7301" transform="translate(451,706)"/>
<path d="M0 0 C2.44323037 2.44323037 2.68989682 3.588865 3 7 C2.0625 10.3125 2.0625 10.3125 1 13 C-0.9078584 9.8250906 -1.1609041 7.89414789 -0.625 4.25 C-0.51414062 3.45078125 -0.40328125 2.6515625 -0.2890625 1.828125 C-0.19367188 1.22484375 -0.09828125 0.6215625 0 0 Z " fill="#EA9D04" transform="translate(334,420)"/>
<path d="M0 0 C3.125 0.375 3.125 0.375 6 1 C5.67 1.66 5.34 2.32 5 3 C4.38125 3.144375 3.7625 3.28875 3.125 3.4375 C0.63289608 4.09717457 -0.3329446 5.08288629 -2 7 C-2.66 6.67 -3.32 6.34 -4 6 C-2.84826645 3.53199953 -1.95216435 1.95216435 0 0 Z " fill="#E39A02" transform="translate(421,327)"/>
<path d="M0 0 C4.2742558 1.5830577 6.26531794 4.50568404 9 8 C8.34 8.66 7.68 9.32 7 10 C5.82739389 8.71372289 4.6620717 7.42080217 3.5 6.125 C2.8503125 5.40570312 2.200625 4.68640625 1.53125 3.9453125 C0 2 0 2 0 0 Z " fill="#BC7703" transform="translate(483,554)"/>
<path d="M0 0 C0.66 0 1.32 0 2 0 C2.2475 0.721875 2.495 1.44375 2.75 2.1875 C4.10983674 5.24713266 5.82917754 7.4673738 8 10 C5 10 5 10 2.875 8.375 C0.65085217 5.55774608 0.32104541 3.53149946 0 0 Z " fill="#B97604" transform="translate(421,505)"/>
<path d="M0 0 C3.59905908 0.55550695 4.99909799 1.74887248 7.25 4.5625 C8.03117187 5.52349609 8.03117187 5.52349609 8.828125 6.50390625 C9.21484375 6.99761719 9.6015625 7.49132812 10 8 C7 8 7 8 5.17578125 6.50390625 C4.56089844 5.86324219 3.94601562 5.22257812 3.3125 4.5625 C2.68988281 3.92441406 2.06726563 3.28632813 1.42578125 2.62890625 C0 1 0 1 0 0 Z " fill="#BE7F04" transform="translate(465,442)"/>
<path d="M0 0 C2.64 0 5.28 0 8 0 C8.33 0.66 8.66 1.32 9 2 C5.6875 3.125 5.6875 3.125 2 4 C1.01 3.34 0.02 2.68 -1 2 C-0.67 1.34 -0.34 0.68 0 0 Z " fill="#F1A602" transform="translate(352,325)"/>
<path d="M0 0 C0.66 0.33 1.32 0.66 2 1 C0.375 3.9375 0.375 3.9375 -2 7 C-5.25 7.875 -5.25 7.875 -8 8 C-5.33333333 5.33333333 -2.66666667 2.66666667 0 0 Z " fill="#C79004" transform="translate(501,252)"/>
<path d="M0 0 C1.98 0.99 1.98 0.99 4 2 C3.67 4.97 3.34 7.94 3 11 C0.43383368 7.15075052 0.44902324 4.5650696 0 0 Z " fill="#C16802" transform="translate(468,748)"/>
<path d="M0 0 C0.99 0 1.98 0 3 0 C3.2475 0.61875 3.495 1.2375 3.75 1.875 C5.20628639 4.35068687 6.37812506 4.95125002 9 6 C8.01 6.66 7.02 7.32 6 8 C3 6.25 3 6.25 0 4 C0 2.68 0 1.36 0 0 Z " fill="#D07202" transform="translate(622,688)"/>
<path d="M0 0 C1 2 1 2 0.75 3.9375 C-0.11068767 6.3043911 -1.04326211 7.43460969 -3 9 C-3.66 9 -4.32 9 -5 9 C-5.33 8.01 -5.66 7.02 -6 6 C-4.02 4.02 -2.04 2.04 0 0 Z " fill="#CB7702" transform="translate(559,533)"/>
<path d="M0 0 C0.99 0.33 1.98 0.66 3 1 C2.01 2.98 1.02 4.96 0 7 C-2.475 6.01 -2.475 6.01 -5 5 C-4.67 4.34 -4.34 3.68 -4 3 C-3.34 3 -2.68 3 -2 3 C-2 2.34 -2 1.68 -2 1 C-1.34 0.67 -0.68 0.34 0 0 Z " fill="#D28D03" transform="translate(409,340)"/>
<path d="M0 0 C0.66 0.33 1.32 0.66 2 1 C-0.97 3.97 -3.94 6.94 -7 10 C-7.66 9.67 -8.32 9.34 -9 9 C-9 8.01 -9 7.02 -9 6 C-8.1646875 5.9071875 -8.1646875 5.9071875 -7.3125 5.8125 C-4.05012827 4.66626128 -2.31332126 2.50609803 0 0 Z " fill="#E7A103" transform="translate(471,312)"/>
<path d="M0 0 C0.99 0 1.98 0 3 0 C4.35439668 2.70879335 4.06501451 5.00933268 4 8 C3.01 8 2.02 8 1 8 C0.67 5.36 0.34 2.72 0 0 Z " fill="#C36701" transform="translate(463,727)"/>
<path d="M0 0 C-0.33 0.66 -0.66 1.32 -1 2 C-4.9492568 1.44894091 -8.34920174 0.61064629 -12 -1 C-7.85350884 -4.28263884 -4.28080229 -1.93259521 0 0 Z " fill="#CD7203" transform="translate(430,695)"/>
<path d="M0 0 C1.60080151 4.00200378 0.29279692 7.04556236 -1 11 C-1.66 11 -2.32 11 -3 11 C-3.32613618 6.32538149 -2.70582788 3.83325617 0 0 Z " fill="#B87604" transform="translate(315,646)"/>
<path d="M0 0 C0.66 0 1.32 0 2 0 C2.99 1.98 3.98 3.96 5 6 C4.01 6.495 4.01 6.495 3 7 C3 6.34 3 5.68 3 5 C1.68 5 0.36 5 -1 5 C-0.67 3.35 -0.34 1.7 0 0 Z " fill="#C97602" transform="translate(375,601)"/>
<path d="M0 0 C4.79280002 0.80904103 6.13520113 3.25984591 9 7 C6 7 6 7 4.39453125 5.46875 C3.87246094 4.8190625 3.35039062 4.169375 2.8125 3.5 C2.28269531 2.8503125 1.75289063 2.200625 1.20703125 1.53125 C0.80871094 1.0259375 0.41039062 0.520625 0 0 Z " fill="#BB7D04" transform="translate(480,458)"/>
<path d="M0 0 C-1.1875 1.5 -1.1875 1.5 -3 3 C-5.6875 3.1875 -5.6875 3.1875 -8 3 C-8 2.01 -8 1.02 -8 0 C-4.94736336 -0.98120464 -3.05263664 -0.98120464 0 0 Z " fill="#C76903" transform="translate(553,677)"/>
<path d="M0 0 C0.66 0.33 1.32 0.66 2 1 C1.67 1.99 1.34 2.98 1 4 C-1.5625 5.1875 -1.5625 5.1875 -4 6 C-4.66 5.34 -5.32 4.68 -6 4 C-4.02 2.68 -2.04 1.36 0 0 Z " fill="#CA7201" transform="translate(605,649)"/>
<path d="M0 0 C-1.5 1.625 -1.5 1.625 -4 3 C-6.83163803 2.65955497 -9.25986036 1.86771089 -12 1 C-12 0.67 -12 0.34 -12 0 C-7.66726186 -0.92844389 -4.33273814 -0.92844389 0 0 Z " fill="#C28406" transform="translate(319,463)"/>
<path d="M0 0 C0.99 0.33 1.98 0.66 3 1 C1.60667426 4.36720387 0.0210714 5.9859524 -3 8 C-3 5 -3 5 -1 2 C-0.34 2.33 0.32 2.66 1 3 C0.67 2.01 0.34 1.02 0 0 Z " fill="#C58402" transform="translate(476,305)"/>
<path d="M0 0 C1.32 0.33 2.64 0.66 4 1 C4 2.98 4 4.96 4 7 C3.01 7 2.02 7 1 7 C0.67 4.69 0.34 2.38 0 0 Z " fill="#C56701" transform="translate(465,736)"/>
<path d="M0 0 C1.40416706 2.62111184 2.6169847 5.03163146 3 8 C2.01 9.485 2.01 9.485 1 11 C0.34 11 -0.32 11 -1 11 C-1.33 10.01 -1.66 9.02 -2 8 C-1.34 8 -0.68 8 0 8 C0 5.36 0 2.72 0 0 Z " fill="#D26901" transform="translate(506,672)"/>
<path d="M0 0 C-1.125 1.5625 -1.125 1.5625 -3 3 C-6.1875 2.6875 -6.1875 2.6875 -9 2 C-4 -1.33333333 -4 -1.33333333 0 0 Z " fill="#C56B02" transform="translate(568,672)"/>
<path d="M0 0 C0.66 1.32 1.32 2.64 2 4 C0.35 5.32 -1.3 6.64 -3 8 C-3.33 7.01 -3.66 6.02 -4 5 C-2.0625 2.3125 -2.0625 2.3125 0 0 Z " fill="#CD7402" transform="translate(633,621)"/>
<path d="M0 0 C1 4 1 4 -0.9375 7.25 C-1.618125 8.1575 -2.29875 9.065 -3 10 C-3.66 9.67 -4.32 9.34 -5 9 C-3.35 6.03 -1.7 3.06 0 0 Z " fill="#C07303" transform="translate(647,600)"/>
<path d="M0 0 C0.66 0.33 1.32 0.66 2 1 C2.125 3.875 2.125 3.875 2 7 C1.34 7.66 0.68 8.32 0 9 C-0.66 6.36 -1.32 3.72 -2 1 C-1.34 0.67 -0.68 0.34 0 0 Z " fill="#C17603" transform="translate(328,584)"/>
<path d="M0 0 C3.26008643 3.16952847 6.22237877 6.39937989 9 10 C6 10 6 10 4.39453125 8.57421875 C3.61142578 7.64029297 3.61142578 7.64029297 2.8125 6.6875 C2.01779297 5.76517578 2.01779297 5.76517578 1.20703125 4.82421875 C0 3 0 3 0 0 Z " fill="#CA8D04" transform="translate(494,451)"/>
<path d="M0 0 C0 3 0 3 -1.875 5.1875 C-4 7 -4 7 -6 7 C-5.8125 5.1875 -5.8125 5.1875 -5 3 C-2.4375 1.25 -2.4375 1.25 0 0 Z " fill="#EBA602" transform="translate(332,348)"/>
<path d="M0 0 C0.66 0.33 1.32 0.66 2 1 C2 3.31 2 5.62 2 8 C1.01 7.67 0.02 7.34 -1 7 C-0.67 4.69 -0.34 2.38 0 0 Z " fill="#CD6E01" transform="translate(561,716)"/>
<path d="M0 0 C0.33 0.66 0.66 1.32 1 2 C2.32 2 3.64 2 5 2 C4.67 3.32 4.34 4.64 4 6 C2.02 5.01 0.04 4.02 -2 3 C-1.34 2.67 -0.68 2.34 0 2 C0 1.34 0 0.68 0 0 Z " fill="#CD6F02" transform="translate(644,703)"/>
<path d="M0 0 C1.8125 0.125 1.8125 0.125 4 1 C5.75 4.0625 5.75 4.0625 7 7 C6.01 7.495 6.01 7.495 5 8 C0 2.25 0 2.25 0 0 Z " fill="#DA9004" transform="translate(576,336)"/>
<path d="M0 0 C2 1 2 1 3 3 C-1.455 3.495 -1.455 3.495 -6 4 C-5.01 3.67 -4.02 3.34 -3 3 C-3 2.34 -3 1.68 -3 1 C-2.01 0.67 -1.02 0.34 0 0 Z " fill="#B86201" transform="translate(546,762)"/>
<path d="M0 0 C2.475 0.99 2.475 0.99 5 2 C4.67 2.99 4.34 3.98 4 5 C2.02 4.01 0.04 3.02 -2 2 C-1.34 1.34 -0.68 0.68 0 0 Z " fill="#C56E02" transform="translate(638,700)"/>
<path d="M0 0 C0.99 0 1.98 0 3 0 C2.67 1.32 2.34 2.64 2 4 C0.35 4.33 -1.3 4.66 -3 5 C-1.6875 2.5 -1.6875 2.5 0 0 Z " fill="#CB7301" transform="translate(637,616)"/>
<path d="M0 0 C3.36720387 1.39332574 4.9859524 2.9789286 7 6 C4 6 4 6 1.8125 4.125 C0 2 0 2 0 0 Z " fill="#B77303" transform="translate(474,564)"/>
<path d="M0 0 C3.36720387 1.39332574 4.9859524 2.9789286 7 6 C4 6 4 6 1.8125 4.125 C0 2 0 2 0 0 Z " fill="#B67604" transform="translate(464,534)"/>
<path d="M0 0 C0.66 0 1.32 0 2 0 C2.6875 2.8125 2.6875 2.8125 3 6 C2.01 6.99 1.02 7.98 0 9 C0 6.03 0 3.06 0 0 Z " fill="#F4A802" transform="translate(266,477)"/>
<path d="M0 0 C0.66 0 1.32 0 2 0 C2.66 2.31 3.32 4.62 4 7 C2.68 6.67 1.36 6.34 0 6 C0 4.02 0 2.04 0 0 Z " fill="#CE8403" transform="translate(683,450)"/>
<path d="M0 0 C1 2 1 2 0.375 4.0625 C-1 6 -1 6 -3.625 6.75 C-4.800625 6.87375 -4.800625 6.87375 -6 7 C-4.02 4.69 -2.04 2.38 0 0 Z " fill="#C59703" transform="translate(325,353)"/>
<path d="M0 0 C0 0.66 0 1.32 0 2 C0.99 2.33 1.98 2.66 3 3 C-4.42857143 3.28571429 -4.42857143 3.28571429 -8 1 C-2.25 0 -2.25 0 0 0 Z " fill="#D67201" transform="translate(537,763)"/>
<path d="M0 0 C2.125 0.9375 2.125 0.9375 4 2 C2.35 3.32 0.7 4.64 -1 6 C-1.33 4.35 -1.66 2.7 -2 1 C-1.34 0.67 -0.68 0.34 0 0 Z " fill="#BF6802" transform="translate(566,707)"/>
<path d="M0 0 C1.32 0 2.64 0 4 0 C4 0.99 4 1.98 4 3 C2.125 3.625 2.125 3.625 0 4 C-0.66 3.34 -1.32 2.68 -2 2 C-1.34 1.34 -0.68 0.68 0 0 Z " fill="#CD6D01" transform="translate(604,690)"/>
<path d="M0 0 C0.66 0.33 1.32 0.66 2 1 C1.6875 2.9375 1.6875 2.9375 1 5 C0.01 5.33 -0.98 5.66 -2 6 C-2.66 5.34 -3.32 4.68 -4 4 C-2.68 3.34 -1.36 2.68 0 2 C0 1.34 0 0.68 0 0 Z " fill="#CD7203" transform="translate(405,685)"/>
<path d="M0 0 C2 0 2 0 4.125 2 C4.74375 2.66 5.3625 3.32 6 4 C5.67 4.99 5.34 5.98 5 7 C3.29115995 5.37660195 1.62553283 3.70680947 0 2 C0 1.34 0 0.68 0 0 Z " fill="#C97F02" transform="translate(313,657)"/>
<path d="M0 0 C2.5 2.3125 2.5 2.3125 5 5 C5 5.99 5 6.98 5 8 C2.5 5.6875 2.5 5.6875 0 3 C0 2.01 0 1.02 0 0 Z " fill="#C68403" transform="translate(616,383)"/>
<path d="M0 0 C0.33 0.99 0.66 1.98 1 3 C-0.62339805 4.70884005 -2.29319053 6.37446717 -4 8 C-4.66 8 -5.32 8 -6 8 C-4.768606 4.30581799 -2.79208646 2.64890254 0 0 Z " fill="#BE8804" transform="translate(428,319)"/>
<path d="M0 0 C4.24822374 0.47202486 6.19989709 2.96655518 9 6 C4.58763974 6 3.21615077 3.9302707 0 1 C0 0.67 0 0.34 0 0 Z " fill="#C28B06" transform="translate(530,294)"/>
</svg>
