<?xml version="1.0" encoding="UTF-8"?>
<svg version="1.1" xmlns="http://www.w3.org/2000/svg" width="1024" height="1536">
<path d="M0 0 C5.37002905 -0.48818446 5.37002905 -0.48818446 8.14453125 1.66186523 C10.13779256 4.17363675 11.94136584 6.71980095 13.6875 9.41015625 C14.38029053 10.47306885 15.07308105 11.53598145 15.78686523 12.63110352 C16.52483422 13.77473629 17.26254009 14.91853888 18 16.0625 C18.76414993 17.24096901 19.52855661 18.41927158 20.29321289 19.59741211 C22.53714007 23.05961622 24.76972836 26.52898307 27 30 C27.89307861 31.38832031 27.89307861 31.38832031 28.80419922 32.8046875 C35.34657991 42.99958699 41.66595443 53.30613914 47.72265625 63.796875 C49.02219786 66.03828622 50.33844725 68.26928463 51.65625 70.5 C84.74199415 126.93426476 110.58174924 188.30068476 132 250 C132.38397949 251.09602539 132.76795898 252.19205078 133.16357422 253.32128906 C146.36577416 291.14319918 157.23716166 331.01366542 161 371 C161.10006348 371.98742187 161.20012695 372.97484375 161.30322266 373.9921875 C164.05462569 401.79219043 164.30947393 430.23985554 161 458 C160.87117432 459.16813232 160.87117432 459.16813232 160.73974609 460.35986328 C154.28399334 516.85681814 126.05279926 571.23080428 82.5 607.8125 C80.68529407 609.23246627 78.84990748 610.62620812 77 612 C76.3925293 612.45149414 75.78505859 612.90298828 75.15917969 613.36816406 C49.87149664 632.02381756 22.50953627 645.23496209 -8.3125 651.8125 C-9.27841064 652.0197168 -10.24432129 652.22693359 -11.23950195 652.44042969 C-24.06595739 655.02511683 -36.9642479 655.2080761 -50 655.1875 C-51.15502014 655.18609512 -51.15502014 655.18609512 -52.33337402 655.18466187 C-72.86615292 655.1306954 -92.03764715 652.97392205 -112 648 C-112.76795898 647.81066895 -113.53591797 647.62133789 -114.32714844 647.42626953 C-146.07787944 639.3990775 -175.96723803 622.12824932 -199.87890625 599.91015625 C-201.95982323 597.96448576 -201.95982323 597.96448576 -204.27734375 596.37109375 C-204.84582031 595.91863281 -205.41429687 595.46617187 -206 595 C-206 594.34 -206 593.68 -206 593 C-206.66 593 -207.32 593 -208 593 C-208 592.34 -208 591.68 -208 591 C-208.66 591 -209.32 591 -210 591 C-212.58235354 588.58001001 -214.74665683 585.72278966 -217 583 C-217.44730469 582.46890625 -217.89460938 581.9378125 -218.35546875 581.390625 C-241.08520971 554.33431136 -255.52475624 520.90590186 -261 486 C-261.17587646 484.89527344 -261.35175293 483.79054688 -261.53295898 482.65234375 C-263.17753776 471.1395611 -263.35678958 459.74112525 -263.3125 448.125 C-263.31067719 447.13343903 -263.30885437 446.14187805 -263.30697632 445.12026978 C-263.25888906 429.56239541 -262.67462177 414.36064769 -260 399 C-259.75056641 397.52974365 -259.75056641 397.52974365 -259.49609375 396.02978516 C-250.58645916 345.17062105 -227.18858631 296.273425 -198 254 C-197.53029785 253.3188916 -197.0605957 252.6377832 -196.57666016 251.93603516 C-184.04136204 233.85654841 -170.09664305 216.49233874 -155.1640625 200.34375 C-153.21874432 198.23690721 -151.3183713 196.10179026 -149.4375 193.9375 C-138.25897957 181.10290247 -126.54616364 168.75916158 -114.875 156.375 C-109.17076894 150.32196131 -103.49806586 144.24209627 -97.87109375 138.1171875 C-95.89472604 135.96645436 -93.90659159 133.82742791 -91.91015625 131.6953125 C-86.49964644 125.90477474 -81.29066655 120.04079482 -76.328125 113.85546875 C-74.18598 111.22810634 -71.98889255 108.66624991 -69.76171875 106.11157227 C-63.01994674 98.367027 -56.75292681 90.31785333 -50.58935547 82.10839844 C-49.0728358 80.09662211 -47.54116505 78.0975154 -46.00390625 76.1015625 C-27.72931927 52.25737568 -13.15683454 26.91904489 0 0 Z M-5 164 C-5.57161865 165.00861084 -5.57161865 165.00861084 -6.15478516 166.03759766 C-15.01988772 181.6409198 -24.1620074 196.98356484 -34 212 C-34.96921387 213.48161621 -34.96921387 213.48161621 -35.95800781 214.99316406 C-44.15842806 227.49414335 -52.57617479 239.79513812 -61.42333984 251.84667969 C-64.13512954 255.5503008 -66.81581015 259.27635432 -69.5 263 C-72.74197335 267.4941667 -75.98739513 271.98562451 -79.25 276.46484375 C-85.46476644 285.01026423 -91.532854 293.63685753 -97.4699707 302.37768555 C-100.31035141 306.5535435 -103.18866659 310.68531616 -106.1875 314.75 C-110.52688714 320.65337458 -114.57187082 326.74155534 -118.59326172 332.86328125 C-120.06664538 335.1012288 -121.55094059 337.33172433 -123.03515625 339.5625 C-131.53808704 352.41415832 -139.4191671 365.58518017 -147 379 C-147.43828125 379.7744043 -147.8765625 380.54880859 -148.328125 381.34667969 C-166.87293306 414.41725055 -179.21648879 450.92958297 -179.25 489.0625 C-179.25067474 489.75352814 -179.25134949 490.44455627 -179.25204468 491.15652466 C-179.23613784 501.41286507 -178.76988287 511.04187859 -176 521 C-175.83902832 521.63292969 -175.67805664 522.26585937 -175.51220703 522.91796875 C-171.44007576 538.84661289 -164.03392737 552.78937758 -153 565 C-152.30390625 565.82628906 -151.6078125 566.65257812 -150.890625 567.50390625 C-132.18361135 589.31737655 -106.55168665 602.66545112 -78 606 C-75.31633167 606.10705829 -72.68725934 606.07686669 -70 606 C-70.38929688 605.40316406 -70.77859375 604.80632812 -71.1796875 604.19140625 C-73.14530384 601.14334221 -75.07951086 598.07660036 -77 595 C-77.39606445 594.36787598 -77.79212891 593.73575195 -78.20019531 593.08447266 C-98.65524843 560.18793428 -104.44071789 521.96906822 -96 484 C-89.21520183 455.10509201 -78.21948803 427.40318552 -67 400 C-38.21906924 329.68655523 -15.02012866 257.28991856 -5.4375 181.625 C-5.30736008 180.60823181 -5.30736008 180.60823181 -5.17459106 179.57092285 C-3.91710148 171.72603908 -3.91710148 171.72603908 -5 164 Z " fill="#E9101C" transform="translate(548,440)"/>
<path d="M0 0 C1.36560059 0.00303635 1.36560059 0.00303635 2.75878906 0.00613403 C3.68723633 0.00517731 4.61568359 0.00422058 5.57226562 0.00323486 C7.53938871 0.00255298 9.50651403 0.00440781 11.47363281 0.00857544 C14.49581932 0.01392358 17.51785721 0.00863071 20.54003906 0.00222778 C22.44628939 0.00288856 24.35253963 0.00416972 26.25878906 0.00613403 C27.16918945 0.0041098 28.07958984 0.00208557 29.01757812 0 C35.39383938 0.02399685 35.39383938 0.02399685 36.50878906 1.13894653 C36.60147905 2.48989635 36.62626233 3.84561744 36.62231445 5.19973755 C36.62223892 6.06055435 36.62216339 6.92137115 36.62208557 7.80827332 C36.61692429 8.74368454 36.611763 9.67909576 36.60644531 10.64285278 C36.60503036 11.59586777 36.60361542 12.54888275 36.60215759 13.53077698 C36.59654058 16.58769819 36.58398522 19.6445473 36.57128906 22.70144653 C36.56627625 24.76850277 36.56171297 26.83556015 36.55761719 28.90261841 C36.54656563 33.98142241 36.52928961 39.06017223 36.50878906 44.13894653 C30.56397725 44.18829052 24.61928397 44.22463935 18.67431641 44.24880981 C16.65085779 44.25888324 14.62741378 44.27254249 12.60400391 44.28982544 C9.69983317 44.314015 6.79585446 44.32541602 3.89160156 44.33425903 C2.52903732 44.34974289 2.52903732 44.34974289 1.13894653 44.36553955 C0.29822601 44.36569061 -0.54249451 44.36584167 -1.40869141 44.36599731 C-2.5212178 44.37265915 -2.5212178 44.37265915 -3.65621948 44.37945557 C-5.49121094 44.13894653 -5.49121094 44.13894653 -7.49121094 42.13894653 C-7.67904656 39.06542719 -7.74668016 36.08352175 -7.72167969 33.01004028 C-7.72122147 32.10520401 -7.72076324 31.20036774 -7.72029114 30.26811218 C-7.71726764 28.35403127 -7.70937843 26.43995284 -7.69702148 24.52590942 C-7.67876394 21.58498488 -7.67651177 18.64437495 -7.67675781 15.70339966 C-7.6718428 13.84727713 -7.66601456 11.99115674 -7.65917969 10.13504028 C-7.65806686 9.24965073 -7.65695404 8.36426117 -7.6558075 7.45204163 C-7.59770021 0.03526869 -7.4026344 0.02785957 0 0 Z " fill="#E8101C" transform="translate(725.4912109375,548.8610534667969)"/>
<path d="M0 0 C10.94175673 -0.19660211 10.94175673 -0.19660211 13.43554688 1.05029297 C13.43554688 15.24029297 13.43554688 29.43029297 13.43554688 44.05029297 C2.82398438 44.08123047 2.82398438 44.08123047 -8.00195312 44.11279297 C-11.35565063 44.12644897 -11.35565063 44.12644897 -14.77709961 44.14038086 C-16.53824809 44.14329993 -18.29939723 44.14584851 -20.06054688 44.14794922 C-20.98387817 44.15306519 -21.90720947 44.15818115 -22.85852051 44.16345215 C-23.73141724 44.163573 -24.60431396 44.16369385 -25.50366211 44.16381836 C-26.26533188 44.16603897 -27.02700165 44.16825958 -27.81175232 44.17054749 C-29.56445312 44.05029297 -29.56445312 44.05029297 -30.56445312 43.05029297 C-30.67797322 40.20103406 -30.72863938 37.37693718 -30.73242188 34.52685547 C-30.73575027 33.66973969 -30.73907867 32.8126239 -30.74250793 31.92953491 C-30.74758137 30.11204568 -30.74991613 28.29454709 -30.74975586 26.47705078 C-30.75193844 23.6940168 -30.77007878 20.91138152 -30.7890625 18.12841797 C-30.79199709 16.3653985 -30.79398145 14.60237713 -30.79492188 12.83935547 C-30.80570015 11.58767075 -30.80570015 11.58767075 -30.81669617 10.31069946 C-30.79327708 4.39352891 -30.79327708 4.39352891 -28.56445312 1.05029297 C-26.17285156 0.61791992 -26.17285156 0.61791992 -23.17382812 0.53857422 C-22.07748047 0.50296387 -20.98113281 0.46735352 -19.8515625 0.43066406 C-18.68431641 0.4082666 -17.51707031 0.38586914 -16.31445312 0.36279297 C-15.13689453 0.33008301 -13.95933594 0.29737305 -12.74609375 0.26367188 C-8.49770154 0.15295123 -4.24896584 0.08332892 0 0 Z " fill="#EA101C" transform="translate(687.564453125,453.94970703125)"/>
<path d="M0 0 C0.66 0 1.32 0 2 0 C2.33 9.24 2.66 18.48 3 28 C3.33 28 3.66 28 4 28 C4 30.97 4 33.94 4 37 C5.14065918 36.98428955 6.28131836 36.9685791 7.45654297 36.95239258 C11.6794532 36.89818476 15.90233256 36.86368347 20.12548828 36.83520508 C21.95496793 36.82009749 23.78441125 36.79961032 25.61376953 36.77368164 C28.23999992 36.73738415 30.86575249 36.72029385 33.4921875 36.70703125 C34.31306854 36.69154739 35.13394958 36.67606354 35.97970581 36.66011047 C38.28466797 36.65942383 38.28466797 36.65942383 42 37 C42.66 37.99 43.32 38.98 44 40 C37.8944529 40.02464513 31.78893449 40.04283371 25.68334961 40.05493164 C23.60456844 40.05997288 21.52579084 40.06680574 19.44702148 40.07543945 C16.46597414 40.08751422 13.48497351 40.09323024 10.50390625 40.09765625 C9.10078941 40.10539818 9.10078941 40.10539818 7.66932678 40.11329651 C6.37810158 40.11340981 6.37810158 40.11340981 5.06079102 40.11352539 C4.29912125 40.115746 3.53745148 40.11796661 2.75270081 40.12025452 C1 40 1 40 0 39 C-0.08865208 36.1156618 -0.11521296 33.25537842 -0.09765625 30.37109375 C-0.0962413 29.50686295 -0.09482635 28.64263214 -0.09336853 27.75221252 C-0.08775239 24.98060708 -0.07519719 22.2090812 -0.0625 19.4375 C-0.05748708 17.5631522 -0.05292381 15.68880315 -0.04882812 13.81445312 C-0.03777772 9.20960456 -0.0205023 4.60481579 0 0 Z " fill="#BC1019" transform="translate(657,458)"/>
<path d="M0 0 C0.66 0 1.32 0 2 0 C2.93213141 6.26039609 3.20927172 11.02197063 1 17 C0.34 16.34 -0.32 15.68 -1 15 C-0.98252112 12.40730017 -0.86231408 9.9474846 -0.625 7.375 C-0.56828125 6.66859375 -0.5115625 5.9621875 -0.453125 5.234375 C-0.31159079 3.48878639 -0.15702613 1.74426327 0 0 Z " fill="#D5131C" transform="translate(450,929)"/>
<path d="M0 0 C0.66 0.99 1.32 1.98 2 3 C1.20703125 6.1015625 1.20703125 6.1015625 -0.1875 9.625 C-0.63480469 10.79289063 -1.08210938 11.96078125 -1.54296875 13.1640625 C-3 16 -3 16 -6 17 C-4.13236819 11.27789404 -2.14710968 5.62338249 0 0 Z " fill="#CA131C" transform="translate(493,808)"/>
<path d="M0 0 C2.0903754 4.18075081 2.22667078 4.58813263 1.125 8.75 C0.92132813 9.54921875 0.71765625 10.3484375 0.5078125 11.171875 C0.34023438 11.77515625 0.17265625 12.3784375 0 13 C-0.99 12.67 -1.98 12.34 -3 12 C-2.01 8.04 -1.02 4.08 0 0 Z " fill="#D0121B" transform="translate(299,795)"/>
<path d="M0 0 C0.99 0 1.98 0 3 0 C4.45047396 2.90094791 3.45356803 4.55972596 2.5625 7.625 C2.13130859 9.12933594 2.13130859 9.12933594 1.69140625 10.6640625 C1.46324219 11.43492187 1.23507812 12.20578125 1 13 C-0.9078584 9.8250906 -1.1609041 7.89414789 -0.625 4.25 C-0.51414062 3.45078125 -0.40328125 2.6515625 -0.2890625 1.828125 C-0.19367187 1.22484375 -0.09828125 0.6215625 0 0 Z " fill="#D1121B" transform="translate(533,672)"/>
<path d="M0 0 C0.99 0.33 1.98 0.66 3 1 C-0.66666667 4.66666667 -4.33333333 8.33333333 -8 12 C-8.66 11.67 -9.32 11.34 -10 11 C-6.7 7.37 -3.4 3.74 0 0 Z " fill="#CA141C" transform="translate(407,624)"/>
<path d="M0 0 C2 2 2 2 2.01171875 3.953125 C1.90472656 4.71109375 1.79773438 5.4690625 1.6875 6.25 C1.57921875 7.04792969 1.4709375 7.84585938 1.359375 8.66796875 C0.93062763 11.45016636 0.49733464 14.22913555 0 17 C-2.50014115 13.25904806 -1.90042304 10.55790579 -1.125 6.25 C-0.92132813 5.07953125 -0.71765625 3.9090625 -0.5078125 2.703125 C-0.34023438 1.81109375 -0.17265625 0.9190625 0 0 Z " fill="#C5131B" transform="translate(371,888)"/>
<path d="M0 0 C3.53208912 0.57444966 5.12893053 1.7944364 7.5625 4.375 C8.14128906 4.98085937 8.72007812 5.58671875 9.31640625 6.2109375 C10.14978516 7.09652344 10.14978516 7.09652344 11 8 C11.996589 9.0033994 12.99543038 10.00459059 14 11 C11 11 11 11 9.24609375 9.50390625 C8.64925781 8.86324219 8.05242187 8.22257812 7.4375 7.5625 C4.99710571 4.9103837 4.99710571 4.9103837 2 3 C2 2.34 2 1.68 2 1 C1.34 0.67 0.68 0.34 0 0 Z " fill="#CC141E" transform="translate(340,1032)"/>
<path d="M0 0 C0.66 0 1.32 0 2 0 C2.67305018 1.60149886 3.33822227 3.20631029 4 4.8125 C4.37125 5.70582031 4.7425 6.59914063 5.125 7.51953125 C6 10 6 10 6 13 C5.34 13 4.68 13 4 13 C3.32694982 11.39850114 2.66177773 9.79368971 2 8.1875 C1.62875 7.29417969 1.2575 6.40085937 0.875 5.48046875 C0 3 0 3 0 0 Z " fill="#CE131D" transform="translate(657,634)"/>
<path d="M0 0 C0.66 1.32 1.32 2.64 2 4 C0.35 5.65 -1.3 7.3 -3 9 C-3.99 8.34 -4.98 7.68 -6 7 C-4.02 4.69 -2.04 2.38 0 0 Z " fill="#CE131B" transform="translate(477,547)"/>
<path d="M0 0 C2.10814567 4.21629134 2.17700355 6.39790775 2 11 C1.01 11 0.02 11 -1 11 C-0.67 7.37 -0.34 3.74 0 0 Z " fill="#D0131C" transform="translate(540,634)"/>
<path d="M0 0 C0.66 0.33 1.32 0.66 2 1 C0.25 4.875 0.25 4.875 -2 6 C-2.99 7.485 -2.99 7.485 -4 9 C-4.66 8.34 -5.32 7.68 -6 7 C-4.02 4.69 -2.04 2.38 0 0 Z " fill="#D9151D" transform="translate(491,531)"/>
<path d="M0 0 C6.6 0 13.2 0 20 0 C20 0.33 20 0.66 20 1 C13.4 1 6.8 1 0 1 C0 0.67 0 0.34 0 0 Z " fill="#150B0A" transform="translate(492,1096)"/>
<path d="M0 0 C2.15377564 2.62198774 3.40072174 4.64404172 4 8 C2.68 7.67 1.36 7.34 0 7 C-0.38133299 5.0085944 -0.71325582 3.00720923 -1 1 C-0.67 0.67 -0.34 0.34 0 0 Z " fill="#D3131D" transform="translate(377,977)"/>
<path d="M0 0 C2.6465335 2.6465335 3.59941997 5.56221264 5 9 C4.01 9.495 4.01 9.495 3 10 C-0.22265625 4.82421875 -0.22265625 4.82421875 -1 3 C-0.67 2.01 -0.34 1.02 0 0 Z " fill="#CC141C" transform="translate(462,1017)"/>
<path d="M0 0 C0.99 0 1.98 0 3 0 C4.25664978 2.90600261 5 4.79604584 5 8 C2.5 5.6875 2.5 5.6875 0 3 C0 2.01 0 1.02 0 0 Z " fill="#D7131E" transform="translate(322,1009)"/>
<path d="M0 0 C2.46278801 2.46278801 2.99771255 4.70676982 4 8 C3.01 8.495 3.01 8.495 2 9 C0.4375 6.1875 0.4375 6.1875 -1 3 C-0.67 2.01 -0.34 1.02 0 0 Z " fill="#CD131C" transform="translate(303,974)"/>
<path d="M0 0 C2 1 2 1 2 1 Z " fill="#15070A" transform="translate(467,1043)"/>
<path d="" fill="#140A09" transform="translate(0,0)"/>
<path d="" fill="#140909" transform="translate(0,0)"/>
<path d="" fill="#15090C" transform="translate(0,0)"/>
<path d="" fill="#140D0C" transform="translate(0,0)"/>
<path d="" fill="#140C0D" transform="translate(0,0)"/>
<path d="" fill="#18050A" transform="translate(0,0)"/>
<path d="" fill="#140B0D" transform="translate(0,0)"/>
<path d="" fill="#160409" transform="translate(0,0)"/>
<path d="" fill="#140807" transform="translate(0,0)"/>
<path d="" fill="#140B0C" transform="translate(0,0)"/>
<path d="" fill="#140C0B" transform="translate(0,0)"/>
<path d="" fill="#150D0D" transform="translate(0,0)"/>
<path d="" fill="#140A06" transform="translate(0,0)"/>
<path d="" fill="#150707" transform="translate(0,0)"/>
<path d="" fill="#180B0A" transform="translate(0,0)"/>
<path d="" fill="#160B0A" transform="translate(0,0)"/>
<path d="" fill="#160909" transform="translate(0,0)"/>
<path d="" fill="#140B0D" transform="translate(0,0)"/>
<path d="" fill="#140609" transform="translate(0,0)"/>
<path d="" fill="#140A0A" transform="translate(0,0)"/>
<path d="" fill="#140807" transform="translate(0,0)"/>
<path d="" fill="#140A0B" transform="translate(0,0)"/>
<path d="" fill="#140B0B" transform="translate(0,0)"/>
<path d="" fill="#150709" transform="translate(0,0)"/>
<path d="" fill="#16070A" transform="translate(0,0)"/>
<path d="" fill="#170A08" transform="translate(0,0)"/>
<path d="" fill="#140B0B" transform="translate(0,0)"/>
<path d="" fill="#140B0B" transform="translate(0,0)"/>
<path d="" fill="#140709" transform="translate(0,0)"/>
<path d="" fill="#14090B" transform="translate(0,0)"/>
<path d="" fill="#160708" transform="translate(0,0)"/>
<path d="" fill="#14090B" transform="translate(0,0)"/>
<path d="" fill="#140A0A" transform="translate(0,0)"/>
<path d="" fill="#140405" transform="translate(0,0)"/>
<path d="" fill="#140B09" transform="translate(0,0)"/>
<path d="" fill="#140609" transform="translate(0,0)"/>
<path d="" fill="#140608" transform="translate(0,0)"/>
<path d="" fill="#140809" transform="translate(0,0)"/>
<path d="" fill="#190707" transform="translate(0,0)"/>
<path d="" fill="#16070B" transform="translate(0,0)"/>
<path d="" fill="#15090C" transform="translate(0,0)"/>
<path d="" fill="#160908" transform="translate(0,0)"/>
<path d="" fill="#150A0B" transform="translate(0,0)"/>
<path d="" fill="#14080A" transform="translate(0,0)"/>
<path d="" fill="#14080A" transform="translate(0,0)"/>
<path d="" fill="#140A0A" transform="translate(0,0)"/>
<path d="" fill="#160509" transform="translate(0,0)"/>
<path d="" fill="#160A0C" transform="translate(0,0)"/>
<path d="" fill="#14060B" transform="translate(0,0)"/>
<path d="" fill="#140D0B" transform="translate(0,0)"/>
<path d="" fill="#16070A" transform="translate(0,0)"/>
<path d="" fill="#14090B" transform="translate(0,0)"/>
</svg>
