<?xml version="1.0" encoding="UTF-8"?>
<svg version="1.1" xmlns="http://www.w3.org/2000/svg" width="1024" height="1024">
<path d="M0 0 C15.47078016 7.19435146 26.2317587 41.43373572 31.71484375 56.41796875 C42.09428812 85.69091653 46.29445057 116.63662136 46.31640625 147.5859375 C46.31708099 148.44509766 46.31775574 149.30425781 46.31845093 150.18945312 C46.30013593 164.94552204 45.54244227 179.38748618 43.06640625 193.9609375 C42.90543457 194.91210449 42.74446289 195.86327148 42.57861328 196.84326172 C36.78597661 229.4790101 23.93124132 261.63432371 5.06640625 288.9609375 C4.6703418 289.54794434 4.27427734 290.13495117 3.86621094 290.73974609 C-8.00372783 308.29636912 -22.5667304 325.46599546 -38.93359375 338.9609375 C-39.80242187 339.74082031 -40.67125 340.52070312 -41.56640625 341.32421875 C-60.61678918 358.29626392 -99.81429764 387.9609375 -126.93359375 387.9609375 C-125.65081582 385.25606202 -124.24414582 382.8758121 -122.45703125 380.4765625 C-121.95913086 379.80085205 -121.46123047 379.1251416 -120.94824219 378.42895508 C-120.4071582 377.69700928 -119.86607422 376.96506348 -119.30859375 376.2109375 C-107.72943445 360.35130729 -96.6750823 344.0210432 -86.93359375 326.9609375 C-86.55605957 326.30593262 -86.17852539 325.65092773 -85.78955078 324.97607422 C-47.88876068 259.00177116 -25.85658028 183.90009075 -20.93359375 107.9609375 C-21.05250977 108.58395752 -21.17142578 109.20697754 -21.29394531 109.84887695 C-27.30448577 140.74006625 -36.24071103 170.92342964 -45.74609375 200.8984375 C-46.00641388 201.72000336 -46.26673401 202.54156921 -46.53494263 203.38803101 C-61.30547518 249.83521199 -80.2097662 294.07266521 -106.93359375 334.9609375 C-107.47935059 335.80221191 -108.02510742 336.64348633 -108.58740234 337.51025391 C-109.1283252 338.3357373 -109.66924805 339.1612207 -110.2265625 340.01171875 C-110.96749146 341.14540894 -110.96749146 341.14540894 -111.72338867 342.30200195 C-112.12275635 342.84945068 -112.52212402 343.39689941 -112.93359375 343.9609375 C-113.26359375 343.9609375 -113.59359375 343.9609375 -113.93359375 343.9609375 C-113.59179688 338.83398438 -113.59179688 338.83398438 -113.25 333.70703125 C-113.20359375 332.98362549 -113.1571875 332.26021973 -113.109375 331.51489258 C-112.98042089 329.64129681 -112.83479758 327.76882871 -112.6796875 325.8972168 C-111.77390417 314.22959532 -111.78033985 302.5948697 -111.80859375 290.8984375 C-111.80947998 289.83647156 -111.81036621 288.77450562 -111.8112793 287.68035889 C-111.82352975 275.13896203 -111.93868763 262.61806981 -112.43359375 250.0859375 C-115.53667542 170.87743532 -105.99645602 100.47273954 -50.57836914 40.0625 C-45.28731323 34.35478666 -39.97016126 28.88827113 -33.93359375 23.9609375 C-33.09183594 23.23132813 -32.25007812 22.50171875 -31.3828125 21.75 C-5.89194103 -0.11902911 -5.89194103 -0.11902911 0 0 Z " fill="#1F7082" transform="translate(665.93359375,244.0390625)"/>
<path d="M0 0 C1.20166016 1.47436523 1.20166016 1.47436523 2.5390625 3.55859375 C3.2801123 4.71234497 3.2801123 4.71234497 4.03613281 5.8894043 C25.21855224 39.86004221 34.4925243 76.85186206 34.3125 116.75 C34.31100952 117.57494965 34.30951904 118.39989929 34.3079834 119.24984741 C34.26554372 132.3689334 33.55623973 145.10197648 31 158 C30.86609863 158.73299316 30.73219727 159.46598633 30.59423828 160.22119141 C25.931523 185.37724684 13.68482775 209.93264685 -2 230 C-2.72703125 230.93714844 -3.4540625 231.87429688 -4.203125 232.83984375 C-26.54230158 260.84417123 -54.88304329 284.75550138 -88 299 C-88.66 299 -89.32 299 -90 299 C-88.73179952 295.52306757 -87.2693297 292.77472373 -85.0625 289.8125 C-76.16040395 277.34587171 -68.59478503 263.90316758 -61.31982422 250.43847656 C-60.41570832 248.76805304 -59.50556933 247.10087946 -58.59033203 245.43652344 C-34.88124852 202.23260045 -19.57874537 154.26991736 -16 105 C-16.20810303 105.81392212 -16.20810303 105.81392212 -16.42041016 106.64428711 C-29.17576114 155.77806017 -47.45497654 204.21213671 -72.9375 248.1875 C-73.52249268 249.1971582 -74.10748535 250.20681641 -74.71020508 251.24707031 C-77.74011485 256.32914819 -77.74011485 256.32914819 -79 258 C-79.66 258 -80.32 258 -81 258 C-93.06674898 182.54329896 -88.5376826 106.45137302 -42.4140625 42.37109375 C-37.5436339 35.77972958 -32.15417368 29.71322139 -26.54296875 23.75390625 C-24.75708614 21.81988591 -23.07118467 19.89685912 -21.41015625 17.86328125 C-19.444736 15.52834925 -17.57237313 13.58016028 -15.25 11.625 C-11.37996524 8.3362062 -7.62381633 4.93859095 -3.8828125 1.50390625 C-2 0 -2 0 0 0 Z M-14 90 C-13 93 -13 93 -13 93 Z M-15 96 C-15 97.65 -15 99.3 -15 101 C-14.67 101 -14.34 101 -14 101 C-14 99.35 -14 97.7 -14 96 C-14.33 96 -14.66 96 -15 96 Z " fill="#1F7082" transform="translate(494,352)"/>
<path d="M0 0 C10.06926801 4.2558562 16.16397305 18.39960631 20.11328125 28.015625 C33.79976794 62.56319223 35.41518703 100.53299783 20.75390625 135.18359375 C15.0981733 147.69792159 8.37664383 159.12398359 0 170 C-0.70640625 170.93070313 -1.4128125 171.86140625 -2.140625 172.8203125 C-11.2565277 184.40088519 -21.66051054 194.89119264 -34 203 C-34.33 202.34 -34.66 201.68 -35 201 C-34.24658203 198.92236328 -34.24658203 198.92236328 -33.0078125 196.3203125 C-32.5543042 195.34328369 -32.1007959 194.36625488 -31.63354492 193.35961914 C-31.1357251 192.29219482 -30.63790527 191.22477051 -30.125 190.125 C-14.16427575 154.79637844 -6.74974784 117.45203933 -4 79 C-4.11480713 79.57105469 -4.22961426 80.14210938 -4.34790039 80.73046875 C-9.93669402 108.2075665 -17.61379656 135.4701201 -29.375 161 C-29.85731079 162.05948853 -29.85731079 162.05948853 -30.34936523 163.14038086 C-31.14884922 164.80334979 -32.06501805 166.40926147 -33 168 C-33.99 168.33 -34.98 168.66 -36 169 C-42.06366026 150.36435079 -46.45249438 131.66259321 -47 112 C-47.03996094 111.10023438 -47.07992188 110.20046875 -47.12109375 109.2734375 C-48.03804937 73.56610703 -33.03416523 40.35301847 -11 13 C-10.54753906 12.4332959 -10.09507812 11.8665918 -9.62890625 11.28271484 C-3.02347222 3.02347222 -3.02347222 3.02347222 0 0 Z " fill="#1F7082" transform="translate(350,456)"/>
<path d="M0 0 C5.754375 -0.020625 11.50875 -0.04125 17.4375 -0.0625 C19.25564209 -0.071604 21.07378418 -0.08070801 22.94702148 -0.09008789 C24.38004482 -0.09300711 25.81306898 -0.09555566 27.24609375 -0.09765625 C27.99669067 -0.10277222 28.7472876 -0.10788818 29.52062988 -0.11315918 C31.34747601 -0.11346992 33.17421683 -0.06231113 35 0 C36 1 36 1 36.11352539 4.41821289 C36.11336628 5.93636988 36.10767226 7.45453229 36.09765625 8.97265625 C36.0962413 9.77029892 36.09482635 10.56794159 36.09336853 11.38975525 C36.08775316 13.94737435 36.07519812 16.50490718 36.0625 19.0625 C36.05748698 20.79231645 36.05292373 22.52213426 36.04882812 24.25195312 C36.03777875 28.50133553 36.02050386 32.75065312 36 37 C32.93386053 38.53306974 29.72919216 38.12141666 26.3671875 38.09765625 C25.36764038 38.09614563 25.36764038 38.09614563 24.34790039 38.09460449 C21.85691611 38.08936955 19.36595634 38.07540829 16.875 38.0625 C8.521875 38.0315625 8.521875 38.0315625 0 38 C0 25.46 0 12.92 0 0 Z " fill="#1F6E7F" transform="translate(697,184)"/>
<path d="M0 0 C1.7934082 0.00483398 1.7934082 0.00483398 3.62304688 0.00976562 C4.85216797 0.01814453 6.08128906 0.02652344 7.34765625 0.03515625 C8.60384766 0.03966797 9.86003906 0.04417969 11.15429688 0.04882812 C14.23963288 0.06055944 17.32486941 0.07697525 20.41015625 0.09765625 C21.59031291 3.63812623 21.43412641 6.72114254 21.2890625 10.390625 C21.24595947 11.68250732 21.20285645 12.97438965 21.15844727 14.30541992 C21.06648071 16.7703894 21.06648071 16.7703894 20.97265625 19.28515625 C20.69421875 27.11234375 20.69421875 27.11234375 20.41015625 35.09765625 C9.19015625 35.09765625 -2.02984375 35.09765625 -13.58984375 35.09765625 C-13.58984375 23.87765625 -13.58984375 12.65765625 -13.58984375 1.09765625 C-8.78951748 0.41189535 -4.75706392 -0.02276107 0 0 Z " fill="#1F6F82" transform="translate(728.58984375,256.90234375)"/>
<path d="M0 0 C11.55 0 23.1 0 35 0 C35 11.88 35 23.76 35 36 C32.13822943 37.43088528 30.06624227 36.59991697 27 36 C27 35.67 27 35.34 27 35 C28.98 35 30.96 35 33 35 C33 23.78 33 12.56 33 1 C22.11 1 11.22 1 0 1 C0 0.67 0 0.34 0 0 Z " fill="#237E93" transform="translate(698,185)"/>
<path d="M0 0 C0.99 0.495 0.99 0.495 2 1 C2 11.23 2 21.46 2 32 C5.63 32 9.26 32 13 32 C13.33 32.66 13.66 33.32 14 34 C9.38 34 4.76 34 0 34 C0 22.78 0 11.56 0 0 Z " fill="#227B8F" transform="translate(715,258)"/>
<path d="M0 0 C8.56042032 3.61812972 14.17682789 14.99725838 18 23 C18.6953125 26.36328125 18.6953125 26.36328125 19 29 C16.31312954 25.6393323 14.26080161 22.00384114 12.1875 18.25 C9.16106234 12.84825881 5.93530466 7.79987917 2 3 C-1.29696105 4.09898702 -2.04670589 4.94597387 -4.1875 7.5625 C-4.71730469 8.20316406 -5.24710937 8.84382813 -5.79296875 9.50390625 C-6.19128906 9.99761719 -6.58960938 10.49132812 -7 11 C-7 7.22089522 -6.00296038 6.53893899 -3.5 3.8125 C-2.8503125 3.09707031 -2.200625 2.38164062 -1.53125 1.64453125 C-1.0259375 1.10183594 -0.520625 0.55914062 0 0 Z " fill="#227A8D" transform="translate(350,456)"/>
<path d="M0 0 C1 3 1 3 0.22265625 4.82421875 C-0.8515625 6.54947917 -1.92578125 8.27473958 -3 10 C-3.66 10 -4.32 10 -5 10 C-5 7.03 -5 4.06 -5 1 C-4.34 2.32 -3.68 3.64 -3 5 C-2.01 3.35 -1.02 1.7 0 0 Z " fill="#237D91" transform="translate(418,600)"/>
<path d="M0 0 C0.66 0.33 1.32 0.66 2 1 C-0.64 4.3 -3.28 7.6 -6 11 C-6.33 10.34 -6.66 9.68 -7 9 C-4.69 6.03 -2.38 3.06 0 0 Z " fill="#227B8E" transform="translate(340,468)"/>
<path d="M0 0 C0 0.99 0 1.98 0 3 C-2.64738916 4.4606285 -3.89448334 5 -7 5 C-6.67 3.68 -6.34 2.36 -6 1 C-4.7934375 1.0309375 -4.7934375 1.0309375 -3.5625 1.0625 C-1.06645115 1.29633621 -1.06645115 1.29633621 0 0 Z " fill="#20798C" transform="translate(418,642)"/>
</svg>
