<?xml version="1.0" encoding="UTF-8"?>
<svg version="1.1" xmlns="http://www.w3.org/2000/svg" width="1024" height="1024">
<path d="M0 0 C1.51134521 -0.00262848 1.51134521 -0.00262848 3.05322266 -0.00531006 C6.38388801 -0.00970869 9.71450011 -0.00679377 13.04516602 -0.00341797 C15.38045766 -0.00409247 17.71574924 -0.00506371 20.05104065 -0.00631714 C24.95607163 -0.00779217 29.86108442 -0.00564909 34.76611328 -0.00097656 C40.9874975 0.00466696 47.20883806 0.00147501 53.4302206 -0.00454903 C58.26333428 -0.00820606 63.09643806 -0.00699186 67.92955208 -0.00442123 C70.21877104 -0.00376327 72.50799095 -0.00453987 74.79720879 -0.00690079 C81.12546252 -0.01198705 87.45189759 0.01516819 93.77967453 0.09523773 C95.87536934 0.1184644 97.97118783 0.13209104 100.06700516 0.13718414 C103.1963837 0.14964193 106.3228992 0.20150675 109.45166016 0.26269531 C110.38372756 0.25952238 111.31579496 0.25634945 112.27610683 0.25308037 C118.95903235 0.44423334 123.15512197 2.32963161 127.86157227 7.12939453 C131.56191901 12.38507897 132.56917165 16.76100009 131.86157227 23.12939453 C130.09184367 28.73353508 127.21919938 33.20530685 122.86157227 37.12939453 C118.81383492 38.72718559 114.17779745 38.20255089 109.86157227 38.12939453 C110.0260083 39.28608643 110.19044434 40.44277832 110.35986328 41.63452148 C111.06375653 48.01331648 110.95714224 54.39459043 110.9061718 60.8019619 C110.88854324 63.09587119 110.87840673 65.38970853 110.87025452 67.68367004 C110.84601813 74.20023388 110.8105314 80.71670074 110.765625 87.2331543 C110.73855064 91.23764218 110.72169955 95.24207452 110.7107563 99.24663734 C110.70462779 100.75622928 110.69472854 102.26581159 110.68067741 103.77535057 C110.49794154 123.58803292 114.56707808 138.96456862 123.55688477 156.55908203 C126.25772838 161.86845297 128.80552857 167.24922141 131.36157227 172.62939453 C134.509265 179.24450118 137.68423528 185.84003047 140.98657227 192.37939453 C144.01517993 198.38781213 146.96231121 204.43246469 149.86157227 210.50439453 C150.26005371 211.33229492 150.65853516 212.16019531 151.0690918 213.01318359 C151.43373535 213.78114258 151.79837891 214.54910156 152.17407227 215.34033203 C152.50020508 216.02401855 152.82633789 216.70770508 153.16235352 217.41210938 C153.86157227 219.12939453 153.86157227 219.12939453 153.86157227 221.12939453 C154.52157227 221.45939453 155.18157227 221.78939453 155.86157227 222.12939453 C156.7121582 223.95751953 156.7121582 223.95751953 157.59594727 226.37939453 C160.06826015 232.81380589 163.08132256 238.94267137 166.11157227 245.12939453 C169.94482094 253.0137266 173.72954362 260.9058041 177.23657227 268.94189453 C179.38769949 273.8661089 181.60918713 278.71367116 184.04907227 283.50439453 C188.26037194 291.78210971 192.12201888 300.22248015 196.01245117 308.65429688 C198.77358488 314.63730031 201.55804252 320.60584076 204.42016602 326.54125977 C211.87198391 342.04111347 217.14498004 357.39664268 211.84204102 374.50048828 C210.19406243 378.9191719 208.18906115 383.0316035 205.86157227 387.12939453 C205.53930664 387.74427734 205.21704102 388.35916016 204.88500977 388.99267578 C199.487222 397.95465165 187.58631306 404.25306275 177.86157227 407.12939453 C174.28482484 407.94815884 170.89391168 408.29501296 167.22875977 408.41064453 C166.1755957 408.44802734 165.12243164 408.48541016 164.03735352 408.52392578 C161.82902814 408.59448766 159.62069472 408.6647984 157.41235352 408.73486328 C156.36176758 408.77224609 155.31118164 408.80962891 154.22875977 408.84814453 C153.2708252 408.8784375 152.31289063 408.90873047 151.32592773 408.93994141 C148.72687513 409.03952706 148.72687513 409.03952706 145.86157227 410.12939453 C145.86157227 409.46939453 145.86157227 408.80939453 145.86157227 408.12939453 C143.22157227 408.12939453 140.58157227 408.12939453 137.86157227 408.12939453 C137.53157227 408.78939453 137.20157227 409.44939453 136.86157227 410.12939453 C136.86157227 409.46939453 136.86157227 408.80939453 136.86157227 408.12939453 C135.17038773 408.37289139 135.17038773 408.37289139 133.44503784 408.62130737 C125.83503495 409.45863579 118.17152661 409.26873366 110.52612305 409.25878906 C108.77239445 409.26014583 107.01866613 409.2619273 105.26493835 409.26409912 C100.51847203 409.26864407 95.77202754 409.2668951 91.02556086 409.26372004 C86.03631694 409.26117724 81.04707481 409.26353968 76.05783081 409.2651062 C67.67014229 409.26692399 59.28246257 409.26453359 50.89477539 409.25976562 C41.24230174 409.25434152 31.58984927 409.25607373 21.93737614 409.26159203 C13.61764412 409.26615558 5.29791841 409.26675741 -3.02181447 409.26415336 C-7.97594049 409.26260604 -12.93005662 409.26235356 -17.88418198 409.26568985 C-22.55458484 409.26861529 -27.22496093 409.26650867 -31.89536095 409.26079559 C-33.59347299 409.25949194 -35.29158734 409.25982037 -36.98969841 409.26205826 C-45.76925976 409.27254602 -54.53143658 409.14641393 -63.30276489 408.74630737 C-64.07018348 408.71595056 -64.83760206 408.68559374 -65.62827575 408.65431702 C-72.92472586 408.27629615 -79.36517749 406.9006148 -85.76342773 403.19189453 C-88.72651242 401.4945936 -91.58949883 399.9236428 -94.70092773 398.50439453 C-97.55694777 396.89330631 -97.75257496 396.00337704 -99.13842773 393.12939453 C-100.24936877 391.61895254 -101.37575003 390.11980201 -102.51342773 388.62939453 C-109.64098112 378.59142352 -112.33367102 366.28495811 -110.74780273 354.13720703 C-108.2185294 340.09649735 -101.47845376 327.61194025 -95.07592773 314.99267578 C-89.10452661 303.1649474 -83.55187614 291.12064191 -77.88452148 279.14501953 C-77.51050201 278.3546933 -77.13648254 277.56436707 -76.75112915 276.75009155 C-75.19535299 273.46242687 -73.6396123 270.17474561 -72.08447266 266.88677979 C-67.20549903 256.57265784 -62.29571208 246.27512886 -57.32592773 236.00439453 C-52.5693552 226.17311364 -47.95390489 216.28315716 -43.39013672 206.36108398 C-40.12634492 199.30369275 -36.77499002 192.29525832 -33.35327148 185.31298828 C-32.94248856 184.47396973 -32.53170563 183.63495117 -32.10847473 182.77050781 C-30.06963256 178.6098931 -28.02295252 174.45335884 -25.96582031 170.30175781 C-25.2159106 168.77693112 -24.46614774 167.2520322 -23.71655273 165.72705078 C-23.3692662 165.03244247 -23.02197968 164.33783417 -22.66416931 163.62217712 C-20.96221426 160.14663434 -19.66342004 156.97640087 -19.13842773 153.12939453 C-18.47842773 153.12939453 -17.81842773 153.12939453 -17.13842773 153.12939453 C-16.91155273 152.36626953 -16.68467773 151.60314453 -16.45092773 150.81689453 C-15.01810409 146.79134239 -13.2367139 143.03717943 -11.35717773 139.20361328 C-8.59845941 132.24492314 -7.83965591 125.37127569 -7.81958008 117.93774414 C-7.80953445 117.06836212 -7.79948883 116.1989801 -7.78913879 115.30325317 C-7.75853372 112.46275423 -7.74133536 109.62234853 -7.72436523 106.78173828 C-7.7056353 104.79919139 -7.68606055 102.81665231 -7.66567993 100.8341217 C-7.61454553 95.64092639 -7.57482019 90.44770529 -7.53753662 85.25439453 C-7.49737928 79.94508583 -7.44634066 74.63588269 -7.39624023 69.32666016 C-7.29970249 58.92764597 -7.21522737 48.52857192 -7.13842773 38.12939453 C-8.40912109 38.14760254 -9.67981445 38.16581055 -10.98901367 38.18457031 C-16.19413913 38.25915555 -19.20463197 36.45126651 -23.13842773 33.12939453 C-26.83913429 28.64959186 -29.28168945 23.90877514 -29.05639648 17.96533203 C-28.06299125 11.61190512 -24.91932768 7.33537613 -20.13842773 3.12939453 C-14.13561876 -0.63185919 -6.822235 -0.01464726 0 0 Z M28.86157227 38.12939453 C28.82418945 44.54763672 28.78680664 50.96587891 28.74829102 57.57861328 C28.71798301 61.66652976 28.6868166 65.7544042 28.65258789 69.84228516 C28.59844675 76.31792981 28.54733016 82.79349129 28.51513672 89.26928711 C28.48895543 94.49548685 28.44845007 99.72140418 28.398386 104.94742775 C28.38181693 106.93227412 28.37024111 108.91716923 28.36395836 110.90207481 C28.31568339 124.76301207 27.51519205 137.13582906 21.67407227 149.94189453 C21.14426758 151.12396484 20.61446289 152.30603516 20.06860352 153.52392578 C18.17802485 157.53820711 16.17885975 161.4974051 14.18579102 165.46142578 C10.00583288 173.77881242 5.98610602 182.16792862 2.00708008 190.58300781 C0.86508328 192.9969729 -0.28104023 195.40894802 -1.42749023 197.82080078 C-5.54833645 206.51177436 -9.57314962 215.23600381 -13.42785645 224.04867554 C-15.43599023 228.62459243 -17.57553451 233.10470615 -19.82592773 237.56689453 C-20.17558594 238.26081299 -20.52524414 238.95473145 -20.88549805 239.66967773 C-21.32780762 240.54112427 -21.32780762 240.54112427 -21.77905273 241.43017578 C-24.62284784 247.0732522 -27.41582005 252.74107536 -30.18179321 258.42263794 C-31.06046346 260.22271385 -31.94739735 262.01874847 -32.83447266 263.81469727 C-33.37692627 264.93175049 -33.91937988 266.04880371 -34.47827148 267.19970703 C-34.96674561 268.19760254 -35.45521973 269.19549805 -35.95849609 270.22363281 C-37.17185088 273.21170413 -37.73344557 275.93871571 -38.13842773 279.12939453 C-11.24680145 284.84629341 14.13795 287.43667486 40.86157227 280.12939453 C41.87944824 279.85224609 42.89732422 279.57509766 43.94604492 279.28955078 C45.59999268 278.83902344 45.59999268 278.83902344 47.28735352 278.37939453 C48.42366211 278.0708252 49.5599707 277.76225586 50.73071289 277.44433594 C52.96460605 276.83454519 55.19652639 276.21746259 57.42602539 275.59179688 C85.21453433 267.91789325 112.85570711 268.69673765 139.72485352 279.39501953 C141.95785774 280.29191026 141.95785774 280.29191026 144.86157227 280.12939453 C144.33950195 279.16904297 143.81743164 278.20869141 143.27954102 277.21923828 C137.25584651 266.04210839 131.73985127 254.65855555 126.31176758 243.18261719 C124.85785613 240.12157064 123.38980122 237.06775441 121.91625977 234.01611328 C116.71517106 223.24370619 111.59833373 212.44036714 106.61157227 201.56689453 C103.47323362 194.72751512 100.32391264 187.90567506 96.92407227 181.19189453 C96.30556281 179.96403996 95.68707413 178.73617492 95.06860352 177.50830078 C93.82292612 175.03548464 92.57509942 172.56381762 91.32397461 170.09375 C78.49736361 144.64307281 74.6609586 124.41605808 74.84326172 96.10284424 C74.96247617 76.74361026 74.62771855 57.47458832 73.86157227 38.12939453 C59.01157227 38.12939453 44.16157227 38.12939453 28.86157227 38.12939453 Z " fill="#A522F2" transform="translate(454.138427734375,418.87060546875)"/>
<path d="M0 0 C3.19149835 1.34491939 4.66969568 2.53819227 6.40234375 5.52734375 C6.81516602 6.23109131 7.22798828 6.93483887 7.65332031 7.65991211 C8.07709961 8.41151611 8.50087891 9.16312012 8.9375 9.9375 C9.38061523 10.7116626 9.82373047 11.4858252 10.28027344 12.28344727 C23.27559018 35.24551117 29.22843203 59.56974997 29.25 85.875 C29.25067474 86.61265594 29.25134949 87.35031189 29.25204468 88.11032104 C29.23573367 99.33366819 28.74986093 110.07817332 26 121 C25.75056641 121.99990967 25.75056641 121.99990967 25.49609375 123.02001953 C20.54745551 142.22348515 10.61580946 157.91280995 -2 173 C-2.4640625 173.58910156 -2.928125 174.17820312 -3.40625 174.78515625 C-6.81212963 179.10003754 -10.79528776 182.49818393 -15 186 C-15.53496094 186.45262207 -16.06992187 186.90524414 -16.62109375 187.37158203 C-27.25620531 196.35150254 -38.42708186 204.28109223 -50 212 C-52.04811964 213.36615597 -54.08907342 214.74056993 -56.125 216.125 C-56.87007812 216.62257813 -57.61515625 217.12015625 -58.3828125 217.6328125 C-60.29087672 219.00543516 -60.29087672 219.00543516 -61 222 C-61.99 222 -62.98 222 -64 222 C-66.40242767 223.59103083 -68.69998875 225.21013499 -71 226.9375 C-77.63153527 231.87717842 -77.63153527 231.87717842 -81 233 C-81 233.66 -81 234.32 -81 235 C-82.49609375 236.4375 -82.49609375 236.4375 -84.4375 238 C-87.15188238 240.14525044 -87.15188238 240.14525044 -89 243 C-89.66 243 -90.32 243 -91 243 C-91.2784375 243.58007812 -91.556875 244.16015625 -91.84375 244.7578125 C-92.94883372 246.9007789 -94.17473463 248.86285929 -95.5 250.875 C-99.94880191 258.01925247 -100.49106385 264.72309096 -101 273 C-102.051875 272.69255859 -102.051875 272.69255859 -103.125 272.37890625 C-108.76853609 270.77632603 -114.15876543 269.55105987 -120 269 C-120 268.01 -120 267.02 -120 266 C-120.70898438 265.7421875 -121.41796875 265.484375 -122.1484375 265.21875 C-125.21204493 263.90937258 -127.83322157 262.31504052 -130.625 260.5 C-131.56601562 259.8915625 -132.50703125 259.283125 -133.4765625 258.65625 C-137.52856828 255.99672918 -140.33791842 253.5957994 -143.3984375 249.89453125 C-144.93437279 248.02667424 -144.93437279 248.02667424 -146.4765625 246.51171875 C-158.02590349 234.56093008 -161.53201069 216.90149461 -161.41772461 200.92260742 C-160.61311298 172.66535312 -142.68793294 150.48411086 -123.44140625 131.47265625 C-111.98882307 120.79259133 -98.72163083 111.92980005 -85.80078125 103.14453125 C-66.62034618 90.09084786 -47.93882909 76.9027414 -31 61 C-30.35160156 60.41734375 -29.70320312 59.8346875 -29.03515625 59.234375 C-21.90514342 52.59088069 -15.56529215 43.56733396 -11 35 C-11 34.01 -11 33.02 -11 32 C-10.34 32 -9.68 32 -9 32 C-8.7215625 31.14664063 -8.443125 30.29328125 -8.15625 29.4140625 C-7.40215402 27.18744127 -6.61193871 24.9726326 -5.78125 22.7734375 C-2.93393914 15.22111907 -0.98330881 8.01323302 0 0 Z " fill="#BB3AFB" transform="translate(608,120)"/>
<path d="M0 0 C0.99 0.495 0.99 0.495 2 1 C1.31035156 1.81082031 0.62070312 2.62164062 -0.08984375 3.45703125 C-4.6507956 8.82876455 -9.19107496 14.20983686 -13.625 19.6875 C-17.91144443 24.95370315 -22.43362375 29.97698612 -27 35 C-29.35848225 37.64532469 -31.68393372 40.31749727 -34 43 C-34.81082031 43.93199219 -35.62164063 44.86398437 -36.45703125 45.82421875 C-57.65793556 70.38035633 -79.37881829 98.64010697 -79.0625 132.4375 C-79.05798828 133.35982422 -79.05347656 134.28214844 -79.04882812 135.23242188 C-79.03713938 137.48835048 -79.02075455 139.74413967 -79 142 C-78.67 141.01 -78.34 140.02 -78 139 C-77.34 139 -76.68 139 -76 139 C-75.938125 138.175 -75.87625 137.35 -75.8125 136.5 C-74.76703783 131.99647063 -72.59542785 128.77342647 -70 125 C-69.67 125.66 -69.34 126.32 -69 127 C-69.598125 128.093125 -70.19625 129.18625 -70.8125 130.3125 C-73.96319521 136.23231834 -75 143.3209085 -75 150 C-76.051875 149.69255859 -76.051875 149.69255859 -77.125 149.37890625 C-82.76853609 147.77632603 -88.15876543 146.55105987 -94 146 C-94 145.01 -94 144.02 -94 143 C-94.70898438 142.7421875 -95.41796875 142.484375 -96.1484375 142.21875 C-99.21204493 140.90937258 -101.83322157 139.31504052 -104.625 137.5 C-105.56601562 136.8915625 -106.50703125 136.283125 -107.4765625 135.65625 C-111.52856828 132.99672918 -114.33791842 130.5957994 -117.3984375 126.89453125 C-118.93437279 125.02667424 -118.93437279 125.02667424 -120.4765625 123.51171875 C-132.02590349 111.56093008 -135.53201069 93.90149461 -135.41772461 77.92260742 C-135.02359391 64.0810832 -130.73721226 47.65459984 -121.25390625 37.046875 C-120.84011719 36.70140625 -120.42632812 36.3559375 -120 36 C-121.74083177 41.73348575 -124.40934687 46.71969678 -127.24609375 51.9765625 C-131.53795068 61.03556899 -132.53262527 70.53296515 -132.4375 80.4375 C-132.43137695 81.5298999 -132.42525391 82.6222998 -132.41894531 83.74780273 C-132.26251757 91.82007585 -131.34253693 98.57471035 -128 106 C-127.69964844 106.72445312 -127.39929688 107.44890625 -127.08984375 108.1953125 C-126.17174664 110.22228014 -125.145275 112.09248512 -124 114 C-123.31357422 115.14855469 -123.31357422 115.14855469 -122.61328125 116.3203125 C-114.44121119 128.94447884 -101.97469168 139.62986334 -87.1875 143.4375 C-86.135625 143.623125 -85.08375 143.80875 -84 144 C-83.91773332 140.95613276 -84.02391783 138.92824652 -85 136 C-85.66 136 -86.32 136 -87 136 C-94.58872566 116.15924781 -96.7327662 98.53741451 -88.20703125 78.484375 C-73.94809474 49.13588431 -44.45210644 30.17376797 -18.30029297 12.55517578 C-14.45522833 9.95561499 -10.63449334 7.32081047 -6.8125 4.6875 C-5.48571854 3.77467932 -4.15890004 2.86191248 -2.83203125 1.94921875 C-1.89746094 1.30597656 -0.96289062 0.66273438 0 0 Z " fill="#9012DC" transform="translate(582,243)"/>
<path d="M0 0 C5.66345327 3.97385638 10.17601007 9.644652 11.4375 16.5625 C12.21776586 24.54521997 10.71285174 30.95680431 5.75 37.3125 C1.54709167 41.91468462 -4.48077008 45.03824111 -10.69140625 45.8359375 C-18.48253914 46.16108911 -24.44246011 44.05802858 -30.41796875 38.98828125 C-35.26065341 33.85862269 -37.19587491 27.9843342 -37.9375 21.0625 C-37.08909642 13.14406655 -34.59775069 6.90563479 -28.5625 1.5625 C-20.81241134 -4.67447611 -8.5116205 -4.62280145 0 0 Z " fill="#820BD0" transform="translate(487.5625,750.4375)"/>
<path d="M0 0 C13.53 0 27.06 0 41 0 C42.3158809 3.9476427 42.12300273 7.71089356 42.09765625 11.82421875 C42.0962413 12.68561966 42.09482635 13.54702057 42.09336853 14.43452454 C42.0877714 17.18555169 42.07521946 19.93649744 42.0625 22.6875 C42.05748463 24.5527332 42.05292179 26.41796767 42.04882812 28.28320312 C42.03780292 32.85550011 42.02054027 37.42773625 42 42 C37.84986713 43.15972768 33.83156611 43.1438434 29.55078125 43.1328125 C28.73755905 43.13376923 27.92433685 43.13472595 27.08647156 43.13571167 C25.3726697 43.13639076 23.65886524 43.1345554 21.94506836 43.13037109 C19.31162816 43.12499822 16.67835692 43.13033586 14.04492188 43.13671875 C12.38020796 43.13605833 10.71549414 43.13477791 9.05078125 43.1328125 C7.86335075 43.13584885 7.86335075 43.13584885 6.65193176 43.13894653 C1.11496487 43.11496487 1.11496487 43.11496487 0 42 C-0.08874135 38.89748799 -0.11518455 35.8173188 -0.09765625 32.71484375 C-0.0962413 31.78402481 -0.09482635 30.85320587 -0.09336853 29.8941803 C-0.08775172 26.90858809 -0.0751964 23.92306971 -0.0625 20.9375 C-0.05748716 18.91862087 -0.05292388 16.89974057 -0.04882812 14.88085938 C-0.03862587 9.92052129 -0.01905382 4.9603437 0 0 Z " fill="#A81AF9" transform="translate(686,216)"/>
<path d="M0 0 C5.46255359 5.52341769 7.85542154 11.20722117 8 19 C7.3703276 25.005209 4.98437328 30.4630494 1 35 C-4.33823428 39.1876634 -10.19605252 41.38814465 -17 41 C-23.57042275 39.8651088 -28.39083609 37.82864791 -33 33 C-37.66378302 26.32674134 -38.83370292 20.01079762 -38 12 C-36.11851357 5.30094959 -31.51781445 0.9874831 -26 -3 C-17.37105717 -7.75076628 -7.49023345 -6.27089312 0 0 Z " fill="#A11AF0" transform="translate(511,619)"/>
<path d="M0 0 C12.21 0 24.42 0 37 0 C37 11.22 37 22.44 37 34 C37.99 34.495 37.99 34.495 39 35 C38.01 35.495 38.01 35.495 37 36 C36.67 36.99 36.34 37.98 36 39 C33 40 33 40 30 39 C27.7161483 38.91621372 25.429899 38.89270085 23.14453125 38.90234375 C22.48289474 38.9037587 21.82125824 38.90517365 21.13957214 38.90663147 C19.03050172 38.91222004 16.92153823 38.92477035 14.8125 38.9375 C13.38086091 38.94251648 11.94922015 38.94707913 10.51757812 38.95117188 C7.01168412 38.9621857 3.5058525 38.97944245 0 39 C-1.46013122 35.73979966 -2.24598501 33.34491225 -1.9765625 29.77734375 C-1.89921875 28.60655273 -1.89921875 28.60655273 -1.8203125 27.41210938 C-1.75585938 26.59548828 -1.69140625 25.77886719 -1.625 24.9375 C-1.51042832 23.23845408 -1.39844837 21.53923141 -1.2890625 19.83984375 C-1.23524414 19.01468262 -1.18142578 18.18952148 -1.12597656 17.33935547 C-0.90884033 13.30718604 -0.97079573 9.28498785 -1.0625 5.25 C-1 3 -1 3 0 0 Z " fill="#A81CF9" transform="translate(647,311)"/>
<path d="M0 0 C4.6992228 3.5530709 9.19620504 8.06243168 10.5625 13.9375 C11.30878082 21.87521418 9.98287262 26.77445909 6 33.625 C1.1702043 38.20711387 -4.97316631 40.13392591 -11.5625 40.5 C-18.05945659 40.21397046 -22.27288277 37.10211723 -26.75 32.625 C-30.26608955 27.02530183 -32.27408265 21.63016119 -31.4375 14.9375 C-29.150569 7.95419285 -24.73346549 3.63861135 -18.6171875 -0.20703125 C-12.96304554 -2.42612998 -5.69230613 -1.75944008 0 0 Z " fill="#820CCF" transform="translate(564.4375,721.0625)"/>
<path d="M0 0 C6.6752034 -0.02526945 13.35039457 -0.04283268 20.02563477 -0.05493164 C22.29842591 -0.05997325 24.5712138 -0.06680637 26.84399414 -0.07543945 C30.10303551 -0.08751261 33.36203417 -0.09322987 36.62109375 -0.09765625 C37.64400009 -0.10281754 38.66690643 -0.10797882 39.72080994 -0.11329651 C40.66170975 -0.11337204 41.60260956 -0.11344757 42.57202148 -0.11352539 C43.40475082 -0.115746 44.23748016 -0.11796661 45.09544373 -0.12025452 C47 0 47 0 48 1 C48.09516211 3.7388842 48.12554594 6.45247941 48.11352539 9.19165039 C48.11367142 10.05011063 48.11381744 10.90857086 48.1139679 11.79304504 C48.11326847 14.64460738 48.1054747 17.49610525 48.09765625 20.34765625 C48.09579218 22.31920842 48.09436822 24.29076105 48.09336853 26.26231384 C48.08954251 31.46226267 48.07971152 36.66218375 48.06866455 41.86212158 C48.05845222 47.16393661 48.05387129 52.4657561 48.04882812 57.76757812 C48.03808933 68.17839763 48.02101191 78.58919651 48 89 C47.67 89 47.34 89 47 89 C46.21092292 82.30819048 45.87215959 75.75050093 45.9375 69.015625 C45.94605547 67.10432984 45.95451536 65.19303424 45.96289062 63.28173828 C45.96909424 62.29562561 45.97529785 61.30951294 45.98168945 60.29351807 C46.09680434 41.15950603 45.7884754 22.12052857 45 3 C23.22 2.505 23.22 2.505 1 2 C1.03480469 8.41824219 1.06960938 14.83648437 1.10546875 21.44921875 C1.12081355 25.53711858 1.13525659 29.62498246 1.14648438 33.71289062 C1.16435542 40.18863381 1.18540171 46.66424865 1.22631836 53.13989258 C1.25912944 58.36595369 1.27689854 63.59187698 1.28463173 68.81803322 C1.29013644 70.80293761 1.3008848 72.78783523 1.31719017 74.77268028 C1.42685611 88.6870036 0.67829347 100.95233996 -5.1875 113.8125 C-5.48430664 114.46702148 -5.78111328 115.12154297 -6.08691406 115.79589844 C-8.38989151 120.82035911 -10.8035922 125.79401826 -13.25 130.75 C-13.57895264 131.41749268 -13.90790527 132.08498535 -14.24682617 132.77270508 C-15.91566173 136.08694347 -17.6471946 139.12434895 -20 142 C-19.37400195 137.88792204 -18.01003906 134.63898233 -16.1640625 130.921875 C-15.30941406 129.17970703 -15.30941406 129.17970703 -14.4375 127.40234375 C-13.83399931 126.18456557 -13.2298282 124.9671194 -12.625 123.75 C-5.70821282 109.83005967 -0.72279651 97.22214762 -0.68115234 81.51123047 C-0.67110672 80.62219528 -0.6610611 79.7331601 -0.65071106 78.81718445 C-0.6201459 75.91719126 -0.60291897 73.01728921 -0.5859375 70.1171875 C-0.56720434 68.09122955 -0.54762936 66.06527923 -0.5272522 64.03933716 C-0.47615186 58.73600787 -0.43640848 53.43265334 -0.39910889 48.12921143 C-0.35892996 42.70587027 -0.30790129 37.28263208 -0.2578125 31.859375 C-0.16131519 21.2396559 -0.07682738 10.61987836 0 0 Z " fill="#8319C4" transform="translate(482,455)"/>
<path d="M0 0 C13.53 0 27.06 0 41 0 C42.3158809 3.9476427 42.12300273 7.71089356 42.09765625 11.82421875 C42.0962413 12.68561966 42.09482635 13.54702057 42.09336853 14.43452454 C42.0877714 17.18555169 42.07521946 19.93649744 42.0625 22.6875 C42.05748463 24.5527332 42.05292179 26.41796767 42.04882812 28.28320312 C42.03780292 32.85550011 42.02054027 37.42773625 42 42 C37.84986713 43.15972768 33.83156611 43.1438434 29.55078125 43.1328125 C28.73755905 43.13376923 27.92433685 43.13472595 27.08647156 43.13571167 C25.3726697 43.13639076 23.65886524 43.1345554 21.94506836 43.13037109 C19.31162816 43.12499822 16.67835692 43.13033586 14.04492188 43.13671875 C12.38020796 43.13605833 10.71549414 43.13477791 9.05078125 43.1328125 C7.86335075 43.13584885 7.86335075 43.13584885 6.65193176 43.13894653 C1.11496487 43.11496487 1.11496487 43.11496487 0 42 C-0.08874135 38.89748799 -0.11518455 35.8173188 -0.09765625 32.71484375 C-0.0962413 31.78402481 -0.09482635 30.85320587 -0.09336853 29.8941803 C-0.08775172 26.90858809 -0.0751964 23.92306971 -0.0625 20.9375 C-0.05748716 18.91862087 -0.05292388 16.89974057 -0.04882812 14.88085938 C-0.03862587 9.92052129 -0.01905382 4.9603437 0 0 Z M2 2 C2 14.87 2 27.74 2 41 C14.54 41 27.08 41 40 41 C40 28.13 40 15.26 40 2 C27.46 2 14.92 2 2 2 Z " fill="#8D1FCC" transform="translate(686,216)"/>
<path d="M0 0 C12.21 0 24.42 0 37 0 C37 11.22 37 22.44 37 34 C37.99 34.495 37.99 34.495 39 35 C38.01 35.495 38.01 35.495 37 36 C36.67 36.99 36.34 37.98 36 39 C33 40 33 40 30 39 C27.7161483 38.91621372 25.429899 38.89270085 23.14453125 38.90234375 C22.48289474 38.9037587 21.82125824 38.90517365 21.13957214 38.90663147 C19.03050172 38.91222004 16.92153823 38.92477035 14.8125 38.9375 C13.38086091 38.94251648 11.94922015 38.94707913 10.51757812 38.95117188 C7.01168412 38.9621857 3.5058525 38.97944245 0 39 C-1.46013122 35.73979966 -2.24598501 33.34491225 -1.9765625 29.77734375 C-1.89921875 28.60655273 -1.89921875 28.60655273 -1.8203125 27.41210938 C-1.75585938 26.59548828 -1.69140625 25.77886719 -1.625 24.9375 C-1.51042832 23.23845408 -1.39844837 21.53923141 -1.2890625 19.83984375 C-1.23524414 19.01468262 -1.18142578 18.18952148 -1.12597656 17.33935547 C-0.90884033 13.30718604 -0.97079573 9.28498785 -1.0625 5.25 C-1 3 -1 3 0 0 Z M1 2 C1 13.55 1 25.1 1 37 C12.22 37 23.44 37 35 37 C35 25.45 35 13.9 35 2 C23.78 2 12.56 2 1 2 Z " fill="#9127CE" transform="translate(647,311)"/>
<path d="M0 0 C0.33 0.66 0.66 1.32 1 2 C-0.18354741 4.41790367 -1.41972331 6.72735233 -2.75 9.0625 C-11.41370874 24.76862772 -14.09009414 43.50434816 -10.24609375 61.25 C-9.33401418 64.28311167 -8.29913756 67.11402659 -7 70 C-6.69964844 70.72445312 -6.39929688 71.44890625 -6.08984375 72.1953125 C-5.17174664 74.22228014 -4.145275 76.09248512 -3 78 C-2.31357422 79.14855469 -2.31357422 79.14855469 -1.61328125 80.3203125 C8.92939292 96.60657429 24.63929405 105.80292867 43 111 C43 111.33 43 111.66 43 112 C37.66666667 111.33333333 32.33333333 110.66666667 27 110 C27 109.01 27 108.02 27 107 C26.29101562 106.7421875 25.58203125 106.484375 24.8515625 106.21875 C21.78795507 104.90937258 19.16677843 103.31504052 16.375 101.5 C15.43398438 100.8915625 14.49296875 100.283125 13.5234375 99.65625 C9.47143172 96.99672918 6.66208158 94.5957994 3.6015625 90.89453125 C2.06562721 89.02667424 2.06562721 89.02667424 0.5234375 87.51171875 C-11.02590349 75.56093008 -14.53201069 57.90149461 -14.41772461 41.92260742 C-13.98192249 26.61761963 -8.45662197 12.68493295 0 0 Z " fill="#9327CF" transform="translate(461,279)"/>
<path d="M0 0 C1.63001953 0.02707031 1.63001953 0.02707031 3.29296875 0.0546875 C4.54013672 0.08949219 4.54013672 0.08949219 5.8125 0.125 C5.8125 0.455 5.8125 0.785 5.8125 1.125 C5.11125 1.21136719 4.41 1.29773438 3.6875 1.38671875 C-4.32961231 2.57403565 -9.93532814 4.7016612 -15.5625 10.625 C-18.75335363 15.53400558 -19.76727689 19.23060159 -19.1875 25.125 C-17.05510654 32.86704218 -14.25712418 37.17293489 -7.2890625 41.23046875 C-0.17582369 44.25822282 7.91935357 41.58893319 14.8125 39.125 C11.52641544 43.23260569 7.9109076 44.53949383 2.8125 45.125 C-3.30993285 45.2196768 -8.36289016 43.9685289 -13.1875 40.125 C-17.58433666 35.85986582 -20.72241846 31.74290177 -21.5234375 25.51171875 C-21.61532836 19.16206036 -21.10697816 14.27135082 -17.1875 9.125 C-11.94925993 3.79190247 -7.70279891 -0.16565159 0 0 Z " fill="#BB3FF6" transform="translate(553.1875,717.875)"/>
<path d="M0 0 C5.75 0.75 5.75 0.75 8 3 C5.69 2.67 3.38 2.34 1 2 C0.82984375 2.556875 0.6596875 3.11375 0.484375 3.6875 C-1.00631524 8.38158842 -2.72120244 12.729007 -5.03515625 17.078125 C-6.05022237 19.02595346 -6.05022237 19.02595346 -6.87890625 21.25 C-8.3484455 24.85472345 -10.11027357 28.28241025 -11.875 31.75 C-15.06823727 38.06294713 -15.06823727 38.06294713 -18 44.5 C-19.8796649 48.84093015 -21.96264426 53.07495327 -24.0625 57.3125 C-24.40345703 58.00730469 -24.74441406 58.70210937 -25.09570312 59.41796875 C-26.81477266 62.86280985 -28.53462337 66.0123629 -31 69 C-30.39718748 65.3215296 -29.36777241 62.33703512 -27.734375 58.9921875 C-27.26265869 58.01854248 -26.79094238 57.04489746 -26.30493164 56.04174805 C-25.53524048 54.47420776 -25.53524048 54.47420776 -24.75 52.875 C-23.95613892 51.23881714 -23.95613892 51.23881714 -23.14624023 49.56958008 C-21.72767659 46.64617052 -20.30468255 43.72497025 -18.87982178 40.80462646 C-16.26315897 35.43751796 -13.66258277 30.06265667 -11.0625 24.6875 C-10.53172852 23.59872559 -10.00095703 22.50995117 -9.45410156 21.38818359 C-6.04892226 14.35490528 -2.92798439 7.24487404 0 0 Z " fill="#C24AF9" transform="translate(413,698)"/>
<path d="M0 0 C0.495 0.99 0.495 0.99 1 2 C-0.051875 1.855625 -1.10375 1.71125 -2.1875 1.5625 C-7.19061912 0.9247595 -12.21059636 0.60812831 -17.2421875 0.28125 C-20 0 -20 0 -22 -1 C-24.14404169 -1.09706713 -26.29126751 -1.12978536 -28.4375 -1.125 C-29.59121094 -1.12757813 -30.74492188 -1.13015625 -31.93359375 -1.1328125 C-35.04125667 -1.13895922 -35.04125667 -1.13895922 -38 0 C-39.39584695 0.01990006 -40.79260376 -0.00728036 -42.1875 -0.0625 C-49.52835386 -0.16066892 -56.74551171 0.99193215 -64 2 C-63.67 1.34 -63.34 0.68 -63 0 C-60.38232266 -0.62956797 -57.83950174 -1.13415623 -55.1875 -1.5625 C-54.41067871 -1.69108398 -53.63385742 -1.81966797 -52.83349609 -1.95214844 C-35.48874149 -4.74309344 -17.0115607 -5.12307808 0 0 Z " fill="#A437D8" transform="translate(579,692)"/>
<path d="M0 0 C1.2176555 3.65296651 0.72766204 4.17303558 -0.93432617 7.51220703 C-1.38196823 8.42390656 -1.82961029 9.33560608 -2.29081726 10.27493286 C-2.78652725 11.25928314 -3.28223724 12.24363342 -3.79296875 13.2578125 C-4.29540604 14.27543671 -4.79784332 15.29306091 -5.31550598 16.34152222 C-6.93021853 19.6073801 -8.55839159 22.86630284 -10.1875 26.125 C-11.79595242 29.36359834 -13.40161208 32.60356231 -15.00593567 35.84420776 C-16.00575456 37.86143377 -17.00844109 39.87724185 -18.01445007 41.89138794 C-20.82435446 47.53427952 -23.49827738 53.21358952 -26 59 C-27.35304209 54.94087374 -26.15216503 53.22850409 -24.5625 49.3125 C-24.08941406 48.13300781 -23.61632812 46.95351563 -23.12890625 45.73828125 C-22.75636719 44.83464844 -22.38382812 43.93101562 -22 43 C-21.34 43 -20.68 43 -20 43 C-20 41.68 -20 40.36 -20 39 C-19.34 39 -18.68 39 -18 39 C-17.73058594 38.12988281 -17.46117187 37.25976562 -17.18359375 36.36328125 C-16.04029315 33.11449639 -14.66416323 30.23188277 -13.0625 27.1875 C-10.81164126 22.7791108 -8.97387701 18.477193 -7.54296875 13.7421875 C-7 12 -7 12 -6 10 C-5.34 10 -4.68 10 -4 10 C-3.71125 9.0925 -3.4225 8.185 -3.125 7.25 C-2.23468224 4.67797092 -1.28505587 2.38653234 0 0 Z " fill="#8610D5" transform="translate(408,707)"/>
<path d="M0 0 C0.33 0.66 0.66 1.32 1 2 C0.401875 3.093125 -0.19625 4.18625 -0.8125 5.3125 C-3.96319521 11.23231834 -5 18.3209085 -5 25 C-7.4375 24.625 -7.4375 24.625 -10 24 C-10.33 23.34 -10.66 22.68 -11 22 C-13.11327425 21.09274566 -13.11327425 21.09274566 -15.5625 20.375 C-16.38878906 20.11460937 -17.21507812 19.85421875 -18.06640625 19.5859375 C-18.70449219 19.39257812 -19.34257812 19.19921875 -20 19 C-16.25 17.875 -16.25 17.875 -14 19 C-13.67 18.01 -13.34 17.02 -13 16 C-11.68 16.33 -10.36 16.66 -9 17 C-8.67 16.01 -8.34 15.02 -8 14 C-7.34 14 -6.68 14 -6 14 C-5.938125 13.175 -5.87625 12.35 -5.8125 11.5 C-4.76703783 6.99647063 -2.59542785 3.77342647 0 0 Z " fill="#951FD7" transform="translate(512,368)"/>
<path d="M0 0 C0.66 0.33 1.32 0.66 2 1 C1.43410156 1.53109375 0.86820312 2.0621875 0.28515625 2.609375 C-0.44832031 3.31578125 -1.18179687 4.0221875 -1.9375 4.75 C-2.66839844 5.44609375 -3.39929688 6.1421875 -4.15234375 6.859375 C-6.10394957 8.79442067 -6.10394957 8.79442067 -6.48046875 10.9375 C-7.27197611 14.0797247 -9.22460588 15.86995213 -11.375 18.25 C-12.16648437 19.14203125 -12.95796875 20.0340625 -13.7734375 20.953125 C-16 23 -16 23 -19 23 C-19.66 24.32 -20.32 25.64 -21 27 C-21 18.26693181 -7.17701466 7.23056613 -1.171875 1.1484375 C-0.78515625 0.76945313 -0.3984375 0.39046875 0 0 Z " fill="#A938DF" transform="translate(484,252)"/>
<path d="M0 0 C0.66 0.33 1.32 0.66 2 1 C-0.03977583 2.58581978 -2.08173308 4.16868908 -4.125 5.75 C-4.69476562 6.1934375 -5.26453125 6.636875 -5.8515625 7.09375 C-8.61753859 9.23109516 -11.37507856 11.24635337 -14.30078125 13.16796875 C-17.20227722 15.1372909 -18.83200271 17.27251954 -21 20 C-23.5 21.625 -23.5 21.625 -26 23 C-27.34631825 23.98244845 -28.68441297 24.97676564 -30 26 C-30.66 25.67 -31.32 25.34 -32 25 C-22.05075585 15.70206077 -11.50454305 7.31296535 0 0 Z " fill="#A43CDA" transform="translate(518,226)"/>
<path d="M0 0 C0 3 0 3 -1.875 5.25 C-9.15417348 12.03706034 -18.77362401 19.18751685 -29.125 19.25 C-30.548125 19.12625 -30.548125 19.12625 -32 19 C-32 18.67 -32 18.34 -32 18 C-31.09507812 17.80083984 -31.09507812 17.80083984 -30.171875 17.59765625 C-29.37265625 17.42105469 -28.5734375 17.24445312 -27.75 17.0625 C-26.96109375 16.88847656 -26.1721875 16.71445312 -25.359375 16.53515625 C-24.58078125 16.35855469 -23.8021875 16.18195312 -23 16 C-22.26265625 15.87496094 -21.5253125 15.74992188 -20.765625 15.62109375 C-20.18296875 15.41613281 -19.6003125 15.21117187 -19 15 C-18.67 14.01 -18.34 13.02 -18 12 C-16.29296875 10.90234375 -16.29296875 10.90234375 -14.1875 9.9375 C-13.15689453 9.45603516 -13.15689453 9.45603516 -12.10546875 8.96484375 C-10.719659 8.32978808 -9.33167817 7.6994454 -7.94140625 7.07421875 C-5.82945896 5.90563624 -4.4142782 4.61492721 -2.75 2.875 C-1.8425 1.92625 -0.935 0.9775 0 0 Z " fill="#8515C8" transform="translate(657,807)"/>
<path d="M0 0 C0.66 0.33 1.32 0.66 2 1 C0.29279724 2.25154366 -1.41581942 3.50115872 -3.125 4.75 C-4.1253125 5.48089844 -5.125625 6.21179688 -6.15625 6.96484375 C-8.28359991 8.48730158 -10.40919102 9.92761939 -12.625 11.3125 C-15.27608468 12.84460962 -15.27608468 12.84460962 -16 16 C-16.99 16 -17.98 16 -19 16 C-20.80593571 17.08433278 -20.80593571 17.08433278 -22.5625 18.5 C-25.79166667 21 -25.79166667 21 -28 21 C-27.64788178 18.44714288 -27.25548569 17.24565932 -25.375 15.4375 C-23 14 -23 14 -19.87890625 12.765625 C-15.37342755 10.8623069 -11.53745675 8.13097345 -7.5625 5.3125 C-6.83095703 4.80138672 -6.09941406 4.29027344 -5.34570312 3.76367188 C-3.55985228 2.51474351 -1.77936179 1.25815617 0 0 Z " fill="#9324D2" transform="translate(563,326)"/>
<path d="M0 0 C0.33 0 0.66 0 1 0 C1.33 10.89 1.66 21.78 2 33 C2.66 33.33 3.32 33.66 4 34 C3.01 34.495 3.01 34.495 2 35 C1.67 35.99 1.34 36.98 1 38 C-3.25061356 39.41687119 -5.71851625 38.19320039 -10 37 C-10 36.67 -10 36.34 -10 36 C-6.7 36 -3.4 36 0 36 C0 24.12 0 12.24 0 0 Z " fill="#7B1EB7" transform="translate(682,312)"/>
<path d="M0 0 C0.33 0 0.66 0 1 0 C1 7.59 1 15.18 1 23 C-4.625 17.375 -4.625 17.375 -5 14 C-4.01 13.67 -3.02 13.34 -2 13 C-1.34 8.71 -0.68 4.42 0 0 Z " fill="#7F09CA" transform="translate(501,363)"/>
<path d="M0 0 C-1.98 0.99 -1.98 0.99 -4 2 C-4 2.66 -4 3.32 -4 4 C-5.49609375 5.4375 -5.49609375 5.4375 -7.4375 7 C-10.15188238 9.14525044 -10.15188238 9.14525044 -12 12 C-12.66 12 -13.32 12 -14 12 C-14.28875 12.639375 -14.5775 13.27875 -14.875 13.9375 C-16 16 -16 16 -18 17 C-17.56562648 12.07710011 -15.356381 9.51249175 -12 6 C-10.68163705 5.30419733 -9.35208914 4.62775567 -8 4 C-7.67 3.01 -7.34 2.02 -7 1 C-2.55696203 -1.27848101 -2.55696203 -1.27848101 0 0 Z " fill="#8F1DD2" transform="translate(531,351)"/>
<path d="M0 0 C1.63001953 0.02707031 1.63001953 0.02707031 3.29296875 0.0546875 C4.54013672 0.08949219 4.54013672 0.08949219 5.8125 0.125 C5.8125 0.455 5.8125 0.785 5.8125 1.125 C5.11125 1.21136719 4.41 1.29773438 3.6875 1.38671875 C-4.32961231 2.57403565 -9.93532814 4.7016612 -15.5625 10.625 C-18.40320981 14.99532279 -19.4698033 18.98150696 -20.1875 24.125 C-20.5175 24.125 -20.8475 24.125 -21.1875 24.125 C-21.68329621 18.17544549 -20.66485112 14.0376013 -17.1875 9.125 C-11.97790454 3.77913746 -7.68132547 -0.1651898 0 0 Z " fill="#C64CF8" transform="translate(553.1875,717.875)"/>
<path d="M0 0 C0.33 0 0.66 0 1 0 C1.06058594 1.31355469 1.12117188 2.62710937 1.18359375 3.98046875 C1.26803256 5.71615541 1.35267888 7.45183198 1.4375 9.1875 C1.47681641 10.05181641 1.51613281 10.91613281 1.55664062 11.80664062 C1.76347016 15.95914122 2.00103531 19.94537862 3 24 C2.34 24.33 1.68 24.66 1 25 C-1.15245945 17.06280576 -2.65547571 7.96642714 0 0 Z " fill="#7F0ACB" transform="translate(489,338)"/>
<path d="M0 0 C0.66 0.33 1.32 0.66 2 1 C0.30021395 5.50046981 -1.79028347 9.7641271 -3.9375 14.0625 C-4.28490234 14.76955078 -4.63230469 15.47660156 -4.99023438 16.20507812 C-6.74287168 19.72025463 -8.47852347 22.95683867 -11 26 C-10.39458825 22.30090527 -9.34742345 19.28645598 -7.71484375 15.91796875 C-7.26689453 14.98662109 -6.81894531 14.05527344 -6.35742188 13.09570312 C-5.88884766 12.13599609 -5.42027344 11.17628906 -4.9375 10.1875 C-4.46505859 9.20845703 -3.99261719 8.22941406 -3.50585938 7.22070312 C-2.34229316 4.81129833 -1.17353704 2.40455993 0 0 Z " fill="#B33AF6" transform="translate(393,741)"/>
<path d="M0 0 C0.66 0.33 1.32 0.66 2 1 C-4.13907026 7.24063576 -10.2883812 13.36531717 -17 19 C-17 16 -17 16 -15.75 14.421875 C-15.1725 13.87015625 -14.595 13.3184375 -14 12.75 C-13.05060547 11.83927734 -13.05060547 11.83927734 -12.08203125 10.91015625 C-9.32915574 8.38453501 -6.53372942 5.91402703 -3.69921875 3.48046875 C-2.42270555 2.36828828 -1.19716986 1.19716986 0 0 Z " fill="#850FD0" transform="translate(527,282)"/>
<path d="M0 0 C0.66 0 1.32 0 2 0 C1.35014905 4.71370756 -0.51561392 8.57686444 -2.5625 12.8125 C-3.0565332 13.85180664 -3.0565332 13.85180664 -3.56054688 14.91210938 C-4.36872251 16.61044948 -5.18368377 18.30555769 -6 20 C-7.35304209 15.94087374 -6.15216503 14.22850409 -4.5625 10.3125 C-4.08941406 9.13300781 -3.61632812 7.95351563 -3.12890625 6.73828125 C-2.75636719 5.83464844 -2.38382812 4.93101562 -2 4 C-1.34 4 -0.68 4 0 4 C0 2.68 0 1.36 0 0 Z " fill="#8C10E0" transform="translate(388,746)"/>
<path d="M0 0 C0.55171875 0.25652344 1.1034375 0.51304687 1.671875 0.77734375 C-2.328125 3.77734375 -6.328125 6.77734375 -10.328125 9.77734375 C-10.988125 9.44734375 -11.648125 9.11734375 -12.328125 8.77734375 C-10.75934826 7.24149935 -9.17256346 5.72403044 -7.578125 4.21484375 C-6.69640625 3.36792969 -5.8146875 2.52101562 -4.90625 1.6484375 C-2.328125 -0.22265625 -2.328125 -0.22265625 0 0 Z " fill="#AF3BE3" transform="translate(498.328125,242.22265625)"/>
<path d="M0 0 C4.55384615 -0.36923077 4.55384615 -0.36923077 6.8125 1.5 C7.204375 1.995 7.59625 2.49 8 3 C3.59085217 4.10228696 -0.48382401 4.07654536 -5 4 C-5.33 3.34 -5.66 2.68 -6 2 C-4.02 2 -2.04 2 0 2 C0 1.34 0 0.68 0 0 Z " fill="#BA42F2" transform="translate(460,703)"/>
<path d="M0 0 C0 3 0 3 -1.19335938 4.44213867 C-1.73798828 4.9291626 -2.28261719 5.41618652 -2.84375 5.91796875 C-3.72353516 6.71557617 -3.72353516 6.71557617 -4.62109375 7.52929688 C-5.24113281 8.07650391 -5.86117188 8.62371094 -6.5 9.1875 C-7.12003906 9.74630859 -7.74007813 10.30511719 -8.37890625 10.88085938 C-9.91268445 12.26125975 -11.45550825 13.63159728 -13 15 C-13 12 -13 12 -11.42578125 10.09765625 C-10.37970703 9.09025391 -10.37970703 9.09025391 -9.3125 8.0625 C-8.58675781 7.36253906 -7.86101562 6.66257813 -7.11328125 5.94140625 C-4.82673367 3.84082557 -2.48434533 1.863259 0 0 Z " fill="#C845FB" transform="translate(491,248)"/>
<path d="M0 0 C6.14154225 0.58490879 12.00679849 1.54066252 18 3 C18 3.33 18 3.66 18 4 C17.39671875 3.98839844 16.7934375 3.97679687 16.171875 3.96484375 C15.37265625 3.95582031 14.5734375 3.94679688 13.75 3.9375 C12.96109375 3.92589844 12.1721875 3.91429687 11.359375 3.90234375 C9.09308998 3.99614694 7.1711105 4.36758937 5 5 C5 4.01 5 3.02 5 2 C3.35 1.67 1.7 1.34 0 1 C0 0.67 0 0.34 0 0 Z " fill="#9E33D5" transform="translate(416,698)"/>
<path d="M0 0 C1.19354714 3.58064141 0.75567655 4.15153288 -0.8125 7.4375 C-1.16957031 8.19933594 -1.52664063 8.96117187 -1.89453125 9.74609375 C-2.25933594 10.48988281 -2.62414062 11.23367188 -3 12 C-3.50080078 13.06927734 -3.50080078 13.06927734 -4.01171875 14.16015625 C-5 16 -5 16 -7 18 C-6.44380331 13.3110507 -5.11817327 9.80075733 -2.9375 5.625 C-2.38964844 4.56539062 -1.84179688 3.50578125 -1.27734375 2.4140625 C-0.85582031 1.61742187 -0.43429687 0.82078125 0 0 Z " fill="#A516F8" transform="translate(355,746)"/>
<path d="M0 0 C4 1 4 1 5.08203125 2.70703125 C5.32308594 3.40183594 5.56414063 4.09664062 5.8125 4.8125 C6.19341797 5.84310547 6.19341797 5.84310547 6.58203125 6.89453125 C7 9 7 9 6 13 C4.02 8.71 2.04 4.42 0 0 Z " fill="#A316F2" transform="translate(594,688)"/>
<path d="M0 0 C0.66 0.33 1.32 0.66 2 1 C1.319375 1.5878125 1.319375 1.5878125 0.625 2.1875 C-1.15854233 3.96339368 -1.15854233 3.96339368 -2 6.5625 C-3 9 -3 9 -6 11 C-5.55530671 5.96014269 -3.28656638 3.62365012 0 0 Z " fill="#A221E6" transform="translate(519,357)"/>
<path d="M0 0 C-1.45365269 1.17249353 -2.91307419 2.33783816 -4.375 3.5 C-5.18710937 4.1496875 -5.99921875 4.799375 -6.8359375 5.46875 C-9 7 -9 7 -11 7 C-9.91072362 3.73217086 -9.31652071 3.18062667 -6.625 1.25 C-6.01914062 0.80140625 -5.41328125 0.3528125 -4.7890625 -0.109375 C-3 -1 -3 -1 0 0 Z " fill="#9C1BE2" transform="translate(573,252)"/>
<path d="M0 0 C0.33 1.32 0.66 2.64 1 4 C0.01 4 -0.98 4 -2 4 C-2.103125 4.7425 -2.20625 5.485 -2.3125 6.25 C-3.04253504 9.17014018 -4.06789398 10.73187554 -6 13 C-6 11.35 -6 9.7 -6 8 C-5.34 8 -4.68 8 -4 8 C-3.71125 7.05125 -3.4225 6.1025 -3.125 5.125 C-2 2 -2 2 0 0 Z " fill="#8918D2" transform="translate(415,694)"/>
<path d="M0 0 C0.66 0.33 1.32 0.66 2 1 C-1.515625 5.6875 -1.515625 5.6875 -3 7 C-4.32 7 -5.64 7 -7 7 C-5.66667905 3.00003714 -3.5042173 2.16217663 0 0 Z " fill="#9B1ADF" transform="translate(582,243)"/>
<path d="M0 0 C1.37562854 1.28965176 2.70766393 2.62689293 4 4 C4 6 4 6 2.625 7.5 C2.08875 7.995 1.5525 8.49 1 9 C0.34 9.66 -0.32 10.32 -1 11 C-0.67 7.37 -0.34 3.74 0 0 Z " fill="#D054FC" transform="translate(609,122)"/>
<path d="M0 0 C1.5 1.375 1.5 1.375 3 3 C3 3.66 3 4.32 3 5 C-3.625 4.25 -3.625 4.25 -7 2 C-4.03 2.495 -4.03 2.495 -1 3 C-0.67 2.01 -0.34 1.02 0 0 Z " fill="#AE20F8" transform="translate(499,384)"/>
<path d="M0 0 C4.31457305 0.319598 6.90647504 3.25801197 10 6 C9.67 6.66 9.34 7.32 9 8 C8.52949219 7.66226562 8.05898438 7.32453125 7.57421875 6.9765625 C6.95160156 6.53054688 6.32898438 6.08453125 5.6875 5.625 C5.07261719 5.18414062 4.45773437 4.74328125 3.82421875 4.2890625 C2.2347608 3.16589093 0.61937829 2.07958553 -1 1 C-0.67 0.67 -0.34 0.34 0 0 Z " fill="#9626D6" transform="translate(470,374)"/>
<path d="M0 0 C0.33 0.66 0.66 1.32 1 2 C1.66 2 2.32 2 3 2 C3.66 4.64 4.32 7.28 5 10 C4.34 10 3.68 10 3 10 C1.68 7.03 0.36 4.06 -1 1 C-0.67 0.67 -0.34 0.34 0 0 Z " fill="#A316F0" transform="translate(579,654)"/>
<path d="M0 0 C0.99 0.33 1.98 0.66 3 1 C-1.625 5.875 -1.625 5.875 -5 7 C-4.6189482 4.23737447 -4.16402868 3.15856106 -2.125 1.1875 C-1.42375 0.795625 -0.7225 0.40375 0 0 Z " fill="#A627E8" transform="translate(540,340)"/>
<path d="M0 0 C0.33 0.66 0.66 1.32 1 2 C-0.32 1.67 -1.64 1.34 -3 1 C-2.01 0.67 -1.02 0.34 0 0 Z " fill="#AF3FEC" transform="translate(459,365)"/>
<path d="M0 0 C0.99 0.33 1.98 0.66 3 1 C2.01 1 1.02 1 0 1 C0 0.67 0 0.34 0 0 Z " fill="#C35FF2" transform="translate(536,210)"/>
<path d="M0 0 C3 1 3 1 3 1 Z " fill="#BE4FF1" transform="translate(472,701)"/>
<path d="M0 0 C0.66 0.66 1.32 1.32 2 2 C1.34 2 0.68 2 0 2 C0 1.34 0 0.68 0 0 Z " fill="#AD3BEA" transform="translate(580,667)"/>
<path d="M0 0 C2 1 2 1 2 1 Z " fill="#BA4AF2" transform="translate(432,699)"/>
<path d="M0 0 C2 1 2 1 2 1 Z " fill="#BE52ED" transform="translate(529,688)"/>
<path d="" fill="#A438DD" transform="translate(0,0)"/>
<path d="" fill="#AE36E8" transform="translate(0,0)"/>
<path d="" fill="#AB30EC" transform="translate(0,0)"/>
<path d="" fill="#AD30EC" transform="translate(0,0)"/>
<path d="M0 0 C2 1 2 1 2 1 Z " fill="#A938E8" transform="translate(496,391)"/>
<path d="M0 0 C2 1 2 1 2 1 Z " fill="#AF37EF" transform="translate(490,389)"/>
<path d="M0 0 C2 1 2 1 2 1 Z " fill="#AF3DEE" transform="translate(474,380)"/>
<path d="" fill="#B13EED" transform="translate(0,0)"/>
<path d="" fill="#BC58EC" transform="translate(0,0)"/>
<path d="" fill="#C861F0" transform="translate(0,0)"/>
<path d="" fill="#51504F" transform="translate(0,0)"/>
<path d="" fill="#474746" transform="translate(0,0)"/>
<path d="" fill="#A22CE6" transform="translate(0,0)"/>
<path d="" fill="#A12DE4" transform="translate(0,0)"/>
<path d="" fill="#9F2DE1" transform="translate(0,0)"/>
<path d="" fill="#9D2FDB" transform="translate(0,0)"/>
<path d="" fill="#992ADA" transform="translate(0,0)"/>
<path d="" fill="#9A2DD8" transform="translate(0,0)"/>
<path d="" fill="#9931D4" transform="translate(0,0)"/>
<path d="" fill="#9532DA" transform="translate(0,0)"/>
<path d="" fill="#9830D7" transform="translate(0,0)"/>
<path d="" fill="#972FD7" transform="translate(0,0)"/>
<path d="" fill="#9833DA" transform="translate(0,0)"/>
<path d="" fill="#982FE1" transform="translate(0,0)"/>
<path d="" fill="#9F33E2" transform="translate(0,0)"/>
<path d="" fill="#9E32E3" transform="translate(0,0)"/>
<path d="" fill="#9C33DE" transform="translate(0,0)"/>
<path d="" fill="#9B34E0" transform="translate(0,0)"/>
<path d="" fill="#9F34DF" transform="translate(0,0)"/>
<path d="" fill="#A232E7" transform="translate(0,0)"/>
<path d="" fill="#9D32E0" transform="translate(0,0)"/>
<path d="" fill="#9D2FDE" transform="translate(0,0)"/>
<path d="" fill="#A233E3" transform="translate(0,0)"/>
<path d="" fill="#A137E6" transform="translate(0,0)"/>
<path d="" fill="#9F34E5" transform="translate(0,0)"/>
<path d="" fill="#BC4CF0" transform="translate(0,0)"/>
<path d="" fill="#BA4BEE" transform="translate(0,0)"/>
<path d="" fill="#C153F4" transform="translate(0,0)"/>
<path d="" fill="#B447EE" transform="translate(0,0)"/>
<path d="" fill="#AB3CE3" transform="translate(0,0)"/>
<path d="" fill="#BD56EC" transform="translate(0,0)"/>
<path d="" fill="#BD4DF0" transform="translate(0,0)"/>
<path d="" fill="#AD39EA" transform="translate(0,0)"/>
<path d="" fill="#B03AEB" transform="translate(0,0)"/>
<path d="" fill="#B747EE" transform="translate(0,0)"/>
<path d="" fill="#B64AF1" transform="translate(0,0)"/>
<path d="" fill="#C150F1" transform="translate(0,0)"/>
<path d="" fill="#BE53EC" transform="translate(0,0)"/>
<path d="" fill="#BD4EF0" transform="translate(0,0)"/>
<path d="" fill="#9F33E3" transform="translate(0,0)"/>
<path d="" fill="#A932E7" transform="translate(0,0)"/>
<path d="" fill="#AA34EC" transform="translate(0,0)"/>
<path d="" fill="#AE37ED" transform="translate(0,0)"/>
<path d="" fill="#A435DF" transform="translate(0,0)"/>
<path d="" fill="#9F33DF" transform="translate(0,0)"/>
<path d="" fill="#AD3BEA" transform="translate(0,0)"/>
<path d="" fill="#B03CEC" transform="translate(0,0)"/>
<path d="" fill="#B03DEE" transform="translate(0,0)"/>
<path d="" fill="#A736E2" transform="translate(0,0)"/>
<path d="" fill="#AC32EC" transform="translate(0,0)"/>
<path d="" fill="#AB36EF" transform="translate(0,0)"/>
<path d="" fill="#AC33E8" transform="translate(0,0)"/>
<path d="" fill="#B139F0" transform="translate(0,0)"/>
<path d="" fill="#AD35E9" transform="translate(0,0)"/>
<path d="" fill="#A436E3" transform="translate(0,0)"/>
<path d="" fill="#AC33EC" transform="translate(0,0)"/>
<path d="" fill="#A635E4" transform="translate(0,0)"/>
<path d="" fill="#A736E1" transform="translate(0,0)"/>
<path d="" fill="#AF37EE" transform="translate(0,0)"/>
<path d="" fill="#AC33EA" transform="translate(0,0)"/>
<path d="" fill="#AD36E8" transform="translate(0,0)"/>
<path d="" fill="#B03AEE" transform="translate(0,0)"/>
<path d="" fill="#AE36EE" transform="translate(0,0)"/>
<path d="" fill="#A433E5" transform="translate(0,0)"/>
<path d="" fill="#A439E3" transform="translate(0,0)"/>
<path d="" fill="#A339DA" transform="translate(0,0)"/>
<path d="" fill="#A535E4" transform="translate(0,0)"/>
<path d="" fill="#AB34ED" transform="translate(0,0)"/>
<path d="" fill="#A434E6" transform="translate(0,0)"/>
<path d="" fill="#A333E8" transform="translate(0,0)"/>
<path d="" fill="#AD30EC" transform="translate(0,0)"/>
<path d="" fill="#AC33EE" transform="translate(0,0)"/>
<path d="" fill="#B031EF" transform="translate(0,0)"/>
<path d="" fill="#AF30EC" transform="translate(0,0)"/>
<path d="" fill="#AB31ED" transform="translate(0,0)"/>
<path d="" fill="#A537E3" transform="translate(0,0)"/>
<path d="" fill="#A633E3" transform="translate(0,0)"/>
<path d="" fill="#AA2FEE" transform="translate(0,0)"/>
<path d="" fill="#AA30EE" transform="translate(0,0)"/>
<path d="" fill="#AC32E8" transform="translate(0,0)"/>
<path d="" fill="#A633E7" transform="translate(0,0)"/>
<path d="" fill="#A835E2" transform="translate(0,0)"/>
<path d="" fill="#AB30ED" transform="translate(0,0)"/>
<path d="" fill="#A331E6" transform="translate(0,0)"/>
<path d="" fill="#A531E5" transform="translate(0,0)"/>
<path d="" fill="#AA34E8" transform="translate(0,0)"/>
<path d="" fill="#A435DD" transform="translate(0,0)"/>
<path d="" fill="#A536EA" transform="translate(0,0)"/>
<path d="" fill="#AA2DEA" transform="translate(0,0)"/>
<path d="" fill="#AB33EB" transform="translate(0,0)"/>
<path d="" fill="#AF34F1" transform="translate(0,0)"/>
<path d="" fill="#AF36EE" transform="translate(0,0)"/>
<path d="" fill="#AE31EC" transform="translate(0,0)"/>
<path d="" fill="#B335F4" transform="translate(0,0)"/>
<path d="" fill="#B031EE" transform="translate(0,0)"/>
<path d="" fill="#AF30F2" transform="translate(0,0)"/>
<path d="" fill="#A938E4" transform="translate(0,0)"/>
<path d="" fill="#A739E0" transform="translate(0,0)"/>
<path d="" fill="#A23ED9" transform="translate(0,0)"/>
<path d="" fill="#A941DE" transform="translate(0,0)"/>
<path d="" fill="#AB42E1" transform="translate(0,0)"/>
<path d="" fill="#B23AEA" transform="translate(0,0)"/>
<path d="" fill="#B13DED" transform="translate(0,0)"/>
<path d="" fill="#B23DEB" transform="translate(0,0)"/>
<path d="" fill="#B23FED" transform="translate(0,0)"/>
<path d="" fill="#B340EC" transform="translate(0,0)"/>
<path d="" fill="#AD3EEE" transform="translate(0,0)"/>
<path d="" fill="#AF36EE" transform="translate(0,0)"/>
<path d="" fill="#AE40EE" transform="translate(0,0)"/>
<path d="" fill="#AE38F1" transform="translate(0,0)"/>
<path d="" fill="#9F3CD6" transform="translate(0,0)"/>
<path d="" fill="#A641DF" transform="translate(0,0)"/>
<path d="" fill="#A63BE2" transform="translate(0,0)"/>
<path d="" fill="#AA41E3" transform="translate(0,0)"/>
<path d="" fill="#AB40E6" transform="translate(0,0)"/>
<path d="" fill="#AF44EA" transform="translate(0,0)"/>
<path d="" fill="#B943F4" transform="translate(0,0)"/>
<path d="" fill="#AF3EE9" transform="translate(0,0)"/>
<path d="" fill="#BB46F2" transform="translate(0,0)"/>
<path d="" fill="#B945F4" transform="translate(0,0)"/>
<path d="" fill="#674D73" transform="translate(0,0)"/>
<path d="" fill="#BB46F1" transform="translate(0,0)"/>
<path d="" fill="#A739E4" transform="translate(0,0)"/>
<path d="" fill="#B750E4" transform="translate(0,0)"/>
<path d="" fill="#B54CE9" transform="translate(0,0)"/>
<path d="" fill="#BA51E8" transform="translate(0,0)"/>
<path d="" fill="#B954EA" transform="translate(0,0)"/>
<path d="" fill="#BC57E9" transform="translate(0,0)"/>
<path d="" fill="#C04BF3" transform="translate(0,0)"/>
<path d="" fill="#BB54EC" transform="translate(0,0)"/>
<path d="" fill="#BA54E6" transform="translate(0,0)"/>
<path d="" fill="#A73CE8" transform="translate(0,0)"/>
<path d="" fill="#BF4EF3" transform="translate(0,0)"/>
<path d="" fill="#AD40E5" transform="translate(0,0)"/>
<path d="" fill="#C059EE" transform="translate(0,0)"/>
<path d="" fill="#BD5FEE" transform="translate(0,0)"/>
<path d="" fill="#BE5FEB" transform="translate(0,0)"/>
<path d="" fill="#BB53EF" transform="translate(0,0)"/>
<path d="" fill="#BB5CF0" transform="translate(0,0)"/>
<path d="" fill="#BF4EF4" transform="translate(0,0)"/>
<path d="" fill="#C361EE" transform="translate(0,0)"/>
<path d="" fill="#C362F0" transform="translate(0,0)"/>
<path d="" fill="#C55CF2" transform="translate(0,0)"/>
<path d="" fill="#B33FEB" transform="translate(0,0)"/>
<path d="" fill="#C05AF3" transform="translate(0,0)"/>
<path d="" fill="#B143EC" transform="translate(0,0)"/>
<path d="" fill="#B044E8" transform="translate(0,0)"/>
<path d="" fill="#C461F2" transform="translate(0,0)"/>
<path d="" fill="#C360F1" transform="translate(0,0)"/>
<path d="" fill="#C360EE" transform="translate(0,0)"/>
<path d="" fill="#C257F6" transform="translate(0,0)"/>
<path d="" fill="#C05DEE" transform="translate(0,0)"/>
<path d="" fill="#C461F1" transform="translate(0,0)"/>
<path d="" fill="#C861F0" transform="translate(0,0)"/>
<path d="" fill="#C464EF" transform="translate(0,0)"/>
<path d="" fill="#C35FEE" transform="translate(0,0)"/>
<path d="" fill="#C462F3" transform="translate(0,0)"/>
<path d="" fill="#C35FF3" transform="translate(0,0)"/>
<path d="" fill="#C25CF1" transform="translate(0,0)"/>
<path d="" fill="#C461F0" transform="translate(0,0)"/>
<path d="" fill="#C25DF1" transform="translate(0,0)"/>
<path d="" fill="#C562F1" transform="translate(0,0)"/>
<path d="" fill="#C05FEB" transform="translate(0,0)"/>
<path d="" fill="#C665F2" transform="translate(0,0)"/>
<path d="" fill="#C366EB" transform="translate(0,0)"/>
<path d="" fill="#C665EC" transform="translate(0,0)"/>
<path d="" fill="#C564EF" transform="translate(0,0)"/>
<path d="" fill="#C05CEC" transform="translate(0,0)"/>
<path d="" fill="#C263E9" transform="translate(0,0)"/>
<path d="" fill="#C162EC" transform="translate(0,0)"/>
<path d="" fill="#C264EA" transform="translate(0,0)"/>
<path d="" fill="#C063ED" transform="translate(0,0)"/>
<path d="" fill="#B95EE2" transform="translate(0,0)"/>
<path d="" fill="#B964E1" transform="translate(0,0)"/>
<path d="" fill="#B864E0" transform="translate(0,0)"/>
</svg>
