<?xml version="1.0" encoding="UTF-8"?>
<svg version="1.1" xmlns="http://www.w3.org/2000/svg" width="1024" height="1024">
<path d="M0 0 C337.92 0 675.84 0 1024 0 C1024 337.92 1024 675.84 1024 1024 C686.08 1024 348.16 1024 0 1024 C0 686.08 0 348.16 0 0 Z " fill="#0A0B0B" transform="translate(0,0)"/>
<path d="M0 0 C3.2007722 1.34319622 4.63639776 2.49518783 6.296875 5.53515625 C6.69406738 6.2526001 7.09125977 6.97004395 7.50048828 7.70922852 C8.11899658 8.8740979 8.11899658 8.8740979 8.75 10.0625 C9.18683105 10.87323975 9.62366211 11.68397949 10.07373047 12.51928711 C11.39965311 15.00424486 12.70275774 17.49996999 14 20 C14.36706055 20.69609375 14.73412109 21.3921875 15.11230469 22.109375 C24.53873197 40.16262687 30.22641634 59.91531141 33.64599609 79.93310547 C33.95927931 81.76224735 34.29988488 83.58666364 34.64453125 85.41015625 C36.96885689 98.10197757 37.23719665 111.00236015 37.25 123.875 C37.25100708 124.58833496 37.25201416 125.30166992 37.25305176 126.03662109 C37.2054504 176.35965979 19.94554337 220.69129513 -15 257 C-15.60118652 257.62841797 -16.20237305 258.25683594 -16.82177734 258.90429688 C-39.39917244 282.38524239 -70.26277941 306.59886748 -103 313 C-101.66713605 310.17665937 -100.16498391 307.70990541 -98.3125 305.19921875 C-97.78390381 304.47750488 -97.25530762 303.75579102 -96.71069336 303.01220703 C-95.86390015 301.86147705 -95.86390015 301.86147705 -95 300.6875 C-84.50542441 286.2655953 -74.93304755 271.44160801 -66 256 C-65.46971191 255.08605469 -64.93942383 254.17210937 -64.39306641 253.23046875 C-34.09111793 200.51874845 -20.41411971 141.06885116 -15 81 C-15.22026855 81.93755127 -15.44053711 82.87510254 -15.66748047 83.84106445 C-30.24940493 145.69729397 -48.83993097 205.6388304 -79.1875 261.75 C-79.60837891 262.53503906 -80.02925781 263.32007813 -80.46289062 264.12890625 C-82.8564499 268.43498534 -85.3377469 271.69551585 -89 275 C-88.9292627 274.41001221 -88.85852539 273.82002441 -88.78564453 273.2121582 C-87.74044748 262.96500227 -87.84939061 252.71271336 -87.86962891 242.4230957 C-87.87492416 239.23318586 -87.86969411 236.04342082 -87.86328125 232.85351562 C-87.86010911 222.76547322 -87.99668978 212.70953497 -88.48828125 202.6328125 C-89.06283277 190.8206097 -89.25477772 179.02010694 -89.29516602 167.19458008 C-89.30669576 164.86183613 -89.32716305 162.52911877 -89.35668945 160.1965332 C-89.62833871 138.54198996 -88.29285461 116.75062251 -80.9375 96.1875 C-80.55392334 95.08059814 -80.17034668 93.97369629 -79.77514648 92.83325195 C-73.92985714 76.56957333 -65.763392 61.52238887 -55 48 C-54.56719727 47.4544043 -54.13439453 46.90880859 -53.68847656 46.34667969 C-38.45081182 27.34690341 -20.40415445 13.15726408 0 0 Z " fill="#1C7F8D" transform="translate(637,233)"/>
<path d="M0 0 C4.49035058 1.49678353 5.7372278 4.75291894 8.125 8.6875 C8.60783447 9.48260986 9.09066895 10.27771973 9.58813477 11.09692383 C17.73052759 24.94848908 23.69525192 40.27741063 27 56 C27.29648437 57.25554687 27.59296875 58.51109375 27.8984375 59.8046875 C32.59810656 82.01534448 32.70280644 109.98849082 27 132 C26.82307617 132.68562012 26.64615234 133.37124023 26.46386719 134.07763672 C20.59793544 155.92544643 10.06678478 174.29895935 -5 191 C-5.93005291 192.05176032 -6.85974075 193.10384358 -7.7890625 194.15625 C-21.66797155 209.73735853 -38.03960059 221.52116412 -56 232 C-57.04800781 232.61230469 -58.09601563 233.22460938 -59.17578125 233.85546875 C-64.79241697 237.03895748 -64.79241697 237.03895748 -67 238 C-67.66 237.67 -68.32 237.34 -69 237 C-64.69365398 229.21377842 -60.32503927 221.48354927 -55.68408203 213.89086914 C-38.44138658 185.62466253 -24.49342811 155.60905094 -17.4375 123.125 C-17.29069794 122.45799072 -17.14389587 121.79098145 -16.99264526 121.10375977 C-13.52567202 105.21754376 -11.64162869 89.16276561 -10 73 C-10.14397217 73.60320068 -10.28794434 74.20640137 -10.4362793 74.82788086 C-19.27741723 111.37328109 -30.75259072 147.5565456 -46.75 181.625 C-47.17361816 182.53137207 -47.59723633 183.43774414 -48.03369141 184.37158203 C-51.06131662 190.61525445 -54.50257046 196.6836908 -59 202 C-59.66 202 -60.32 202 -61 202 C-61.6995239 197.66333726 -62.39299553 193.32575898 -63.08129883 188.98730469 C-63.31538619 187.51699862 -63.55101698 186.0469373 -63.78833008 184.57714844 C-71.93477645 134.07951468 -66.62844014 79.82172721 -36.76953125 36.78515625 C-28.16550817 25.00192879 -18.1257721 14.20726087 -6.8125 5 C-5.85887573 4.21580688 -5.85887573 4.21580688 -4.88598633 3.41577148 C-3.08203125 2 -3.08203125 2 0 0 Z " fill="#1B7F8D" transform="translate(501,319)"/>
<path d="M0 0 C10.56 0 21.12 0 32 0 C33.78613744 5.60351732 35.57190277 11.20715024 37.3565979 16.81112671 C37.99235019 18.80728295 38.62823416 20.80339725 39.26425171 22.79946899 C42.64745522 33.41894194 46.02203765 44.04079759 49.34375 54.6796875 C49.59916061 55.49686752 49.85457123 56.31404755 50.11772156 57.1559906 C51.3192922 61.00158707 52.51740634 64.84820699 53.71020508 68.6965332 C54.1361159 70.06204746 54.56213461 71.42752807 54.98828125 72.79296875 C55.35477783 73.9739917 55.72127441 75.15501465 56.09887695 76.37182617 C56.74901299 78.89552706 56.74901299 78.89552706 58 80 C58.35585678 78.8727224 58.35585678 78.8727224 58.71890259 77.72267151 C60.98046975 70.56029918 63.24483018 63.39881833 65.51215553 56.23826694 C66.67706916 52.55897009 67.84098566 48.87936463 69.00244141 45.19897461 C73.78306527 30.05253685 78.56946794 14.92945275 84 0 C93.9 0 103.8 0 114 0 C114 35.64 114 71.28 114 108 C107.4 108 100.8 108 94 108 C94 80.28 94 52.56 94 24 C91.545625 31.6725 89.09125 39.345 86.5625 47.25 C77.13475841 76.71443781 77.13475841 76.71443781 72.625 90.75 C72.2751001 91.83958008 71.9252002 92.92916016 71.56469727 94.05175781 C71.24686279 95.04014648 70.92902832 96.02853516 70.6015625 97.046875 C70.33682129 97.87026367 70.07208008 98.69365234 69.79931641 99.54199219 C68.88092986 102.36615704 67.93911346 105.18265961 67 108 C60.4 108 53.8 108 47 108 C38.07284909 80.74439457 29.48236935 53.39805299 21 26 C20.67 53.39 20.34 80.78 20 109 C13.4 109 6.8 109 0 109 C0 73.03 0 37.06 0 0 Z " fill="#1B8290" transform="translate(169,603)"/>
<path d="M0 0 C0.66 0 1.32 0 2 0 C22.94177364 24.21149294 27.34090868 56.08460539 26 87 C25.51111958 92.47546074 24.43154643 97.68902472 23 103 C22.73316406 104.01191406 22.46632813 105.02382813 22.19140625 106.06640625 C16.22995865 125.96439357 4.22891682 142.24489828 -10 157 C-10.66128906 157.71285156 -11.32257813 158.42570313 -12.00390625 159.16015625 C-16.21638441 163.59880774 -20.57705363 167.70868542 -26.9375 168.25 C-27.618125 168.1675 -28.29875 168.085 -29 168 C-28.43678267 163.96041044 -27.55325645 160.50464793 -25.9609375 156.75390625 C-25.54875977 155.76414795 -25.13658203 154.77438965 -24.71191406 153.75463867 C-24.27073242 152.70123291 -23.82955078 151.64782715 -23.375 150.5625 C-11.1864402 120.64571912 -4.34200461 90.28225462 -3 58 C-3.34667725 59.22178955 -3.69335449 60.4435791 -4.05053711 61.70239258 C-15.68653159 102.64435138 -15.68653159 102.64435138 -21 118.6875 C-21.50454712 120.22917847 -21.50454712 120.22917847 -22.01928711 121.80200195 C-27.80841287 138.90420644 -27.80841287 138.90420644 -32 141 C-32.96418334 137.5432712 -33.92023933 134.08434213 -34.875 130.625 C-35.14441406 129.65949219 -35.41382813 128.69398438 -35.69140625 127.69921875 C-36.48758542 124.80578714 -37.25212766 121.90626962 -38 119 C-38.20810303 118.2174585 -38.41620605 117.43491699 -38.63061523 116.62866211 C-40.35061174 109.33350452 -40.33775794 101.99537513 -40.31567383 94.54321289 C-40.31253007 92.33363678 -40.33598916 90.12542569 -40.36132812 87.91601562 C-40.49019625 58.72321147 -28.5243932 32.71287847 -9.55078125 10.9453125 C-7.90898361 9.04957678 -6.31746416 7.10847531 -4.79296875 5.1171875 C-4.20128906 4.41851562 -3.60960937 3.71984375 -3 3 C-2.34 3 -1.68 3 -1 3 C-0.67 2.01 -0.34 1.02 0 0 Z " fill="#1B808E" transform="translate(387,397)"/>
<path d="M0 0 C5.92066834 4.98385373 10.97565484 10.39247114 12.5625 18.1875 C12.5625 20.4975 12.5625 22.8075 12.5625 25.1875 C6.2925 25.1875 0.0225 25.1875 -6.4375 25.1875 C-7.118125 23.62 -7.79875 22.0525 -8.5 20.4375 C-11.08027974 15.2549495 -13.1363656 13.40433802 -18.4375 11.1875 C-24.97884918 9.17689583 -32.76300309 8.98678718 -39 11.9375 C-41.93995597 13.53076646 -43.70118065 15.3194725 -45.4375 18.1875 C-46.27469384 22.82600641 -46.08594715 26.91762434 -43.9375 31.125 C-38.25793538 35.81064081 -30.88347412 36.81704872 -23.8425293 38.22827148 C5.07750532 44.03868027 5.07750532 44.03868027 12.453125 54.328125 C12.81921875 54.94171875 13.1853125 55.5553125 13.5625 56.1875 C13.96984375 56.84234375 14.3771875 57.4971875 14.796875 58.171875 C18.87255664 65.82075699 18.81107541 74.77065772 16.4375 83 C12.5058872 92.8924451 5.85560852 97.72361172 -3.54296875 102.1875 C-16.45691677 107.54897942 -34.72937709 107.12951208 -47.53515625 101.9296875 C-58.90515914 96.54760435 -64.8467185 91.04344714 -69.1875 79.12890625 C-70.16018235 75.98795283 -70.4375 73.51115916 -70.4375 70.1875 C-63.5075 70.1875 -56.5775 70.1875 -49.4375 70.1875 C-48.1175 73.1575 -46.7975 76.1275 -45.4375 79.1875 C-39.34578072 85.55611561 -33.10152461 87.34715755 -24.5625 87.625 C-17.27587062 87.45281327 -10.55612793 86.39785228 -5.3125 81 C-3.71317522 75.8593132 -3.38870172 71.23949664 -5.875 66.375 C-12.66717771 60.57679952 -21.12436121 59.24281765 -29.6875 57.75 C-55.58954888 52.86905552 -55.58954888 52.86905552 -62.4375 44.1875 C-67.7603539 35.26962959 -70.18366343 26.86172146 -67.82421875 16.4921875 C-64.57672155 7.36486057 -58.38112452 0.70725239 -49.90625 -3.83984375 C-34.830553 -9.77947754 -13.53908289 -9.43939798 0 0 Z " fill="#1B8290" transform="translate(548.4375,608.8125)"/>
<path d="M0 0 C5.18692333 5.57594258 7.59047529 11.0790757 7.67358398 18.68041992 C7.68707382 19.67212692 7.70056366 20.66383392 7.71446228 21.68559265 C7.73011986 23.28561882 7.73011986 23.28561882 7.74609375 24.91796875 C7.77904297 27.18815474 7.81225443 29.45833694 7.84570312 31.72851562 C7.89300954 35.29855652 7.93742923 38.86858323 7.97680664 42.4387207 C8.01673833 45.89030099 8.06824098 49.34156542 8.12109375 52.79296875 C8.1295079 53.84953171 8.13792206 54.90609467 8.14659119 55.99467468 C8.16323318 57.00214249 8.17987518 58.00961029 8.19702148 59.04760742 C8.21248268 60.35854622 8.21248268 60.35854622 8.22825623 61.69596863 C8.59629345 65.74756066 9.61746756 69.71610404 10.5 73.6875 C4.23 73.6875 -2.04 73.6875 -8.5 73.6875 C-9.49 70.7175 -10.48 67.7475 -11.5 64.6875 C-12.28310547 65.48414063 -12.28310547 65.48414063 -13.08203125 66.296875 C-20.40056842 73.32061995 -27.39785793 76.80012255 -37.625 77.125 C-45.6035008 76.80503425 -52.12366369 74.99400672 -57.9921875 69.3984375 C-63.24334678 63.43986817 -64.22373749 57.68654609 -63.94140625 49.80859375 C-63.01047299 43.22615415 -59.70497183 39.4271176 -54.625 35.375 C-46.95261673 29.77319715 -39.03468924 28.8176514 -29.8125 27.625 C-27.39108062 27.30716477 -24.97045513 26.98320525 -22.55078125 26.65234375 C-21.48512939 26.5143335 -20.41947754 26.37632324 -19.3215332 26.23413086 C-16.69195507 25.72468849 -14.80291476 25.02182469 -12.5 23.6875 C-11.88866642 17.55322936 -11.88866642 17.55322936 -14.375 12.1875 C-18.17866325 9.50256123 -21.275377 9.43987783 -25.8125 9.375 C-27.12863281 9.33761719 -28.44476562 9.30023437 -29.80078125 9.26171875 C-34.04697776 9.75045731 -35.56912817 10.63917976 -38.5 13.6875 C-39.16 15.0075 -39.82 16.3275 -40.5 17.6875 C-46.77 17.6875 -53.04 17.6875 -59.5 17.6875 C-58.12176741 9.41810444 -54.87288914 4.16507202 -48.32421875 -1.0625 C-35.68042229 -9.7263434 -12.23845448 -9.14854766 0 0 Z " fill="#1C8492" transform="translate(725.5,637.3125)"/>
<path d="M0 0 C8.12288767 6.66535339 12.68038286 13.90191432 14.75 24.25 C14.75 29.53 14.75 34.81 14.75 40.25 C-3.4 40.25 -21.55 40.25 -40.25 40.25 C-37.83183303 52.2032645 -37.83183303 52.2032645 -30.93359375 59.33203125 C-26.52071784 61.73812368 -22.13945132 61.81964481 -17.25 61.25 C-13.01129634 59.88171671 -10.00810285 58.47757859 -7.62890625 54.625 C-4.91673338 51.91728061 -4.36307059 51.88827591 -0.703125 51.76171875 C1.03192356 51.79483036 2.76663171 51.85428808 4.5 51.9375 C5.83224609 51.97133789 5.83224609 51.97133789 7.19140625 52.00585938 C9.37932812 52.06467448 11.56379671 52.14678732 13.75 52.25 C12.86256439 59.26880888 10.07654217 64.32393476 4.73828125 69.01953125 C-5.97473043 76.61672983 -17.35838683 78.90940699 -30.25 77.25 C-39.05006269 75.2141646 -46.49569355 71.30366597 -52.25 64.25 C-57.69878623 55.41920853 -60.63932724 46.79820205 -60.5625 36.4375 C-60.55686035 35.64214844 -60.5512207 34.84679687 -60.54541016 34.02734375 C-60.2997038 22.11666747 -56.10480567 12.26867976 -48 3.4375 C-35.61498878 -8.20441055 -13.90661849 -9.79486877 0 0 Z " fill="#1B8290" transform="translate(843.25,636.75)"/>
<path d="M0 0 C4.9100982 3.72458019 8.0739126 7.70897048 10.0546875 13.55859375 C10.29519653 16.55158997 10.29519653 16.55158997 10.28173828 19.90942383 C10.28158722 21.17035355 10.28143616 22.43128326 10.28128052 23.73042297 C10.27106886 25.09632527 10.2606369 26.46222594 10.25 27.828125 C10.24626691 29.23345234 10.24342133 30.63878228 10.24142456 32.04411316 C10.23381139 35.73159043 10.21418303 39.41890857 10.1920166 43.10632324 C10.17150809 46.87359464 10.16241217 50.64089191 10.15234375 54.40820312 C10.13093473 61.79174739 10.09577172 69.17512794 10.0546875 76.55859375 C3.7846875 76.55859375 -2.4853125 76.55859375 -8.9453125 76.55859375 C-8.95989502 75.02525391 -8.97447754 73.49191406 -8.98950195 71.91210938 C-9.04764828 66.20159044 -9.12488087 60.49145906 -9.20776367 54.78125 C-9.24093613 52.31386626 -9.26899176 49.84640804 -9.29174805 47.37890625 C-9.32543463 43.82389709 -9.37775952 40.26956577 -9.43359375 36.71484375 C-9.43998367 35.61869751 -9.4463736 34.52255127 -9.45295715 33.39318848 C-9.57248137 27.11042906 -10.18818485 22.24359713 -12.9453125 16.55859375 C-16.91938506 13.53072894 -20.76217702 13.02170673 -25.6328125 13.2109375 C-29.56757246 13.8024808 -32.78251006 15.13998012 -35.9453125 17.55859375 C-39.24673644 22.56397843 -40.04158854 27.6283966 -40.15063477 33.5324707 C-40.17057999 34.49308914 -40.19052521 35.45370758 -40.21107483 36.44343567 C-40.23614357 37.97963814 -40.23614357 37.97963814 -40.26171875 39.546875 C-40.28249985 40.60521042 -40.30328094 41.66354584 -40.32469177 42.75395203 C-40.38994353 46.12626816 -40.44895887 49.49866049 -40.5078125 52.87109375 C-40.5510209 55.16081509 -40.59463593 57.4505288 -40.63867188 59.74023438 C-40.74559996 65.34627657 -40.84693594 70.95239523 -40.9453125 76.55859375 C-47.2153125 76.55859375 -53.4853125 76.55859375 -59.9453125 76.55859375 C-59.9453125 51.14859375 -59.9453125 25.73859375 -59.9453125 -0.44140625 C-54.3353125 -0.44140625 -48.7253125 -0.44140625 -42.9453125 -0.44140625 C-40.89832836 1.60557789 -41.24485557 5.86270616 -40.9453125 8.55859375 C-40.47222656 8.0275 -39.99914062 7.49640625 -39.51171875 6.94921875 C-29.17266218 -4.09523154 -13.74241409 -8.16678817 0 0 Z " fill="#1B8391" transform="translate(397.9453125,634.44140625)"/>
<path d="M0 0 C6.70593943 5.44455351 9.69500539 11.35169099 12.03515625 19.65234375 C12.03515625 20.31234375 12.03515625 20.97234375 12.03515625 21.65234375 C5.10515625 21.65234375 -1.82484375 21.65234375 -8.96484375 21.65234375 C-9.62484375 19.34234375 -10.28484375 17.03234375 -10.96484375 14.65234375 C-11.45984375 13.16734375 -11.45984375 13.16734375 -11.96484375 11.65234375 C-14.38867452 10.48280959 -14.38867452 10.48280959 -16.96484375 9.65234375 C-17.62484375 9.32234375 -18.28484375 8.99234375 -18.96484375 8.65234375 C-24.92430485 8.02119919 -29.69093437 8.60970372 -34.96484375 11.65234375 C-41.38061069 17.9222978 -43.13515298 24.19004216 -43.33984375 33.02734375 C-43.12498257 42.41584296 -41.83213616 49.95254628 -34.96484375 56.65234375 C-29.88229408 59.92050208 -23.76019936 59.21457974 -17.96484375 58.65234375 C-14.25913672 57.40664068 -14.25913672 57.40664068 -11.96484375 54.65234375 C-10.97484375 52.01234375 -9.98484375 49.37234375 -8.96484375 46.65234375 C-2.03484375 46.65234375 4.89515625 46.65234375 12.03515625 46.65234375 C9.59660577 56.40654566 6.71472769 64.0656793 -1.96484375 69.65234375 C-12.77194104 75.3819686 -24.05774037 77.74112984 -36.1796875 74.8984375 C-41.25406713 73.12344874 -45.66935126 70.92509993 -49.96484375 67.65234375 C-50.78984375 67.11609375 -51.61484375 66.57984375 -52.46484375 66.02734375 C-60.87027266 58.04218628 -63.99333315 47.62870687 -64.3671875 36.3737793 C-64.48028801 27.81976761 -64.10457805 20.33486006 -59.96484375 12.65234375 C-59.56394531 11.86859375 -59.16304687 11.08484375 -58.75 10.27734375 C-54.06131498 2.23183207 -45.71470127 -4.44003813 -36.671875 -6.94921875 C-23.49693784 -8.88838699 -11.02043579 -7.94948543 0 0 Z " fill="#1B8391" transform="translate(639.96484375,638.34765625)"/>
<path d="M0 0 C6.27 0 12.54 0 19 0 C19 7.26 19 14.52 19 22 C24.94 22 30.88 22 37 22 C37 26.95 37 31.9 37 37 C31.06 37 25.12 37 19 37 C19.0971233 42.58714575 19.19997128 48.17358223 19.31738281 53.76025391 C19.35557692 55.65927778 19.39044625 57.55837164 19.421875 59.45751953 C19.46773387 62.19328763 19.52569337 64.92857792 19.5859375 67.6640625 C19.59748871 68.50804596 19.60903992 69.35202942 19.62094116 70.22158813 C19.73530412 74.82827631 20.13643656 78.70398704 22 83 C24.98098187 85.25552168 28.09110256 85.36365018 31.75 85.625 C34.34875 85.810625 34.34875 85.810625 37 86 C37 90.95 37 95.9 37 101 C33.33252724 101.1085765 29.66831194 101.18759858 26 101.25 C24.97003906 101.28351563 23.94007813 101.31703125 22.87890625 101.3515625 C16.35870075 101.43462244 11.40898094 100.82861045 6 97 C1.63451917 92.51963809 -0.25862735 88.07890197 -0.22705078 81.8425293 C-0.22689972 80.84186935 -0.22674866 79.84120941 -0.22659302 78.81022644 C-0.21627045 77.7423439 -0.20594788 76.67446136 -0.1953125 75.57421875 C-0.1924826 74.47149124 -0.18965271 73.36876373 -0.18673706 72.23262024 C-0.17555981 68.71746886 -0.15045937 65.20257411 -0.125 61.6875 C-0.11496704 59.30143598 -0.10584174 56.91536795 -0.09765625 54.52929688 C-0.07562845 48.68609934 -0.04111513 42.84309315 0 37 C-4.62 37 -9.24 37 -14 37 C-14 32.05 -14 27.1 -14 22 C-9.38 22 -4.76 22 0 22 C0 14.74 0 7.48 0 0 Z " fill="#1C8391" transform="translate(433,611)"/>
<path d="M0 0 C6.27 0 12.54 0 19 0 C19 35.64 19 71.28 19 108 C12.73 108 6.46 108 0 108 C0 72.36 0 36.72 0 0 Z " fill="#1B8492" transform="translate(751,603)"/>
<path d="M0 0 C6.6 0 13.2 0 20 0 C20 25.74 20 51.48 20 78 C13.4 78 6.8 78 0 78 C0 52.26 0 26.52 0 0 Z " fill="#1B7E8C" transform="translate(301,633)"/>
<path d="M0 0 C0.71681416 15.92920354 0.71681416 15.92920354 -4.39453125 21.52734375 C-9.2842512 25.7981118 -12.98947063 27.30045631 -19.4375 27.375 C-21.10619141 27.41753906 -21.10619141 27.41753906 -22.80859375 27.4609375 C-26.64571607 26.90673868 -28.25546795 25.67977902 -31 23 C-32.73383086 19.53233829 -32.4665538 15.79157105 -32 12 C-29.50191437 7.58031003 -26.580202 5.98176749 -22 4 C-19.12790622 3.28680941 -16.23691144 2.81908664 -13.3125 2.375 C-8.9557534 1.67910505 -4.3166665 0 0 0 Z " fill="#0C0C0D" transform="translate(714,673)"/>
<path d="M0 0 C7.59 0 15.18 0 23 0 C23 7.92 23 15.84 23 24 C15.41 24 7.82 24 0 24 C0 16.08 0 8.16 0 0 Z " fill="#1C8594" transform="translate(675,183)"/>
<path d="M0 0 C6.6 0 13.2 0 20 0 C20 25.74 20 51.48 20 78 C13.4 78 6.8 78 0 78 C0 52.26 0 26.52 0 0 Z M3 3 C3 27.09 3 51.18 3 76 C7.62 76 12.24 76 17 76 C17 51.91 17 27.82 17 3 C12.38 3 7.76 3 3 3 Z " fill="#1C8695" transform="translate(301,633)"/>
<path d="M0 0 C4.53333292 2.02380934 6.7294164 4.55141023 9.23828125 8.828125 C10.37713194 12.07530952 10.57318373 15.58546986 11 19 C-0.55 19 -12.1 19 -24 19 C-22.99628129 10.97025028 -22.25143279 7.86435746 -16.375 2.6875 C-11.24803916 -0.9553406 -6.13691958 -0.56228321 0 0 Z " fill="#0B0B0B" transform="translate(828,646)"/>
<path d="M0 0 C6.93 0 13.86 0 21 0 C21 6.6 21 13.2 21 20 C14.07 20 7.14 20 0 20 C0 13.4 0 6.8 0 0 Z " fill="#1C8694" transform="translate(660,229)"/>
<path d="M0 0 C6.6 0 13.2 0 20 0 C20 5.61 20 11.22 20 17 C13.4 17 6.8 17 0 17 C0 11.39 0 5.78 0 0 Z " fill="#1A7B89" transform="translate(301,603)"/>
<path d="M0 0 C5.94 0 11.88 0 18 0 C18 5.94 18 11.88 18 18 C12.06 18 6.12 18 0 18 C0 12.06 0 6.12 0 0 Z " fill="#1D8998" transform="translate(691,263)"/>
<path d="M0 0 C6.6 0 13.2 0 20 0 C20 5.61 20 11.22 20 17 C13.4 17 6.8 17 0 17 C0 11.39 0 5.78 0 0 Z M2 2 C2 6.29 2 10.58 2 15 C7.28 15 12.56 15 18 15 C18 10.71 18 6.42 18 2 C12.72 2 7.44 2 2 2 Z " fill="#1D8D9E" transform="translate(301,603)"/>
<path d="M0 0 C1.84036681 2.76055022 2.68344114 4.74598117 3.625 7.875 C3.88539063 8.71804688 4.14578125 9.56109375 4.4140625 10.4296875 C5.00963022 13.04224458 5.10525251 15.33041371 5 18 C4.34 17.67 3.68 17.34 3 17 C2.67 39.44 2.34 61.88 2 85 C1.67 85 1.34 85 1 85 C0.67 56.95 0.34 28.9 0 0 Z " fill="#080000" transform="translate(189,626)"/>
<path d="M0 0 C0.33 0 0.66 0 1 0 C1 16.17 1 32.34 1 49 C0.67 49 0.34 49 0 49 C-0.33 46.69 -0.66 44.38 -1 42 C-1.33 42 -1.66 42 -2 42 C-2.02886984 38.02084841 -2.04675406 34.04172347 -2.0625 30.0625 C-2.07087891 28.92619141 -2.07925781 27.78988281 -2.08789062 26.61914062 C-2.09111328 25.53955078 -2.09433594 24.45996094 -2.09765625 23.34765625 C-2.10289307 22.34742432 -2.10812988 21.34719238 -2.11352539 20.31665039 C-2 18 -2 18 -1 17 C-0.76298761 14.14122091 -0.57780818 11.30116703 -0.4375 8.4375 C-0.39431641 7.63119141 -0.35113281 6.82488281 -0.30664062 5.99414062 C-0.20024738 3.99631195 -0.09959112 1.9981793 0 0 Z " fill="#0D1516" transform="translate(549,447)"/>
<path d="M0 0 C6.27 0 12.54 0 19 0 C18.06555763 5.6066542 17.22480085 7.63091498 14 12 C14 8.13304322 15.41909971 5.4911548 17 2 C14.37493198 1.97309156 11.75013827 1.95320596 9.125 1.9375 C8.37863281 1.92912109 7.63226562 1.92074219 6.86328125 1.91210938 C2.80154422 1.79311916 2.80154422 1.79311916 -1 3 C-0.67 2.01 -0.34 1.02 0 0 Z " fill="#20A1B3" transform="translate(838,689)"/>
<path d="M0 0 C2.08450753 2.70191298 3.90686411 5.46679811 5.6875 8.375 C9.46802564 14.0598599 13.77890877 18.19472719 20.5 19.875 C21.7375 19.936875 21.7375 19.936875 23 20 C23 20.66 23 21.32 23 22 C23.66 22.33 24.32 22.66 25 23 C17.62766017 22.68628341 12.45158837 19.33928072 7.19921875 14.2578125 C3.48951004 10.11545786 0 5.75637267 0 0 Z " fill="#209FB2" transform="translate(786,689)"/>
<path d="M0 0 C2.14526367 0.3918457 2.14526367 0.3918457 4 1 C2.04761147 3.00612399 0.08862178 5.00492433 -1.875 7 C-2.43058594 7.57234375 -2.98617188 8.1446875 -3.55859375 8.734375 C-5.00134404 10.19450782 -6.4974374 11.60149298 -8 13 C-8.66 13 -9.32 13 -10 13 C-9.45575015 8.98731042 -7.47927799 7.01583154 -4.6875 4.1875 C-3.51767578 2.97126953 -3.51767578 2.97126953 -2.32421875 1.73046875 C-1.55722656 1.15941406 -0.79023438 0.58835937 0 0 Z " fill="#1D8A9B" transform="translate(487,330)"/>
<path d="M0 0 C-0.66 0 -1.32 0 -2 0 C-2 0.66 -2 1.32 -2 2 C-3.86328125 3.40234375 -3.86328125 3.40234375 -6.3125 4.9375 C-9.20022762 6.75569887 -11.681564 8.48648525 -14 11 C-14.66 10.67 -15.32 10.34 -16 10 C-12.7747372 4.22140415 -7.23717205 -2.60085871 0 0 Z " fill="#1D8D9D" transform="translate(375,633)"/>
<path d="M0 0 C0.33 0 0.66 0 1 0 C0.43434519 7.67846322 -0.1876779 15.34343208 -1 23 C-1.66 22.34 -2.32 21.68 -3 21 C-3.66 21.33 -4.32 21.66 -5 22 C-4.35706295 18.89522615 -3.71015082 15.7912937 -3.0625 12.6875 C-2.88009766 11.80642578 -2.69769531 10.92535156 -2.50976562 10.01757812 C-2.33251953 9.17001953 -2.15527344 8.32246094 -1.97265625 7.44921875 C-1.72914429 6.27879028 -1.72914429 6.27879028 -1.48071289 5.0847168 C-1 3 -1 3 0 0 Z " fill="#0D1517" transform="translate(622,311)"/>
<path d="M0 0 C3.63 0 7.26 0 11 0 C11 4.62 11 9.24 11 14 C10.34 14 9.68 14 9 14 C9 10.04 9 6.08 9 2 C6.03 1.67 3.06 1.34 0 1 C0 0.67 0 0.34 0 0 Z " fill="#1F96A7" transform="translate(459,697)"/>
<path d="M0 0 C4.48211297 1.49403766 6.85817408 4.97401143 9 9 C9.6432469 11.40518406 9.84672564 13.49651886 10 16 C9.01 15.67 8.02 15.34 7 15 C6.24025447 13.08411998 5.4904365 11.16264265 4.828125 9.2109375 C3.58677882 5.89677742 1.82754467 3.02490152 0 0 Z " fill="#1E93A3" transform="translate(398,636)"/>
<path d="M0 0 C2.62113708 0 4.50935112 0.31292445 7 1 C6.5206753 5.31392226 5.2542015 7.16569547 2 10 C0.68373308 6.38026598 0 3.90432869 0 0 Z " fill="#1D8E9D" transform="translate(353,528)"/>
<path d="M0 0 C0.33 0 0.66 0 1 0 C1.33 1.65 1.66 3.3 2 5 C2.66 4.67 3.32 4.34 4 4 C4.33 5.65 4.66 7.3 5 9 C4.01 9.33 3.02 9.66 2 10 C1.67 14.95 1.34 19.9 1 25 C0.67 25 0.34 25 0 25 C0 16.75 0 8.5 0 0 Z " fill="#0F1315" transform="translate(191,638)"/>
<path d="M0 0 C0.66 0 1.32 0 2 0 C2 5.28 2 10.56 2 16 C1.01 16 0.02 16 -1 16 C-1.02712153 14.083412 -1.04645097 12.1667127 -1.0625 10.25 C-1.07410156 9.18265625 -1.08570313 8.1153125 -1.09765625 7.015625 C-1.01510087 4.46631499 -0.74617558 2.42066409 0 0 Z " fill="#1A7784" transform="translate(549,408)"/>
<path d="M0 0 C0.93972656 0.6496875 0.93972656 0.6496875 1.8984375 1.3125 C2.71570313 1.869375 3.53296875 2.42625 4.375 3 C5.18710937 3.556875 5.99921875 4.11375 6.8359375 4.6875 C8.86318187 6.17285844 8.86318187 6.17285844 11 6 C11 6.66 11 7.32 11 8 C13.31 8.66 15.62 9.32 18 10 C15.3864045 10.9861483 14.2405193 11.08441302 11.5625 10.14453125 C2.67314702 5.5236938 2.67314702 5.5236938 0 2 C0 1.34 0 0.68 0 0 Z " fill="#1F9AAC" transform="translate(486,651)"/>
<path d="M0 0 C1.84036681 2.76055022 2.68344114 4.74598117 3.625 7.875 C3.88539063 8.71804688 4.14578125 9.56109375 4.4140625 10.4296875 C5.00963022 13.04224458 5.10525251 15.33041371 5 18 C2.37448713 16.68724357 2.30493495 15.6756418 1.375 12.9375 C-0.0563123 8.44936494 -0.25551673 4.68447333 0 0 Z " fill="#090A0B" transform="translate(189,626)"/>
<path d="M0 0 C0.66 0 1.32 0 2 0 C3.38232443 1.62626404 4.71937515 3.2925002 6 5 C5.67 5.66 5.34 6.32 5 7 C4.34 6.34 3.68 5.68 3 5 C1.05925139 5.27617533 1.05925139 5.27617533 -1 6 C-2.33333333 6.33333333 -3.66666667 6.66666667 -5 7 C-4.34 5.68 -3.68 4.36 -3 3 C-2.34 3 -1.68 3 -1 3 C-0.67 2.01 -0.34 1.02 0 0 Z " fill="#1F98A7" transform="translate(387,397)"/>
<path d="M0 0 C0.33 0 0.66 0 1 0 C1.02725341 1.7290774 1.04650987 3.45828176 1.0625 5.1875 C1.07410156 6.15042969 1.08570313 7.11335938 1.09765625 8.10546875 C1.00486622 10.85576513 0.62111685 13.32479591 0 16 C-0.33 16 -0.66 16 -1 16 C-1.22127098 13.70954632 -1.4266504 11.41755236 -1.625 9.125 C-1.74101562 7.84882813 -1.85703125 6.57265625 -1.9765625 5.2578125 C-1.98816406 3.64519531 -1.98816406 3.64519531 -2 2 C-1.34 1.34 -0.68 0.68 0 0 Z " fill="#197582" transform="translate(385,468)"/>
<path d="M0 0 C0.33 0 0.66 0 1 0 C1.33 1.65 1.66 3.3 2 5 C2.33 5 2.66 5 3 5 C2.25 11.625 2.25 11.625 0 15 C0 10.05 0 5.1 0 0 Z " fill="#0D1517" transform="translate(596,664)"/>
<path d="M0 0 C2.33177975 0.34403308 4.66487041 0.67949202 7 1 C7 1.33 7 1.66 7 2 C2.05 2 -2.9 2 -8 2 C-8 1.34 -8 0.68 -8 0 C-4.58093993 -1.13968669 -3.4454041 -0.78304639 0 0 Z " fill="#0C1517" transform="translate(519,619)"/>
<path d="M0 0 C1 2 1 2 1 4 C2.98 3.34 4.96 2.68 7 2 C4.45368965 4.97069541 1.57769851 6.4775751 -2 8 C-2.66 7.67 -3.32 7.34 -4 7 C-2.68 4.69 -1.36 2.38 0 0 Z " fill="#20A7BA" transform="translate(436,549)"/>
<path d="M0 0 C0.8125 1.6875 0.8125 1.6875 1 4 C-1.3125 6.75 -1.3125 6.75 -4 9 C-4.66 9 -5.32 9 -6 9 C-6 6 -6 6 -3.5625 3.375 C-2.716875 2.59125 -1.87125 1.8075 -1 1 C-0.67 0.67 -0.34 0.34 0 0 Z " fill="#1E8796" transform="translate(488,514)"/>
<path d="M0 0 C3.3 0 6.6 0 10 0 C10 0.66 10 1.32 10 2 C10.99 2.33 11.98 2.66 13 3 C8.17639811 3.19294408 4.50353262 2.75747614 0 1 C0 0.67 0 0.34 0 0 Z " fill="#1D95A6" transform="translate(509,663)"/>
<path d="M0 0 C0.33 3.63 0.66 7.26 1 11 C-2 8 -2 8 -2.125 5.4375 C-2.08375 4.633125 -2.0425 3.82875 -2 3 C-2.33 2.34 -2.66 1.68 -3 1 C-1 0 -1 0 0 0 Z " fill="#0D1215" transform="translate(487,414)"/>
<path d="M0 0 C0.99 0 1.98 0 3 0 C2.34 1.65 1.68 3.3 1 5 C0.34 5 -0.32 5 -1 5 C-1.33 5.99 -1.66 6.98 -2 8 C-2.33 7.34 -2.66 6.68 -3 6 C-2.06553465 3.96855359 -1.06775224 1.96466413 0 0 Z " fill="#0D1516" transform="translate(571,467)"/>
<path d="M0 0 C0.99 0 1.98 0 3 0 C3.1953125 6.0546875 3.1953125 6.0546875 3 8 C2.34 8.66 1.68 9.32 1 10 C-0.60725635 6.78548731 -0.05748185 3.56387464 0 0 Z " fill="#197683" transform="translate(548,369)"/>
<path d="M0 0 C0.33 0 0.66 0 1 0 C0.375 7.625 0.375 7.625 -3 11 C-2.67 8.03 -2.34 5.06 -2 2 C-1.34 2 -0.68 2 0 2 C0 1.34 0 0.68 0 0 Z " fill="#209EB0" transform="translate(564,686)"/>
<path d="M0 0 C2 3 2 3 1.625 5.6875 C1.41875 6.450625 1.2125 7.21375 1 8 C0.01 8.33 -0.98 8.66 -2 9 C-1.34 6.03 -0.68 3.06 0 0 Z " fill="#0B1214" transform="translate(651,686)"/>
<path d="M0 0 C0.99 0.495 0.99 0.495 2 1 C2 1.66 2 2.32 2 3 C2.66 3 3.32 3 4 3 C4.33 4.65 4.66 6.3 5 8 C4.01 8 3.02 8 2 8 C1.34 5.36 0.68 2.72 0 0 Z " fill="#1D90A2" transform="translate(386,651)"/>
<path d="M0 0 C2.31 0.33 4.62 0.66 7 1 C6.67 1.99 6.34 2.98 6 4 C4.02 3.34 2.04 2.68 0 2 C0 1.34 0 0.68 0 0 Z " fill="#0C1517" transform="translate(507,641)"/>
<path d="M0 0 C0.66 0.33 1.32 0.66 2 1 C1.67 1.99 1.34 2.98 1 4 C-1.47739354 4.90837763 -3.33579484 5 -6 5 C-4.02 3.35 -2.04 1.7 0 0 Z " fill="#209DB0" transform="translate(801,636)"/>
<path d="M0 0 C0.66 0.33 1.32 0.66 2 1 C1.01 2.98 0.02 4.96 -1 7 C-1.66 7 -2.32 7 -3 7 C-2.625 4.0625 -2.625 4.0625 -2 1 C-1.34 0.67 -0.68 0.34 0 0 Z " fill="#0C1315" transform="translate(457,510)"/>
</svg>
