<?xml version="1.0" encoding="UTF-8"?>
<svg version="1.1" xmlns="http://www.w3.org/2000/svg" width="1024" height="1024">
<path d="M0 0 C337.92 0 675.84 0 1024 0 C1024 337.92 1024 675.84 1024 1024 C686.08 1024 348.16 1024 0 1024 C0 686.08 0 348.16 0 0 Z " fill="#060606" transform="translate(0,0)"/>
<path d="M0 0 C1.65727205 2.15684684 3.15330348 4.28384503 4.625 6.5625 C5.06376465 7.23434326 5.5025293 7.90618652 5.95458984 8.59838867 C25.22210881 38.46269665 36.80485056 71.51366312 41.67529297 106.66308594 C41.88215822 108.15189359 42.09652675 109.63969173 42.32080078 111.12597656 C51.97953481 175.99715692 35.1237553 244.25824331 -3.671875 296.8984375 C-18.50750395 316.66268144 -35.91832365 335.48699211 -56 350 C-57.06605469 350.77601563 -58.13210938 351.55203125 -59.23046875 352.3515625 C-76.33939738 364.47993822 -94.60087041 374.08924383 -114 382 C-115.21816406 382.50015625 -116.43632813 383.0003125 -117.69140625 383.515625 C-124.42573824 386.2064009 -124.42573824 386.2064009 -127 387 C-127.66 386.67 -128.32 386.34 -129 386 C-128.36578125 385.19304687 -127.7315625 384.38609375 -127.078125 383.5546875 C-93.94295096 340.70254295 -66.88804198 292.33307134 -49.96533203 240.85522461 C-49.03010412 238.0890409 -48.02146928 235.3612677 -46.9921875 232.62890625 C-44.62560618 226.17448861 -42.86665306 219.58344064 -41.125 212.9375 C-40.95325256 212.28328064 -40.78150513 211.62906128 -40.60455322 210.95501709 C-39.38665735 206.30748381 -38.19139125 201.65439227 -37 197 C-36.71833984 195.9176709 -36.43667969 194.8353418 -36.14648438 193.72021484 C-28.16531724 162.77091228 -24.48900505 130.81069868 -22 99 C-22.14953125 100.13824219 -22.2990625 101.27648437 -22.453125 102.44921875 C-27.91374598 139.71739667 -40.38578924 176.2835572 -52 212 C-52.36285095 213.11595551 -52.36285095 213.11595551 -52.73303223 214.25445557 C-58.36275184 231.51252605 -64.64997497 248.39912642 -72 265 C-72.73259033 266.66047363 -72.73259033 266.66047363 -73.47998047 268.35449219 C-85.07326643 294.43847101 -98.81165366 318.54179894 -115 342 C-116.72681608 338.54636784 -115.49332185 334.55859818 -115.0703125 330.80883789 C-113.67094653 316.94775231 -113.77484354 303.1142596 -113.86307526 289.20046878 C-113.88344603 285.54155167 -113.89013581 281.88260982 -113.89794922 278.22364807 C-113.91989494 268.96154219 -113.95895708 259.69953801 -114 250.4375 C-114.04435546 240.42519886 -114.08544663 230.4129406 -114.10683632 220.40055996 C-114.11504922 216.78342672 -114.12741395 213.16641733 -114.15032959 209.54934502 C-114.50454744 153.07387789 -103.57270556 100.58709474 -67 56 C-66.56816406 55.46665039 -66.13632812 54.93330078 -65.69140625 54.38378906 C-56.02172753 42.49288704 -16.76913531 -5.58971177 0 0 Z " fill="#1F7183" transform="translate(668,245)"/>
<path d="M0 0 C4.13670105 1.37890035 5.38340989 4.19287457 7.5625 7.75 C7.99796143 8.45882324 8.43342285 9.16764648 8.88208008 9.89794922 C22.11990404 31.95386055 30.22902433 55.59507736 34 81 C34.17732666 82.19206055 34.35465332 83.38412109 34.53735352 84.61230469 C35.89759117 94.26395118 36.36333941 103.75958649 36.3125 113.5 C36.31067719 114.23334564 36.30885437 114.96669128 36.30697632 115.72225952 C36.25194671 128.97901871 35.36103204 141.93388782 33 155 C32.8443457 155.87833496 32.68869141 156.75666992 32.52832031 157.66162109 C26.5748605 189.6807777 10.01672212 218.95477672 -11.921875 242.734375 C-13.81818331 244.8017788 -15.63029606 246.91750093 -17.4375 249.0625 C-21.58114085 253.80350783 -26.25060593 257.87939895 -31 262 C-31.95648438 262.8559375 -32.91296875 263.711875 -33.8984375 264.59375 C-48.36400551 277.37355948 -66.62220591 290.67645795 -85 297 C-85.66 296.67 -86.32 296.34 -87 296 C-86.64550781 295.44957031 -86.29101562 294.89914062 -85.92578125 294.33203125 C-84.3592498 291.88551118 -82.80189869 289.43336485 -81.25 286.97753906 C-80.36341674 285.57493664 -79.47523222 284.17334578 -78.5859375 282.77246094 C-66.9774008 264.44436741 -56.33646633 245.59073898 -47 226 C-46.64873047 225.26700684 -46.29746094 224.53401367 -45.93554688 223.77880859 C-28.22403756 186.5206027 -17.5683147 146.24179067 -13.375 105.25 C-13.2409375 103.96867187 -13.106875 102.68734375 -12.96875 101.3671875 C-12.64256345 98.24511627 -12.31970608 95.12274033 -12 92 C-12.18433594 93.03511719 -12.36867188 94.07023437 -12.55859375 95.13671875 C-23.25809584 151.77240543 -48.17957842 207.44772202 -77 257 C-77.66 257 -78.32 257 -79 257 C-91.25963557 182.07703067 -86.08852723 106.51479842 -41 43 C-34.60366324 34.10162615 -27.5847705 25.90223561 -20 18 C-19.53416504 17.51225098 -19.06833008 17.02450195 -18.58837891 16.52197266 C-5.87284399 3.27900456 -5.87284399 3.27900456 0 0 Z " fill="#1F7183" transform="translate(492,353)"/>
<path d="M0 0 C10.21509426 4.09055766 16.64261703 20.31936076 20.88427734 30.02294922 C27.96916597 47.0667465 30.17830717 63.43602617 30.1875 81.8125 C30.19974609 83.08931641 30.21199219 84.36613281 30.22460938 85.68164062 C30.23727776 93.97943087 29.53771102 101.84794794 28 110 C27.86988525 110.71776611 27.73977051 111.43553223 27.60571289 112.17504883 C21.12624505 145.61930815 -0.91328748 176.63066826 -27 198 C-29.29889496 199.54325819 -31.50861124 200.78198772 -34 202 C-32.1203161 196.09937416 -29.97067538 190.40516886 -27.58642578 184.69140625 C-23.39622269 174.60536738 -19.71332258 164.47810434 -16.625 154 C-16.31602783 152.95279785 -16.00705566 151.9055957 -15.6887207 150.82666016 C-11.57223096 136.46307126 -8.47414597 122.16716222 -6.56201172 107.34887695 C-6.24594814 104.9061853 -5.91487595 102.46584687 -5.58203125 100.02539062 C-5.3715248 98.44282395 -5.16185792 96.86014532 -4.953125 95.27734375 C-4.85630432 94.56263412 -4.75948364 93.8479245 -4.659729 93.11155701 C-4.05670969 88.37213024 -3.91827356 83.77798214 -4 79 C-4.17015625 79.77786865 -4.3403125 80.5557373 -4.515625 81.35717773 C-11.16580256 111.47974063 -19.30897657 141.68387831 -34 169 C-48.56389324 153.35248375 -46.80270516 116.79740888 -46.16845703 97.33740234 C-45.78532302 89.74690672 -44.74645128 82.39354374 -43 75 C-42.76651855 74.00782471 -42.76651855 74.00782471 -42.52832031 72.99560547 C-36.33271539 48.07097129 -21.74858848 25.16152072 -5 6 C-3.97616632 4.77333135 -2.95481435 3.54458072 -1.9375 2.3125 C-0.9784375 1.1678125 -0.9784375 1.1678125 0 0 Z " fill="#1F7183" transform="translate(350,456)"/>
<path d="M0 0 C11.88 0 23.76 0 36 0 C36 11.88 36 23.76 36 36 C9.8832853 37.44092219 9.8832853 37.44092219 1 37 C0 36 0 36 -0.11352539 32.58178711 C-0.11327433 31.06363013 -0.10771425 29.54546743 -0.09765625 28.02734375 C-0.09664917 27.32065552 -0.09564209 26.61396729 -0.09460449 25.88586426 C-0.08935745 23.23639309 -0.07539629 20.58694498 -0.0625 17.9375 C-0.041875 12.018125 -0.02125 6.09875 0 0 Z " fill="#207184" transform="translate(697,185)"/>
<path d="M0 0 C11.22 0 22.44 0 34 0 C34.020625 5.424375 34.04125 10.84875 34.0625 16.4375 C34.071604 18.15122803 34.08070801 19.86495605 34.09008789 21.63061523 C34.09300716 22.98160727 34.09555569 24.33260019 34.09765625 25.68359375 C34.10277222 26.39100708 34.10788818 27.09842041 34.11315918 27.82727051 C34.11347032 29.55192617 34.06225761 31.27646838 34 33 C32.32326351 34.67673649 30.27144924 34.12787817 28.03344727 34.13894653 C26.99595337 34.13591019 26.99595337 34.13591019 25.9375 34.1328125 C25.23101318 34.13376923 24.52452637 34.13472595 23.79663086 34.13571167 C22.30029207 34.13639333 20.80395033 34.13454005 19.30761719 34.13037109 C17.00969843 34.12502257 14.71197514 34.13031651 12.4140625 34.13671875 C10.96354123 34.13605797 9.51302009 34.1347768 8.0625 34.1328125 C7.0250061 34.13584885 7.0250061 34.13584885 5.96655273 34.13894653 C1.11495224 34.11495224 1.11495224 34.11495224 0 33 C-0.0884283 30.55196233 -0.11535972 28.13155206 -0.09765625 25.68359375 C-0.09664917 25.03588013 -0.09564209 24.3881665 -0.09460449 23.7208252 C-0.08935843 21.29303221 -0.07539725 18.86526439 -0.0625 16.4375 C-0.041875 11.013125 -0.02125 5.58875 0 0 Z " fill="#1F6F81" transform="translate(715,258)"/>
<path d="M0 0 C11.22 0 22.44 0 34 0 C34 10.89 34 21.78 34 33 C28.72 33 23.44 33 18 33 C18 32.67 18 32.34 18 32 C22.95 32 27.9 32 33 32 C33 21.77 33 11.54 33 1 C22.77 1 12.54 1 2 1 C2 11.23 2 21.46 2 32 C5.63 32 9.26 32 13 32 C13.33 32.66 13.66 33.32 14 34 C11.85423363 34.02685938 9.70837355 34.04633088 7.5625 34.0625 C6.36753906 34.07410156 5.17257812 34.08570313 3.94140625 34.09765625 C1 34 1 34 0 33 C-0.0884283 30.55196233 -0.11535972 28.13155206 -0.09765625 25.68359375 C-0.09664917 25.03588013 -0.09564209 24.3881665 -0.09460449 23.7208252 C-0.08935843 21.29303221 -0.07539725 18.86526439 -0.0625 16.4375 C-0.041875 11.013125 -0.02125 5.58875 0 0 Z " fill="#24869C" transform="translate(715,258)"/>
<path d="M0 0 C0.33 0 0.66 0 1 0 C0.43142141 11.92116609 -0.64625934 23.71407394 -2.0625 35.5625 C-2.25109618 37.17117183 -2.43924898 38.77989571 -2.62695312 40.38867188 C-3.07955857 44.25972989 -3.53804543 48.13004702 -4 52 C-6 48.25 -6 48.25 -6 46 C-7.485 46.495 -7.485 46.495 -9 47 C-8.36334512 40.87396527 -7.13210772 35.09051873 -5.625 29.125 C-3.24966627 19.48009624 -1.47467442 9.81917358 0 0 Z " fill="#090D0E" transform="translate(646,339)"/>
<path d="M0 0 C0.33 0 0.66 0 1 0 C0.34921654 12.74637949 -1.343152 25.35309062 -3 38 C-3.66 37.34 -4.32 36.68 -5 36 C-5.99 36 -6.98 36 -8 36 C-6.76418957 29.23556395 -5.16722628 22.58276294 -3.47070312 15.921875 C-2.13617869 10.64420857 -0.97821579 5.35444434 0 0 Z " fill="#0A1114" transform="translate(480,441)"/>
<path d="M0 0 C0.33 0 0.66 0 1 0 C1.25940557 11.51472518 0.59882726 22.59408052 -1 34 C-2.65 33.67 -4.3 33.34 -6 33 C-5.60167969 31.06060547 -5.60167969 31.06060547 -5.1953125 29.08203125 C-3.22604272 19.41436846 -1.35577806 9.77587341 0 0 Z " fill="#070B0C" transform="translate(346,526)"/>
<path d="M0 0 C0.33 0 0.66 0 1 0 C0.48484207 9.34956835 -0.05409279 18.68180768 -1 28 C-1.99 27.34 -2.98 26.68 -4 26 C-3.52316428 22.60383513 -3.04311931 19.20813132 -2.5625 15.8125 C-2.42779297 14.85279297 -2.29308594 13.89308594 -2.15429688 12.90429688 C-2.02216797 11.97294922 -1.89003906 11.04160156 -1.75390625 10.08203125 C-1.63345947 9.22843018 -1.5130127 8.3748291 -1.38891602 7.49536133 C-0.99677852 4.97933036 -0.51734627 2.49302336 0 0 Z " fill="#0A1519" transform="translate(646,339)"/>
<path d="M0 0 C0.33 0 0.66 0 1 0 C1.05389087 1.95803507 1.09274217 3.91648909 1.125 5.875 C1.14820313 6.96554687 1.17140625 8.05609375 1.1953125 9.1796875 C1 12 1 12 -1 14 C-3 12 -3 12 -3.046875 9.94140625 C-2.89992188 8.76384766 -2.89992188 8.76384766 -2.75 7.5625 C-2.66234375 6.78003906 -2.5746875 5.99757813 -2.484375 5.19140625 C-2 3 -2 3 0 0 Z " fill="#050506" transform="translate(643,364)"/>
<path d="M0 0 C0.33 0.66 0.66 1.32 1 2 C0.10333658 4.24310013 -0.89146683 6.44754321 -1.9375 8.625 C-2.50339844 9.81351563 -3.06929688 11.00203125 -3.65234375 12.2265625 C-4.09707031 13.14179687 -4.54179687 14.05703125 -5 15 C-4.34 15.33 -3.68 15.66 -3 16 C-4.65 16.99 -6.3 17.98 -8 19 C-6.00386732 12.2813095 -3.2708579 6.19265192 0 0 Z " fill="#25859A" transform="translate(324,639)"/>
<path d="M0 0 C0.33 0 0.66 0 1 0 C1.06058594 0.62648438 1.12117187 1.25296875 1.18359375 1.8984375 C1.26738281 2.71570313 1.35117187 3.53296875 1.4375 4.375 C1.51871094 5.18710937 1.59992187 5.99921875 1.68359375 6.8359375 C1.89090114 9.04272805 1.89090114 9.04272805 3 11 C1.68 12.98 0.36 14.96 -1 17 C-2.56902561 13.86194878 -1.56136446 10.73381412 -1.0625 7.375 C-0.96259766 6.66859375 -0.86269531 5.9621875 -0.75976562 5.234375 C-0.51208041 3.48878393 -0.25676129 1.74427916 0 0 Z " fill="#25869C" transform="translate(554,570)"/>
<path d="M0 0 C0.33 0 0.66 0 1 0 C1 5.61 1 11.22 1 17 C0.01 17 -0.98 17 -2 17 C-1.34 11.39 -0.68 5.78 0 0 Z " fill="#0A1418" transform="translate(346,526)"/>
<path d="M0 0 C0 2.83967231 -0.40267181 5.23735711 -1 8 C-2.98 8.66 -4.96 9.32 -7 10 C-6.02223933 8.51990357 -5.0427506 7.04094856 -4.0625 5.5625 C-3.51722656 4.73878906 -2.97195313 3.91507813 -2.41015625 3.06640625 C-1 1 -1 1 0 0 Z " fill="#238398" transform="translate(546,622)"/>
<path d="M0 0 C0.33 0 0.66 0 1 0 C1.08090971 1.62418745 1.13914995 3.24951745 1.1875 4.875 C1.22230469 5.77992188 1.25710938 6.68484375 1.29296875 7.6171875 C1.19628906 8.40351563 1.09960938 9.18984375 1 10 C0.01 10.66 -0.98 11.32 -2 12 C-1.85831863 10.56208484 -1.71148957 9.1246763 -1.5625 7.6875 C-1.48128906 6.88699219 -1.40007812 6.08648437 -1.31640625 5.26171875 C-1 3 -1 3 0 0 Z " fill="#227A8C" transform="translate(473,498)"/>
<path d="M0 0 C2 3 2 3 2 5 C0.02 5.66 -1.96 6.32 -4 7 C-1.125 1.125 -1.125 1.125 0 0 Z " fill="#24889F" transform="translate(409,643)"/>
<path d="M0 0 C0.66 1.32 1.32 2.64 2 4 C2.66 3.67 3.32 3.34 4 3 C3.34 4.98 2.68 6.96 2 9 C1.34 9 0.68 9 0 9 C0 6.03 0 3.06 0 0 Z " fill="#238095" transform="translate(413,601)"/>
</svg>
