<?xml version="1.0" encoding="UTF-8"?>
<svg version="1.1" xmlns="http://www.w3.org/2000/svg" width="1024" height="1024">
<path d="M0 0 C337.92 0 675.84 0 1024 0 C1024 337.92 1024 675.84 1024 1024 C686.08 1024 348.16 1024 0 1024 C0 686.08 0 348.16 0 0 Z " fill="#010000" transform="translate(0,0)"/>
<path d="M0 0 C2.5 1.546875 2.5 1.546875 5 3.75 C5.95132813 4.57371094 6.90265625 5.39742188 7.8828125 6.24609375 C8.3871582 6.6932373 8.89150391 7.14038086 9.41113281 7.60107422 C11.04485488 9.0394927 12.70158307 10.44632011 14.3671875 11.84765625 C15.53682266 12.8355063 16.70609832 13.82378216 17.875 14.8125 C18.390625 15.24852539 18.90625 15.68455078 19.4375 16.13378906 C30.83073915 25.89647406 41.55471304 36.36816576 52.15820312 46.97290039 C54.25631997 49.06881334 56.36235432 51.15655204 58.46875 53.24414062 C65.04601102 59.79469235 71.40363119 66.32698269 77.12109375 73.65356445 C79.21341922 76.26652444 81.45381269 78.69029389 83.75 81.125 C90.36813207 88.33641129 96.16832468 96.14882144 102 104 C102.55123535 104.73702148 103.1024707 105.47404297 103.67041016 106.23339844 C111.78324851 117.10932221 119.23831116 128.23438749 126 140 C126.52625977 140.91555664 127.05251953 141.83111328 127.59472656 142.77441406 C144.13083017 171.8169777 155.42042322 200.63230037 155.375 234.4375 C155.37418427 235.47639877 155.37418427 235.47639877 155.37335205 236.5362854 C155.32751958 249.33766149 153.99762162 261.54091978 151 274 C150.79101074 274.886875 150.58202148 275.77375 150.36669922 276.6875 C144.50483674 300.85505888 133.51243911 324.23736879 117 343 C116.30519531 343.80308594 115.61039063 344.60617187 114.89453125 345.43359375 C112.63622285 347.9956746 110.33177996 350.5046531 108 353 C107.17886719 353.886875 106.35773438 354.77375 105.51171875 355.6875 C83.81117836 378.32035991 54.127194 392.57922462 23.5625 398.3125 C22.65089111 398.48426758 21.73928223 398.65603516 20.80004883 398.83300781 C19.91857178 398.98737305 19.03709473 399.14173828 18.12890625 399.30078125 C17.35619385 399.43653564 16.58348145 399.57229004 15.78735352 399.7121582 C11.85620301 400.11811655 7.94829099 400.05426892 4 400 C3.7207134 389.27295621 3.50812292 378.54679079 3.37825394 367.81683826 C3.3158879 362.83303832 3.23145733 357.85174312 3.09472656 352.86938477 C2.96335434 348.05157474 2.89239237 343.23615688 2.86147308 338.41669273 C2.83947131 336.58772835 2.79650374 334.75888025 2.73123932 332.93094826 C2.43306595 324.22533694 2.22933341 317.1036673 8.15921402 310.251544 C10.657866 307.68342422 13.2924316 305.34867247 16 303 C17.49516387 301.43808355 18.9753917 299.86139229 20.42578125 298.2578125 C21.72072316 296.87961517 23.01627509 295.50199071 24.3125 294.125 C24.96283203 293.43148438 25.61316406 292.73796875 26.28320312 292.0234375 C29.40050323 288.70994368 32.54495525 285.43598459 35.7734375 282.23046875 C38.06014625 279.95954818 40.24185351 277.65999702 42.3125 275.1875 C45.79660329 271.13967662 49.54988456 267.41195451 53.375 263.6875 C55.42280081 261.59094203 57.33526815 259.47732354 59.2421875 257.2578125 C63.31022725 252.56425933 67.69857712 248.2280162 72.125 243.875 C81.46798448 235.79134357 81.46798448 235.79134357 86.5 225.25 C86.335 224.1775 86.17 223.105 86 222 C82.39132328 219.59421552 81.25506031 219.26179695 77 220 C74.08496848 222.06527826 71.69281847 224.58656825 69.22265625 227.15625 C68.49308212 227.89194214 67.763508 228.62763428 67.01182556 229.38562012 C64.68099129 231.74338596 62.37204085 234.12139192 60.0625 236.5 C58.51240188 238.07162951 56.96098287 239.6419574 55.40820312 241.2109375 C49.29867124 247.40988513 43.27679963 253.62133413 37.57981873 260.20397949 C35.53935016 262.52369082 33.38849668 264.70774944 31.1875 266.875 C30.33929687 267.71546875 29.49109375 268.5559375 28.6171875 269.421875 C26.87239583 271.140625 25.12760417 272.859375 23.3828125 274.578125 C18.90102919 279.01904098 14.55906828 283.49927836 10.47265625 288.30859375 C9.03575265 289.95893661 7.63460971 291.54354939 6 293 C5.34 293 4.68 293 4 293 C3.7908336 281.58617566 3.63123486 270.17281228 3.53369045 258.75745678 C3.48685649 253.45585797 3.42340584 248.15557685 3.32104492 242.85473633 C3.22275608 237.73231001 3.16933878 232.61114529 3.14610481 227.48784828 C3.12956319 225.54018621 3.09725986 223.59258788 3.04842949 221.64546776 C2.63591777 204.50394975 2.63591777 204.50394975 8.31030273 197.47070312 C9.83130425 195.93739021 11.39255242 194.44243072 13 193 C14.31042397 191.64746145 15.61621762 190.29039482 16.9140625 188.92578125 C18.14649396 187.71670112 19.38345727 186.51222234 20.625 185.3125 C25.11064403 180.90679814 29.47057336 176.49401521 33.53125 171.6875 C35.64886843 169.25449159 37.95784715 167.03251458 40.2578125 164.7734375 C42.04715827 162.95199585 43.71288532 161.06285721 45.375 159.125 C48.01279131 156.05253879 50.78882825 153.20250959 53.6875 150.375 C59.5504059 144.71750999 59.5504059 144.71750999 62.5 137.3125 C62.18147294 134.88518265 62.18147294 134.88518265 60.3125 133.1875 C57.53779923 131.76265366 56.0896475 131.64254871 53 132 C50.79217594 133.50453835 50.79217594 133.50453835 48.8203125 135.65625 C48.05589844 136.43226563 47.29148437 137.20828125 46.50390625 138.0078125 C45.32634766 139.24144531 45.32634766 139.24144531 44.125 140.5 C43.34769531 141.29148437 42.57039062 142.08296875 41.76953125 142.8984375 C38.20518386 146.55264238 34.73463241 150.26124698 31.3984375 154.125 C27.95218471 158.11529328 24.26347622 161.81079975 20.5 165.5 C15.84637723 170.09307483 11.3170509 174.68679534 7.19921875 179.77734375 C6.80347656 180.18082031 6.40773438 180.58429688 6 181 C5.34 181 4.68 181 4 181 C3.99761165 180.42131542 3.99522329 179.84263084 3.99276257 179.24641037 C3.93362973 165.16653436 3.8580908 151.08682634 3.76428509 137.0071373 C3.71931705 130.19829608 3.67990481 123.38950727 3.65356445 116.58056641 C3.62813949 110.01228574 3.58724162 103.44421997 3.53681374 96.87607574 C3.52010034 94.36743309 3.50861402 91.85875011 3.50238609 89.35005951 C3.49279382 85.84217272 3.46479205 82.33488802 3.43237305 78.82714844 C3.43380814 77.78489609 3.43524323 76.74264374 3.4367218 75.66880798 C3.42418365 74.71250992 3.41164551 73.75621185 3.39872742 72.77093506 C3.39181397 71.52651453 3.39181397 71.52651453 3.38476086 70.25695419 C2.90415595 67.43779198 1.96932651 66.05281843 0 64 C-3 63.33333333 -3 63.33333333 -6 64 C-8.73726715 66.85331683 -9.37703984 68.86717131 -9.39872742 72.77093506 C-9.41126556 73.72723312 -9.42380371 74.68353119 -9.4367218 75.66880798 C-9.43528671 76.71106033 -9.43385162 77.75331268 -9.43237305 78.82714844 C-9.4425647 79.92988602 -9.45275635 81.0326236 -9.46325684 82.16877747 C-9.4934642 85.81569448 -9.50266486 89.46234915 -9.51171875 93.109375 C-9.52855964 95.63715493 -9.54670908 98.16492646 -9.56611633 100.69268799 C-9.60882352 106.66722162 -9.63832688 112.64167953 -9.66143972 118.6163094 C-9.68849324 125.41925565 -9.73240459 132.22206045 -9.77772844 139.02490568 C-9.8705699 153.01652697 -9.94225286 167.00819301 -10 181 C-13.10269411 179.52921398 -14.88868221 178.23668505 -17.0625 175.5625 C-20.84595783 171.07930588 -24.96105991 167.00272973 -29.15625 162.90625 C-31.27785761 160.7880035 -33.2567307 158.58247663 -35.21484375 156.3125 C-39.65058627 151.19815057 -44.32763921 146.33679914 -49.0625 141.5 C-50.37057617 140.12328125 -50.37057617 140.12328125 -51.70507812 138.71875 C-52.55650391 137.8525 -53.40792969 136.98625 -54.28515625 136.09375 C-55.04707275 135.30677734 -55.80898926 134.51980469 -56.59399414 133.70898438 C-59.62551904 131.55569424 -61.35658729 131.50972795 -65 132 C-67.34230676 133.92335095 -67.34230676 133.92335095 -67.3515625 137.30859375 C-66.94831328 141.54271061 -66.13367857 142.89754332 -63.375 146.0625 C-62.15296875 147.46628906 -62.15296875 147.46628906 -60.90625 148.8984375 C-56.50160096 153.67117167 -51.86299232 158.21587385 -47.234375 162.76953125 C-44.18270346 165.78719845 -41.34353445 168.93602716 -38.5703125 172.2109375 C-36.17294906 174.94226202 -33.56117818 177.44747196 -30.97265625 179.99609375 C-28.42917287 182.57986993 -26.08436152 185.3095473 -23.72265625 188.05859375 C-21.51616102 190.54527885 -19.16971211 192.86130104 -16.7734375 195.1640625 C-16.18820312 195.76992188 -15.60296875 196.37578125 -15 197 C-14.15013016 197.84341949 -13.30026031 198.68683899 -12.42463684 199.55581665 C-9.20290538 203.47097687 -9.32480402 207.03609627 -9.43237305 211.94287109 C-9.43127785 213.26091736 -9.43127785 213.26091736 -9.43016052 214.60559082 C-9.43363008 217.49551198 -9.47246084 220.38379968 -9.51171875 223.2734375 C-9.52104913 225.28267537 -9.52816418 227.29192465 -9.53315735 229.30117798 C-9.55220933 234.57862996 -9.60129501 239.85538926 -9.65667725 245.13256836 C-9.70790835 250.52187735 -9.73067966 255.91129872 -9.75585938 261.30078125 C-9.80941516 271.86749113 -9.89470648 282.43368787 -10 293 C-13.29815812 291.43388545 -15.49720472 289.7486877 -18.08203125 287.1484375 C-18.84966797 286.37886719 -19.61730469 285.60929687 -20.40820312 284.81640625 C-21.20162109 284.01074219 -21.99503906 283.20507812 -22.8125 282.375 C-23.59431641 281.59253906 -24.37613281 280.81007813 -25.18164062 280.00390625 C-28.73983647 276.41895705 -32.2179311 272.80681312 -35.51171875 268.9765625 C-39.44154793 264.41380547 -43.70823862 260.21975196 -48 256 C-52.91000617 251.17237649 -57.670536 246.31203884 -62.1640625 241.09375 C-65.81043908 236.93532905 -69.64523325 232.96438097 -73.5 229 C-74.72396484 227.69482422 -74.72396484 227.69482422 -75.97265625 226.36328125 C-80.62983506 221.22615886 -80.62983506 221.22615886 -86.96875 219.3125 C-90.09341939 219.73795917 -90.09341939 219.73795917 -92 222 C-92.63508138 226.49442205 -92.42501203 228.40364805 -89.76171875 232.140625 C-88.75478235 233.19438787 -87.72883554 234.23021699 -86.6875 235.25 C-86.14714111 235.80647217 -85.60678223 236.36294434 -85.05004883 236.9362793 C-83.38432615 238.64278924 -81.69586776 240.32349373 -80 242 C-78.99950787 243.00081035 -77.99948451 244.00208961 -77 245.00390625 C-75.15821731 246.84313091 -73.31201897 248.67794687 -71.4609375 250.5078125 C-68.73164426 253.27176343 -66.19588809 256.15231252 -63.67578125 259.10546875 C-61.86022622 261.15801931 -59.95240464 263.07746006 -58 265 C-55.46185201 267.49939764 -53.05871697 270.03781792 -50.75 272.75 C-47.66438454 276.34516664 -44.36803372 279.67338714 -41 283 C-37.0576419 286.89393361 -33.3001673 290.85162821 -29.70703125 295.07421875 C-27.72400205 297.31136611 -25.62806614 299.40054652 -23.5 301.5 C-10.1587808 314.68158068 -10.1587808 314.68158068 -9.75949097 320.51176453 C-9.75368842 321.99441072 -9.75901965 323.47712469 -9.77294922 324.9597168 C-9.77265717 325.76970123 -9.77236511 326.57968567 -9.77206421 327.41421509 C-9.77345804 330.09265845 -9.78902168 332.77082396 -9.8046875 335.44921875 C-9.80841744 337.30581002 -9.8112645 339.16240325 -9.81326294 341.01899719 C-9.82090087 345.90660024 -9.84055075 350.79408452 -9.8626709 355.68164062 C-9.88312587 360.66860345 -9.89226391 365.65558545 -9.90234375 370.64257812 C-9.92379647 380.42843762 -9.95793437 390.21420893 -10 400 C-11.41517283 400.01405166 -12.8303869 400.02398122 -14.24560547 400.03222656 C-15.42774124 400.04119965 -15.42774124 400.04119965 -16.63375854 400.050354 C-20.20342371 399.97439095 -23.62322107 399.41155353 -27.125 398.75 C-27.85871826 398.61360107 -28.59243652 398.47720215 -29.34838867 398.33666992 C-70.47631214 390.44979099 -107.86782765 367.60031834 -131.5625 332.7109375 C-132.37947529 331.47690951 -133.19188067 330.2398455 -134 329 C-134.42023438 328.35579102 -134.84046875 327.71158203 -135.2734375 327.04785156 C-145.57032068 311.00187527 -152.34230749 293.44099692 -157 275 C-157.19609863 274.27458008 -157.39219727 273.54916016 -157.59423828 272.80175781 C-167.90109755 233.7486214 -159.84013766 191.08163563 -141 156 C-140.57380371 155.2049707 -140.14760742 154.40994141 -139.70849609 153.59082031 C-129.07524638 133.98963407 -116.6441626 115.61751376 -103 98 C-102.52433594 97.38012207 -102.04867187 96.76024414 -101.55859375 96.12158203 C-95.66922291 88.44895143 -89.55251388 81.12229769 -83 74 C-79.79602236 70.40266273 -76.62918559 66.81624076 -73.6875 63 C-73.130625 62.34 -72.57375 61.68 -72 61 C-71.34 61 -70.68 61 -70 61 C-69.72697052 60.40198074 -69.45394104 59.80396149 -69.17263794 59.18782043 C-68.03328531 57.06210124 -66.93493985 55.68704991 -65.23779297 53.99487305 C-64.68316376 53.43716721 -64.12853455 52.87946136 -63.55709839 52.30485535 C-62.9581778 51.71312027 -62.3592572 51.12138519 -61.7421875 50.51171875 C-60.80936447 49.57958305 -60.80936447 49.57958305 -59.85769653 48.62861633 C-58.54030786 47.31424584 -57.22049249 46.00230375 -55.8984375 44.69262695 C-53.89793854 42.71023096 -51.90540487 40.72010482 -49.9140625 38.72851562 C-43.77612391 32.60791884 -37.6122354 26.61128189 -31 21 C-29.28732679 19.42136208 -27.57852976 17.83850042 -25.875 16.25 C-21.56861581 12.34602549 -17.19168386 8.5494972 -12.6875 4.875 C-11.82584229 4.14651855 -11.82584229 4.14651855 -10.94677734 3.40332031 C-7.2178766 0.41890308 -4.76505919 -0.88741993 0 0 Z " fill="#010100" transform="translate(515,281)"/>
<path d="M0 0 C2.38709765 1.74169717 4.46623735 3.44809884 6.625 5.4375 C7.87666603 6.5518359 9.12927939 7.66510858 10.3828125 8.77734375 C10.99801758 9.32890137 11.61322266 9.88045898 12.24707031 10.44873047 C14.6078437 12.53791628 17.04535027 14.52244095 19.5 16.5 C23.68979071 19.90843473 27.82955647 23.36877066 31.9375 26.875 C32.46214844 27.32037109 32.98679687 27.76574219 33.52734375 28.22460938 C44.56375012 37.68249128 54.93594974 47.77464562 65.19262695 58.06225586 C67.32324634 60.19827357 69.45921223 62.32884118 71.59570312 64.45898438 C72.9768835 65.84082507 74.35775389 67.22297567 75.73828125 68.60546875 C76.36446854 69.22963181 76.99065582 69.85379486 77.63581848 70.49687195 C81.41397668 74.29483277 85.00449106 78.21066873 88.50279236 82.26811218 C90.37222313 84.43056734 92.31061872 86.52527618 94.25 88.625 C99.28449066 94.21133197 103.87965472 100.09167568 108.47265625 106.04003906 C110.04684179 108.06010964 111.64554157 110.05859708 113.25 112.0546875 C122.94814241 124.19408645 131.59486078 136.9384819 140 150 C140.51159668 150.79374023 141.02319336 151.58748047 141.55029297 152.40527344 C152.48011522 169.49608973 163.24630466 187.57163812 170.25268555 206.65820312 C171.65225597 210.17557248 172.73758828 211.83753829 175.984375 213.84765625 C181.09855716 215.57304428 186.48827175 216.24024745 191.8125 217 C192.94163818 217.16951172 194.07077637 217.33902344 195.23413086 217.51367188 C201.20298458 218.38847104 207.17233424 219.15006544 213.171875 219.78125 C214.3271167 219.90371094 215.4823584 220.02617187 216.67260742 220.15234375 C218.87442056 220.37815447 221.07773722 220.58990804 223.2824707 220.78515625 C230.47521476 221.5093003 237.55647096 222.77169152 243 227.875 C245.09046826 232.31724506 245.12712171 237.16117377 245.14526367 241.99853516 C245.15483345 243.7416246 245.15483345 243.7416246 245.16459656 245.51992798 C245.16626579 247.38564957 245.16626579 247.38564957 245.16796875 249.2890625 C245.17129715 250.58387543 245.17462555 251.87868835 245.17805481 253.21273804 C245.18402718 255.95124138 245.18589683 258.68971327 245.18530273 261.42822266 C245.18520161 264.90430375 245.19881067 268.38017831 245.21607494 271.85621071 C245.23000555 275.20883019 245.22928752 278.56141457 245.23046875 281.9140625 C245.23765427 283.14573151 245.24483978 284.37740051 245.25224304 285.64639282 C245.2011153 305.27191418 245.2011153 305.27191418 240.87890625 310.62890625 C237.30284198 312.33202505 233.80640236 313.23045892 229.9375 313.9375 C228.73770508 314.17726563 228.73770508 314.17726563 227.51367188 314.421875 C222.23507215 315.45627525 216.93619517 316.34892443 211.62890625 317.22265625 C210.36763916 317.4347876 209.10637207 317.64691895 207.80688477 317.86547852 C205.29308634 318.28447179 202.77659166 318.68763344 200.25756836 319.07397461 C198.52132202 319.36220093 198.52132202 319.36220093 196.75 319.65625 C195.71359375 319.81931641 194.6771875 319.98238281 193.609375 320.15039062 C190.45144845 321.17860773 189.62470842 322.14722107 188 325 C187.10931924 326.98496984 187.10931924 326.98496984 186.45703125 329.09765625 C186.19156494 329.89026855 185.92609863 330.68288086 185.65258789 331.49951172 C185.37535889 332.34529785 185.09812988 333.19108398 184.8125 334.0625 C182.09692415 342.1431389 179.02353889 349.9719137 175.48950195 357.73071289 C173.62676319 361.94575343 172.20769715 365.31590554 173 370 C174.3272247 372.45771476 175.63439992 374.5634975 177.25 376.8125 C177.69021484 377.44833008 178.13042969 378.08416016 178.58398438 378.73925781 C180.04179272 380.83650929 181.52000981 382.91835347 183 385 C184.08933091 386.55022695 185.17785863 388.10101858 186.265625 389.65234375 C188.77406659 393.2232327 191.2963253 396.78394487 193.83007812 400.33691406 C196.62787088 404.31407688 197.81689479 406.09863124 197 411 C192.45422331 418.11124921 186.25327595 424.04012972 180.3046875 429.9609375 C179.39421661 430.87332184 178.48374573 431.78570618 177.54568481 432.72573853 C175.634429 434.63991664 173.71967011 436.55049728 171.80224609 438.45849609 C169.35331717 440.89596708 166.9135669 443.34239846 164.47633171 445.7915554 C162.13230807 448.14455789 159.78067929 450.48989698 157.4296875 452.8359375 C156.55875458 453.71091888 155.68782166 454.58590027 154.79049683 455.48739624 C153.97259674 456.298992 153.15469666 457.11058777 152.31201172 457.94677734 C151.59810272 458.65909515 150.88419373 459.37141296 150.14865112 460.10531616 C146.23432236 463.55697723 142.71425877 465.7990516 137.32421875 465.57910156 C132.04965889 464.264894 127.79976377 460.55939055 123.5 457.375 C122.50613281 456.66214844 121.51226563 455.94929688 120.48828125 455.21484375 C112.95184354 449.78900683 112.95184354 449.78900683 109.7109375 447.10253906 C105.89457556 443.87756478 105.89457556 443.87756478 101.16015625 442.80859375 C96.42820273 444.59258117 91.95259566 446.79155594 87.4375 449.0625 C78.68543357 453.38751409 69.904038 457.14838246 60.65209961 460.27368164 C59.83491455 460.56235107 59.01772949 460.85102051 58.17578125 461.1484375 C57.46333252 461.38739746 56.75088379 461.62635742 56.0168457 461.87255859 C52.52126129 463.82663302 50.59168772 466.3174311 49.25923157 470.10650635 C48.5499465 472.69254438 47.93484492 475.28677168 47.34375 477.90234375 C47.11473999 478.85766495 46.88572998 479.81298615 46.64978027 480.79725647 C45.92063922 483.84119046 45.20844382 486.88868722 44.5 489.9375 C43.56598859 493.95006634 42.61573864 497.95830357 41.65625 501.96484375 C41.44883179 502.88063705 41.24141357 503.79643036 41.02770996 504.73997498 C39.80365857 509.85058008 38.50199551 513.92482756 35 518 C31.07504124 520.01169478 27.75256348 520.26179809 23.37719727 520.29052734 C22.41032486 520.30060318 22.41032486 520.30060318 21.42391968 520.31088257 C19.30466897 520.32979587 17.18573597 520.33378305 15.06640625 520.3359375 C13.58576835 520.34236919 12.10513172 520.34909783 10.62449646 520.35610962 C7.5252691 520.36806503 4.42615308 520.37179215 1.3269043 520.37060547 C-2.63540146 520.37040217 -6.59699087 520.39772252 -10.55912685 520.43214989 C-13.61586254 520.45443486 -16.6724261 520.45844256 -19.7292347 520.45738602 C-21.18962133 520.45973887 -22.65001293 520.4685447 -24.11031914 520.48405075 C-26.15665172 520.50374865 -28.20144292 520.49786056 -30.24780273 520.48583984 C-31.40964584 520.48868988 -32.57148895 520.49153992 -33.76853943 520.49447632 C-37.70854806 519.89157837 -39.8910672 518.44509169 -43 516 C-44.15869141 514.16259766 -44.15869141 514.16259766 -44.7265625 512.2890625 C-44.94731445 511.59071289 -45.16806641 510.89236328 -45.39550781 510.17285156 C-45.59499023 509.45581055 -45.79447266 508.73876953 -46 508 C-46.20206055 507.31647461 -46.40412109 506.63294922 -46.61230469 505.92871094 C-47.23492443 503.75208107 -47.81031522 501.56734701 -48.375 499.375 C-48.58632568 498.57247803 -48.79765137 497.76995605 -49.01538086 496.94311523 C-50.21357359 492.31911008 -51.30088659 487.68437299 -52.29296875 483.01171875 C-52.5058252 482.02059082 -52.71868164 481.02946289 -52.93798828 480.00830078 C-53.34710345 478.07851831 -53.74312055 476.14590172 -54.12451172 474.21044922 C-55.43817444 467.65032587 -55.43817444 467.65032587 -60 463 C-62.34244285 461.98092254 -64.58820035 461.11842094 -67 460.3125 C-73.61417188 457.96638473 -80.03884501 455.31989037 -86.4375 452.4375 C-87.25283203 452.07374268 -88.06816406 451.70998535 -88.90820312 451.33520508 C-93.77843923 449.12546919 -98.35220277 446.69390692 -102.87915039 443.84008789 C-105.68098872 442.73025415 -107.15210053 443.09896808 -110 444 C-112.03187201 445.04313164 -112.03187201 445.04313164 -113.93359375 446.40625 C-114.65820801 446.89899414 -115.38282227 447.39173828 -116.12939453 447.89941406 C-116.89106934 448.42760742 -117.65274414 448.95580078 -118.4375 449.5 C-120.04793417 450.58890101 -121.65861409 451.67743865 -123.26953125 452.765625 C-125.54539425 454.31628372 -127.81666334 455.87216893 -130.07568359 457.44726562 C-131.91564047 458.72989887 -133.76882237 459.99101386 -135.625 461.25 C-136.66914063 461.97703125 -137.71328125 462.7040625 -138.7890625 463.453125 C-142.61445169 465.29601322 -145.84985724 465.65680597 -150 465 C-152.73828125 463.25292969 -152.73828125 463.25292969 -155.3125 460.671875 C-155.80411621 460.19030945 -156.29573242 459.7087439 -156.80224609 459.21258545 C-157.92014397 458.11280401 -159.02897834 457.00376156 -160.13037109 455.88745117 C-162.18526148 453.81297252 -164.27147473 451.77356381 -166.36328125 449.73632812 C-170.43195688 445.76473724 -174.46849545 441.76223629 -178.49365234 437.74658203 C-181.0160621 435.23400048 -183.54895491 432.73229063 -186.08203125 430.23046875 C-187.70117601 428.61784506 -189.31968865 427.00458639 -190.9375 425.390625 C-191.68854004 424.65193176 -192.43958008 423.91323853 -193.21337891 423.15216064 C-202.85546507 413.46883823 -202.85546507 413.46883823 -203.12109375 407.09375 C-201.50900064 402.64504706 -198.90915161 399.24795765 -196.0625 395.5 C-194.88147694 393.90106639 -193.70048776 392.30210776 -192.51953125 390.703125 C-191.34755243 389.13452068 -190.17441984 387.56677756 -189 386 C-187.07054543 383.42580047 -185.15490274 380.84239978 -183.25 378.25 C-182.83242432 377.70279297 -182.41484863 377.15558594 -181.98461914 376.59179688 C-179.4041597 373.07491992 -178.02757094 370.3892931 -178 366 C-179.02963875 363.18389403 -180.11220631 360.6681508 -181.4375 358 C-185.24964667 349.95298195 -188.3592987 341.78401436 -191.20874023 333.34960938 C-193.44130737 326.41972336 -193.44130737 326.41972336 -198 321 C-201.80360666 319.89538337 -205.63796639 319.42059133 -209.5625 318.9375 C-211.82079885 318.61668636 -214.07861096 318.29242882 -216.3359375 317.96484375 C-217.45838867 317.80612793 -218.58083984 317.64741211 -219.73730469 317.48388672 C-224.41664984 316.78989824 -229.05211929 315.9408285 -233.6875 315 C-234.44554932 314.85812256 -235.20359863 314.71624512 -235.98461914 314.57006836 C-241.25035508 313.48107952 -245.95678607 311.72428524 -249.3125 307.25 C-251.40758807 300.39334812 -251.14737016 293.08756118 -251.1328125 285.9921875 C-251.13376923 284.94910431 -251.13472595 283.90602112 -251.13571167 282.83132935 C-251.13638955 280.63104186 -251.13456272 278.43075234 -251.13037109 276.23046875 C-251.12504995 272.90620285 -251.13031267 269.58207406 -251.13671875 266.2578125 C-251.14900883 233.91501472 -251.14900883 233.91501472 -247 227 C-243.72600679 223.9317871 -240.64225796 223.27763283 -236.28515625 222.46484375 C-235.6335704 222.34065567 -234.98198456 222.21646759 -234.31065369 222.08851624 C-232.22968528 221.69474069 -230.14626408 221.31616848 -228.0625 220.9375 C-226.69708808 220.67997602 -225.33185153 220.42152043 -223.96679688 220.16210938 C-216.55771744 218.76973124 -209.16738386 217.55727085 -201.66967773 216.72485352 C-198.37335365 215.82985706 -197.1200968 214.64777317 -195 212 C-193.84542779 209.93275608 -193.84542779 209.93275608 -193.03515625 207.69140625 C-192.71216553 206.86785645 -192.3891748 206.04430664 -192.05639648 205.19580078 C-191.72841064 204.32681152 -191.4004248 203.45782227 -191.0625 202.5625 C-190.71840088 201.67030762 -190.37430176 200.77811523 -190.01977539 199.85888672 C-189.33022764 198.06990326 -188.64420872 196.27955521 -187.96191406 194.48779297 C-187.11996306 192.3102598 -186.24307118 190.15487047 -185.3359375 188.00390625 C-184.87445313 186.88886719 -184.41296875 185.77382813 -183.9375 184.625 C-183.33228516 183.19027344 -183.33228516 183.19027344 -182.71484375 181.7265625 C-181.61854803 177.54506298 -182.04921975 174.74278943 -184.1315918 170.92578125 C-185.65716229 168.47188711 -187.25210693 166.07811446 -188.875 163.6875 C-189.4534668 162.81319336 -190.03193359 161.93888672 -190.62792969 161.03808594 C-193.47734226 156.73358789 -196.36839102 152.45847056 -199.2734375 148.19140625 C-199.77633301 147.44093018 -200.27922852 146.6904541 -200.79736328 145.91723633 C-201.73820521 144.51356342 -202.6916008 143.11819117 -203.65966797 141.7331543 C-206.74741997 137.11085133 -207.97115565 133.60734079 -208 128 C-206.84765625 125.53125 -206.84765625 125.53125 -205.0625 123.5 C-204.08990234 122.37271484 -204.08990234 122.37271484 -203.09765625 121.22265625 C-200.44331029 118.41013698 -197.74306032 115.65912589 -194.96875 112.96484375 C-193.0460907 111.04599925 -191.26798123 109.06130539 -189.5 107 C-186.48237647 103.48858352 -183.26640919 100.24692598 -179.96875 97 C-178.06013545 95.06108998 -176.27289448 93.06300449 -174.5 91 C-163.54158208 78.27815851 -163.54158208 78.27815851 -158.36547852 77.71166992 C-154.01854839 78.08408374 -150.9838237 79.62105339 -147.15234375 81.61328125 C-146.41802628 81.98349899 -145.6837088 82.35371674 -144.92713928 82.7351532 C-142.5913963 83.91644261 -140.26463549 85.11435891 -137.9375 86.3125 C-136.36967788 87.10718063 -134.80132319 87.90081148 -133.23242188 88.69335938 C-122.00099569 94.39086865 -122.00099569 94.39086865 -118.19360352 96.70776367 C-115.04299866 98.56376272 -113.60805002 98.77820687 -110 98 C-106.47694406 95.21750479 -103.57510884 91.87557845 -100.69458008 88.44555664 C-94.99426348 81.74793216 -88.74590639 75.59522644 -82.52124023 69.39086914 C-80.56704376 67.4420313 -78.61824853 65.48790728 -76.66992188 63.53320312 C-65.35278968 52.21065232 -65.35278968 52.21065232 -59.57983398 47.36547852 C-57.79638276 45.82401001 -56.15018166 44.18261467 -54.5 42.5 C-51.57532885 39.52942594 -48.51380439 36.79270881 -45.35546875 34.07421875 C-42.98365613 31.98560764 -40.67098958 29.84465604 -38.36157227 27.68774414 C-32.98483285 22.66856535 -27.51994888 17.85002513 -21.78125 13.2421875 C-17.61212494 9.8811232 -13.52863148 6.41944499 -9.43359375 2.96875 C-6.10516447 0.27608811 -4.28069207 -0.61752281 0 0 Z M-11 38.75 C-12.43472656 39.99330078 -12.43472656 39.99330078 -13.8984375 41.26171875 C-14.40342773 41.70950684 -14.90841797 42.15729492 -15.42871094 42.61865234 C-17.00799967 44.00703265 -18.61165905 45.36031194 -20.2265625 46.70703125 C-33.62517718 57.92329581 -46.15616842 70.07602848 -58.55297852 82.37774658 C-59.55704536 83.37365325 -60.56257474 84.36808762 -61.56958008 85.36102295 C-62.97996007 86.75367666 -64.38273825 88.15401629 -65.78515625 89.5546875 C-67.00537476 90.76874268 -67.00537476 90.76874268 -68.25024414 92.00732422 C-70.21994006 93.80849656 -70.21994006 93.80849656 -70 96 C-70.66 96 -71.32 96 -72 96 C-73.50273886 97.44683052 -73.50273886 97.44683052 -75.0625 99.375 C-77.73066312 102.52178208 -80.45308248 105.59207688 -83.25 108.625 C-87.80322365 113.67129693 -91.97662009 118.96007216 -96.1328125 124.33203125 C-97.98378837 126.71914751 -99.86967292 129.06725973 -101.8046875 131.38671875 C-115.28600206 147.62740711 -126.71271727 165.59283838 -137 184 C-137.57306885 185.00474365 -137.57306885 185.00474365 -138.15771484 186.02978516 C-146.33548632 200.41704908 -152.35221874 215.58593672 -156.875 231.5 C-157.16165527 232.50244751 -157.16165527 232.50244751 -157.45410156 233.52514648 C-160.7076036 245.65492247 -161.44408795 257.76517351 -161.4375 270.25 C-161.43790283 271.0375769 -161.43830566 271.82515381 -161.4387207 272.63659668 C-161.32370787 311.90158245 -147.13705885 351.44074032 -121 381 C-120.57025879 381.50063965 -120.14051758 382.0012793 -119.69775391 382.51708984 C-107.81253088 396.33998241 -93.99944791 407.30211832 -78 416 C-77.0733252 416.51554443 -77.0733252 416.51554443 -76.12792969 417.04150391 C-60.53583575 425.64501302 -43.57947357 431.23325476 -26 434 C-24.89398438 434.18820312 -23.78796875 434.37640625 -22.6484375 434.5703125 C-19.77699483 434.90849097 -17.14778089 435.04493404 -14.27197266 435.02685547 C-13.4695816 435.02297821 -12.66719055 435.01910095 -11.84048462 435.0151062 C-11.23312469 435.01012115 -10.62576477 435.00513611 -10 435 C-9.83751851 424.3165396 -9.71328354 413.63337505 -9.6373148 402.94892883 C-9.6008455 397.98715446 -9.55141162 393.02622788 -9.47192383 388.06494141 C-9.39563725 383.27325155 -9.35396232 378.48237496 -9.3358593 373.69012451 C-9.3229656 371.86565351 -9.29778601 370.04122501 -9.2598896 368.21710205 C-8.64304109 356.85249222 -8.64304109 356.85249222 -13.39453125 346.984375 C-14.56729443 345.95548467 -15.7665564 344.95530397 -17 344 C-17.78246094 343.113125 -18.56492187 342.22625 -19.37109375 341.3125 C-23.49206295 336.70075375 -27.71009259 332.25202651 -32.1171875 327.9140625 C-33.91556599 326.0858354 -35.58747222 324.20166305 -37.25 322.25 C-40.33561524 318.65483361 -43.63196297 315.32660976 -47 312 C-50.96407339 308.08468521 -54.74561505 304.10466582 -58.359375 299.859375 C-60.16147789 297.81699172 -62.05938947 295.91098289 -64 294 C-66.51761696 291.52074673 -68.90090722 289.00559816 -71.1875 286.3125 C-75.01099514 281.85175567 -79.18436854 277.76079993 -83.3815918 273.65551758 C-91.86762792 265.30165874 -91.86762792 265.30165874 -92.375 260.3125 C-92 257 -92 257 -90 255 C-85.596049 254.39237629 -83.65782159 254.52119216 -80.02148438 257.16796875 C-79.02734917 258.15648358 -78.05220241 259.16435027 -77.09375 260.1875 C-76.56535522 260.72342773 -76.03696045 261.25935547 -75.49255371 261.81152344 C-73.81124877 263.52523998 -72.1560459 265.26189995 -70.5 267 C-69.38830205 268.13826724 -68.27503338 269.27500268 -67.16015625 270.41015625 C-62.17289477 275.51324515 -57.33024242 280.69842642 -52.68164062 286.11328125 C-49.29671237 289.91100563 -45.62613341 293.43470776 -42 297 C-37.04051186 301.87627526 -32.23693864 306.7881294 -27.70166016 312.0625 C-24.82636892 315.33628928 -21.76585202 318.41834148 -18.6875 321.5 C-18.06810547 322.13164063 -17.44871094 322.76328125 -16.81054688 323.4140625 C-16.21693359 324.00960938 -15.62332031 324.60515625 -15.01171875 325.21875 C-14.48022217 325.75435547 -13.94872559 326.28996094 -13.40112305 326.84179688 C-12.04605569 328.21237595 -12.04605569 328.21237595 -10 328 C-9.67398678 316.52538015 -9.42605825 305.05188113 -9.27462959 293.57355404 C-9.20190471 288.24193913 -9.10347902 282.91351729 -8.94384766 277.58374023 C-8.79043612 272.42869379 -8.70776457 267.27669397 -8.6717186 262.11953926 C-8.64607392 260.16373312 -8.59599191 258.20807283 -8.51977921 256.25358391 C-8.15935143 246.61698556 -8.16242934 239.08103468 -14.76579094 231.56535435 C-17.13321739 229.15215308 -19.59137382 226.88555303 -22.14469337 224.67096329 C-25.28971272 221.83843318 -28.09565512 218.694159 -30.9375 215.5625 C-35.17240541 211.02321406 -39.4137874 206.49009654 -43.66186523 201.96313477 C-46.15661279 199.30431389 -48.64962198 196.64386806 -51.14208984 193.98291016 C-52.39705559 192.64351045 -53.65260428 191.30465673 -54.90869141 189.96630859 C-56.73311138 188.0213592 -58.55443411 186.07355657 -60.375 184.125 C-60.92873291 183.53581787 -61.48246582 182.94663574 -62.05297852 182.33959961 C-66.9412693 177.09630634 -66.9412693 177.09630634 -67.1875 172.5 C-67 169 -67 169 -65 167 C-62.25170898 166.53710938 -62.25170898 166.53710938 -59 167 C-56.71707824 168.74475467 -54.92640133 170.34708626 -52.97265625 172.40625 C-52.42065048 172.96437378 -51.86864471 173.52249756 -51.2999115 174.09753418 C-49.5395746 175.88475274 -47.80138345 177.69192765 -46.0625 179.5 C-44.89782623 180.68621481 -43.73182237 181.87112524 -42.56445312 183.0546875 C-37.36841902 188.34632013 -32.28604079 193.69737157 -27.46069336 199.33203125 C-25.179336 201.93711791 -22.72643174 204.32953282 -20.25 206.75 C-15.30134281 211.58807267 -15.30134281 211.58807267 -13.296875 214.328125 C-12.86890625 214.87984375 -12.4409375 215.4315625 -12 216 C-11.34 216 -10.68 216 -10 216 C-9.99641747 215.13197313 -9.99641747 215.13197313 -9.99276257 214.24641037 C-9.93362973 200.16653436 -9.8580908 186.08682634 -9.76428509 172.0071373 C-9.71931705 165.19829608 -9.67990481 158.38950727 -9.65356445 151.58056641 C-9.62813949 145.01228574 -9.58724162 138.44421997 -9.53681374 131.87607574 C-9.52010034 129.36743309 -9.50861402 126.85875011 -9.50238609 124.35005951 C-9.49279382 120.84217272 -9.46479205 117.33488802 -9.43237305 113.82714844 C-9.43380814 112.78489609 -9.43524323 111.74264374 -9.4367218 110.66880798 C-9.42418365 109.71250992 -9.41164551 108.75621185 -9.39872742 107.77093506 C-9.39411845 106.94132137 -9.38950949 106.11170769 -9.38476086 105.25695419 C-8.90415595 102.43779198 -7.96932651 101.05281843 -6 99 C-3 98.5 -3 98.5 0 99 C2.73726715 101.85331683 3.37703984 103.86717131 3.39872742 107.77093506 C3.41126556 108.72723312 3.42380371 109.68353119 3.4367218 110.66880798 C3.43528671 111.71106033 3.43385162 112.75331268 3.43237305 113.82714844 C3.44766052 115.48125481 3.44766052 115.48125481 3.46325684 117.16877747 C3.4934642 120.81569448 3.50266486 124.46234915 3.51171875 128.109375 C3.52855964 130.63715493 3.54670908 133.16492646 3.56611633 135.69268799 C3.60882352 141.66722162 3.63832688 147.64167953 3.66143972 153.6163094 C3.68849324 160.41925565 3.73240459 167.22206045 3.77772844 174.02490568 C3.8705699 188.01652697 3.94225286 202.00819301 4 216 C6.91006872 214.60604703 8.86164055 213.34717593 11.03125 210.9453125 C11.86740845 210.0318103 11.86740845 210.0318103 12.72045898 209.09985352 C13.30770752 208.44815186 13.89495605 207.7964502 14.5 207.125 C19.04485427 202.16008831 23.64032001 197.28443613 28.4375 192.5625 C31.57396313 189.46751912 34.64014891 186.35601803 37.5 183 C40.6029824 179.41788061 43.75462919 175.89095871 47 172.4375 C47.48662109 171.88771484 47.97324219 171.33792969 48.47460938 170.77148438 C49.9375 169.24609375 49.9375 169.24609375 53 167 C57.06214594 167.03808262 59.09470834 167.09470834 62 170 C61.90093687 175.88718038 59.91149991 178.98478684 55.875 183 C55.37581055 183.51981445 54.87662109 184.03962891 54.36230469 184.57519531 C52.92343123 186.06615469 51.46669205 187.53645761 50 189 C49.32710937 189.67546875 48.65421875 190.3509375 47.9609375 191.046875 C46.84770261 192.15502662 45.7306991 193.25940945 44.609375 194.359375 C42.20255376 196.81293063 39.9925772 199.4282586 37.75 202.03125 C36.06201714 203.93023071 34.31230266 205.72005988 32.5 207.5 C30.10722509 209.85033101 27.86808888 212.264224 25.6875 214.8125 C22.24924857 218.81351455 18.53007214 222.46867879 14.72265625 226.1171875 C13.82417969 227.06851563 12.92570313 228.01984375 12 229 C11.34382187 229.57758057 10.68764374 230.15516113 10.01158142 230.75024414 C3.7778748 237.04000743 3.13468095 242.51820556 3.07215786 250.95535278 C3.0942839 253.78635425 3.15583146 256.6149482 3.21875 259.4453125 C3.2336919 261.42639877 3.2450697 263.40751482 3.25305176 265.38864136 C3.28343262 270.57449588 3.36187265 275.7585255 3.45068359 280.94366455 C3.53288002 286.24604614 3.56913514 291.54872591 3.609375 296.8515625 C3.69488199 307.23517185 3.83121668 317.61743351 4 328 C6.9489364 326.5846017 9.02260872 325.22500776 11.3125 322.875 C11.84488281 322.33617187 12.37726563 321.79734375 12.92578125 321.2421875 C14.70138671 319.32279478 16.40333975 317.3667179 18.10546875 315.3828125 C23.29687543 309.42360924 28.99024733 303.96483099 34.6171875 298.421875 C38.27433077 294.79807954 41.90052778 291.19708886 45.24609375 287.28125 C50.28403301 281.41570198 55.73123594 275.93332492 61.16137695 270.43359375 C62.43684758 269.13633841 63.70600344 267.83284623 64.96899414 266.5234375 C66.81009384 264.6155917 68.66999583 262.72804374 70.53515625 260.84375 C71.09469498 260.25638062 71.6542337 259.66901123 72.23072815 259.06384277 C74.8638741 256.44428792 76.49630887 255.0767675 80.21655273 254.50976562 C83 255 83 255 86 257 C86.59406374 260.34314488 86.7686559 262.76848635 84.91748047 265.734375 C83.33749391 267.58680967 81.67468343 269.29406335 79.9375 271 C79.31351318 271.6401001 78.68952637 272.2802002 78.04663086 272.93969727 C76.04929879 274.9788114 74.02769406 276.99110767 72 279 C70.65836493 280.34195898 69.31721403 281.68440219 67.9765625 283.02734375 C66.03071007 284.97343712 64.08288801 286.91729982 62.12792969 288.85424805 C58.47399313 292.48172771 54.98989095 296.17650456 51.66796875 300.11328125 C48.74374054 303.4210148 45.54575182 306.4608235 42.40625 309.5625 C40.34550655 311.65000635 38.40484374 313.77169223 36.5 316 C33.01787024 320.07343481 29.22444574 323.79035118 25.4140625 327.5546875 C22.71631684 330.28735544 20.21592297 333.1409412 17.72265625 336.05859375 C15.24273534 338.85342525 12.57905968 341.44591987 9.89453125 344.04296875 C9.26933594 344.68878906 8.64414062 345.33460938 8 346 C7.31029114 346.69461838 6.62058228 347.38923676 5.90997314 348.10490417 C3.44191035 351.84594018 3.464774 354.94914408 3.54589844 359.27856445 C3.54531433 360.09859451 3.54473022 360.91862457 3.54412842 361.76350403 C3.54690683 364.463866 3.57798655 367.16311302 3.609375 369.86328125 C3.61683827 371.7394297 3.6225308 373.61558596 3.62652588 375.491745 C3.64177542 380.42222739 3.68105143 385.35223609 3.7253418 390.28253174 C3.76630913 395.31654452 3.78454002 400.35063408 3.8046875 405.38476562 C3.8475463 415.25671817 3.91578946 425.12831965 4 435 C5.43518453 435.01073228 6.87039239 435.01837417 8.30560303 435.02471924 C9.10483059 435.02930775 9.90405815 435.03389626 10.72750473 435.03862381 C13.52805982 434.99102498 16.14612177 434.59731804 18.890625 434.046875 C19.93089844 433.83933594 20.97117187 433.63179687 22.04296875 433.41796875 C23.10128906 433.19753906 24.15960937 432.97710938 25.25 432.75 C26.29285156 432.54503906 27.33570313 432.34007812 28.41015625 432.12890625 C40.65145884 429.6383823 52.00444408 425.94588258 63.25 420.5 C64.87071411 419.71604858 64.87071411 419.71604858 66.52416992 418.91625977 C81.11382267 411.67077771 93.39275915 402.3552747 105 391 C105.85980469 390.19046875 106.71960938 389.3809375 107.60546875 388.546875 C125.96682063 370.89720343 139.4107638 347.20837716 147 323 C147.31880127 321.98365479 147.31880127 321.98365479 147.64404297 320.94677734 C155.95345606 294.01597563 158.96159536 263.62026663 152 236 C151.83371094 235.3208252 151.66742187 234.64165039 151.49609375 233.94189453 C150.22199037 228.8820525 148.69231432 223.93473168 147 219 C146.74686035 218.26152832 146.4937207 217.52305664 146.23291016 216.76220703 C138.9344688 196.05900588 128.04551409 175.60401107 115.25976562 157.76464844 C113.85529238 155.79729716 112.48175543 153.81017372 111.109375 151.8203125 C105.11413139 143.16878917 98.8700934 134.76275156 92.26416016 126.56835938 C91.06994134 125.08677157 89.88430494 123.59827785 88.69921875 122.109375 C83.94212682 116.19469587 78.94404225 110.57055587 73.7734375 105.01953125 C71.73521156 102.82535846 69.76975171 100.57972571 67.81665039 98.30957031 C64.09187818 94.0470057 60.16765727 90.0229586 56.16015625 86.02734375 C55.43436874 85.30059952 54.70858124 84.57385529 53.96080017 83.8250885 C52.43676444 82.30037704 50.91148431 80.7769085 49.38500977 79.25463867 C47.06867537 76.94366109 44.75772922 74.62739229 42.44726562 72.31054688 C40.95604966 70.8199918 39.46452347 69.329747 37.97265625 67.83984375 C37.29219742 67.15736069 36.61173859 66.47487762 35.91065979 65.77171326 C31.43380969 61.31632565 26.79453884 57.11008772 22 53 C20.8119826 51.96804326 19.62440421 50.93558063 18.4375 49.90234375 C14.97859223 46.91080265 11.49397777 43.95044639 8 41 C7.1853125 40.30519531 6.370625 39.61039062 5.53125 38.89453125 C4.52578125 38.08048828 4.52578125 38.08048828 3.5 37.25 C2.68015625 36.57710938 2.68015625 36.57710938 1.84375 35.890625 C-3.40229373 33.35651913 -6.93887579 35.17113429 -11 38.75 Z " fill="#E38000" transform="translate(515,246)"/>
<path d="M0 0 C1.79715454 0.00616333 1.79715454 0.00616333 3.63061523 0.01245117 C4.92805664 0.01438477 6.22549805 0.01631836 7.56225586 0.01831055 C8.23893311 0.02451416 8.91561035 0.03071777 9.61279297 0.03710938 C11.68461369 0.0553794 13.75598795 0.05761897 15.82788086 0.05737305 C25.98662641 0.10283735 25.98662641 0.10283735 27.12670898 1.24291992 C27.22749018 3.60690461 27.26644114 5.94103303 27.25952148 8.30541992 C27.26047821 9.01190674 27.26143494 9.71839355 27.26242065 10.44628906 C27.26310231 11.94262786 27.26124903 13.43896959 27.25708008 14.93530273 C27.25173156 17.23322149 27.25702549 19.53094478 27.26342773 21.82885742 C27.26276695 23.27937869 27.26148578 24.72989983 27.25952148 26.18041992 C27.26154572 26.87208252 27.26356995 27.56374512 27.26565552 28.27636719 C27.24166122 33.12796768 27.24166122 33.12796768 26.12670898 34.24291992 C23.92020242 34.34304394 21.71048512 34.37373172 19.50170898 34.37573242 C18.83961426 34.37668915 18.17751953 34.37764587 17.49536133 34.37863159 C16.09317937 34.37931319 14.69099428 34.37746034 13.28881836 34.37329102 C11.13575185 34.36794239 8.98289396 34.37323662 6.82983398 34.37963867 C5.47045852 34.37897789 4.11108319 34.37769672 2.75170898 34.37573242 C1.50647461 34.37460449 0.26124023 34.37347656 -1.02172852 34.37231445 C-3.87329102 34.24291992 -3.87329102 34.24291992 -4.87329102 33.24291992 C-5.09162091 28.84293047 -5.05908247 24.43757181 -5.05859375 20.03271484 C-5.06077852 17.8180821 -5.07892633 15.60394869 -5.09790039 13.3894043 C-5.10083458 11.9877133 -5.1028192 10.58601993 -5.10375977 9.18432617 C-5.10786865 7.90243408 -5.11197754 6.62054199 -5.11621094 5.29980469 C-4.79242158 1.22526551 -4.0964975 0.34633486 0 0 Z " fill="#E98400" transform="translate(726.873291015625,356.757080078125)"/>
<path d="M0 0 C1.30066406 -0.00128906 2.60132813 -0.00257813 3.94140625 -0.00390625 C4.96258545 -0.00076416 4.96258545 -0.00076416 6.00439453 0.00244141 C8.08503515 0.0077901 10.16545989 0.0024957 12.24609375 -0.00390625 C14.19708984 -0.00197266 14.19708984 -0.00197266 16.1875 0 C17.39083984 0.00112793 18.59417969 0.00225586 19.83398438 0.00341797 C22.59375 0.1328125 22.59375 0.1328125 23.59375 1.1328125 C23.69387401 3.33931906 23.7245618 5.54903636 23.7265625 7.7578125 C23.72799759 8.75095459 23.72799759 8.75095459 23.72946167 9.76416016 C23.73014326 11.16634211 23.72829042 12.5685272 23.72412109 13.97070312 C23.71877246 16.12376963 23.7240667 18.27662752 23.73046875 20.4296875 C23.72980796 21.78906296 23.72852679 23.1484383 23.7265625 24.5078125 C23.72543457 25.75304687 23.72430664 26.99828125 23.72314453 28.28125 C23.59375 31.1328125 23.59375 31.1328125 22.59375 32.1328125 C17.95359675 32.386968 13.30253694 32.31804048 8.65625 32.3203125 C7.34205078 32.33255859 6.02785156 32.34480469 4.67382812 32.35742188 C3.42150391 32.35935547 2.16917969 32.36128906 0.87890625 32.36328125 C-0.85540649 32.36944458 -0.85540649 32.36944458 -2.62475586 32.37573242 C-5.40625 32.1328125 -5.40625 32.1328125 -7.40625 30.1328125 C-7.64916992 27.25952148 -7.64916992 27.25952148 -7.63671875 23.62890625 C-7.63478516 22.33146484 -7.63285156 21.03402344 -7.63085938 19.69726562 C-7.62465576 19.02058838 -7.61845215 18.34391113 -7.61206055 17.64672852 C-7.59379052 15.57490779 -7.59155095 13.50353353 -7.59179688 11.43164062 C-7.54066751 0.00706811 -7.54066751 0.00706811 0 0 Z " fill="#E78C01" transform="translate(639.40625,256.8671875)"/>
<path d="M0 0 C1.30066406 -0.00128906 2.60132813 -0.00257813 3.94140625 -0.00390625 C4.96258545 -0.00076416 4.96258545 -0.00076416 6.00439453 0.00244141 C8.08503515 0.0077901 10.16545989 0.0024957 12.24609375 -0.00390625 C14.19708984 -0.00197266 14.19708984 -0.00197266 16.1875 0 C17.39083984 0.00112793 18.59417969 0.00225586 19.83398438 0.00341797 C22.59375 0.1328125 22.59375 0.1328125 23.59375 1.1328125 C23.84717236 5.43928886 23.77897638 9.75726304 23.78125 14.0703125 C23.79349609 15.28912109 23.80574219 16.50792969 23.81835938 17.76367188 C23.82125977 19.50680664 23.82125977 19.50680664 23.82421875 21.28515625 C23.82832764 22.35757568 23.83243652 23.42999512 23.83666992 24.53491211 C23.59375 27.1328125 23.59375 27.1328125 21.59375 29.1328125 C18.81225586 29.37573242 18.81225586 29.37573242 15.30859375 29.36328125 C14.05626953 29.36134766 12.80394531 29.35941406 11.51367188 29.35742188 C9.54237305 29.33905273 9.54237305 29.33905273 7.53125 29.3203125 C6.21318359 29.31966797 4.89511719 29.31902344 3.53710938 29.31835938 C-6.26615877 29.27290373 -6.26615877 29.27290373 -7.40625 28.1328125 C-7.50608058 26.14524222 -7.53705753 24.1541373 -7.5390625 22.1640625 C-7.54035156 20.95363281 -7.54164063 19.74320313 -7.54296875 18.49609375 C-7.53910156 17.22121094 -7.53523437 15.94632813 -7.53125 14.6328125 C-7.53511719 13.35792969 -7.53898438 12.08304688 -7.54296875 10.76953125 C-7.54167969 9.55910156 -7.54039062 8.34867188 -7.5390625 7.1015625 C-7.53793457 5.98201172 -7.53680664 4.86246094 -7.53564453 3.70898438 C-7.28637267 -1.25387737 -4.32338548 0.00405245 0 0 Z " fill="#E98C01" transform="translate(699.40625,229.8671875)"/>
<path d="M0 0 C1.25554688 -0.00128906 2.51109375 -0.00257813 3.8046875 -0.00390625 C4.46178711 -0.00181152 5.11888672 0.0002832 5.79589844 0.00244141 C7.80411335 0.00779016 9.81210459 0.00249559 11.8203125 -0.00390625 C13.07585938 -0.00261719 14.33140625 -0.00132812 15.625 0 C16.78644531 0.00112793 17.94789063 0.00225586 19.14453125 0.00341797 C21.8125 0.1328125 21.8125 0.1328125 22.8125 1.1328125 C23.06630234 5.60613208 22.99772721 10.0906471 23 14.5703125 C23.01224609 15.83681641 23.02449219 17.10332031 23.03710938 18.40820312 C23.04000977 20.21901367 23.04000977 20.21901367 23.04296875 22.06640625 C23.04707764 23.18072021 23.05118652 24.29503418 23.05541992 25.44311523 C22.8125 28.1328125 22.8125 28.1328125 20.8125 30.1328125 C18.23046875 30.39160156 18.23046875 30.39160156 15 30.3984375 C13.84242188 30.40101563 12.68484375 30.40359375 11.4921875 30.40625 C10.27789063 30.39851563 9.06359375 30.39078125 7.8125 30.3828125 C6.59820313 30.39054687 5.38390625 30.39828125 4.1328125 30.40625 C2.39644531 30.40238281 2.39644531 30.40238281 0.625 30.3984375 C-0.97408203 30.39505371 -0.97408203 30.39505371 -2.60546875 30.39160156 C-5.1875 30.1328125 -5.1875 30.1328125 -7.1875 28.1328125 C-7.43041992 25.44311523 -7.43041992 25.44311523 -7.41796875 22.06640625 C-7.41603516 20.85919922 -7.41410156 19.65199219 -7.41210938 18.40820312 C-7.39986328 17.14169922 -7.38761719 15.87519531 -7.375 14.5703125 C-7.37435547 13.29994141 -7.37371094 12.02957031 -7.37304688 10.72070312 C-7.32151169 0.00711024 -7.32151169 0.00711024 0 0 Z " fill="#E68801" transform="translate(683.1875,310.8671875)"/>
<path d="M0 0 C2.72043553 1.09863743 5.22019566 2.23584829 7.8125 3.578125 C8.5444458 3.94597107 9.2763916 4.31381714 10.03051758 4.69281006 C11.57299195 5.47074901 13.1125857 6.25442293 14.64941406 7.04345703 C16.98676321 8.24320563 19.33215267 9.42579559 21.6796875 10.60546875 C23.18279348 11.36619679 24.68541422 12.12788452 26.1875 12.890625 C26.88141846 13.24183411 27.57533691 13.59304321 28.2902832 13.95489502 C32.39196576 16.06536395 36.20970316 18.36948683 40 21 C39.34 21.33 38.68 21.66 38 22 C34.66375337 20.43578018 31.44147129 18.73813918 28.20507812 16.98046875 C24.65266784 15.1163655 22.15361885 14.02003054 18.10546875 13.4921875 C17.08066406 13.32976562 16.05585938 13.16734375 15 13 C13.8359375 11.00390625 13.8359375 11.00390625 13 9 C10.95805381 8.19537512 10.95805381 8.19537512 8.625 7.9375 C4.20581114 7.16343826 4.20581114 7.16343826 1.875 5.3125 C-0.07142264 3.69755995 -0.07142264 3.69755995 -3.3125 3.875 C-10.04604898 5.92930308 -13.79467007 11.59314723 -18 17 C-19.77107975 19.00209016 -21.13022788 20.07162533 -23.5 21.375 C-26.39609216 23.25745991 -27.35391515 25.00711845 -29 28 C-30.5 29.8125 -30.5 29.8125 -32 31 C-32.99 31 -33.98 31 -35 31 C-35.08765625 31.74507813 -35.1753125 32.49015625 -35.265625 33.2578125 C-36.13974484 36.52181316 -37.26934147 37.62748607 -39.75 39.875 C-45.61286088 45.4852421 -49.49227915 49.70722612 -50 58 C-49.07622559 58.1383728 -49.07622559 58.1383728 -48.13378906 58.27954102 C-46 59 -46 59 -44.81152344 60.55053711 C-44.49731445 61.2028833 -44.18310547 61.85522949 -43.859375 62.52734375 C-43.51132812 63.23697266 -43.16328125 63.94660156 -42.8046875 64.67773438 C-42.45664062 65.42345703 -42.10859375 66.16917969 -41.75 66.9375 C-41.20472656 68.0502832 -41.20472656 68.0502832 -40.6484375 69.18554688 C-38 74.67657425 -38 74.67657425 -38 77 C-37.071875 77.10054687 -37.071875 77.10054687 -36.125 77.203125 C-34 78 -34 78 -32.875 80.109375 C-32.58625 80.98078125 -32.2975 81.8521875 -32 82.75 C-30.52485402 86.78785057 -29.14968457 89.95191815 -26 93 C-25.01 93 -24.02 93 -23 93 C-23.66 93.99 -24.32 94.98 -25 96 C-24.62875 97.010625 -24.2575 98.02125 -23.875 99.0625 C-22.37131855 103.50734454 -24.06822037 106.57447077 -25.95703125 110.66796875 C-26.90329083 112.78376264 -27.51689935 114.74033568 -28 117 C-29.98 117.495 -29.98 117.495 -32 118 C-31.67 119.98 -31.34 121.96 -31 124 C-32.485 124.99 -32.485 124.99 -34 126 C-34.25030977 128.58380177 -34.25030977 128.58380177 -34 131 C-34.61875 131.226875 -35.2375 131.45375 -35.875 131.6875 C-38.61410209 133.37929835 -39.05024472 134.99244161 -40 138 C-40.33 137.34 -40.66 136.68 -41 136 C-40.3203125 133.98828125 -40.3203125 133.98828125 -39.125 131.3125 C-36.3936819 124.9420109 -33.72161173 118.55179105 -31.125 112.125 C-30.70750488 111.12637939 -30.29000977 110.12775879 -29.85986328 109.09887695 C-26.91097456 102.17774174 -26.91097456 102.17774174 -28 95 C-29.7906318 91.77609589 -31.8045578 88.73737998 -33.875 85.6875 C-34.4534668 84.81319336 -35.03193359 83.93888672 -35.62792969 83.03808594 C-38.47734226 78.73358789 -41.36839102 74.45847056 -44.2734375 70.19140625 C-45.02778076 69.06569214 -45.02778076 69.06569214 -45.79736328 67.91723633 C-46.73820521 66.51356342 -47.6916008 65.11819117 -48.65966797 63.7331543 C-51.74741997 59.11085133 -52.97115565 55.60734079 -53 50 C-51.84765625 47.53125 -51.84765625 47.53125 -50.0625 45.5 C-49.41410156 44.74847656 -48.76570313 43.99695313 -48.09765625 43.22265625 C-45.44331029 40.41013698 -42.74306032 37.65912589 -39.96875 34.96484375 C-38.0460907 33.04599925 -36.26798123 31.06130539 -34.5 29 C-31.48237647 25.48858352 -28.26640919 22.24692598 -24.96875 19 C-23.06013545 17.06108998 -21.27289448 15.06300449 -19.5 13 C-7.73512797 -0.65806983 -7.73512797 -0.65806983 0 0 Z " fill="#EAAB04" transform="translate(360,324)"/>
<path d="M0 0 C-0.99 0.33 -1.98 0.66 -3 1 C-3.33 1.66 -3.66 2.32 -4 3 C-7.63 3 -11.26 3 -15 3 C-15.33 4.32 -15.66 5.64 -16 7 C-17.32 6.67 -18.64 6.34 -20 6 C-20 5.34 -20 4.68 -20 4 C-20.61875 4.495 -21.2375 4.99 -21.875 5.5 C-24 7 -24 7 -26 7 C-26.66 7.66 -27.32 8.32 -28 9 C-29.67455914 8.70889764 -31.34063364 8.36795677 -33 8 C-35.83451945 8.01654321 -35.83451945 8.01654321 -38.6875 8.3125 C-39.64011719 8.39113281 -40.59273438 8.46976562 -41.57421875 8.55078125 C-44.1727819 8.79509602 -44.1727819 8.79509602 -46 11 C-46.804375 11.61875 -46.804375 11.61875 -47.625 12.25 C-49.60474383 14.76967397 -49.06523292 16.86882001 -49 20 C-49.66 20.99 -50.32 21.98 -51 23 C-51.25840239 25.09480522 -51.25840239 25.09480522 -51.16015625 27.37890625 C-51.14919922 28.21744141 -51.13824219 29.05597656 -51.12695312 29.91992188 C-51.10568359 30.79197266 -51.08441406 31.66402344 -51.0625 32.5625 C-51.02812146 34.2928864 -50.99796827 36.02336348 -50.97265625 37.75390625 C-50.95468994 38.52033447 -50.93672363 39.2867627 -50.91821289 40.07641602 C-51 42 -51 42 -52 44 C-51.34 44.33 -50.68 44.66 -50 45 C-50.66 45 -51.32 45 -52 45 C-52.33 50.28 -52.66 55.56 -53 61 C-53.33 61 -53.66 61 -54 61 C-54.02517326 56.98389666 -54.04307755 52.96782537 -54.05493164 48.95166016 C-54.06229008 46.93260071 -54.07501162 44.91356303 -54.08789062 42.89453125 C-54.15186785 16.91977974 -54.15186785 16.91977974 -50 10 C-46.72600679 6.9317871 -43.64225796 6.27763283 -39.28515625 5.46484375 C-38.30777748 5.27856163 -38.30777748 5.27856163 -37.31065369 5.08851624 C-35.22968528 4.69474069 -33.14626408 4.31616848 -31.0625 3.9375 C-29.69708808 3.67997602 -28.33185153 3.42152043 -26.96679688 3.16210938 C-20.53182477 1.94922242 -14.08281667 0.81529072 -7.62109375 -0.24609375 C-6.58267334 -0.41681396 -5.54425293 -0.58753418 -4.47436523 -0.76342773 C-2 -1 -2 -1 0 0 Z " fill="#EAA503" transform="translate(318,463)"/>
<path d="M0 0 C1.20446777 0.01047363 2.40893555 0.02094727 3.64990234 0.03173828 C5.60283203 0.04140625 5.60283203 0.04140625 7.59521484 0.05126953 C8.9754258 0.06798149 10.35563413 0.08491139 11.73583984 0.10205078 C13.12385436 0.11208072 14.51187574 0.12120655 15.89990234 0.12939453 C19.3037201 0.15303215 22.70719491 0.18598211 26.11083984 0.22705078 C26.11083984 0.88705078 26.11083984 1.54705078 26.11083984 2.22705078 C16.54083984 2.22705078 6.97083984 2.22705078 -2.88916016 2.22705078 C-2.55916016 12.12705078 -2.22916016 22.02705078 -1.88916016 32.22705078 C11.47583984 32.72205078 11.47583984 32.72205078 25.11083984 33.22705078 C25.11083984 33.55705078 25.11083984 33.88705078 25.11083984 34.22705078 C20.99911425 34.25170824 16.88741707 34.26989037 12.77563477 34.28198242 C11.37588756 34.28702158 9.97614564 34.29385295 8.57641602 34.30249023 C6.56838208 34.31457398 4.56031027 34.31974885 2.55224609 34.32470703 C1.3425415 34.32994385 0.13283691 34.33518066 -1.11352539 34.34057617 C-3.88916016 34.22705078 -3.88916016 34.22705078 -4.88916016 33.22705078 C-5.10749005 28.82706133 -5.07495161 24.42170267 -5.07446289 20.0168457 C-5.07664766 17.80221296 -5.09479547 15.58807955 -5.11376953 13.37353516 C-5.11670372 11.97184416 -5.11868835 10.57015078 -5.11962891 9.16845703 C-5.12373779 7.88656494 -5.12784668 6.60467285 -5.13208008 5.28393555 C-4.80743505 1.19862867 -4.10965858 0.32296624 0 0 Z " fill="#E59504" transform="translate(726.88916015625,356.77294921875)"/>
<path d="M0 0 C2.23828125 1.53125 2.23828125 1.53125 4.3125 3.5 C5.00988281 4.1496875 5.70726562 4.799375 6.42578125 5.46875 C6.94527344 5.9740625 7.46476563 6.479375 8 7 C5 7 5 7 3.125 5.5625 C0.62467066 3.72402254 -0.91992037 3.29160517 -4 3 C-10.77670526 5.86154162 -15.44910317 11.4417432 -20 17 C-23.6097561 20.80487805 -23.6097561 20.80487805 -26 22 C-26.72693904 23.97888961 -27.39816251 25.97954558 -28 28 C-28.66 27.01 -29.32 26.02 -30 25 C-30.4125 25.515625 -30.825 26.03125 -31.25 26.5625 C-31.8275 27.036875 -32.405 27.51125 -33 28 C-35.109375 27.58984375 -35.109375 27.58984375 -37 27 C-32.32538762 22.03821007 -27.30006227 17.6892641 -21.9921875 13.41796875 C-17.75564464 9.99444391 -13.59875441 6.47853428 -9.43359375 2.96875 C-6.09149857 0.26503255 -4.29073117 -0.45632591 0 0 Z " fill="#EAA703" transform="translate(515,246)"/>
<path d="M0 0 C0.66 0 1.32 0 2 0 C3.22160223 3.6648067 2.63002724 4.48631684 1.125 7.9375 C-0.1730733 10.94666993 -1.30079766 13.79408287 -2 17 C-3.32 17.33 -4.64 17.66 -6 18 C-5.67 19.98 -5.34 21.96 -5 24 C-5.99 24.66 -6.98 25.32 -8 26 C-8.25030977 28.58380177 -8.25030977 28.58380177 -8 31 C-8.928125 31.3403125 -8.928125 31.3403125 -9.875 31.6875 C-12.61410209 33.37929835 -13.05024472 34.99244161 -14 38 C-14.33 37.34 -14.66 36.68 -15 36 C-14.3203125 33.98828125 -14.3203125 33.98828125 -13.125 31.3125 C-9.88424019 23.84227401 -6.9619673 16.25762618 -4.03564453 8.65942383 C-3.65778809 7.68513428 -3.27993164 6.71084473 -2.890625 5.70703125 C-2.55063477 4.8250708 -2.21064453 3.94311035 -1.86035156 3.03442383 C-1 1 -1 1 0 0 Z " fill="#E59B04" transform="translate(334,424)"/>
<path d="M0 0 C7.86472598 0.63251488 15.43573922 1.9815758 23.14453125 3.62695312 C28.51816259 4.7136208 33.5017043 5.16735131 38.98632812 4.97045898 C41 5 41 5 43 6 C44.1875 8.375 44.1875 8.375 45 11 C44.67 11.99 44.34 12.98 44 14 C43.58492188 13.21882812 43.16984375 12.43765625 42.7421875 11.6328125 C38.50597533 7.56556606 33.80501005 7.58126659 28.125 6.875 C25.86683124 6.55458416 23.609014 6.23168076 21.3515625 5.90625 C19.71622559 5.67808594 19.71622559 5.67808594 18.04785156 5.4453125 C14.16460533 4.87794298 10.34308004 4.17066875 6.5 3.375 C4.90671875 3.04628906 4.90671875 3.04628906 3.28125 2.7109375 C2.5284375 2.47632813 1.775625 2.24171875 1 2 C0.67 1.34 0.34 0.68 0 0 Z " fill="#DE9903" transform="translate(277,558)"/>
<path d="M0 0 C0.33 0.66 0.66 1.32 1 2 C-0.5331067 4.59801913 -2.12101107 7.0699537 -3.8125 9.5625 C-12.2601006 22.30733465 -19.89146149 35.46553099 -27 49 C-28.43088528 46.13822943 -27.59991697 44.06624227 -27 41 C-26.34 41 -25.68 41 -25 41 C-23.53743341 38.2730819 -22.08071459 35.5430812 -20.625 32.8125 C-20.2125 32.04357422 -19.8 31.27464844 -19.375 30.48242188 C-17.70774946 27.34960432 -16.12774276 24.3465362 -14.8984375 21.01171875 C-14.45371094 20.01591797 -14.45371094 20.01591797 -14 19 C-13.01 18.67 -12.02 18.34 -11 18 C-11.33 17.01 -11.66 16.02 -12 15 C-11.01 15 -10.02 15 -9 15 C-7.52952664 11.08936776 -7.52952664 11.08936776 -7 7 C-6.01 6.67 -5.02 6.34 -4 6 C-2.60287726 4.04402816 -1.26220093 2.04563599 0 0 Z " fill="#E59B04" transform="translate(399,394)"/>
<path d="M0 0 C3.5 1.5 3.5 1.5 6 3 C4.02 3.99 4.02 3.99 2 5 C1.649375 4.484375 1.29875 3.96875 0.9375 3.4375 C-1.03354141 1.69246448 -1.03354141 1.69246448 -4.25 1.875 C-9.22443065 3.3673292 -11.67888198 6.13377446 -15 10 C-15 6.40445724 -14.39521908 5.86276675 -12 3.3125 C-7.88626818 -0.6183993 -5.56693035 -0.88363974 0 0 Z M-17 10 C-17 10.99 -17 11.98 -17 13 C-19.5 14.6875 -19.5 14.6875 -22 16 C-22.33 15.01 -22.66 14.02 -23 13 C-20.375 10 -20.375 10 -17 10 Z " fill="#E99D01" transform="translate(361,326)"/>
<path d="M0 0 C0.61328125 1.8828125 0.61328125 1.8828125 1 4 C-0.31054623 5.35573748 -1.64748503 6.68612831 -3 8 C-4.26784124 11.13350717 -4.26784124 11.13350717 -5 14 C-5.66 13.01 -6.32 12.02 -7 11 C-7.4125 11.515625 -7.825 12.03125 -8.25 12.5625 C-8.8275 13.036875 -9.405 13.51125 -10 14 C-12.109375 13.58984375 -12.109375 13.58984375 -14 13 C-9.52647956 8.40410362 -4.91935902 4.11619836 0 0 Z " fill="#E29D03" transform="translate(492,260)"/>
<path d="M0 0 C3.81690594 1.57453605 6.2147227 3.9851617 9.09765625 6.90234375 C9.81096352 7.61989586 9.81096352 7.61989586 10.53868103 8.35194397 C12.05140157 9.875812 13.55701531 11.40648637 15.0625 12.9375 C16.07831121 13.96335111 17.0945827 14.98874668 18.11132812 16.01367188 C19.97822707 17.89686858 21.84179808 19.78314716 23.70336914 21.67163086 C25.46218565 23.45475333 27.22573399 25.23228782 29 27 C25.22104463 27 24.28055454 25.63118671 21.69599915 23.0615387 C21.14276474 22.49595749 20.58953033 21.93037628 20.01953125 21.34765625 C19.44667892 20.77293076 18.8738266 20.19820526 18.28361511 19.60606384 C17.07398576 18.38970946 15.86796103 17.16976139 14.6652832 15.9465332 C12.81648462 14.06655183 10.95720061 12.1974781 9.09570312 10.33007812 C7.92385246 9.14905901 6.75260737 7.96743865 5.58203125 6.78515625 C5.02272415 6.22159927 4.46341705 5.6580423 3.88716125 5.07740784 C0 1.11714176 0 1.11714176 0 0 Z " fill="#D99B04" transform="translate(545,306)"/>
<path d="M0 0 C5.37863626 4.49631404 10.41660713 9.23367287 15.375 14.1875 C16.09816406 14.89841797 16.82132812 15.60933594 17.56640625 16.34179688 C18.59701172 17.36950195 18.59701172 17.36950195 19.6484375 18.41796875 C20.26895996 19.03438232 20.88948242 19.6507959 21.52880859 20.28588867 C23 22 23 22 24 25 C23.01 24.67 22.02 24.34 21 24 C21 23.34 21 22.68 21 22 C20.01 21.67 19.02 21.34 18 21 C16.5625 19.5390625 16.5625 19.5390625 15 17.625 C11.42435247 13.38036035 7.55995451 9.517989 3.55664062 5.68212891 C2.33492845 4.49074595 1.16276828 3.24897714 0 2 C0 1.34 0 0.68 0 0 Z " fill="#E5A304" transform="translate(460,417)"/>
<path d="M0 0 C0.33 0.66 0.66 1.32 1 2 C0.48050781 2.44730469 -0.03898437 2.89460938 -0.57421875 3.35546875 C-3.60606961 5.98382005 -6.5992275 8.5992275 -9.4375 11.4375 C-13.13457291 15.13457291 -17.0721253 18.55134312 -21 22 C-21.66 21.67 -22.32 21.34 -23 21 C-15.67685883 13.5418009 -8.24176215 6.43887668 0 0 Z " fill="#E2A204" transform="translate(477,274)"/>
<path d="M0 0 C0.33 0 0.66 0 1 0 C1 3.3 1 6.6 1 10 C1.66 10.33 2.32 10.66 3 11 C2.34 11.66 1.68 12.32 1 13 C0.97864622 16.13545766 0.97864622 16.13545766 1.375 19.625 C1.48585938 20.81351563 1.59671875 22.00203125 1.7109375 23.2265625 C1.80632812 24.14179687 1.90171875 25.05703125 2 26 C1.34 26.33 0.68 26.66 0 27 C-1.59467014 23.81065971 -1.14285117 20.37382982 -1.125 16.875 C-1.12886719 16.14023437 -1.13273437 15.40546875 -1.13671875 14.6484375 C-1.12797741 9.68335463 -0.70218318 4.91528227 0 0 Z " fill="#F5A402" transform="translate(266,526)"/>
<path d="M0 0 C0.33 0 0.66 0 1 0 C1.06058594 0.62648438 1.12117188 1.25296875 1.18359375 1.8984375 C1.26738281 2.71570313 1.35117187 3.53296875 1.4375 4.375 C1.51871094 5.18710937 1.59992188 5.99921875 1.68359375 6.8359375 C1.89090114 9.04272805 1.89090114 9.04272805 3 11 C2.67 11.66 2.34 12.32 2 13 C2.66 13.33 3.32 13.66 4 14 C3.34 14 2.68 14 2 14 C1.67 19.28 1.34 24.56 1 30 C0.67 30 0.34 30 0 30 C0 20.1 0 10.2 0 0 Z " fill="#E4A003" transform="translate(264,494)"/>
<path d="M0 0 C0.99 0.33 1.98 0.66 3 1 C2.01 1.33 1.02 1.66 0 2 C-0.35412344 3.32796291 -0.68521554 4.66216607 -1 6 C-1.9793879 7.02019573 -2.97895449 8.02149805 -4 9 C-4.33 9.99 -4.66 10.98 -5 12 C-5.99 11.67 -6.98 11.34 -8 11 C-10.63804589 11.39397335 -10.63804589 11.39397335 -13 12 C-12.34 11.505 -11.68 11.01 -11 10.5 C-7.08476155 7.23730129 -3.56121854 3.64074947 0 0 Z " fill="#EA9F03" transform="translate(414,335)"/>
<path d="M0 0 C2.28476032 3.42714048 2.16747262 4.1681798 1.7578125 8.10546875 C1.66113281 9.08837891 1.56445312 10.07128906 1.46484375 11.08398438 C1.35269531 12.10814453 1.24054688 13.13230469 1.125 14.1875 C1.02058594 15.22326172 0.91617187 16.25902344 0.80859375 17.32617188 C0.54914022 19.88532717 0.27922837 22.44293928 0 25 C-0.33 25 -0.66 25 -1 25 C-1.0271045 21.95827281 -1.04688964 18.91679003 -1.0625 15.875 C-1.07087891 15.0190625 -1.07925781 14.163125 -1.08789062 13.28125 C-1.10538306 8.73321589 -0.93192358 4.47616836 0 0 Z " fill="#D28D02" transform="translate(265,518)"/>
<path d="M0 0 C0 0.99 0 1.98 0 3 C-7.28571429 7.42857143 -7.28571429 7.42857143 -12 8 C-12.33 7.01 -12.66 6.02 -13 5 C-11.21046815 4.16209211 -9.41830305 3.32980604 -7.625 2.5 C-6.62726562 2.0359375 -5.62953125 1.571875 -4.6015625 1.09375 C-2 0 -2 0 0 0 Z " fill="#D57401" transform="translate(581,665)"/>
<path d="M0 0 C-0.99 0.33 -1.98 0.66 -3 1 C-3.33 1.66 -3.66 2.32 -4 3 C-7.63 3 -11.26 3 -15 3 C-15.33 4.32 -15.66 5.64 -16 7 C-17.32 6.67 -18.64 6.34 -20 6 C-20 5.34 -20 4.68 -20 4 C-19.01 4 -18.02 4 -17 4 C-17 3.34 -17 2.68 -17 2 C-14.23993659 0.61996829 -11.54538663 0.35336825 -8.5 -0.125 C-7.3346875 -0.31320312 -6.169375 -0.50140625 -4.96875 -0.6953125 C-2 -1 -2 -1 0 0 Z " fill="#E8A905" transform="translate(318,463)"/>
<path d="M0 0 C2.375 2.5 2.375 2.5 4 5 C2.35 4.67 0.7 4.34 -1 4 C-1 3.34 -1 2.68 -1 2 C-2.65 2 -4.3 2 -6 2 C-6.12375 2.5775 -6.2475 3.155 -6.375 3.75 C-7.00648824 6.02335767 -7.88858191 7.9253529 -9 10 C-9.36103152 3.6217765 -9.36103152 3.6217765 -7.875 1.0625 C-5.0300175 -0.54965675 -3.2088071 -0.52388687 0 0 Z " fill="#E39C06" transform="translate(456,412)"/>
<path d="M0 0 C0 0.66 0 1.32 0 2 C-9.41002278 4.29612756 -9.41002278 4.29612756 -14 4 C-14 3.01 -14 2.02 -14 1 C-8.83955235 -0.512545 -5.34001821 -1.33500455 0 0 Z " fill="#D06E02" transform="translate(559,676)"/>
<path d="M0 0 C2.4375 1.0625 2.4375 1.0625 5 3 C5.625 6.25 5.625 6.25 6 10 C6.49877672 11.26772417 7.0409149 12.51924926 7.625 13.75 C9 17 9 17 8 20 C6.66065284 17.04435292 5.32955753 14.0850622 4 11.125 C3.6184375 10.28324219 3.236875 9.44148438 2.84375 8.57421875 C2.4828125 7.76855469 2.121875 6.96289062 1.75 6.1328125 C1.41484375 5.38918457 1.0796875 4.64555664 0.734375 3.87939453 C0 2 0 2 0 0 Z " fill="#EA9703" transform="translate(652,441)"/>
<path d="M0 0 C0.99 0.66 1.98 1.32 3 2 C-1.29 6.29 -5.58 10.58 -10 15 C-10.66 14.67 -11.32 14.34 -12 14 C-12 13.01 -12 12.02 -12 11 C-11.41605469 10.90460938 -10.83210938 10.80921875 -10.23046875 10.7109375 C-7.52016452 9.84705769 -6.28637877 8.6545413 -4.3125 6.625 C-3.40951172 5.71621094 -3.40951172 5.71621094 -2.48828125 4.7890625 C-0.78559408 2.96278 -0.78559408 2.96278 0 0 Z " fill="#EAA103" transform="translate(474,307)"/>
<path d="M0 0 C0.99 0.66 1.98 1.32 3 2 C1.57084149 3.34227046 0.13137328 4.67357096 -1.3125 6 C-2.11300781 6.7425 -2.91351563 7.485 -3.73828125 8.25 C-6 10 -6 10 -9 10 C-8.25 8.0625 -8.25 8.0625 -7 6 C-4.875 5.25 -4.875 5.25 -3 5 C-3 4.34 -3 3.68 -3 3 C-2.01 3 -1.02 3 0 3 C0 2.01 0 1.02 0 0 Z " fill="#E79903" transform="translate(499,285)"/>
<path d="M0 0 C0.33 0 0.66 0 1 0 C1.05429959 1.74965358 1.09292823 3.49979787 1.125 5.25 C1.14820313 6.22453125 1.17140625 7.1990625 1.1953125 8.203125 C0.99862781 11.0196498 0.44568916 12.60949036 -1 15 C-1.66 15 -2.32 15 -3 15 C-2.69163768 12.87439563 -2.37818386 10.74952935 -2.0625 8.625 C-1.88847656 7.44164062 -1.71445312 6.25828125 -1.53515625 5.0390625 C-1 2 -1 2 0 0 Z " fill="#D37E02" transform="translate(668,543)"/>
<path d="M0 0 C2 2 2 2 2.1875 5.6875 C2.09629967 9.52492934 1.63059333 13.21644004 1 17 C0.67 17 0.34 17 0 17 C-0.19386492 14.35448944 -0.38038267 11.70882217 -0.5625 9.0625 C-0.61857422 8.30775391 -0.67464844 7.55300781 -0.73242188 6.77539062 C-0.86176157 4.85254042 -0.93516912 2.92610452 -1 1 C-0.67 0.67 -0.34 0.34 0 0 Z " fill="#EC9304" transform="translate(353,489)"/>
<path d="M0 0 C0.66 0 1.32 0 2 0 C2.24492187 0.73605469 2.48984375 1.47210938 2.7421875 2.23046875 C4.13627678 5.30006284 5.6939196 6.99905253 8.125 9.3125 C8.84945313 10.00988281 9.57390625 10.70726562 10.3203125 11.42578125 C10.87460937 11.94527344 11.42890625 12.46476562 12 13 C11.67 13.66 11.34 14.32 11 15 C7.04 11.04 3.08 7.08 -1 3 C-0.67 2.01 -0.34 1.02 0 0 Z " fill="#EAA004" transform="translate(459,432)"/>
<path d="M0 0 C0.66 1.32 1.32 2.64 2 4 C-0.97 6.475 -0.97 6.475 -4 9 C-4.99 8.01 -5.98 7.02 -7 6 C-6.030625 5.38125 -5.06125 4.7625 -4.0625 4.125 C-0.97164638 2.34321154 -0.97164638 2.34321154 0 0 Z " fill="#CF7401" transform="translate(705,660)"/>
<path d="M0 0 C0.99 0 1.98 0 3 0 C1.33248852 3.94139078 -1.22710649 6.7892812 -4 10 C-5 8 -5 8 -4.25 5.5 C-3 3 -3 3 0 1 C0 0.67 0 0.34 0 0 Z " fill="#E89B04" transform="translate(422,362)"/>
<path d="M0 0 C0.33 1.32 0.66 2.64 1 4 C-0.11375 4.61875 -0.11375 4.61875 -1.25 5.25 C-3.90171685 6.93745618 -5.86674014 8.70872089 -8 11 C-8.66 10.67 -9.32 10.34 -10 10 C-6.7 6.7 -3.4 3.4 0 0 Z " fill="#F3BA04" transform="translate(338,340)"/>
<path d="M0 0 C1.8125 0.1875 1.8125 0.1875 4 1 C5.99925898 3.84509932 7.45097678 6.8953338 9 10 C7.86800647 9.0919838 6.74467637 8.17316174 5.625 7.25 C4.99851562 6.73953125 4.37203125 6.2290625 3.7265625 5.703125 C1.91687682 3.91800519 0.99882545 2.32050356 0 0 Z " fill="#E69A04" transform="translate(576,336)"/>
<path d="M0 0 C0 3.90838866 -1.50567876 5.11594107 -4 8 C-5.32 7.67 -6.64 7.34 -8 7 C-5.36 4.69 -2.72 2.38 0 0 Z " fill="#D89703" transform="translate(453,296)"/>
<path d="M0 0 C0.8971875 0.5259375 0.8971875 0.5259375 1.8125 1.0625 C-2.01739106 2.86480168 -4.96871808 3.25872241 -9.1875 3.0625 C-3.45766129 -1.48185484 -3.45766129 -1.48185484 0 0 Z " fill="#DC7601" transform="translate(565.1875,672.9375)"/>
<path d="M0 0 C-2.3125 2.5 -2.3125 2.5 -5 5 C-5.99 5 -6.98 5 -8 5 C-8 4.01 -8 3.02 -8 2 C-3.71900826 -1.23966942 -3.71900826 -1.23966942 0 0 Z " fill="#D27002" transform="translate(572,706)"/>
<path d="M0 0 C2.64 0.99 5.28 1.98 8 3 C7.67 3.99 7.34 4.98 7 6 C4.0625 5.25 4.0625 5.25 1 4 C0.67 2.68 0.34 1.36 0 0 Z " fill="#D57603" transform="translate(422,692)"/>
<path d="M0 0 C0.66 0 1.32 0 2 0 C2 0.66 2 1.32 2 2 C2.66 2 3.32 2 4 2 C4 2.99 4 3.98 4 5 C5.32 5.33 6.64 5.66 8 6 C4.625 5.75 4.625 5.75 1 5 C-0.4375 2.9375 -0.4375 2.9375 -1 1 C-0.67 0.67 -0.34 0.34 0 0 Z " fill="#F0A804" transform="translate(268,552)"/>
<path d="M0 0 C0 4.46153846 0 4.46153846 -1 7 C-3.5625 9.25 -3.5625 9.25 -6 11 C-5.17857636 6.56431237 -3.17658845 3.17658845 0 0 Z " fill="#D89002" transform="translate(442,306)"/>
<path d="M0 0 C2.97 0.33 5.94 0.66 9 1 C4.78370866 3.10814567 2.60209225 3.17700355 -2 3 C-1.34 2.01 -0.68 1.02 0 0 Z " fill="#D16E01" transform="translate(528,680)"/>
<path d="M0 0 C2.65217391 5.30434783 2.65217391 5.30434783 3 8 C2.01 9.485 2.01 9.485 1 11 C0.34 11 -0.32 11 -1 11 C-0.67 7.37 -0.34 3.74 0 0 Z " fill="#D96C00" transform="translate(506,672)"/>
<path d="M0 0 C0.33 0.66 0.66 1.32 1 2 C-1.31 2.33 -3.62 2.66 -6 3 C-6.66 2.01 -7.32 1.02 -8 0 C-4.97878489 -0.97110486 -2.99536737 -1.13617383 0 0 Z " fill="#CF6C02" transform="translate(489,680)"/>
<path d="M0 0 C0.66 0.33 1.32 0.66 2 1 C1.67 1.99 1.34 2.98 1 4 C-1.5625 5.1875 -1.5625 5.1875 -4 6 C-4 5.01 -4 4.02 -4 3 C-2 1.3125 -2 1.3125 0 0 Z " fill="#D77801" transform="translate(605,649)"/>
<path d="M0 0 C1.65 0 3.3 0 5 0 C3.02 2.31 1.04 4.62 -1 7 C-1 4.37886292 -0.68707555 2.49064888 0 0 Z " fill="#E79E03" transform="translate(483,298)"/>
<path d="M0 0 C2 3 2 3 1.625 5.6875 C1.41875 6.450625 1.2125 7.21375 1 8 C-1 6 -1 6 -1.1875 3.4375 C-1 1 -1 1 0 0 Z " fill="#E59B04" transform="translate(266,545)"/>
<path d="M0 0 C1.98 0 3.96 0 6 0 C4.68 0.33 3.36 0.66 2 1 C1.67 2.32 1.34 3.64 1 5 C-0.32 4.67 -1.64 4.34 -3 4 C-3 3.34 -3 2.68 -3 2 C-2.01 2 -1.02 2 0 2 C0 1.34 0 0.68 0 0 Z " fill="#F5A501" transform="translate(301,465)"/>
</svg>
